<svg xmlns="http://www.w3.org/2000/svg" width="17" height="23" viewBox="0 0 17 23" fill="none"><path d="M13.0574 8.71667C13.0733 8.57153 13.0846 8.44045 13.0771 8.31785C13.0771 8.31767 13.0771 8.3175 13.0771 8.31733C13.077 8.31663 13.077 8.31593 13.077 8.31523L13.32 8.29994L13.3263 8.29954L13.0574 8.71667ZM13.0574 8.71667L13.0504 8.76823M13.0574 8.71667L13.0504 8.76823M13.0504 8.76823C13.0473 8.78363 13.0451 8.79788 13.0437 8.8071L13.0434 8.80863C13.0415 8.82077 13.0407 8.82569 13.0399 8.82963L13.0398 8.82962L13.0389 8.83479C13.0234 8.91744 13.0058 9.00016 12.9859 9.08295C12.9378 9.27868 12.8743 9.4715 12.7972 9.66149L12.7965 9.66319C12.7801 9.7046 12.7618 9.74661 12.7418 9.79206C12.731 9.80614 12.7246 9.81743 12.7232 9.82005L12.723 9.82041C12.7191 9.82723 12.7164 9.8328 12.7151 9.83548C12.7124 9.8411 12.7105 9.84561 12.7098 9.84722L12.7067 9.85493L12.7021 9.86753C12.6971 9.88163 12.6928 9.89306 12.6906 9.89871L13.0504 8.76823ZM3.04075 17.1916C2.60841 17.1057 2.46327 16.7104 2.51784 16.4044L2.52001 16.3922L2.5203 16.3923C2.52139 16.3876 2.52281 16.3803 2.52539 16.3668L2.52704 16.3583L2.52718 16.3583C2.59511 16.0602 2.72609 15.7796 2.86591 15.5276C3.10883 15.085 3.46294 14.6749 3.89178 14.3579L3.89191 14.3578C4.38083 13.9968 4.93644 13.7586 5.52988 13.5968C5.87549 13.5023 6.22697 13.4196 6.5735 13.3381C6.71409 13.305 6.85386 13.2721 6.9921 13.2387C7.59181 13.0914 8.18157 12.9354 8.75553 12.7442L8.75628 12.7439C8.84231 12.7156 8.92418 12.6886 9.00324 12.6599C9.02397 12.6521 9.04422 12.6449 9.06158 12.6388L9.0627 12.6384C9.08175 12.6316 9.09754 12.626 9.11287 12.6202L9.11959 12.6176L9.11963 12.6177C9.12272 12.6166 9.12565 12.6157 9.12827 12.6148C9.13545 12.6118 9.14119 12.6096 9.14486 12.6082L9.1459 12.6079L9.14625 12.6077C9.30166 12.5491 9.45122 12.4919 9.59987 12.4291L9.60106 12.4286L9.60106 12.4286C9.91024 12.2999 10.2115 12.1578 10.5006 12.0004L10.5029 11.9991L10.5029 11.9991C10.6458 11.9233 10.7866 11.8416 10.9232 11.7558C10.9236 11.7556 10.9239 11.7554 10.9243 11.7551L11.0503 11.6743C11.0621 11.6661 11.073 11.6594 11.0793 11.6556L11.0849 11.6518C11.153 11.6048 11.2166 11.5608 11.2774 11.5154L11.2795 11.5138L11.2795 11.5138C11.5546 11.3129 11.8068 11.0914 12.0319 10.8515C12.0409 10.8413 12.0497 10.8319 12.0557 10.8254L12.0567 10.8243C12.0649 10.8155 12.069 10.8111 12.0722 10.8074L12.0774 10.8013L12.0775 10.8014C12.085 10.7933 12.0925 10.7859 12.0996 10.7794C12.1025 10.7757 12.1057 10.7714 12.11 10.7656L12.1106 10.7648C12.1157 10.7579 12.1232 10.7479 12.131 10.738L12.1362 10.7315L12.1363 10.7316C12.1808 10.6792 12.2238 10.6268 12.2638 10.5736C12.3463 10.4629 12.4242 10.3504 12.4977 10.236L12.4979 10.2357C12.5665 10.1292 12.6296 10.0177 12.6892 9.90249L4.06612 16.2548C4.06453 16.258 4.06254 16.262 4.0601 16.267L4.0597 16.2678L4.05756 16.2721L4.05857 16.2726C4.05794 16.274 4.0573 16.2754 4.05667 16.2767M3.04075 17.1916C3.04067 17.1916 3.0406 17.1916 3.04053 17.1916L3.08946 16.9464L3.04075 17.1916ZM3.04075 17.1916C3.20425 17.2242 3.38885 17.2028 3.54415 17.1345C3.69834 17.0666 3.86581 16.931 3.90719 16.7087L3.90746 16.7072C3.93173 16.5722 3.98751 16.4287 4.05667 16.2767M4.05667 16.2767C4.06354 16.2629 4.07294 16.2431 4.07773 16.2325L4.08072 16.2258L4.08073 16.2257C4.08094 16.2253 4.08449 16.2172 4.08785 16.2077C4.08875 16.2052 4.09149 16.1973 4.09414 16.1871C4.09536 16.1824 4.09809 16.1715 4.09998 16.1573C4.09999 16.1572 4.10001 16.157 4.10004 16.1568C4.10045 16.1541 4.10243 16.141 4.10215 16.1217M4.05667 16.2767C4.05566 16.2788 4.0547 16.2807 4.05382 16.2824L4.05271 16.2819M4.10215 16.1217L4.12932 16.1373C4.12974 16.1366 4.13017 16.1359 4.13059 16.1351C4.13102 16.1343 4.13144 16.1336 4.13187 16.1328L4.10202 16.1165M4.10215 16.1217L3.98645 16.0553M4.10215 16.1217C4.10212 16.12 4.10208 16.1183 4.10202 16.1165M4.10202 16.1165C4.10134 16.0971 4.09832 16.0726 4.0897 16.0463C4.07877 16.013 4.04916 15.9487 3.97603 15.9071C3.95899 15.9343 3.94234 15.9617 3.92617 15.9893C3.94785 16.0085 3.96709 16.0299 3.98384 16.0519M4.10202 16.1165L3.98384 16.0519M3.98384 16.0519L3.91251 16.0129L3.98645 16.0553M3.98384 16.0519C3.98472 16.053 3.98559 16.0542 3.98645 16.0553M3.98645 16.0553C4.04063 16.1277 4.06786 16.2054 4.06599 16.229C4.06463 16.2364 4.06247 16.2458 4.06053 16.2536M4.06053 16.2536L3.84368 16.1429C3.84368 16.1429 3.84368 16.1429 3.84368 16.1429L4.05997 16.2558M4.06053 16.2536C4.06034 16.2544 4.06016 16.2551 4.05997 16.2558M4.06053 16.2536L4.06473 16.2557M4.05997 16.2558C4.05895 16.2599 4.05802 16.2633 4.05734 16.2657C4.05725 16.266 4.05717 16.2663 4.05709 16.2665C4.05706 16.2666 4.05703 16.2667 4.05701 16.2668C4.05686 16.2673 4.05671 16.2677 4.05655 16.2682M4.05997 16.2558L4.06352 16.2577M4.05655 16.2682C4.056 16.269 4.05537 16.2698 4.05468 16.2708M4.05655 16.2682C4.05621 16.2692 4.05588 16.2702 4.05555 16.2712M4.05655 16.2682C4.05691 16.2677 4.05725 16.2672 4.05755 16.2668C4.05773 16.2665 4.0579 16.2662 4.05806 16.266C4.05896 16.2647 4.05955 16.2638 4.05981 16.2634L4.05993 16.2632C4.06124 16.2613 4.06244 16.2594 4.06352 16.2577M4.05468 16.2708L3.83113 16.1688L4.04807 16.2795M4.05468 16.2708C4.05289 16.2733 4.05068 16.2762 4.04807 16.2795M4.05468 16.2708L4.05555 16.2712M4.04807 16.2795C4.04365 16.2851 4.03812 16.2916 4.03166 16.2982L4.03143 16.2985C4.02807 16.3021 3.99233 16.3407 3.93242 16.361C3.89665 16.3731 3.82775 16.3865 3.75245 16.3535C3.74543 16.3716 3.73861 16.3897 3.73205 16.408C3.74617 16.4187 3.76119 16.4285 3.77709 16.4368C3.87917 16.433 3.99002 16.3727 4.00717 16.3549C4.01355 16.3473 4.02275 16.3352 4.02577 16.3308C4.03058 16.3237 4.03397 16.3179 4.03469 16.3167L4.03755 16.3117L4.03982 16.3075L4.04213 16.3031L4.04315 16.301L4.05271 16.2819M4.04807 16.2795L4.05181 16.2814M4.05271 16.2819L4.05264 16.2818L4.04615 16.2949L4.04505 16.2971C4.04453 16.2982 4.04444 16.2983 4.04463 16.2979L4.04532 16.2965L4.04814 16.2903L4.05054 16.2846C4.05071 16.2842 4.05116 16.2831 4.05181 16.2814M4.05271 16.2819L4.05181 16.2814M4.06519 16.2566L4.06544 16.2561L4.06473 16.2557M4.06519 16.2566L4.06473 16.2557M4.06519 16.2566L4.06002 16.267L4.05963 16.2678L4.05749 16.2721L4.05555 16.2712M4.06519 16.2566L4.06352 16.2577M4.06473 16.2557C4.06435 16.2564 4.06395 16.257 4.06352 16.2577M4.05555 16.2712L4.05181 16.2814M4.24487 15.5421C4.2508 15.5344 4.26051 15.5218 4.27521 15.5026C4.2494 15.5359 4.22256 15.5686 4.19575 15.6014C4.15785 15.6476 4.11999 15.6938 4.08512 15.7416C4.2235 15.7959 4.38281 15.7551 4.4007 15.741C4.40683 15.7355 4.41571 15.7269 4.41858 15.724C4.41873 15.7238 4.41888 15.7236 4.41903 15.7235C4.42699 15.7137 4.43524 15.7034 4.44384 15.6926M4.24487 15.5421C4.24054 15.5476 4.23761 15.5513 4.23724 15.5518C4.23687 15.5524 4.23903 15.5496 4.24487 15.5421ZM4.24487 15.5421C4.253 15.5317 4.26608 15.5154 4.27639 15.5035L4.36836 15.5747L4.41344 15.6096L4.46375 15.6485M4.46375 15.6485C4.46349 15.6504 4.46323 15.6522 4.46295 15.6538C4.46228 15.6578 4.46156 15.6609 4.46083 15.6632C4.46057 15.664 4.4603 15.6646 4.46005 15.6652C4.45644 15.672 4.45061 15.6821 4.44853 15.6855C4.44672 15.6883 4.44506 15.6908 4.44384 15.6926M4.46375 15.6485C4.46382 15.648 4.46388 15.6475 4.46395 15.647C4.46395 15.647 4.46395 15.647 4.46395 15.647L4.47373 15.6545L4.47288 15.6556M4.46375 15.6485L4.47288 15.6556M4.44384 15.6926C4.44288 15.694 4.44219 15.695 4.44191 15.6954L4.44186 15.6955L4.4395 15.6988L4.43759 15.7014C4.43596 15.7036 4.43563 15.7039 4.43846 15.7003C4.43906 15.6996 4.43972 15.6987 4.44044 15.6978L4.46443 15.6666L4.46966 15.6598L4.47288 15.6556M4.44384 15.6926C4.45047 15.6843 4.45731 15.6756 4.46438 15.6666C4.46612 15.6643 4.46788 15.6621 4.46965 15.6598C4.47072 15.6584 4.4718 15.657 4.47288 15.6556M5.4289 14.9919C5.43124 14.9917 5.43281 14.9916 5.4335 14.9915L5.43383 14.9915C5.44849 14.9902 5.46016 14.9878 5.46258 14.9873L5.47456 14.9847C5.48073 14.9832 5.48686 14.9816 5.49246 14.9801C5.49374 14.9797 5.49505 14.9793 5.49637 14.9789C5.50077 14.9771 5.5041 14.9758 5.50677 14.9748C5.50836 14.9742 5.50951 14.9738 5.51027 14.9735M5.4289 14.9919L5.33773 14.7756M5.4289 14.9919C5.42796 14.992 5.4269 14.992 5.42573 14.9921M5.4289 14.9919L5.43482 15.006C5.4344 15.0061 5.43397 15.0063 5.43355 15.0065C5.43299 15.0067 5.43243 15.007 5.43187 15.0072L5.42573 14.9921M5.33773 14.7756C5.34855 14.7712 5.3596 14.7662 5.37086 14.7611C5.38586 14.7543 5.40125 14.7474 5.41704 14.7414C5.42346 14.7399 5.43515 14.7366 5.44952 14.7317L5.51097 14.9717M5.33773 14.7756C5.28497 14.7978 5.23345 14.8201 5.18318 14.8439C5.19532 14.8711 5.21177 14.895 5.23043 14.9146C5.2879 14.9751 5.35648 14.9866 5.36761 14.9885C5.36797 14.9886 5.36827 14.9886 5.36851 14.9887C5.39311 14.993 5.41457 14.9927 5.42573 14.9921M5.33773 14.7756L5.42573 14.9921M5.51097 14.9717C5.51089 14.9717 5.51082 14.9717 5.51074 14.9718C5.50349 14.9749 5.49801 14.9768 5.49697 14.9771L5.4939 14.9782C5.49384 14.9782 5.49539 14.9777 5.4991 14.9766L5.51027 14.9735M5.51097 14.9717C5.51162 14.9714 5.51248 14.971 5.51352 14.9706C5.51353 14.9706 5.51353 14.9705 5.51354 14.9705L5.51405 14.9725L5.51027 14.9735M5.51097 14.9717L5.51137 14.9732L5.5114 14.9732C5.5114 14.9732 5.51104 14.9733 5.51027 14.9735M4.94084 15.2523L4.81926 15.0429L4.94582 15.2463M4.94084 15.2523C4.93617 15.2577 4.93228 15.2617 4.93017 15.2639C4.92917 15.2649 4.92822 15.2659 4.92731 15.2668C4.92584 15.2682 4.92451 15.2695 4.92339 15.2705C4.9217 15.2721 4.92046 15.2733 4.91987 15.2738L4.91655 15.2767C4.91641 15.2768 4.91634 15.2769 4.91634 15.2769C4.91634 15.2769 4.91833 15.2752 4.92371 15.271L4.92375 15.271L4.92794 15.2675C4.93281 15.2635 4.93795 15.2592 4.94254 15.2552M4.94084 15.2523C4.9416 15.2514 4.94237 15.2505 4.94317 15.2495L4.94338 15.2493C4.94393 15.2486 4.94476 15.2476 4.94582 15.2463M4.94084 15.2523L4.94254 15.2552M4.94254 15.2552L4.94479 15.2591C4.94708 15.2578 4.94935 15.2564 4.9516 15.2551C4.9524 15.2545 4.95277 15.2543 4.95276 15.2543C4.95275 15.2543 4.95224 15.2546 4.95133 15.2552L4.94823 15.2502M4.94254 15.2552C4.94394 15.254 4.94529 15.2528 4.94656 15.2517L4.94823 15.2502M4.94823 15.2502L4.95337 15.2455L4.95351 15.2454C4.95494 15.244 4.96308 15.2364 4.97196 15.2262C4.97476 15.2229 4.97955 15.2172 4.98501 15.2097C4.98903 15.2042 5.00073 15.1879 5.01118 15.1647C5.01301 15.1606 5.01531 15.1552 5.01772 15.1486M4.94823 15.2502L4.94582 15.2463M5.01772 15.1486L5.04547 15.1972C5.04575 15.1971 5.04604 15.1969 5.04632 15.1967C5.04658 15.1966 5.04684 15.1964 5.0471 15.1963L5.01837 15.1468M5.01772 15.1486L4.99961 15.1169M5.01772 15.1486C5.01793 15.148 5.01815 15.1474 5.01837 15.1468M5.01837 15.1468C5.02266 15.1348 5.02721 15.1193 5.03008 15.1009C5.03455 15.0722 5.03789 15.0173 5.00964 14.9567C5.00643 14.9498 5.00305 14.9432 4.99952 14.937C4.98735 14.9435 4.97523 14.9501 4.96316 14.9568C4.99816 15.0126 5.00355 15.0719 5.0002 15.1109C5.00008 15.1123 4.99996 15.1136 4.99983 15.1149M5.01837 15.1468L4.99983 15.1149M4.99983 15.1149L4.92156 14.9801L4.99961 15.1169M4.99983 15.1149C4.99976 15.1156 4.99969 15.1162 4.99961 15.1169M4.99961 15.1169C4.99494 15.1593 4.98049 15.1898 4.97473 15.2013C4.96374 15.2233 4.95151 15.2393 4.94582 15.2463M12.9126 10.0147C12.8888 10.0608 12.8643 10.1066 12.839 10.152C12.8018 10.1384 12.7682 10.1209 12.7462 10.1014C12.7205 10.0629 12.6962 9.99789 12.6923 9.97485C12.6912 9.96399 12.6906 9.94739 12.6906 9.93731L12.8455 9.98103L12.9126 10.0147ZM12.9126 10.0147C12.9145 10.0111 12.9165 10.0066 12.9186 10.0016L12.8496 9.98219L12.9126 10.0147ZM12.3267 10.8936C12.3661 10.8472 12.4056 10.7994 12.4436 10.7501L12.3267 10.8936ZM12.3267 10.8936C12.3214 10.9003 12.3159 10.9077 12.3102 10.9153C12.3004 10.9285 12.29 10.9425 12.2788 10.9552M12.3267 10.8936L12.2788 10.9552M12.2788 10.9552C12.2732 10.9595 12.2666 10.9651 12.2616 10.9705C12.2593 10.9732 12.257 10.9759 12.2546 10.9785L12.2214 10.9359L12.2151 10.9279L12.1027 10.7833M12.2788 10.9552L12.1006 10.7858C12.1006 10.7858 12.1006 10.7858 12.1006 10.7858C12.1014 10.7849 12.1021 10.7841 12.1027 10.7833M12.1027 10.7833C12.1059 10.7798 12.1081 10.7775 12.1089 10.7767L12.1091 10.7765C12.1132 10.7723 12.1162 10.7695 12.1171 10.7686C12.1176 10.7682 12.1179 10.7679 12.1179 10.7679C12.1179 10.7679 12.1134 10.7718 12.1012 10.7813L12.1027 10.7833ZM11.4177 11.7226C11.3681 11.6569 11.3028 11.6042 11.251 11.5934C11.2196 11.595 11.1758 11.6042 11.1632 11.6084C11.1564 11.611 11.1457 11.6155 11.1416 11.6174L11.1322 11.6221L11.1236 11.6269L11.1172 11.6307L11.113 11.6333L11.1112 11.6345L11.1068 11.6374L11.1022 11.6405L11.0913 11.6478L11.0863 11.6511L11.4177 11.7226ZM11.4177 11.7226C11.4061 11.7312 11.3943 11.7398 11.3826 11.7483L11.4177 11.7226ZM4.46539 15.5701L4.51203 15.617C4.51358 15.6154 4.51513 15.6139 4.51668 15.6123C4.5185 15.6103 4.52032 15.6083 4.52214 15.6063L4.46422 15.5546C4.46469 15.5599 4.46508 15.565 4.46539 15.5701ZM4.55233 15.2414C4.56163 15.2535 4.57249 15.2653 4.58514 15.2765C4.65015 15.3342 4.72164 15.3392 4.74731 15.3396C4.75247 15.3396 4.75744 15.3396 4.76217 15.3393C4.76218 15.3393 4.76218 15.3393 4.76218 15.3393C4.78534 15.3383 4.80301 15.3343 4.81162 15.3322C4.83135 15.3273 4.84643 15.3209 4.85268 15.3181C4.85337 15.3178 4.85395 15.3175 4.85441 15.3173C4.85451 15.3173 4.85461 15.3172 4.8547 15.3172C4.86159 15.3141 4.86698 15.3113 4.87003 15.3096C4.87096 15.3091 4.87186 15.3086 4.87272 15.3082C4.88094 15.3019 4.89063 15.2944 4.89918 15.2878C4.90559 15.2829 4.91136 15.2784 4.91541 15.2753C4.91867 15.2728 4.92108 15.271 4.92275 15.2697C4.92491 15.2681 4.92585 15.2674 4.92584 15.2674C4.92584 15.2674 4.92464 15.2683 4.92265 15.2696C4.92036 15.2712 4.91701 15.2734 4.91319 15.2757C4.91079 15.2772 4.90422 15.2812 4.89541 15.2856C4.8911 15.2878 4.8827 15.2919 4.87171 15.2961L4.87152 15.2961C4.86787 15.2975 4.85866 15.301 4.84542 15.3044C4.84473 15.3046 4.84402 15.3048 4.84331 15.3049C4.83147 15.3079 4.81668 15.3106 4.79994 15.3118C4.79209 15.3123 4.76798 15.3132 4.73701 15.3076C4.73701 15.3076 4.737 15.3076 4.737 15.3076C4.69106 15.2991 4.63001 15.276 4.58455 15.2152C4.5737 15.2239 4.56296 15.2326 4.55233 15.2414ZM4.76707 15.074C4.76708 15.074 4.76709 15.074 4.7671 15.074L4.76811 15.0753L4.76707 15.074ZM5.44307 14.7327C5.44515 14.7321 5.44724 14.7316 5.44933 14.731C5.44714 14.7316 5.44505 14.7322 5.44307 14.7327ZM4.46515 15.6673L4.46519 15.6673C4.46581 15.6666 4.46579 15.6666 4.46515 15.6673ZM4.27651 15.9036C4.27704 15.9028 4.27757 15.902 4.27809 15.9012L4.07061 15.7618L4.27498 15.9058C4.27549 15.905 4.276 15.9043 4.27651 15.9036ZM9.25372 12.8344L9.22074 12.8053L9.22065 12.8052L9.16915 12.7598L9.16454 12.7558L9.06509 12.6681L9.25372 12.8344Z" fill="#FFB30F" stroke="#FF8154" stroke-width="0.5"></path><path d="M3.92056 16.795V18.1214C3.92056 18.5272 3.55324 18.7627 3.2156 18.7762L3.92056 16.795ZM3.92056 16.795V13.6096M3.92056 16.795V13.6096M3.92056 13.6096V9.75599M3.92056 13.6096V9.75599M3.92056 9.75599V6.42277M3.92056 9.75599V6.42277M3.92056 6.42277C3.92056 6.2464 3.92184 6.06812 3.92312 5.88881M3.92056 6.42277L3.92312 5.88881M3.92312 5.88881C3.9257 5.52704 3.92832 5.16106 3.92056 4.79804M3.92312 5.88881L3.92056 4.79804M3.92056 4.79804V4.77844C3.92056 4.40709 3.57124 4.10849 3.19549 4.12361C2.86107 4.13707 2.49052 4.3719 2.49052 4.77844V6.10482V9.29018V13.1438V16.477C2.49052 16.6534 2.48924 16.8317 2.48796 17.011C2.48538 17.3728 2.48276 17.7387 2.49052 18.1018V18.1214C2.49052 18.4927 2.83979 18.7913 3.21552 18.7762L3.92056 4.79804Z" fill="#FFB30F" stroke="#FF8154" stroke-width="0.5"></path><mask id="path-3-outside-1_825_436" maskUnits="userSpaceOnUse" x="10.5884" y="3.85693" width="6" height="6" fill="black"><rect fill="white" x="10.5884" y="3.85693" width="6" height="6"></rect><path d="M15.0701 6.78144C15.0701 6.81991 15.0678 6.85636 15.0654 6.89484C15.0631 6.91104 15.0561 6.93736 15.0585 6.95154C15.0561 6.94141 15.0771 6.85434 15.0608 6.92724C15.0445 7.00014 15.0282 7.07102 15.0027 7.13987C14.9957 7.15607 14.9771 7.23504 14.9608 7.24112C14.9608 7.24112 15.012 7.14797 14.9701 7.21884L14.9422 7.26745C14.905 7.33022 14.8632 7.39097 14.8167 7.4497C14.8143 7.45172 14.7888 7.4902 14.7818 7.49222C14.7841 7.49222 14.8562 7.41527 14.7981 7.47197C14.7702 7.4983 14.7446 7.52463 14.7167 7.55095C14.6911 7.57322 14.6655 7.5955 14.64 7.61575C14.626 7.6279 14.6097 7.64005 14.5935 7.65018C14.5307 7.69878 14.5981 7.66638 14.6051 7.6441C14.5911 7.6846 14.44 7.7413 14.4005 7.75953C14.3703 7.7737 14.3377 7.78788 14.3052 7.80205C14.2889 7.80813 14.2261 7.83445 14.2912 7.80813C14.3586 7.7818 14.2749 7.81218 14.261 7.81825C14.1819 7.84255 14.1029 7.8628 14.0192 7.87698C13.9959 7.88103 13.8867 7.88305 13.9564 7.8871C14.0238 7.89115 13.9587 7.88508 13.9378 7.8871C13.9099 7.88913 13.8843 7.89115 13.8564 7.89115C13.7751 7.89318 13.6751 7.8709 13.596 7.88305C13.596 7.88305 13.6914 7.89723 13.6402 7.88913C13.6193 7.88508 13.5984 7.88305 13.5774 7.879C13.5309 7.8709 13.4844 7.86078 13.4403 7.85065C13.4007 7.84053 13.3612 7.8304 13.3217 7.81825C13.3124 7.81623 13.2659 7.80408 13.2636 7.80003C13.2636 7.80003 13.3705 7.84458 13.2891 7.80813C13.2147 7.77573 13.1427 7.74332 13.0752 7.70485C13.0566 7.69472 12.9822 7.66232 12.9753 7.6441C12.9753 7.64612 13.0636 7.7089 12.9985 7.65827C12.9846 7.64612 12.9683 7.636 12.952 7.62385C12.8916 7.57525 12.8381 7.52462 12.7823 7.47197C12.7404 7.43147 12.773 7.48412 12.7986 7.49222C12.7916 7.49019 12.766 7.45172 12.7637 7.44969C12.7404 7.42134 12.7172 7.39097 12.6963 7.36059C12.6777 7.33427 12.6614 7.30592 12.6428 7.27959L12.6149 7.23099C12.573 7.16011 12.6009 7.23504 12.6172 7.24112C12.5847 7.22897 12.5544 7.07911 12.5451 7.04874C12.5358 7.01229 12.5265 6.97786 12.5196 6.94141C12.5149 6.92116 12.5196 6.86851 12.5149 6.92724C12.5103 6.99204 12.5149 6.91306 12.5126 6.89686C12.5056 6.82599 12.5056 6.75511 12.5126 6.68423C12.5149 6.66601 12.5172 6.64778 12.5172 6.62754C12.5219 6.57084 12.501 6.70854 12.5126 6.65184C12.5219 6.61133 12.5289 6.57084 12.5405 6.53034C12.5591 6.46351 12.5893 6.40073 12.6102 6.33593C12.6265 6.28328 12.5707 6.40479 12.5986 6.35821C12.6079 6.34201 12.6149 6.32581 12.6242 6.30961C12.6451 6.27316 12.666 6.23873 12.6916 6.2043C12.7125 6.17393 12.7358 6.14355 12.759 6.1152C12.766 6.1071 12.7869 6.0747 12.7939 6.07268C12.7985 6.07065 12.7311 6.13546 12.7683 6.10306C12.8288 6.04838 12.8823 5.99168 12.9473 5.94105C12.9613 5.9289 12.9776 5.91878 12.9939 5.90663C13.0404 5.87018 12.9799 5.89853 12.9706 5.9208C12.9799 5.90055 13.0357 5.87828 13.0589 5.86613C13.131 5.8236 13.2078 5.78917 13.2868 5.75475C13.3473 5.72842 13.2659 5.75272 13.2612 5.76285C13.2636 5.7588 13.3194 5.74462 13.3194 5.74462C13.3542 5.7345 13.3891 5.72437 13.424 5.71627C13.4635 5.70615 13.5054 5.69805 13.5449 5.68995C13.5658 5.6859 13.5867 5.68185 13.6077 5.67982C13.617 5.6778 13.6286 5.67577 13.6379 5.67577C13.6728 5.67172 13.6588 5.67172 13.5937 5.68185C13.6123 5.65755 13.8006 5.67172 13.8378 5.67375C13.882 5.67577 13.9239 5.67982 13.968 5.68185C14.0331 5.6859 13.875 5.66767 13.9401 5.6778C13.9657 5.68185 13.9913 5.6859 14.0192 5.68995C14.1122 5.70615 14.2005 5.73045 14.2889 5.7588C14.354 5.77905 14.2726 5.74462 14.2633 5.74867C14.2703 5.74665 14.3121 5.76892 14.3191 5.77095C14.3656 5.7912 14.4098 5.81145 14.454 5.83373C14.4888 5.85195 14.5237 5.8722 14.5563 5.89245C14.5586 5.89447 14.6028 5.91675 14.6051 5.92282C14.5563 5.8884 14.5446 5.88232 14.5702 5.90055C14.5818 5.90865 14.5935 5.91675 14.6051 5.92687C14.6748 5.97953 14.7353 6.03825 14.7957 6.09698C14.8097 6.10913 14.8399 6.12736 14.7981 6.09698C14.7469 6.06053 14.8027 6.10306 14.8167 6.11926C14.8422 6.15166 14.8678 6.18608 14.8911 6.22051C14.9143 6.25493 14.9352 6.28936 14.9562 6.32581C14.9562 6.32379 14.9841 6.37036 14.9817 6.37441C14.9887 6.36226 14.9445 6.28733 14.9748 6.36429C15.0073 6.44124 15.0329 6.52021 15.0515 6.60121C15.0561 6.61944 15.0585 6.63766 15.0631 6.65589C15.0747 6.70652 15.0561 6.56881 15.0608 6.64577C15.0654 6.68829 15.0678 6.73487 15.0701 6.78145C15.0724 6.99407 15.2817 7.19658 15.5351 7.18647C15.7862 7.17634 16.0024 7.00827 16.0001 6.78145C15.9908 5.96132 15.4003 5.25051 14.5214 4.96702C13.6844 4.69566 12.6707 4.94069 12.1081 5.54012C11.5175 6.16787 11.4082 7.06294 11.8942 7.76764C12.3824 8.47438 13.3287 8.81864 14.2494 8.66271C15.2631 8.49059 15.9885 7.6684 15.9978 6.78145C16.0001 6.56882 15.7816 6.36631 15.5328 6.37642C15.2793 6.38655 15.0724 6.55462 15.0701 6.78145L15.0701 6.78144Z"></path></mask><path d="M15.0701 6.78144C15.0701 6.81991 15.0678 6.85636 15.0654 6.89484C15.0631 6.91104 15.0561 6.93736 15.0585 6.95154C15.0561 6.94141 15.0771 6.85434 15.0608 6.92724C15.0445 7.00014 15.0282 7.07102 15.0027 7.13987C14.9957 7.15607 14.9771 7.23504 14.9608 7.24112C14.9608 7.24112 15.012 7.14797 14.9701 7.21884L14.9422 7.26745C14.905 7.33022 14.8632 7.39097 14.8167 7.4497C14.8143 7.45172 14.7888 7.4902 14.7818 7.49222C14.7841 7.49222 14.8562 7.41527 14.7981 7.47197C14.7702 7.4983 14.7446 7.52463 14.7167 7.55095C14.6911 7.57322 14.6655 7.5955 14.64 7.61575C14.626 7.6279 14.6097 7.64005 14.5935 7.65018C14.5307 7.69878 14.5981 7.66638 14.6051 7.6441C14.5911 7.6846 14.44 7.7413 14.4005 7.75953C14.3703 7.7737 14.3377 7.78788 14.3052 7.80205C14.2889 7.80813 14.2261 7.83445 14.2912 7.80813C14.3586 7.7818 14.2749 7.81218 14.261 7.81825C14.1819 7.84255 14.1029 7.8628 14.0192 7.87698C13.9959 7.88103 13.8867 7.88305 13.9564 7.8871C14.0238 7.89115 13.9587 7.88508 13.9378 7.8871C13.9099 7.88913 13.8843 7.89115 13.8564 7.89115C13.7751 7.89318 13.6751 7.8709 13.596 7.88305C13.596 7.88305 13.6914 7.89723 13.6402 7.88913C13.6193 7.88508 13.5984 7.88305 13.5774 7.879C13.5309 7.8709 13.4844 7.86078 13.4403 7.85065C13.4007 7.84053 13.3612 7.8304 13.3217 7.81825C13.3124 7.81623 13.2659 7.80408 13.2636 7.80003C13.2636 7.80003 13.3705 7.84458 13.2891 7.80813C13.2147 7.77573 13.1427 7.74332 13.0752 7.70485C13.0566 7.69472 12.9822 7.66232 12.9753 7.6441C12.9753 7.64612 13.0636 7.7089 12.9985 7.65827C12.9846 7.64612 12.9683 7.636 12.952 7.62385C12.8916 7.57525 12.8381 7.52462 12.7823 7.47197C12.7404 7.43147 12.773 7.48412 12.7986 7.49222C12.7916 7.49019 12.766 7.45172 12.7637 7.44969C12.7404 7.42134 12.7172 7.39097 12.6963 7.36059C12.6777 7.33427 12.6614 7.30592 12.6428 7.27959L12.6149 7.23099C12.573 7.16011 12.6009 7.23504 12.6172 7.24112C12.5847 7.22897 12.5544 7.07911 12.5451 7.04874C12.5358 7.01229 12.5265 6.97786 12.5196 6.94141C12.5149 6.92116 12.5196 6.86851 12.5149 6.92724C12.5103 6.99204 12.5149 6.91306 12.5126 6.89686C12.5056 6.82599 12.5056 6.75511 12.5126 6.68423C12.5149 6.66601 12.5172 6.64778 12.5172 6.62754C12.5219 6.57084 12.501 6.70854 12.5126 6.65184C12.5219 6.61133 12.5289 6.57084 12.5405 6.53034C12.5591 6.46351 12.5893 6.40073 12.6102 6.33593C12.6265 6.28328 12.5707 6.40479 12.5986 6.35821C12.6079 6.34201 12.6149 6.32581 12.6242 6.30961C12.6451 6.27316 12.666 6.23873 12.6916 6.2043C12.7125 6.17393 12.7358 6.14355 12.759 6.1152C12.766 6.1071 12.7869 6.0747 12.7939 6.07268C12.7985 6.07065 12.7311 6.13546 12.7683 6.10306C12.8288 6.04838 12.8823 5.99168 12.9473 5.94105C12.9613 5.9289 12.9776 5.91878 12.9939 5.90663C13.0404 5.87018 12.9799 5.89853 12.9706 5.9208C12.9799 5.90055 13.0357 5.87828 13.0589 5.86613C13.131 5.8236 13.2078 5.78917 13.2868 5.75475C13.3473 5.72842 13.2659 5.75272 13.2612 5.76285C13.2636 5.7588 13.3194 5.74462 13.3194 5.74462C13.3542 5.7345 13.3891 5.72437 13.424 5.71627C13.4635 5.70615 13.5054 5.69805 13.5449 5.68995C13.5658 5.6859 13.5867 5.68185 13.6077 5.67982C13.617 5.6778 13.6286 5.67577 13.6379 5.67577C13.6728 5.67172 13.6588 5.67172 13.5937 5.68185C13.6123 5.65755 13.8006 5.67172 13.8378 5.67375C13.882 5.67577 13.9239 5.67982 13.968 5.68185C14.0331 5.6859 13.875 5.66767 13.9401 5.6778C13.9657 5.68185 13.9913 5.6859 14.0192 5.68995C14.1122 5.70615 14.2005 5.73045 14.2889 5.7588C14.354 5.77905 14.2726 5.74462 14.2633 5.74867C14.2703 5.74665 14.3121 5.76892 14.3191 5.77095C14.3656 5.7912 14.4098 5.81145 14.454 5.83373C14.4888 5.85195 14.5237 5.8722 14.5563 5.89245C14.5586 5.89447 14.6028 5.91675 14.6051 5.92282C14.5563 5.8884 14.5446 5.88232 14.5702 5.90055C14.5818 5.90865 14.5935 5.91675 14.6051 5.92687C14.6748 5.97953 14.7353 6.03825 14.7957 6.09698C14.8097 6.10913 14.8399 6.12736 14.7981 6.09698C14.7469 6.06053 14.8027 6.10306 14.8167 6.11926C14.8422 6.15166 14.8678 6.18608 14.8911 6.22051C14.9143 6.25493 14.9352 6.28936 14.9562 6.32581C14.9562 6.32379 14.9841 6.37036 14.9817 6.37441C14.9887 6.36226 14.9445 6.28733 14.9748 6.36429C15.0073 6.44124 15.0329 6.52021 15.0515 6.60121C15.0561 6.61944 15.0585 6.63766 15.0631 6.65589C15.0747 6.70652 15.0561 6.56881 15.0608 6.64577C15.0654 6.68829 15.0678 6.73487 15.0701 6.78145C15.0724 6.99407 15.2817 7.19658 15.5351 7.18647C15.7862 7.17634 16.0024 7.00827 16.0001 6.78145C15.9908 5.96132 15.4003 5.25051 14.5214 4.96702C13.6844 4.69566 12.6707 4.94069 12.1081 5.54012C11.5175 6.16787 11.4082 7.06294 11.8942 7.76764C12.3824 8.47438 13.3287 8.81864 14.2494 8.66271C15.2631 8.49059 15.9885 7.6684 15.9978 6.78145C16.0001 6.56882 15.7816 6.36631 15.5328 6.37642C15.2793 6.38655 15.0724 6.55462 15.0701 6.78145L15.0701 6.78144Z" fill="#FFB30F"></path><path d="M15.0701 6.78144C15.0701 6.81991 15.0678 6.85636 15.0654 6.89484C15.0631 6.91104 15.0561 6.93736 15.0585 6.95154C15.0561 6.94141 15.0771 6.85434 15.0608 6.92724C15.0445 7.00014 15.0282 7.07102 15.0027 7.13987C14.9957 7.15607 14.9771 7.23504 14.9608 7.24112C14.9608 7.24112 15.012 7.14797 14.9701 7.21884L14.9422 7.26745C14.905 7.33022 14.8632 7.39097 14.8167 7.4497C14.8143 7.45172 14.7888 7.4902 14.7818 7.49222C14.7841 7.49222 14.8562 7.41527 14.7981 7.47197C14.7702 7.4983 14.7446 7.52463 14.7167 7.55095C14.6911 7.57322 14.6655 7.5955 14.64 7.61575C14.626 7.6279 14.6097 7.64005 14.5935 7.65018C14.5307 7.69878 14.5981 7.66638 14.6051 7.6441C14.5911 7.6846 14.44 7.7413 14.4005 7.75953C14.3703 7.7737 14.3377 7.78788 14.3052 7.80205C14.2889 7.80813 14.2261 7.83445 14.2912 7.80813C14.3586 7.7818 14.2749 7.81218 14.261 7.81825C14.1819 7.84255 14.1029 7.8628 14.0192 7.87698C13.9959 7.88103 13.8867 7.88305 13.9564 7.8871C14.0238 7.89115 13.9587 7.88508 13.9378 7.8871C13.9099 7.88913 13.8843 7.89115 13.8564 7.89115C13.7751 7.89318 13.6751 7.8709 13.596 7.88305C13.596 7.88305 13.6914 7.89723 13.6402 7.88913C13.6193 7.88508 13.5984 7.88305 13.5774 7.879C13.5309 7.8709 13.4844 7.86078 13.4403 7.85065C13.4007 7.84053 13.3612 7.8304 13.3217 7.81825C13.3124 7.81623 13.2659 7.80408 13.2636 7.80003C13.2636 7.80003 13.3705 7.84458 13.2891 7.80813C13.2147 7.77573 13.1427 7.74332 13.0752 7.70485C13.0566 7.69472 12.9822 7.66232 12.9753 7.6441C12.9753 7.64612 13.0636 7.7089 12.9985 7.65827C12.9846 7.64612 12.9683 7.636 12.952 7.62385C12.8916 7.57525 12.8381 7.52462 12.7823 7.47197C12.7404 7.43147 12.773 7.48412 12.7986 7.49222C12.7916 7.49019 12.766 7.45172 12.7637 7.44969C12.7404 7.42134 12.7172 7.39097 12.6963 7.36059C12.6777 7.33427 12.6614 7.30592 12.6428 7.27959L12.6149 7.23099C12.573 7.16011 12.6009 7.23504 12.6172 7.24112C12.5847 7.22897 12.5544 7.07911 12.5451 7.04874C12.5358 7.01229 12.5265 6.97786 12.5196 6.94141C12.5149 6.92116 12.5196 6.86851 12.5149 6.92724C12.5103 6.99204 12.5149 6.91306 12.5126 6.89686C12.5056 6.82599 12.5056 6.75511 12.5126 6.68423C12.5149 6.66601 12.5172 6.64778 12.5172 6.62754C12.5219 6.57084 12.501 6.70854 12.5126 6.65184C12.5219 6.61133 12.5289 6.57084 12.5405 6.53034C12.5591 6.46351 12.5893 6.40073 12.6102 6.33593C12.6265 6.28328 12.5707 6.40479 12.5986 6.35821C12.6079 6.34201 12.6149 6.32581 12.6242 6.30961C12.6451 6.27316 12.666 6.23873 12.6916 6.2043C12.7125 6.17393 12.7358 6.14355 12.759 6.1152C12.766 6.1071 12.7869 6.0747 12.7939 6.07268C12.7985 6.07065 12.7311 6.13546 12.7683 6.10306C12.8288 6.04838 12.8823 5.99168 12.9473 5.94105C12.9613 5.9289 12.9776 5.91878 12.9939 5.90663C13.0404 5.87018 12.9799 5.89853 12.9706 5.9208C12.9799 5.90055 13.0357 5.87828 13.0589 5.86613C13.131 5.8236 13.2078 5.78917 13.2868 5.75475C13.3473 5.72842 13.2659 5.75272 13.2612 5.76285C13.2636 5.7588 13.3194 5.74462 13.3194 5.74462C13.3542 5.7345 13.3891 5.72437 13.424 5.71627C13.4635 5.70615 13.5054 5.69805 13.5449 5.68995C13.5658 5.6859 13.5867 5.68185 13.6077 5.67982C13.617 5.6778 13.6286 5.67577 13.6379 5.67577C13.6728 5.67172 13.6588 5.67172 13.5937 5.68185C13.6123 5.65755 13.8006 5.67172 13.8378 5.67375C13.882 5.67577 13.9239 5.67982 13.968 5.68185C14.0331 5.6859 13.875 5.66767 13.9401 5.6778C13.9657 5.68185 13.9913 5.6859 14.0192 5.68995C14.1122 5.70615 14.2005 5.73045 14.2889 5.7588C14.354 5.77905 14.2726 5.74462 14.2633 5.74867C14.2703 5.74665 14.3121 5.76892 14.3191 5.77095C14.3656 5.7912 14.4098 5.81145 14.454 5.83373C14.4888 5.85195 14.5237 5.8722 14.5563 5.89245C14.5586 5.89447 14.6028 5.91675 14.6051 5.92282C14.5563 5.8884 14.5446 5.88232 14.5702 5.90055C14.5818 5.90865 14.5935 5.91675 14.6051 5.92687C14.6748 5.97953 14.7353 6.03825 14.7957 6.09698C14.8097 6.10913 14.8399 6.12736 14.7981 6.09698C14.7469 6.06053 14.8027 6.10306 14.8167 6.11926C14.8422 6.15166 14.8678 6.18608 14.8911 6.22051C14.9143 6.25493 14.9352 6.28936 14.9562 6.32581C14.9562 6.32379 14.9841 6.37036 14.9817 6.37441C14.9887 6.36226 14.9445 6.28733 14.9748 6.36429C15.0073 6.44124 15.0329 6.52021 15.0515 6.60121C15.0561 6.61944 15.0585 6.63766 15.0631 6.65589C15.0747 6.70652 15.0561 6.56881 15.0608 6.64577C15.0654 6.68829 15.0678 6.73487 15.0701 6.78145C15.0724 6.99407 15.2817 7.19658 15.5351 7.18647C15.7862 7.17634 16.0024 7.00827 16.0001 6.78145C15.9908 5.96132 15.4003 5.25051 14.5214 4.96702C13.6844 4.69566 12.6707 4.94069 12.1081 5.54012C11.5175 6.16787 11.4082 7.06294 11.8942 7.76764C12.3824 8.47438 13.3287 8.81864 14.2494 8.66271C15.2631 8.49059 15.9885 7.6684 15.9978 6.78145C16.0001 6.56882 15.7816 6.36631 15.5328 6.37642C15.2793 6.38655 15.0724 6.55462 15.0701 6.78145L15.0701 6.78144Z" stroke="#FF8154" mask="url(#path-3-outside-1_825_436)"></path><mask id="path-4-outside-2_825_436" maskUnits="userSpaceOnUse" x="0" y="0.333008" width="6" height="6" fill="black"><rect fill="white" y="0.333008" width="6" height="6"></rect><path d="M4.48172 3.25751C4.48172 3.29599 4.47939 3.33244 4.47707 3.37091C4.47474 3.38711 4.46777 3.41344 4.47009 3.42761C4.46777 3.41749 4.48869 3.33041 4.47242 3.40331C4.45614 3.47622 4.43987 3.54709 4.41429 3.61594C4.40732 3.63214 4.38872 3.71112 4.37244 3.71719C4.37244 3.71719 4.42359 3.62404 4.38174 3.69492L4.35384 3.74352C4.31664 3.8063 4.27479 3.86705 4.22829 3.92577C4.22597 3.9278 4.20039 3.96628 4.19341 3.9683C4.19574 3.9683 4.26782 3.89135 4.20969 3.94805C4.18179 3.97437 4.15622 4.0007 4.12831 4.02702C4.10274 4.0493 4.07716 4.07157 4.05159 4.09182C4.03764 4.10397 4.02136 4.11612 4.00509 4.12625C3.94231 4.17485 4.00974 4.14245 4.01671 4.12017C4.00276 4.16068 3.85164 4.21738 3.81211 4.2356C3.78189 4.24978 3.74933 4.26395 3.71678 4.27813C3.70051 4.2842 3.63773 4.31053 3.70283 4.2842C3.77026 4.25788 3.68656 4.28825 3.67261 4.29433C3.59356 4.31863 3.51451 4.33888 3.43081 4.35305C3.40756 4.3571 3.29828 4.35913 3.36803 4.36318C3.43546 4.36723 3.37036 4.36115 3.34943 4.36318C3.32153 4.3652 3.29596 4.36723 3.26806 4.36723C3.18668 4.36925 3.08671 4.34698 3.00765 4.35913C3.00765 4.35913 3.10298 4.3733 3.05183 4.3652C3.03091 4.36115 3.00998 4.35913 2.98905 4.35508C2.94255 4.34698 2.89605 4.33685 2.85188 4.32673C2.81235 4.3166 2.77283 4.30648 2.7333 4.29432C2.724 4.2923 2.6775 4.28015 2.67517 4.2761C2.67517 4.2761 2.78212 4.32065 2.70075 4.2842C2.62635 4.2518 2.55428 4.2194 2.48685 4.18092C2.46825 4.1708 2.39385 4.1384 2.38687 4.12017C2.38687 4.1222 2.47522 4.18497 2.41013 4.13435C2.39618 4.1222 2.3799 4.11207 2.36362 4.09992C2.30317 4.05132 2.2497 4.00069 2.1939 3.94804C2.15205 3.90754 2.1846 3.96019 2.21017 3.96829C2.2032 3.96627 2.17762 3.92779 2.1753 3.92577C2.15205 3.89742 2.1288 3.86704 2.10787 3.83667C2.08927 3.81034 2.073 3.78199 2.0544 3.75567L2.0265 3.70707C1.98465 3.63619 2.01255 3.71112 2.02882 3.71719C1.99627 3.70504 1.96605 3.55519 1.95675 3.52481C1.94745 3.48836 1.93815 3.45394 1.93117 3.41749C1.92652 3.39724 1.93117 3.34459 1.92652 3.40331C1.92187 3.46811 1.92652 3.38914 1.9242 3.37294C1.91722 3.30206 1.91722 3.23119 1.9242 3.16031C1.92652 3.14208 1.92885 3.12386 1.92885 3.10361C1.9335 3.04691 1.91257 3.18461 1.9242 3.12791C1.9335 3.08741 1.94047 3.04691 1.9521 3.00641C1.9707 2.93958 2.00092 2.87681 2.02185 2.81201C2.03812 2.75936 1.98232 2.88086 2.01022 2.83428C2.01952 2.81808 2.0265 2.80188 2.0358 2.78568C2.05672 2.74923 2.07765 2.7148 2.10322 2.68038C2.12415 2.65 2.1474 2.61963 2.17064 2.59128C2.17762 2.58318 2.19855 2.55078 2.20552 2.54875C2.21017 2.54673 2.14274 2.61153 2.17994 2.57913C2.2404 2.52445 2.29387 2.46775 2.35897 2.41713C2.37292 2.40498 2.38919 2.39485 2.40547 2.3827C2.45197 2.34625 2.39152 2.3746 2.38222 2.39688C2.39152 2.37663 2.44732 2.35435 2.47057 2.3422C2.54264 2.29967 2.61937 2.26525 2.69842 2.23082C2.75887 2.2045 2.6775 2.2288 2.67285 2.23892C2.67517 2.23487 2.73097 2.2207 2.73097 2.2207C2.76585 2.21057 2.80072 2.20045 2.8356 2.19235C2.87512 2.18222 2.91697 2.17412 2.9565 2.16602C2.97742 2.16197 2.99835 2.15792 3.01928 2.1559C3.02858 2.15387 3.0402 2.15185 3.0495 2.15185C3.08438 2.1478 3.07043 2.1478 3.00532 2.15792C3.02392 2.13362 3.21225 2.1478 3.24945 2.14982C3.29363 2.15185 3.33547 2.1559 3.37965 2.15792C3.44475 2.16197 3.28665 2.14375 3.35175 2.15387C3.37733 2.15792 3.4029 2.16197 3.4308 2.16602C3.5238 2.18222 3.61215 2.20652 3.7005 2.23487C3.7656 2.25512 3.68423 2.2207 3.67493 2.22475C3.6819 2.22272 3.72375 2.245 3.73073 2.24702C3.77723 2.26727 3.8214 2.28753 3.86558 2.3098C3.90045 2.32802 3.93533 2.34828 3.96788 2.36852C3.9702 2.37055 4.01438 2.39282 4.0167 2.3989C3.96788 2.36447 3.95625 2.3584 3.98183 2.37662C3.99345 2.38472 4.00508 2.39282 4.0167 2.40295C4.08645 2.4556 4.1469 2.51433 4.20735 2.57305C4.2213 2.5852 4.25153 2.60343 4.20968 2.57305C4.15853 2.5366 4.21433 2.57913 4.22828 2.59533C4.25385 2.62773 4.27943 2.66216 4.30268 2.69658C4.32593 2.73101 4.34686 2.76543 4.36778 2.80189C4.36778 2.79986 4.39568 2.84644 4.39335 2.85049C4.40033 2.83834 4.35615 2.76341 4.38638 2.84036C4.41893 2.91731 4.4445 2.99629 4.4631 3.07729C4.46775 3.09551 4.47008 3.11374 4.47473 3.13197C4.48635 3.18259 4.46775 3.04489 4.4724 3.12184C4.47705 3.16436 4.4817 3.21094 4.4817 3.25752C4.48403 3.47015 4.69328 3.67265 4.94673 3.66254C5.19782 3.65242 5.41404 3.48434 5.41175 3.25752C5.40477 2.4374 4.81191 1.72658 3.93305 1.44309C3.09603 1.17174 2.08236 1.41676 1.51968 2.01619C0.929116 2.64395 0.819854 3.53901 1.30579 4.24372C1.79402 4.95046 2.74031 5.29472 3.661 5.13879C4.67471 4.96666 5.40009 4.14448 5.4094 3.25752C5.41173 3.04489 5.19318 2.84238 4.94438 2.85249C4.69328 2.86262 4.48403 3.0307 4.48169 3.25752L4.48172 3.25751Z"></path></mask><path d="M4.48172 3.25751C4.48172 3.29599 4.47939 3.33244 4.47707 3.37091C4.47474 3.38711 4.46777 3.41344 4.47009 3.42761C4.46777 3.41749 4.48869 3.33041 4.47242 3.40331C4.45614 3.47622 4.43987 3.54709 4.41429 3.61594C4.40732 3.63214 4.38872 3.71112 4.37244 3.71719C4.37244 3.71719 4.42359 3.62404 4.38174 3.69492L4.35384 3.74352C4.31664 3.8063 4.27479 3.86705 4.22829 3.92577C4.22597 3.9278 4.20039 3.96628 4.19341 3.9683C4.19574 3.9683 4.26782 3.89135 4.20969 3.94805C4.18179 3.97437 4.15622 4.0007 4.12831 4.02702C4.10274 4.0493 4.07716 4.07157 4.05159 4.09182C4.03764 4.10397 4.02136 4.11612 4.00509 4.12625C3.94231 4.17485 4.00974 4.14245 4.01671 4.12017C4.00276 4.16068 3.85164 4.21738 3.81211 4.2356C3.78189 4.24978 3.74933 4.26395 3.71678 4.27813C3.70051 4.2842 3.63773 4.31053 3.70283 4.2842C3.77026 4.25788 3.68656 4.28825 3.67261 4.29433C3.59356 4.31863 3.51451 4.33888 3.43081 4.35305C3.40756 4.3571 3.29828 4.35913 3.36803 4.36318C3.43546 4.36723 3.37036 4.36115 3.34943 4.36318C3.32153 4.3652 3.29596 4.36723 3.26806 4.36723C3.18668 4.36925 3.08671 4.34698 3.00765 4.35913C3.00765 4.35913 3.10298 4.3733 3.05183 4.3652C3.03091 4.36115 3.00998 4.35913 2.98905 4.35508C2.94255 4.34698 2.89605 4.33685 2.85188 4.32673C2.81235 4.3166 2.77283 4.30648 2.7333 4.29432C2.724 4.2923 2.6775 4.28015 2.67517 4.2761C2.67517 4.2761 2.78212 4.32065 2.70075 4.2842C2.62635 4.2518 2.55428 4.2194 2.48685 4.18092C2.46825 4.1708 2.39385 4.1384 2.38687 4.12017C2.38687 4.1222 2.47522 4.18497 2.41013 4.13435C2.39618 4.1222 2.3799 4.11207 2.36362 4.09992C2.30317 4.05132 2.2497 4.00069 2.1939 3.94804C2.15205 3.90754 2.1846 3.96019 2.21017 3.96829C2.2032 3.96627 2.17762 3.92779 2.1753 3.92577C2.15205 3.89742 2.1288 3.86704 2.10787 3.83667C2.08927 3.81034 2.073 3.78199 2.0544 3.75567L2.0265 3.70707C1.98465 3.63619 2.01255 3.71112 2.02882 3.71719C1.99627 3.70504 1.96605 3.55519 1.95675 3.52481C1.94745 3.48836 1.93815 3.45394 1.93117 3.41749C1.92652 3.39724 1.93117 3.34459 1.92652 3.40331C1.92187 3.46811 1.92652 3.38914 1.9242 3.37294C1.91722 3.30206 1.91722 3.23119 1.9242 3.16031C1.92652 3.14208 1.92885 3.12386 1.92885 3.10361C1.9335 3.04691 1.91257 3.18461 1.9242 3.12791C1.9335 3.08741 1.94047 3.04691 1.9521 3.00641C1.9707 2.93958 2.00092 2.87681 2.02185 2.81201C2.03812 2.75936 1.98232 2.88086 2.01022 2.83428C2.01952 2.81808 2.0265 2.80188 2.0358 2.78568C2.05672 2.74923 2.07765 2.7148 2.10322 2.68038C2.12415 2.65 2.1474 2.61963 2.17064 2.59128C2.17762 2.58318 2.19855 2.55078 2.20552 2.54875C2.21017 2.54673 2.14274 2.61153 2.17994 2.57913C2.2404 2.52445 2.29387 2.46775 2.35897 2.41713C2.37292 2.40498 2.38919 2.39485 2.40547 2.3827C2.45197 2.34625 2.39152 2.3746 2.38222 2.39688C2.39152 2.37663 2.44732 2.35435 2.47057 2.3422C2.54264 2.29967 2.61937 2.26525 2.69842 2.23082C2.75887 2.2045 2.6775 2.2288 2.67285 2.23892C2.67517 2.23487 2.73097 2.2207 2.73097 2.2207C2.76585 2.21057 2.80072 2.20045 2.8356 2.19235C2.87512 2.18222 2.91697 2.17412 2.9565 2.16602C2.97742 2.16197 2.99835 2.15792 3.01928 2.1559C3.02858 2.15387 3.0402 2.15185 3.0495 2.15185C3.08438 2.1478 3.07043 2.1478 3.00532 2.15792C3.02392 2.13362 3.21225 2.1478 3.24945 2.14982C3.29363 2.15185 3.33547 2.1559 3.37965 2.15792C3.44475 2.16197 3.28665 2.14375 3.35175 2.15387C3.37733 2.15792 3.4029 2.16197 3.4308 2.16602C3.5238 2.18222 3.61215 2.20652 3.7005 2.23487C3.7656 2.25512 3.68423 2.2207 3.67493 2.22475C3.6819 2.22272 3.72375 2.245 3.73073 2.24702C3.77723 2.26727 3.8214 2.28753 3.86558 2.3098C3.90045 2.32802 3.93533 2.34828 3.96788 2.36852C3.9702 2.37055 4.01438 2.39282 4.0167 2.3989C3.96788 2.36447 3.95625 2.3584 3.98183 2.37662C3.99345 2.38472 4.00508 2.39282 4.0167 2.40295C4.08645 2.4556 4.1469 2.51433 4.20735 2.57305C4.2213 2.5852 4.25153 2.60343 4.20968 2.57305C4.15853 2.5366 4.21433 2.57913 4.22828 2.59533C4.25385 2.62773 4.27943 2.66216 4.30268 2.69658C4.32593 2.73101 4.34686 2.76543 4.36778 2.80189C4.36778 2.79986 4.39568 2.84644 4.39335 2.85049C4.40033 2.83834 4.35615 2.76341 4.38638 2.84036C4.41893 2.91731 4.4445 2.99629 4.4631 3.07729C4.46775 3.09551 4.47008 3.11374 4.47473 3.13197C4.48635 3.18259 4.46775 3.04489 4.4724 3.12184C4.47705 3.16436 4.4817 3.21094 4.4817 3.25752C4.48403 3.47015 4.69328 3.67265 4.94673 3.66254C5.19782 3.65242 5.41404 3.48434 5.41175 3.25752C5.40477 2.4374 4.81191 1.72658 3.93305 1.44309C3.09603 1.17174 2.08236 1.41676 1.51968 2.01619C0.929116 2.64395 0.819854 3.53901 1.30579 4.24372C1.79402 4.95046 2.74031 5.29472 3.661 5.13879C4.67471 4.96666 5.40009 4.14448 5.4094 3.25752C5.41173 3.04489 5.19318 2.84238 4.94438 2.85249C4.69328 2.86262 4.48403 3.0307 4.48169 3.25752L4.48172 3.25751Z" fill="#FFB30F"></path><path d="M4.48172 3.25751C4.48172 3.29599 4.47939 3.33244 4.47707 3.37091C4.47474 3.38711 4.46777 3.41344 4.47009 3.42761C4.46777 3.41749 4.48869 3.33041 4.47242 3.40331C4.45614 3.47622 4.43987 3.54709 4.41429 3.61594C4.40732 3.63214 4.38872 3.71112 4.37244 3.71719C4.37244 3.71719 4.42359 3.62404 4.38174 3.69492L4.35384 3.74352C4.31664 3.8063 4.27479 3.86705 4.22829 3.92577C4.22597 3.9278 4.20039 3.96628 4.19341 3.9683C4.19574 3.9683 4.26782 3.89135 4.20969 3.94805C4.18179 3.97437 4.15622 4.0007 4.12831 4.02702C4.10274 4.0493 4.07716 4.07157 4.05159 4.09182C4.03764 4.10397 4.02136 4.11612 4.00509 4.12625C3.94231 4.17485 4.00974 4.14245 4.01671 4.12017C4.00276 4.16068 3.85164 4.21738 3.81211 4.2356C3.78189 4.24978 3.74933 4.26395 3.71678 4.27813C3.70051 4.2842 3.63773 4.31053 3.70283 4.2842C3.77026 4.25788 3.68656 4.28825 3.67261 4.29433C3.59356 4.31863 3.51451 4.33888 3.43081 4.35305C3.40756 4.3571 3.29828 4.35913 3.36803 4.36318C3.43546 4.36723 3.37036 4.36115 3.34943 4.36318C3.32153 4.3652 3.29596 4.36723 3.26806 4.36723C3.18668 4.36925 3.08671 4.34698 3.00765 4.35913C3.00765 4.35913 3.10298 4.3733 3.05183 4.3652C3.03091 4.36115 3.00998 4.35913 2.98905 4.35508C2.94255 4.34698 2.89605 4.33685 2.85188 4.32673C2.81235 4.3166 2.77283 4.30648 2.7333 4.29432C2.724 4.2923 2.6775 4.28015 2.67517 4.2761C2.67517 4.2761 2.78212 4.32065 2.70075 4.2842C2.62635 4.2518 2.55428 4.2194 2.48685 4.18092C2.46825 4.1708 2.39385 4.1384 2.38687 4.12017C2.38687 4.1222 2.47522 4.18497 2.41013 4.13435C2.39618 4.1222 2.3799 4.11207 2.36362 4.09992C2.30317 4.05132 2.2497 4.00069 2.1939 3.94804C2.15205 3.90754 2.1846 3.96019 2.21017 3.96829C2.2032 3.96627 2.17762 3.92779 2.1753 3.92577C2.15205 3.89742 2.1288 3.86704 2.10787 3.83667C2.08927 3.81034 2.073 3.78199 2.0544 3.75567L2.0265 3.70707C1.98465 3.63619 2.01255 3.71112 2.02882 3.71719C1.99627 3.70504 1.96605 3.55519 1.95675 3.52481C1.94745 3.48836 1.93815 3.45394 1.93117 3.41749C1.92652 3.39724 1.93117 3.34459 1.92652 3.40331C1.92187 3.46811 1.92652 3.38914 1.9242 3.37294C1.91722 3.30206 1.91722 3.23119 1.9242 3.16031C1.92652 3.14208 1.92885 3.12386 1.92885 3.10361C1.9335 3.04691 1.91257 3.18461 1.9242 3.12791C1.9335 3.08741 1.94047 3.04691 1.9521 3.00641C1.9707 2.93958 2.00092 2.87681 2.02185 2.81201C2.03812 2.75936 1.98232 2.88086 2.01022 2.83428C2.01952 2.81808 2.0265 2.80188 2.0358 2.78568C2.05672 2.74923 2.07765 2.7148 2.10322 2.68038C2.12415 2.65 2.1474 2.61963 2.17064 2.59128C2.17762 2.58318 2.19855 2.55078 2.20552 2.54875C2.21017 2.54673 2.14274 2.61153 2.17994 2.57913C2.2404 2.52445 2.29387 2.46775 2.35897 2.41713C2.37292 2.40498 2.38919 2.39485 2.40547 2.3827C2.45197 2.34625 2.39152 2.3746 2.38222 2.39688C2.39152 2.37663 2.44732 2.35435 2.47057 2.3422C2.54264 2.29967 2.61937 2.26525 2.69842 2.23082C2.75887 2.2045 2.6775 2.2288 2.67285 2.23892C2.67517 2.23487 2.73097 2.2207 2.73097 2.2207C2.76585 2.21057 2.80072 2.20045 2.8356 2.19235C2.87512 2.18222 2.91697 2.17412 2.9565 2.16602C2.97742 2.16197 2.99835 2.15792 3.01928 2.1559C3.02858 2.15387 3.0402 2.15185 3.0495 2.15185C3.08438 2.1478 3.07043 2.1478 3.00532 2.15792C3.02392 2.13362 3.21225 2.1478 3.24945 2.14982C3.29363 2.15185 3.33547 2.1559 3.37965 2.15792C3.44475 2.16197 3.28665 2.14375 3.35175 2.15387C3.37733 2.15792 3.4029 2.16197 3.4308 2.16602C3.5238 2.18222 3.61215 2.20652 3.7005 2.23487C3.7656 2.25512 3.68423 2.2207 3.67493 2.22475C3.6819 2.22272 3.72375 2.245 3.73073 2.24702C3.77723 2.26727 3.8214 2.28753 3.86558 2.3098C3.90045 2.32802 3.93533 2.34828 3.96788 2.36852C3.9702 2.37055 4.01438 2.39282 4.0167 2.3989C3.96788 2.36447 3.95625 2.3584 3.98183 2.37662C3.99345 2.38472 4.00508 2.39282 4.0167 2.40295C4.08645 2.4556 4.1469 2.51433 4.20735 2.57305C4.2213 2.5852 4.25153 2.60343 4.20968 2.57305C4.15853 2.5366 4.21433 2.57913 4.22828 2.59533C4.25385 2.62773 4.27943 2.66216 4.30268 2.69658C4.32593 2.73101 4.34686 2.76543 4.36778 2.80189C4.36778 2.79986 4.39568 2.84644 4.39335 2.85049C4.40033 2.83834 4.35615 2.76341 4.38638 2.84036C4.41893 2.91731 4.4445 2.99629 4.4631 3.07729C4.46775 3.09551 4.47008 3.11374 4.47473 3.13197C4.48635 3.18259 4.46775 3.04489 4.4724 3.12184C4.47705 3.16436 4.4817 3.21094 4.4817 3.25752C4.48403 3.47015 4.69328 3.67265 4.94673 3.66254C5.19782 3.65242 5.41404 3.48434 5.41175 3.25752C5.40477 2.4374 4.81191 1.72658 3.93305 1.44309C3.09603 1.17174 2.08236 1.41676 1.51968 2.01619C0.929116 2.64395 0.819854 3.53901 1.30579 4.24372C1.79402 4.95046 2.74031 5.29472 3.661 5.13879C4.67471 4.96666 5.40009 4.14448 5.4094 3.25752C5.41173 3.04489 5.19318 2.84238 4.94438 2.85249C4.69328 2.86262 4.48403 3.0307 4.48169 3.25752L4.48172 3.25751Z" stroke="#FF8154" mask="url(#path-4-outside-2_825_436)"></path><mask id="path-5-outside-3_825_436" maskUnits="userSpaceOnUse" x="0.00927734" y="16.7153" width="6" height="6" fill="black"><rect fill="white" x="0.00927734" y="16.7153" width="6" height="6"></rect><path d="M4.49099 19.6398C4.49099 19.6783 4.48867 19.7148 4.48634 19.7532C4.48402 19.7694 4.47704 19.7958 4.47937 19.8099C4.47704 19.7998 4.49797 19.7127 4.48169 19.7856C4.46542 19.8585 4.44914 19.9294 4.42357 19.9983C4.41659 20.0145 4.39799 20.0934 4.38172 20.0995C4.38172 20.0995 4.43287 20.0064 4.39102 20.0772L4.36312 20.1258C4.32592 20.1886 4.28407 20.2494 4.23757 20.3081C4.23524 20.3101 4.20967 20.3486 4.20269 20.3506C4.20502 20.3506 4.27709 20.2737 4.21897 20.3304C4.19107 20.3567 4.16549 20.383 4.13759 20.4093C4.11202 20.4316 4.08644 20.4539 4.06087 20.4741C4.04692 20.4863 4.03064 20.4984 4.01436 20.5086C3.95159 20.5572 4.01901 20.5248 4.02599 20.5025C4.01204 20.543 3.86091 20.5997 3.82139 20.6179C3.79116 20.6321 3.75861 20.6463 3.72606 20.6605C3.70979 20.6665 3.64701 20.6929 3.71211 20.6665C3.77954 20.6402 3.69584 20.6706 3.68189 20.6767C3.60284 20.701 3.52378 20.7212 3.44009 20.7354C3.41684 20.7394 3.30756 20.7415 3.37731 20.7455C3.44473 20.7496 3.37963 20.7435 3.35871 20.7455C3.33081 20.7475 3.30523 20.7496 3.27733 20.7496C3.19596 20.7516 3.09598 20.7293 3.01693 20.7415C3.01693 20.7415 3.11226 20.7556 3.06111 20.7475C3.04018 20.7435 3.01926 20.7415 2.99833 20.7374C2.95183 20.7293 2.90533 20.7192 2.86116 20.709C2.82163 20.6989 2.7821 20.6888 2.74258 20.6766C2.73328 20.6746 2.68678 20.6625 2.68445 20.6584C2.68445 20.6584 2.7914 20.703 2.71003 20.6665C2.63563 20.6341 2.56355 20.6017 2.49613 20.5632C2.47753 20.5531 2.40313 20.5207 2.39615 20.5025C2.39615 20.5045 2.4845 20.5673 2.4194 20.5167C2.40545 20.5045 2.38918 20.4944 2.3729 20.4822C2.31245 20.4336 2.25897 20.383 2.20317 20.3304C2.16132 20.2899 2.19387 20.3425 2.21945 20.3506C2.21247 20.3486 2.1869 20.3101 2.18457 20.3081C2.16132 20.2797 2.13807 20.2494 2.11715 20.219C2.09855 20.1927 2.08228 20.1643 2.06368 20.138L2.03578 20.0894C1.99393 20.0185 2.02183 20.0934 2.0381 20.0995C2.00555 20.0874 1.97532 19.9375 1.96603 19.9071C1.95673 19.8707 1.94743 19.8363 1.94045 19.7998C1.9358 19.7796 1.94045 19.7269 1.9358 19.7856C1.93115 19.8504 1.9358 19.7715 1.93348 19.7553C1.9265 19.6844 1.9265 19.6135 1.93348 19.5426C1.9358 19.5244 1.93813 19.5062 1.93813 19.4859C1.94278 19.4292 1.92185 19.5669 1.93348 19.5102C1.94278 19.4697 1.94975 19.4292 1.96138 19.3887C1.97998 19.3219 2.0102 19.2591 2.03113 19.1943C2.0474 19.1417 1.9916 19.2632 2.0195 19.2166C2.0288 19.2004 2.03578 19.1842 2.04508 19.168C2.066 19.1316 2.08693 19.0971 2.1125 19.0627C2.13342 19.0323 2.15668 19.002 2.17992 18.9736C2.1869 18.9655 2.20782 18.9331 2.2148 18.9311C2.21945 18.9291 2.15202 18.9939 2.18922 18.9615C2.24967 18.9068 2.30315 18.8501 2.36825 18.7995C2.3822 18.7873 2.39847 18.7772 2.41475 18.765C2.46125 18.7286 2.4008 18.7569 2.3915 18.7792C2.4008 18.759 2.4566 18.7367 2.47985 18.7245C2.55192 18.682 2.62865 18.6476 2.7077 18.6131C2.76815 18.5868 2.68677 18.6111 2.68212 18.6212C2.68445 18.6172 2.74025 18.603 2.74025 18.603C2.77512 18.5929 2.81 18.5828 2.84487 18.5747C2.8844 18.5645 2.92625 18.5564 2.96578 18.5483C2.9867 18.5443 3.00763 18.5402 3.02855 18.5382C3.03785 18.5362 3.04948 18.5342 3.05878 18.5342C3.09365 18.5301 3.0797 18.5301 3.0146 18.5402C3.0332 18.5159 3.22153 18.5301 3.25873 18.5321C3.3029 18.5342 3.34475 18.5382 3.38893 18.5402C3.45403 18.5443 3.29593 18.5261 3.36103 18.5362C3.3866 18.5402 3.41218 18.5443 3.44008 18.5483C3.53308 18.5645 3.62143 18.5888 3.70978 18.6172C3.77488 18.6374 3.69351 18.603 3.68421 18.6071C3.69118 18.605 3.73303 18.6273 3.74001 18.6293C3.78651 18.6496 3.83068 18.6699 3.87486 18.6921C3.90973 18.7103 3.94461 18.7306 3.97716 18.7508C3.97948 18.7529 4.02366 18.7751 4.02598 18.7812C3.97716 18.7468 3.96553 18.7407 3.9911 18.7589C4.00273 18.767 4.01435 18.7751 4.02598 18.7853C4.09573 18.8379 4.15618 18.8966 4.21663 18.9554C4.23058 18.9675 4.26081 18.9858 4.21896 18.9554C4.16781 18.9189 4.22361 18.9615 4.23756 18.9777C4.26313 19.0101 4.2887 19.0445 4.31196 19.0789C4.33521 19.1133 4.35613 19.1478 4.37705 19.1842C4.37705 19.1822 4.40495 19.2288 4.40263 19.2328C4.4096 19.2207 4.36543 19.1457 4.39565 19.2227C4.4282 19.2996 4.45378 19.3786 4.47238 19.4596C4.47703 19.4778 4.47935 19.4961 4.484 19.5143C4.49563 19.5649 4.47703 19.4272 4.48168 19.5042C4.48633 19.5467 4.48865 19.5933 4.49098 19.6398C4.4933 19.8525 4.70256 20.055 4.956 20.0449C5.2071 20.0347 5.42332 19.8667 5.42102 19.6398C5.41172 18.8197 4.82119 18.1089 3.94233 17.8254C3.10531 17.5541 2.09164 17.7991 1.52896 18.3985C0.938393 19.0263 0.829132 19.9213 1.31506 20.626C1.8033 21.3328 2.74958 21.677 3.67027 21.5211C4.68399 21.349 5.40937 20.5268 5.41868 19.6398C5.421 19.4272 5.20245 19.2247 4.95366 19.2348C4.70023 19.2449 4.49331 19.413 4.49097 19.6398L4.49099 19.6398Z"></path></mask><path d="M4.49099 19.6398C4.49099 19.6783 4.48867 19.7148 4.48634 19.7532C4.48402 19.7694 4.47704 19.7958 4.47937 19.8099C4.47704 19.7998 4.49797 19.7127 4.48169 19.7856C4.46542 19.8585 4.44914 19.9294 4.42357 19.9983C4.41659 20.0145 4.39799 20.0934 4.38172 20.0995C4.38172 20.0995 4.43287 20.0064 4.39102 20.0772L4.36312 20.1258C4.32592 20.1886 4.28407 20.2494 4.23757 20.3081C4.23524 20.3101 4.20967 20.3486 4.20269 20.3506C4.20502 20.3506 4.27709 20.2737 4.21897 20.3304C4.19107 20.3567 4.16549 20.383 4.13759 20.4093C4.11202 20.4316 4.08644 20.4539 4.06087 20.4741C4.04692 20.4863 4.03064 20.4984 4.01436 20.5086C3.95159 20.5572 4.01901 20.5248 4.02599 20.5025C4.01204 20.543 3.86091 20.5997 3.82139 20.6179C3.79116 20.6321 3.75861 20.6463 3.72606 20.6605C3.70979 20.6665 3.64701 20.6929 3.71211 20.6665C3.77954 20.6402 3.69584 20.6706 3.68189 20.6767C3.60284 20.701 3.52378 20.7212 3.44009 20.7354C3.41684 20.7394 3.30756 20.7415 3.37731 20.7455C3.44473 20.7496 3.37963 20.7435 3.35871 20.7455C3.33081 20.7475 3.30523 20.7496 3.27733 20.7496C3.19596 20.7516 3.09598 20.7293 3.01693 20.7415C3.01693 20.7415 3.11226 20.7556 3.06111 20.7475C3.04018 20.7435 3.01926 20.7415 2.99833 20.7374C2.95183 20.7293 2.90533 20.7192 2.86116 20.709C2.82163 20.6989 2.7821 20.6888 2.74258 20.6766C2.73328 20.6746 2.68678 20.6625 2.68445 20.6584C2.68445 20.6584 2.7914 20.703 2.71003 20.6665C2.63563 20.6341 2.56355 20.6017 2.49613 20.5632C2.47753 20.5531 2.40313 20.5207 2.39615 20.5025C2.39615 20.5045 2.4845 20.5673 2.4194 20.5167C2.40545 20.5045 2.38918 20.4944 2.3729 20.4822C2.31245 20.4336 2.25897 20.383 2.20317 20.3304C2.16132 20.2899 2.19387 20.3425 2.21945 20.3506C2.21247 20.3486 2.1869 20.3101 2.18457 20.3081C2.16132 20.2797 2.13807 20.2494 2.11715 20.219C2.09855 20.1927 2.08228 20.1643 2.06368 20.138L2.03578 20.0894C1.99393 20.0185 2.02183 20.0934 2.0381 20.0995C2.00555 20.0874 1.97532 19.9375 1.96603 19.9071C1.95673 19.8707 1.94743 19.8363 1.94045 19.7998C1.9358 19.7796 1.94045 19.7269 1.9358 19.7856C1.93115 19.8504 1.9358 19.7715 1.93348 19.7553C1.9265 19.6844 1.9265 19.6135 1.93348 19.5426C1.9358 19.5244 1.93813 19.5062 1.93813 19.4859C1.94278 19.4292 1.92185 19.5669 1.93348 19.5102C1.94278 19.4697 1.94975 19.4292 1.96138 19.3887C1.97998 19.3219 2.0102 19.2591 2.03113 19.1943C2.0474 19.1417 1.9916 19.2632 2.0195 19.2166C2.0288 19.2004 2.03578 19.1842 2.04508 19.168C2.066 19.1316 2.08693 19.0971 2.1125 19.0627C2.13342 19.0323 2.15668 19.002 2.17992 18.9736C2.1869 18.9655 2.20782 18.9331 2.2148 18.9311C2.21945 18.9291 2.15202 18.9939 2.18922 18.9615C2.24967 18.9068 2.30315 18.8501 2.36825 18.7995C2.3822 18.7873 2.39847 18.7772 2.41475 18.765C2.46125 18.7286 2.4008 18.7569 2.3915 18.7792C2.4008 18.759 2.4566 18.7367 2.47985 18.7245C2.55192 18.682 2.62865 18.6476 2.7077 18.6131C2.76815 18.5868 2.68677 18.6111 2.68212 18.6212C2.68445 18.6172 2.74025 18.603 2.74025 18.603C2.77512 18.5929 2.81 18.5828 2.84487 18.5747C2.8844 18.5645 2.92625 18.5564 2.96578 18.5483C2.9867 18.5443 3.00763 18.5402 3.02855 18.5382C3.03785 18.5362 3.04948 18.5342 3.05878 18.5342C3.09365 18.5301 3.0797 18.5301 3.0146 18.5402C3.0332 18.5159 3.22153 18.5301 3.25873 18.5321C3.3029 18.5342 3.34475 18.5382 3.38893 18.5402C3.45403 18.5443 3.29593 18.5261 3.36103 18.5362C3.3866 18.5402 3.41218 18.5443 3.44008 18.5483C3.53308 18.5645 3.62143 18.5888 3.70978 18.6172C3.77488 18.6374 3.69351 18.603 3.68421 18.6071C3.69118 18.605 3.73303 18.6273 3.74001 18.6293C3.78651 18.6496 3.83068 18.6699 3.87486 18.6921C3.90973 18.7103 3.94461 18.7306 3.97716 18.7508C3.97948 18.7529 4.02366 18.7751 4.02598 18.7812C3.97716 18.7468 3.96553 18.7407 3.9911 18.7589C4.00273 18.767 4.01435 18.7751 4.02598 18.7853C4.09573 18.8379 4.15618 18.8966 4.21663 18.9554C4.23058 18.9675 4.26081 18.9858 4.21896 18.9554C4.16781 18.9189 4.22361 18.9615 4.23756 18.9777C4.26313 19.0101 4.2887 19.0445 4.31196 19.0789C4.33521 19.1133 4.35613 19.1478 4.37705 19.1842C4.37705 19.1822 4.40495 19.2288 4.40263 19.2328C4.4096 19.2207 4.36543 19.1457 4.39565 19.2227C4.4282 19.2996 4.45378 19.3786 4.47238 19.4596C4.47703 19.4778 4.47935 19.4961 4.484 19.5143C4.49563 19.5649 4.47703 19.4272 4.48168 19.5042C4.48633 19.5467 4.48865 19.5933 4.49098 19.6398C4.4933 19.8525 4.70256 20.055 4.956 20.0449C5.2071 20.0347 5.42332 19.8667 5.42102 19.6398C5.41172 18.8197 4.82119 18.1089 3.94233 17.8254C3.10531 17.5541 2.09164 17.7991 1.52896 18.3985C0.938393 19.0263 0.829132 19.9213 1.31506 20.626C1.8033 21.3328 2.74958 21.677 3.67027 21.5211C4.68399 21.349 5.40937 20.5268 5.41868 19.6398C5.421 19.4272 5.20245 19.2247 4.95366 19.2348C4.70023 19.2449 4.49331 19.413 4.49097 19.6398L4.49099 19.6398Z" fill="#FFB30F"></path><path d="M4.49099 19.6398C4.49099 19.6783 4.48867 19.7148 4.48634 19.7532C4.48402 19.7694 4.47704 19.7958 4.47937 19.8099C4.47704 19.7998 4.49797 19.7127 4.48169 19.7856C4.46542 19.8585 4.44914 19.9294 4.42357 19.9983C4.41659 20.0145 4.39799 20.0934 4.38172 20.0995C4.38172 20.0995 4.43287 20.0064 4.39102 20.0772L4.36312 20.1258C4.32592 20.1886 4.28407 20.2494 4.23757 20.3081C4.23524 20.3101 4.20967 20.3486 4.20269 20.3506C4.20502 20.3506 4.27709 20.2737 4.21897 20.3304C4.19107 20.3567 4.16549 20.383 4.13759 20.4093C4.11202 20.4316 4.08644 20.4539 4.06087 20.4741C4.04692 20.4863 4.03064 20.4984 4.01436 20.5086C3.95159 20.5572 4.01901 20.5248 4.02599 20.5025C4.01204 20.543 3.86091 20.5997 3.82139 20.6179C3.79116 20.6321 3.75861 20.6463 3.72606 20.6605C3.70979 20.6665 3.64701 20.6929 3.71211 20.6665C3.77954 20.6402 3.69584 20.6706 3.68189 20.6767C3.60284 20.701 3.52378 20.7212 3.44009 20.7354C3.41684 20.7394 3.30756 20.7415 3.37731 20.7455C3.44473 20.7496 3.37963 20.7435 3.35871 20.7455C3.33081 20.7475 3.30523 20.7496 3.27733 20.7496C3.19596 20.7516 3.09598 20.7293 3.01693 20.7415C3.01693 20.7415 3.11226 20.7556 3.06111 20.7475C3.04018 20.7435 3.01926 20.7415 2.99833 20.7374C2.95183 20.7293 2.90533 20.7192 2.86116 20.709C2.82163 20.6989 2.7821 20.6888 2.74258 20.6766C2.73328 20.6746 2.68678 20.6625 2.68445 20.6584C2.68445 20.6584 2.7914 20.703 2.71003 20.6665C2.63563 20.6341 2.56355 20.6017 2.49613 20.5632C2.47753 20.5531 2.40313 20.5207 2.39615 20.5025C2.39615 20.5045 2.4845 20.5673 2.4194 20.5167C2.40545 20.5045 2.38918 20.4944 2.3729 20.4822C2.31245 20.4336 2.25897 20.383 2.20317 20.3304C2.16132 20.2899 2.19387 20.3425 2.21945 20.3506C2.21247 20.3486 2.1869 20.3101 2.18457 20.3081C2.16132 20.2797 2.13807 20.2494 2.11715 20.219C2.09855 20.1927 2.08228 20.1643 2.06368 20.138L2.03578 20.0894C1.99393 20.0185 2.02183 20.0934 2.0381 20.0995C2.00555 20.0874 1.97532 19.9375 1.96603 19.9071C1.95673 19.8707 1.94743 19.8363 1.94045 19.7998C1.9358 19.7796 1.94045 19.7269 1.9358 19.7856C1.93115 19.8504 1.9358 19.7715 1.93348 19.7553C1.9265 19.6844 1.9265 19.6135 1.93348 19.5426C1.9358 19.5244 1.93813 19.5062 1.93813 19.4859C1.94278 19.4292 1.92185 19.5669 1.93348 19.5102C1.94278 19.4697 1.94975 19.4292 1.96138 19.3887C1.97998 19.3219 2.0102 19.2591 2.03113 19.1943C2.0474 19.1417 1.9916 19.2632 2.0195 19.2166C2.0288 19.2004 2.03578 19.1842 2.04508 19.168C2.066 19.1316 2.08693 19.0971 2.1125 19.0627C2.13342 19.0323 2.15668 19.002 2.17992 18.9736C2.1869 18.9655 2.20782 18.9331 2.2148 18.9311C2.21945 18.9291 2.15202 18.9939 2.18922 18.9615C2.24967 18.9068 2.30315 18.8501 2.36825 18.7995C2.3822 18.7873 2.39847 18.7772 2.41475 18.765C2.46125 18.7286 2.4008 18.7569 2.3915 18.7792C2.4008 18.759 2.4566 18.7367 2.47985 18.7245C2.55192 18.682 2.62865 18.6476 2.7077 18.6131C2.76815 18.5868 2.68677 18.6111 2.68212 18.6212C2.68445 18.6172 2.74025 18.603 2.74025 18.603C2.77512 18.5929 2.81 18.5828 2.84487 18.5747C2.8844 18.5645 2.92625 18.5564 2.96578 18.5483C2.9867 18.5443 3.00763 18.5402 3.02855 18.5382C3.03785 18.5362 3.04948 18.5342 3.05878 18.5342C3.09365 18.5301 3.0797 18.5301 3.0146 18.5402C3.0332 18.5159 3.22153 18.5301 3.25873 18.5321C3.3029 18.5342 3.34475 18.5382 3.38893 18.5402C3.45403 18.5443 3.29593 18.5261 3.36103 18.5362C3.3866 18.5402 3.41218 18.5443 3.44008 18.5483C3.53308 18.5645 3.62143 18.5888 3.70978 18.6172C3.77488 18.6374 3.69351 18.603 3.68421 18.6071C3.69118 18.605 3.73303 18.6273 3.74001 18.6293C3.78651 18.6496 3.83068 18.6699 3.87486 18.6921C3.90973 18.7103 3.94461 18.7306 3.97716 18.7508C3.97948 18.7529 4.02366 18.7751 4.02598 18.7812C3.97716 18.7468 3.96553 18.7407 3.9911 18.7589C4.00273 18.767 4.01435 18.7751 4.02598 18.7853C4.09573 18.8379 4.15618 18.8966 4.21663 18.9554C4.23058 18.9675 4.26081 18.9858 4.21896 18.9554C4.16781 18.9189 4.22361 18.9615 4.23756 18.9777C4.26313 19.0101 4.2887 19.0445 4.31196 19.0789C4.33521 19.1133 4.35613 19.1478 4.37705 19.1842C4.37705 19.1822 4.40495 19.2288 4.40263 19.2328C4.4096 19.2207 4.36543 19.1457 4.39565 19.2227C4.4282 19.2996 4.45378 19.3786 4.47238 19.4596C4.47703 19.4778 4.47935 19.4961 4.484 19.5143C4.49563 19.5649 4.47703 19.4272 4.48168 19.5042C4.48633 19.5467 4.48865 19.5933 4.49098 19.6398C4.4933 19.8525 4.70256 20.055 4.956 20.0449C5.2071 20.0347 5.42332 19.8667 5.42102 19.6398C5.41172 18.8197 4.82119 18.1089 3.94233 17.8254C3.10531 17.5541 2.09164 17.7991 1.52896 18.3985C0.938393 19.0263 0.829132 19.9213 1.31506 20.626C1.8033 21.3328 2.74958 21.677 3.67027 21.5211C4.68399 21.349 5.40937 20.5268 5.41868 19.6398C5.421 19.4272 5.20245 19.2247 4.95366 19.2348C4.70023 19.2449 4.49331 19.413 4.49097 19.6398L4.49099 19.6398Z" stroke="#FF8154" mask="url(#path-5-outside-3_825_436)"></path></svg>