<svg xmlns="http://www.w3.org/2000/svg" width="24" height="24" viewBox="0 0 24 24" fill="none"><path d="M14.7003 6.29974C14.5171 6.48666 14.4145 6.73798 14.4145 6.99974C14.4145 7.26149 14.5171 7.51281 14.7003 7.69974L16.3003 9.29974C16.4873 9.48296 16.7386 9.58559 17.0003 9.58559C17.2621 9.58559 17.5134 9.48296 17.7003 9.29974L21.4703 5.52974C21.9732 6.64092 22.1254 7.87897 21.9068 9.07888C21.6882 10.2788 21.1091 11.3836 20.2466 12.246C19.3842 13.1084 18.2794 13.6876 17.0795 13.9062C15.8796 14.1248 14.6415 13.9726 13.5303 13.4697L6.62034 20.3797C6.22252 20.7776 5.68295 21.0011 5.12034 21.0011C4.55773 21.0011 4.01817 20.7776 3.62034 20.3797C3.22252 19.9819 2.99902 19.4423 2.99902 18.8797C2.99902 18.3171 3.22252 17.7776 3.62034 17.3797L10.5303 10.4697C10.0275 9.35855 9.87526 8.1205 10.0939 6.92059C10.3125 5.72068 10.8916 4.61589 11.7541 3.75346C12.6165 2.89102 13.7213 2.3119 14.9212 2.09328C16.1211 1.87465 17.3592 2.0269 18.4703 2.52974L14.7103 6.28974L14.7003 6.29974Z" stroke="#AB7500" stroke-width="1.5" stroke-linecap="round" stroke-linejoin="round"></path></svg>