<svg xmlns="http://www.w3.org/2000/svg" width="10" height="16" viewBox="0 0 10 16" fill="none"><path d="M6.30981 8.00203L0.330029 14.0495C0.118499 14.2642 -8.95755e-05 14.5552 0.0003491 14.8584C0.000788729 15.1616 0.12022 15.4522 0.332371 15.6663C0.544521 15.8804 0.832012 16.0004 1.1316 16C1.43119 15.9996 1.71833 15.8787 1.92986 15.664L8.70453 8.81468C8.90922 8.6067 9.02685 8.32689 9.03295 8.0334C9.03906 7.73991 8.93318 7.45533 8.73732 7.23882L1.93454 0.336042C1.72301 0.121323 1.43587 0.000444165 1.13628 -2.94903e-07C0.836696 -0.000443801 0.549206 0.119581 0.337055 0.333672C0.124904 0.547763 0.00547387 0.838383 0.00503421 1.1416C0.00459551 1.44481 0.123185 1.73579 0.334714 1.9505L6.30981 8.00203Z" fill="white"></path></svg>