<svg xmlns="http://www.w3.org/2000/svg" width="102" height="102" viewBox="0 0 102 102" fill="none"><rect x="59" y="0.000976562" width="43" height="43" rx="8" fill="#FDE8E9"></rect><path d="M84.4936 13.8477C81.9088 13.9081 79.8346 15.8608 79.8346 18.2602C79.8338 18.602 79.875 18.9417 79.9567 19.2667C76.3617 19.2134 72.8861 17.5888 70.0943 14.6567C69.6843 15.2761 69.4548 16.0616 69.4456 16.8772C69.4944 17.688 69.7207 18.4641 70.098 19.1146C70.4752 19.765 70.9879 20.2629 71.5758 20.5499C70.8337 20.5336 70.0996 20.3478 69.4074 20.0011C69.4074 20.0197 69.4074 20.0395 69.4074 20.0581C69.4074 22.1964 71.0577 23.9789 73.2464 24.3851C72.534 24.5615 71.8043 24.5871 71.0856 24.4608C71.6945 26.217 73.4601 27.4914 75.553 27.5265C73.7295 28.7957 71.6871 29.4456 69.6169 29.4156C69.231 29.4156 68.8486 29.3958 68.4746 29.3552C70.7819 30.6857 73.2824 31.362 75.8082 31.3387C84.6097 31.3387 89.4222 24.6122 89.4222 18.7783C89.4222 18.5873 89.4222 18.3941 89.4095 18.2053C90.3001 17.626 91.1075 16.8534 91.7966 15.9211C90.9035 16.2842 89.982 16.5176 89.0491 16.617C89.9609 16.1701 90.7114 15.2994 91.1538 14.1748C90.181 14.7013 89.1593 15.0618 88.1146 15.2472C87.096 14.3094 85.8713 13.8206 84.6216 13.8531L84.4936 13.8477Z" fill="#47006F"></path><rect width="43" height="43" rx="8" fill="#FDE8E9"></rect><path d="M21.136 12.3898C15.4986 12.3898 10.9326 16.7398 10.9326 22.1048C10.9326 26.398 13.8559 30.0386 17.9092 31.3222C18.4194 31.4137 18.6064 31.113 18.6064 30.8551C18.6064 30.6244 18.5979 30.0131 18.5937 29.2032C15.7554 29.789 15.1568 27.8999 15.1568 27.8999C14.6926 26.7786 14.0217 26.4787 14.0217 26.4787C13.0974 25.8765 14.0931 25.8888 14.0931 25.8888C15.1177 25.9564 15.6559 26.8898 15.6559 26.8898C16.5657 28.3753 18.0444 27.946 18.6277 27.698C18.7195 27.0694 18.9822 26.6419 19.2739 26.3988C17.0079 26.1558 14.6262 25.3204 14.6262 21.5982C14.6262 20.5378 15.0216 19.6711 15.6763 18.9915C15.5616 18.7459 15.2172 17.7581 15.7656 16.4202C15.7656 16.4202 16.6202 16.1598 18.5716 17.4162C19.3878 17.2004 20.2551 17.0933 21.1224 17.0883C21.9897 17.0933 22.857 17.2004 23.6733 17.4162C25.6119 16.1598 26.4664 16.4202 26.4664 16.4202C27.0149 17.7581 26.6705 18.7459 26.5685 18.9915C27.2189 19.6711 27.6143 20.5378 27.6143 21.5982C27.6143 25.3303 25.2293 26.1517 22.959 26.3906C23.3161 26.6822 23.6477 27.2779 23.6477 28.1882C23.6477 29.4883 23.635 30.533 23.635 30.8485C23.635 31.1031 23.8135 31.4071 24.3365 31.3099C28.4187 30.0345 31.3394 26.3914 31.3394 22.1048C31.3394 16.7398 26.7708 12.3898 21.136 12.3898Z" fill="#47006F"></path><rect y="59.001" width="43" height="43" rx="8" fill="#FDE8E9"></rect><path d="M29.6387 87.9942V81.9603C29.6387 78.995 28.9716 76.729 25.3538 76.729C24.6752 76.7027 24.002 76.8537 23.4064 77.1657C22.8108 77.4778 22.3153 77.939 21.9731 78.5001H21.9308V76.9944H18.5068V87.9942H22.0813V82.5362C22.0813 81.0945 22.3608 79.7131 24.2134 79.7131C26.0435 79.7131 26.0651 81.3401 26.0651 82.6171V87.9716H29.6396L29.6387 87.9942Z" fill="#47006F"></path><path d="M12.6934 76.9962H16.2679V87.9932H12.6934V76.9962Z" fill="#47006F"></path><path d="M14.4794 71.5182C14.0674 71.516 13.6641 71.631 13.3205 71.8485C12.977 72.066 12.7088 72.3763 12.5501 72.7399C12.3913 73.1035 12.3492 73.5041 12.429 73.8907C12.5088 74.2772 12.707 74.6324 12.9983 74.911C13.2896 75.1897 13.6609 75.3792 14.0651 75.4555C14.4693 75.5318 14.8881 75.4915 15.2683 75.3397C15.6485 75.1879 15.9729 74.9314 16.2003 74.6028C16.4278 74.2743 16.5479 73.8885 16.5456 73.4944C16.5456 72.9703 16.3279 72.4677 15.9404 72.097C15.5529 71.7264 15.0274 71.5182 14.4794 71.5182Z" fill="#47006F"></path><rect x="59" y="59.001" width="43" height="43" rx="8" fill="#FDE8E9"></rect><path d="M77.9943 84.4938L84.4781 80.746L77.9943 76.9981V84.4938ZM92.436 74.7119C92.5984 75.2991 92.7109 76.0861 92.7858 77.0856C92.8733 78.085 92.9108 78.947 92.9108 79.6966L92.9857 80.746C92.9857 83.4819 92.7858 85.4933 92.436 86.78C92.1237 87.9044 91.3991 88.629 90.2748 88.9413C89.6876 89.1037 88.6132 89.2161 86.9642 89.2911C85.3401 89.3785 83.8534 89.416 82.4792 89.416L80.4929 89.491C75.2583 89.491 71.9977 89.2911 70.711 88.9413C69.5866 88.629 68.862 87.9044 68.5497 86.78C68.3873 86.1929 68.2748 85.4058 68.1999 84.4064C68.1124 83.407 68.075 82.5449 68.075 81.7954L68 80.746C68 78.01 68.1999 75.9987 68.5497 74.7119C68.862 73.5876 69.5866 72.863 70.711 72.5507C71.2981 72.3883 72.3725 72.2758 74.0216 72.2009C75.6456 72.1134 77.1323 72.0759 78.5065 72.0759L80.4929 72.001C85.7274 72.001 88.988 72.2009 90.2748 72.5507C91.3991 72.863 92.1237 73.5876 92.436 74.7119Z" fill="#47006F"></path></svg>