<svg xmlns="http://www.w3.org/2000/svg" width="22" height="22" viewBox="0 0 22 22" fill="none"><path d="M11 0C9.55546 0 8.12506 0.291587 6.79048 0.858113C5.4559 1.42464 4.24327 2.25501 3.22183 3.30181C1.15893 5.41593 0 8.28329 0 11.2731C0 16.2558 3.157 20.4832 7.524 21.9825C8.074 22.0727 8.25 21.7233 8.25 21.4189V19.5137C5.203 20.1901 4.554 18.0031 4.554 18.0031C4.048 16.6955 3.333 16.346 3.333 16.346C2.332 15.6471 3.41 15.6696 3.41 15.6696C4.51 15.7485 5.093 16.8307 5.093 16.8307C6.05 18.5442 7.667 18.037 8.294 17.7664C8.393 17.0336 8.679 16.5376 8.987 16.2558C6.545 15.974 3.982 15.0045 3.982 10.7094C3.982 9.45813 4.4 8.45482 5.115 7.65443C5.005 7.3726 4.62 6.2002 5.225 4.67834C5.225 4.67834 6.149 4.37396 8.25 5.82819C9.119 5.58018 10.065 5.45618 11 5.45618C11.935 5.45618 12.881 5.58018 13.75 5.82819C15.851 4.37396 16.775 4.67834 16.775 4.67834C17.38 6.2002 16.995 7.3726 16.885 7.65443C17.6 8.45482 18.018 9.45813 18.018 10.7094C18.018 15.0158 15.444 15.9627 12.991 16.2445C13.387 16.594 13.75 17.2817 13.75 18.3301V21.4189C13.75 21.7233 13.926 22.084 14.487 21.9825C18.854 20.4719 22 16.2558 22 11.2731C22 9.79269 21.7155 8.32678 21.1627 6.95907C20.6099 5.59135 19.7996 4.34862 18.7782 3.30181C17.7567 2.25501 16.5441 1.42464 15.2095 0.858113C13.8749 0.291587 12.4445 0 11 0Z" fill="#300D73"></path></svg>