<svg xmlns="http://www.w3.org/2000/svg" width="24" height="24" viewBox="0 0 24 24" fill="none"><path d="M10.7566 12L15.7066 16.95C15.8021 17.0422 15.8783 17.1526 15.9307 17.2746C15.9831 17.3966 16.0107 17.5278 16.0118 17.6606C16.013 17.7934 15.9877 17.9251 15.9374 18.048C15.8871 18.1708 15.8128 18.2825 15.719 18.3764C15.6251 18.4703 15.5134 18.5445 15.3905 18.5948C15.2676 18.6451 15.1359 18.6704 15.0032 18.6692C14.8704 18.6681 14.7392 18.6405 14.6172 18.5881C14.4952 18.5357 14.3848 18.4595 14.2926 18.364L8.63556 12.707C8.44809 12.5195 8.34277 12.2652 8.34277 12C8.34277 11.7348 8.44809 11.4805 8.63556 11.293L14.2926 5.636C14.4812 5.45384 14.7338 5.35305 14.996 5.35532C15.2582 5.3576 15.509 5.46277 15.6944 5.64818C15.8798 5.83359 15.985 6.0844 15.9872 6.3466C15.9895 6.60879 15.8887 6.8614 15.7066 7.05L10.7566 12Z" fill="#777777"></path></svg>