<svg xmlns="http://www.w3.org/2000/svg" width="22" height="22" viewBox="0 0 22 22" fill="none"><path d="M11 0C8.08262 0 5.28473 1.15893 3.22183 3.22183C1.15893 5.28473 0 8.08262 0 11C0 13.9174 1.15893 16.7153 3.22183 18.7782C5.28473 20.8411 8.08262 22 11 22C13.9174 22 16.7153 20.8411 18.7782 18.7782C20.8411 16.7153 22 13.9174 22 11C22 8.08262 20.8411 5.28473 18.7782 3.22183C16.7153 1.15893 13.9174 0 11 0ZM5.5 5.5H16.5C16.6966 5.5 16.8864 5.54262 17.0624 5.621L11 12.6926L4.93762 5.621C5.11422 5.54074 5.30603 5.49947 5.5 5.5ZM4.125 15.125V6.875L4.12775 6.78837L8.15925 11.4922L4.17175 15.4798C4.14025 15.3641 4.12453 15.2448 4.125 15.125ZM16.5 16.5H5.5C5.379 16.5 5.25938 16.4835 5.14525 16.4532L9.0585 12.54L11.0014 14.806L12.9442 12.54L16.8575 16.4532C16.7419 16.4847 16.6226 16.5005 16.5028 16.5H16.5ZM17.875 15.125C17.875 15.246 17.8585 15.3656 17.8282 15.4798L13.8407 11.4922L17.8722 6.78837L17.875 6.875V15.125Z" fill="#300D73"></path></svg>