<svg xmlns="http://www.w3.org/2000/svg" width="24" height="24" viewBox="0 0 24 24" fill="none"><path d="M13.2434 12L8.29344 7.05C8.19793 6.95776 8.12175 6.84741 8.06934 6.72541C8.01693 6.6034 7.98934 6.47218 7.98819 6.3394C7.98704 6.20662 8.01234 6.07494 8.06262 5.95205C8.1129 5.82915 8.18715 5.7175 8.28105 5.62361C8.37494 5.52971 8.48659 5.45546 8.60949 5.40518C8.73238 5.3549 8.86406 5.3296 8.99684 5.33075C9.12962 5.33191 9.26084 5.35949 9.38285 5.4119C9.50485 5.46431 9.61519 5.54049 9.70744 5.636L15.3644 11.293C15.5519 11.4805 15.6572 11.7348 15.6572 12C15.6572 12.2652 15.5519 12.5195 15.3644 12.707L9.70744 18.364C9.51884 18.5462 9.26624 18.647 9.00404 18.6447C8.74184 18.6424 8.49103 18.5372 8.30562 18.3518C8.12021 18.1664 8.01504 17.9156 8.01277 17.6534C8.01049 17.3912 8.11128 17.1386 8.29344 16.95L13.2434 12Z" fill="#777777"></path></svg>