<svg fill="none" height="40" viewBox="0 0 40 40" width="40" xmlns="http://www.w3.org/2000/svg"><path clip-rule="evenodd" d="m11.4457 5.44787c-2.04493.27489-3.3112.80219-4.25357 1.74456-.94233.94233-1.46966 2.20897-1.74456 4.25427-.27876 2.0739-.28088 4.7937-.28088 8.5536 0 3.7608.00212 6.4806.28088 8.5543.27488 2.045.80218 3.3112 1.74456 4.2536.94233.9423 2.20897 1.4697 4.25427 1.7446 2.0739.2787 4.7937.2809 8.5536.2809 3.7608 0 6.4806-.0022 8.5543-.2809 2.045-.2749 3.3112-.8022 4.2536-1.7446.9423-.9423 1.4697-2.209 1.7446-4.2542.2787-2.074.2809-4.7937.2809-8.5537 0-3.7607-.0022-6.4805-.2809-8.5543-.2749-2.04492-.8022-3.31119-1.7446-4.25357-.9423-.94233-2.209-1.46966-4.2542-1.74456-2.074-.27876-4.7938-.28088-8.5537-.28088-3.7607 0-6.4805.00213-8.5543.28088zm8.477-2.28088h.1546c3.6662-.00001 6.5203-.00002 8.7428.29871 2.2668.30468 4.026.93652 5.402 2.31252 1.376 1.37596 2.0079 3.13468 2.3125 5.40138.2988 2.2223.2988 5.0764.2988 8.7433v.1547c0 3.6662 0 6.5203-.2988 8.7428-.3046 2.2668-.9365 4.026-2.3125 5.402-1.3759 1.376-3.1347 2.0079-5.4014 2.3126-2.2223.2987-5.0763.2987-8.7433.2987h-.1548c-3.6661 0-6.5201 0-8.7427-.2987-2.26679-.3047-4.02598-.9366-5.40199-2.3126-1.37595-1.3759-2.00782-3.1347-2.31252-5.4014-.29873-2.2223-.29872-5.0763-.2987-8.7433v-.1547c-.00002-3.6662-.00003-6.5202.2987-8.7428.30468-2.26678.93652-4.02598 2.31252-5.40198 1.37596-1.37596 3.13469-2.00783 5.40139-2.31252 2.2223-.29873 5.0764-.29872 8.7434-.29871z" fill="#ab7500" fill-rule="evenodd"/><path clip-rule="evenodd" d="m21.8337 16.0003c.047-.0003.1008-.0003.1663-.0003h2.1667c.3978 0 .7793.158 1.0606.4393s.4394.6629.4394 1.0607-.1581.7793-.4394 1.0606-.6628.4394-1.0606.4394h-2.3334v-2.8334c0-.0675.0001-.1217.0004-.1663zm-.0004 4.9997h2.3334c.9282 0 1.8184-.3688 2.4748-1.0251.6564-.6564 1.0252-1.5467 1.0252-2.4749 0-.9283-.3688-1.8185-1.0252-2.4749s-1.5466-1.0251-2.4748-1.0251h-2.1667c-.0218 0-.0447-.0001-.0687-.0003-.2267-.0012-.547-.0028-.8333.0919-.2731.0888-.5215.2405-.7253.443-.2052.2039-.3592.4535-.4495.7284l-.0023.0072c-.0903.2822-.0889.5985-.0878.8283.0001.0237.0002.0464.0002.0681v8.8334c0 .5523.4477 1 1 1s1-.4477 1-1zm-9.3698-6.9994c.4167-.0152.7992.2298.9596.6148l4.1666 10c.2124.5098-.0286 1.0952-.5384 1.3077-.5098.2124-1.0953-.0287-1.3077-.5385l-.7853-1.8846h-4.2376l-.6054 1.8162c-.17461.524-.74093.8071-1.26487.6325-.52395-.1747-.80711-.741-.63246-1.2649l3.33333-10c.1319-.3957.4954-.6679.9122-.6832zm-1.0761 7.4994h2.7376l-1.5209-3.6501zm19.4459-7.5c.5523 0 1 .4477 1 1v10c0 .5523-.4477 1-1 1s-1-.4477-1-1v-10c0-.5523.4477-1 1-1z" fill="#ab7500" fill-rule="evenodd"/><path d="m37.4395 31.7305c0 2.7069-2.1944 4.9013-4.9014 4.9013-2.7069 0-4.9013-2.1944-4.9013-4.9013 0-2.707 2.1944-4.9014 4.9013-4.9014 2.707 0 4.9014 2.1944 4.9014 4.9014z" fill="#fff"/><g clip-rule="evenodd" fill="#ab7500" fill-rule="evenodd"><path d="m32.5381 27.5791c-2.2927 0-4.1513 1.8586-4.1513 4.1514 0 2.2927 1.8586 4.1513 4.1513 4.1513 2.2928 0 4.1514-1.8586 4.1514-4.1513 0-2.2928-1.8586-4.1514-4.1514-4.1514zm-5.6513 4.1514c0-3.1212 2.5302-5.6514 5.6513-5.6514 3.1212 0 5.6514 2.5302 5.6514 5.6514 0 3.1211-2.5302 5.6513-5.6514 5.6513-3.1211 0-5.6513-2.5302-5.6513-5.6513z"/><path d="m35.3735 29.6441c.243.243.243.637 0 .88l-3.2937 3.2937c-.243.2429-.6369.2429-.8799 0l-1.4972-1.4972c-.2429-.243-.2429-.6369 0-.8799.243-.243.637-.243.8799 0l1.0572 1.0572 2.8538-2.8538c.243-.2429.6369-.2429.8799 0z"/></g></svg>