<svg fill="none" height="40" viewBox="0 0 40 40" width="40" xmlns="http://www.w3.org/2000/svg" xmlns:xlink="http://www.w3.org/1999/xlink"><clipPath id="a"><path d="m0 0h40v40h-40z"/></clipPath><g clip-path="url(#a)" clip-rule="evenodd" fill="#ab7500" fill-rule="evenodd"><path d="m20.3561 12.8279c-.4561.1231-.8397.3921-1.1005.7716-.1206.1757-.1965.3662-.263.6599-.0329.1462-.069.2826-.08.3032-.0421.0782-.1384.1415-.257.169-.1865.0434-.2697-.0009-.5346-.2839-.4114-.4396-.8798-.6365-1.4391-.6054-.5197.0288-.9166.2171-1.2755.6048-.1756.1899-.3497.5086-.4117.7551-.1269.502-.0386 1.0217.2519 1.4815.1409.2228.1621.2969.1212.4213-.074.2247-.1994.3083-.4446.2959-.5026-.025-.7517.0152-1.0701.1734-.3738.1855-.6722.4821-.8406.835-.1443.3032-.1772.4595-.1757.8371.001.2864.0092.3519.0652.5216.1007.3063.327.6497.5523.8383.2608.2184.5181.3377.8925.4137.1247.0253.2573.0677.2944.0943.1275.0908.1838.3042.118.4482-.0155.0338-.1073.1272-.2041.2073-.3095.256-.5415.6307-.6267 1.0118-.0497.2228-.0497.5912-.0003.8156.0503.2285.219.5735.3713.7602.2443.2988.6412.5371 1.0273.6169.2728.0563.4317.0585.7086.0104.2621-.0459.457-.1241.6925-.2776.1007-.0655.2225-.1266.2712-.1351.1108-.0203.2694.0465.3726.157l.0727.0778-.0072.3336c-.0086.4089.0326.6381.1642.9169.2137.451.5941.8102 1.0141.958.7311.257 1.4637.0826 1.986-.4725.2687-.2855.4029-.5583.469-.9536.0335-.2.0908-.3064.2013-.3738.088-.0538.2364-.0633.3174-.0206.0291.0152.1678.1434.3077.2852.2759.2785.4481.3909.7766.5073.1668.0595.213.0646.558.0649.3605.0003.3849-.0028.5887-.0756.2766-.0991.4491-.2032.6561-.3969.2672-.2454.4558-.5645.5421-.9169.051-.2123.0507-.6213-.0009-.838-.0434-.1842-.1792-.495-.2662-.6096-.1427-.1877-.17-.3238-.0943-.4741.0234-.0465.0807-.1102.1275-.1415.0817-.0551.0962-.0566.4004-.0415.4852.0244.7881-.0503 1.1425-.2816.4093-.2671.6773-.6393.7856-1.0907.0671-.2804.0674-.6744.0003-.9165-.0994-.3586-.3257-.7124-.6013-.9397-.2697-.2225-.5061-.3241-.9812-.4219-.1832-.0376-.2693-.1218-.3038-.2965-.0351-.1773.0073-.2966.1446-.4074.4906-.3949.7473-.9035.7473-1.4808 0-.4903-.182-.9292-.5336-1.2875-.1904-.1946-.4224-.3435-.6785-.4354-.2562-.092-.5299-.1247-.8005-.0957-.333.0336-.5649.1206-.9017.338-.2298.1488-.414.1241-.5615-.0753-.05-.0671-.0506-.0785-.0414-.5431.0066-.3273-.0275-.5039-.1478-.7618-.2371-.5086-.6909-.8878-1.222-1.0216-.2279-.0576-.6849-.0643-.8757-.0127zm.6611 1.2739c.1203.0544.2092.143.2801.2794.0418.0808.0488.1301.0412.2912-.0244.5216.0025.6947.1585 1.0191.3235.6732 1.0502 1.0267 1.7945.8729.2203-.0456.3593-.1051.5954-.256.1-.064.2351-.1285.3003-.1431.3304-.074.67.2137.67.5681 0 .1614-.087.313-.275.4795-.2038.1804-.2924.2776-.382.4187-.1629.2526-.2479.5474-.2443.8479-.0004.5669.1367.9058.5082 1.2565.2529.2386.4723.3469.8539.4222.2447.0481.3583.1009.4498.2092.0933.1111.1326.2158.1326.3548 0 .2272-.0943.3946-.2858.5073-.1133.0665-.1181.0671-.4801.0595-.4289-.0088-.608.0234-.8767.1579-.2198.11-.4121.2677-.563.4617-.1508.194-.2562.4193-.3086.6594-.0706.3177-.0149.7763.1278 1.0529.0193.0374.0826.1415.1409.2311.1608.2487.1845.3851.1041.5991-.1048.2795-.4605.4311-.7387.3149-.0506-.0212-.2025-.1532-.357-.3105-.2193-.2234-.3026-.2908-.451-.3646-.3731-.1858-.7751-.2336-1.1549-.137-.6279.1598-1.0697.6295-1.202 1.2783-.0595.2905-.0893.3624-.1934.4646-.1092.1073-.194.1491-.3352.1658-.0841.0088-.1692-.0017-.2488-.0306-.0795-.0289-.1515-.0754-.2104-.1361-.1478-.1491-.1753-.2567-.1573-.6115.0117-.2345.006-.3355-.0272-.4852-.1791-.8048-1.0131-1.391-1.8224-1.2802-.2696.0367-.4073.0832-.6174.2079-.3146.1868-.3612.2089-.4672.2235-.3127.0427-.6225-.2238-.6238-.5368.0002-.0718.0086-.1434.025-.2133.0253-.0915.0595-.1304.4007-.4583.5846-.5614.6308-1.5169.1047-2.1673-.238-.2944-.5649-.4855-.9741-.5691-.2906-.0595-.4099-.1184-.5039-.2481-.169-.2333-.1513-.52.0456-.7317.1326-.1431.2905-.1884.5662-.1624.7697.0725 1.4258-.338 1.7277-1.0808.1105-.2719.1333-.6634.0573-.9812-.0383-.1595-.1215-.3392-.2494-.537-.1487-.2298-.1826-.3817-.1253-.5634.1073-.3405.508-.502.8159-.3288.0516.0291.1567.1281.2336.2202.3943.4738.8947.6653 1.5426.5909.2383-.0272.293-.043.5019-.1462.1956-.0962.2671-.1487.4305-.3149.2471-.2519.3709-.4893.4487-.8618.0292-.1402.0671-.282.0842-.3155.0453-.0877.1798-.2099.2782-.2526.1193-.0516.3301-.0472.4548.0095zm-1.2799 3.4368c-.5643.0712-1.0305.2931-1.4207.6766-.3459.34-.5491.6862-.6691 1.1404-.05.1902-.0573.2702-.0554.6187.0026.4671.0393.6396.2134 1.0077.1361.2871.2225.4118.4503.6507.4995.5226 1.1239.7694 1.8648.7375.89-.039 1.6562-.5403 2.0559-1.3455.1735-.349.2361-.625.239-1.0504.0013-.2136-.0105-.408-.0301-.4947-.2199-.9726-.8994-1.666-1.8587-1.8973-.1494-.0361-.6362-.063-.7894-.0437zm.545 1.284c.6223.162 1.0074.7991.8495 1.4058-.0601.2301-.1215.3444-.2684.4985-.2554.2678-.52.3877-.8539.3877-.6542 0-1.1701-.507-1.1701-1.1498 0-.3453.1086-.6042.3504-.8365.3102-.2978.702-.4076 1.0925-.3057z"/><path d="m34.1376 5.28002c.5521-.00363 1.0027.44102 1.0063.99316l.0329 4.99872c.0037.5521-.441 1.0027-.9931 1.0063l-4.9987.0329c-.5521.0037-1.0027-.441-1.0063-.9931-.0037-.5522.441-1.0027.9931-1.0064l3.999-.0263-.0264-3.99895c-.0036-.55214.441-1.00269.9932-1.00633z"/><path d="m34.4878 12.1086c-.4589.307-1.0799.184-1.387-.2748-2.8312-4.22922-7.664-6.99714-13.1315-6.96114-.8001.00526-1.5841.07001-2.35.19014-.5456.08556-1.0572-.28718-1.1428-.83253-.0856-.54536.2873-1.05683.8328-1.14239.8639-.1355 1.7471-.20834 2.6468-.21426 6.1675-.04061 11.6175 3.08449 14.8066 7.84838.3071.4587.1841 1.0795-.2749 1.3866z"/><path d="m4.52075 6.23568c-.0091-.55189.43092-1.00667.98281-1.01577l4.99644-.08238c.5519-.0091 1.0067.43092 1.0158.98282l.0824 4.99645c.0091.5519-.431 1.0067-.9828 1.0158-.5519.0091-1.00671-.431-1.01581-.9828l-.06592-3.99721-3.99715.06591c-.55189.00909-1.00667-.43093-1.01577-.98282z"/><path d="m11.3391 5.81797c.3114.4558.1946 1.07789-.2609 1.38949-4.19825 2.87244-6.91647 7.73164-6.82642 13.19754.01317.7999.08563 1.5831.21325 2.3476.0909.5446-.27652 1.0598-.82066 1.1508s-1.05893-.2768-1.14983-.8213c-.14395-.8624-.22547-1.7447-.24029-2.6442-.10157-6.1657 2.96747-11.64545 7.69651-14.88102.45544-.3116 1.07704-.1947 1.38834.26109z"/><path d="m5.64049 35.7579c-.55181.0108-1.00791-.4278-1.01874-.9796l-.09804-4.9956c-.01083-.5518.42772-1.008.97952-1.0188l4.99567-.098c.5518-.0108 1.0079.4277 1.0187.9795s-.4277 1.0079-.9795 1.0188l-3.99652.0784.07843 3.9965c.01083.5518-.42772 1.0079-.97952 1.0188z"/><path d="m5.20167 28.9429c.45479-.3128 1.07722-.1979 1.39023.2564 2.88545 4.1886 7.7529 6.8911 13.2182 6.784.7998-.0157 1.5827-.0906 2.3468-.2206.5443-.0926 1.0606.2732 1.1533.8169.0927.5438-.2734 1.0596-.8177 1.1522-.8619.1466-1.7439.2309-2.6432.2485-6.1651.1208-11.65411-2.9305-14.90434-7.6485-.31301-.4544-.19808-1.0762.25671-1.3889z"/><path d="m34.7839 34.6094c.0008.5523-.4462 1.0007-.9984 1.0015l-4.9998.0077c-.5522.0008-1.0006-.4462-1.0014-.9984l-.0077-4.9997c-.0009-.5523.4461-1.0007.9984-1.0015.5523-.0009 1.0006.4461 1.0015.9984l.0061 3.9998 3.9998-.0062c.5522-.0008 1.0006.4462 1.0015.9984z"/><path d="m27.9507 34.9262c-.3048-.4605-.1786-1.0809.2818-1.3857 4.245-2.8101 7.0382-7.6293 7.0298-13.0974-.0012-.8002-.062-1.5846-.1783-2.3512-.0828-.546.2926-1.0558.8386-1.1387.546-.0828 1.0557.2927 1.1386.8387.1311.8647.1995 1.7483.2009 2.6481.0095 6.1682-3.1442 11.6028-7.9258 14.7681-.4604.3049-1.0808.1787-1.3856-.2819z"/></g></svg>