<svg fill="none" height="41" viewBox="0 0 40 41" width="40" xmlns="http://www.w3.org/2000/svg"><g clip-rule="evenodd" fill="#ab7500" fill-rule="evenodd"><path d="m12.6667 15.7079c.003.5523-.4422 1.0025-.9945 1.0055-1.82032.0101-3.13321.0572-4.13825.2419-.97655.1795-1.57609.4745-2.02847.9269-.51581.5158-.82971 1.2251-.99791 2.4756-.17207 1.2793-.1742 2.9674-.1742 5.3523v1.6667c0 2.3858.00213 4.0743.17421 5.3538.1682 1.2506.48211 1.9599.9979 2.4757.35739.3574.80038.6106 1.43373.79.53139.1505.84015.7033.68965 1.2346-.1505.5314-.70327.8402-1.23466.6897-.89665-.254-1.66032-.6574-2.30293-1.3001-.94921-.9492-1.3678-2.1507-1.56585-3.6234-.19209-1.4283-.19207-3.2515-.19205-5.5455v-1.8163c-.00002-2.2932-.00004-4.116.19206-5.5441.19805-1.4725.61665-2.674 1.56584-3.6232.82762-.8276 1.84975-1.2534 3.08112-1.4798 1.20287-.221 2.68414-.2648 4.48881-.2747.5523-.0031 1.0024.4421 1.0055.9944zm14.6667 0c.003-.5523.4532-.9975 1.0055-.9944 1.8047.0099 3.2859.0537 4.4888.2747 1.2314.2264 2.2535.6522 3.0811 1.4798.9492.9492 1.3678 2.1507 1.5659 3.6232.192 1.4281.192 3.2509.192 5.5441v1.8163c0 2.294 0 4.1168-.192 5.5449-.1981 1.4727-.6167 2.6738-1.5655 3.6236-.9486.9487-2.1508 1.3671-3.6231 1.5649-1.4282.1918-3.2514.1918-5.5446.1918h-13.4081c-.5523 0-1-.4477-1-1s.4477-1 1-1h13.3333c2.3849 0 4.0735-.0021 5.3531-.174 1.2507-.1681 1.9597-.4816 2.4744-.9961 0 0 0 .0001 0 0m0 0c.5162-.5168.8301-1.2265.9983-2.4768.1721-1.2793.1742-2.9673.1742-5.3531v-1.6667c0-2.3849-.0021-4.073-.1742-5.3523-.1682-1.2505-.4821-1.9598-.9979-2.4756-.4524-.4524-1.0519-.7474-2.0285-.9269-1.005-.1847-2.3179-.2318-4.1382-.2419-.5523-.003-.9976-.4532-.9945-1.0055"/><path d="m20 3.04346c.5523 0 1 .44771 1 1v18.96344l3.2408-3.7809c.3594-.4193.9907-.4679 1.41-.1085.4193.3595.4679.9908.1085 1.4101l-5 5.8333c-.19.2217-.4674.3492-.7593.3492s-.5693-.1275-.7592-.3492l-5-5.8333c-.3595-.4193-.3109-1.0506.1084-1.4101.4194-.3594 1.0507-.3108 1.4101.1085l3.2407 3.7809v-18.96344c0-.55229.4477-1 1-1z"/></g></svg>