<svg fill="none" height="41" viewBox="0 0 40 41" width="40" xmlns="http://www.w3.org/2000/svg"><path clip-rule="evenodd" d="m25.66 6.71094c-.5523 0-1-.44772-1-1 0-.55229.4477-1 1-1h9.34c.5523 0 1 .44771 1 1v9.33996c0 .5523-.4477 1-1 1s-1-.4477-1-1v-6.92575l-10.2929 10.29285c-.3905.3906-1.0237.3906-1.4142 0-.3905-.3905-.3905-1.0236 0-1.4142l10.2929-10.29286zm-7.9529 16.29286c.3905.3906.3905 1.0237 0 1.4142l-10.29289 10.2929h6.92579c.5523 0 1 .4478 1 1 0 .5523-.4477 1-1 1h-9.34c-.55228 0-1-.4477-1-1v-9.34c0-.5522.44772-1 1-1s1 .4478 1 1v6.9258l10.2929-10.2929c.3905-.3905 1.0237-.3905 1.4142 0z" fill="#ab7500" fill-rule="evenodd"/></svg>