<svg fill="none" height="41" viewBox="0 0 40 41" width="40" xmlns="http://www.w3.org/2000/svg"><g clip-rule="evenodd" fill="#ab7500" fill-rule="evenodd"><path d="m19.9999 5.04346c-8.6524 0-15.66665 7.01424-15.66665 15.66664 0 8.6525 7.01425 15.6667 15.66665 15.6667 8.6525 0 15.6667-7.0142 15.6667-15.6667 0-8.6524-7.0142-15.66664-15.6667-15.66664zm-17.66665 15.66664c0-9.757 7.90965-17.66664 17.66665-17.66664s17.6667 7.90964 17.6667 17.66664c0 9.7571-7.9097 17.6667-17.6667 17.6667s-17.66665-7.9096-17.66665-17.6667z"/><path d="m20.5429 13.4287c-.931-.1597-1.8886.0152-2.703.4939-.8144.4786-1.4331 1.23-1.7466 2.1211-.1832.521-.7542.7948-1.2752.6115-.5209-.1832-.7947-.7542-.6114-1.2752.4702-1.3366 1.3983-2.4637 2.6199-3.1817 1.2216-.7179 2.6578-.9804 4.0544-.7408 1.3966.2395 2.6633.9656 3.5758 2.0496.9124 1.0838 1.4118 2.4555 1.4099 3.8722-.0004 2.1971-1.6351 3.7078-2.9453 4.5813-.6857.4571-1.3642.7956-1.8674 1.0193-.0652.029-.1278.0562-.1873.0815v1.9367c0 .5523-.4478 1-1 1-.5523 0-1-.4477-1-1v-2.6195c0-.4301.2749-.8119.6826-.9484h.0002m.0009-.0003.0052-.0018.0322-.0113c.03-.0107.0767-.0276.1377-.0509.1221-.0465.3005-.1178.5163-.2137.4343-.193 1.0058-.4795 1.5702-.8557 1.1896-.7931 2.0547-1.7821 2.0547-2.9179v-.0015c.0014-.9447-.3316-1.8593-.9399-2.582-.6084-.7227-1.4529-1.2067-2.3839-1.3664m5.3238 3.9506v.0007l-1-.0014h1z"/><path d="m19 29.0435c0-.5523.4477-1 1-1h.0167c.5523 0 1 .4477 1 1 0 .5522-.4477 1-1 1h-.0167c-.5523 0-1-.4478-1-1z"/></g></svg>