<svg fill="none" height="40" viewBox="0 0 40 40" width="40" xmlns="http://www.w3.org/2000/svg" xmlns:xlink="http://www.w3.org/1999/xlink"><clipPath id="a"><path d="m0 0h40v40h-40z"/></clipPath><g clip-path="url(#a)"><path clip-rule="evenodd" d="m34.7901.542053 4.6674 4.667477-4.2468 8.49377h-3.852l-4.3725 4.3725-5.0624-5.0624 4.3725-4.37247v-3.85199zm-26.07842 2.231367 4.01982 4.01986-5.9379 5.93792-4.01986-4.01985c-.02274.41573-.00426.8341.05601 1.24897.14408.99178.52284 1.93488 1.10478 2.75088.58194.8159 1.35026 1.4811 2.24106 1.9404.88842.458 1.87307.6979 2.8725.6999.5257-.0089 1.04791-.0876 1.55281-.234l.5672-.1646 22.0865 22.0494c.0003.0003.0006.0005.0009.0008.1543.153.3628.2388.5801.2388s.4257-.0858.58-.2386c.0003-.0004.0007-.0007.001-.001l2.586-2.586c.0003-.0004.0007-.0007.001-.001.1529-.1543.2386-.3628.2386-.58 0-.2173-.0858-.4258-.2387-.5801-.0003-.0003-.0006-.0006-.0009-.0009l-22.0494-22.0865.1646-.5672c.1465-.5049.2251-1.02714.234-1.55283-.002-.99944-.2419-1.98409-.6999-2.8725-.4592-.89081-1.1245-1.65912-1.9404-2.24106-.816-.58195-1.7591-.9607-2.75086-1.10478-.41486-.06027-.83324-.07875-1.24896-.05601zm-2.35252-1.55902c1.24887-.429185 2.58216-.554044 3.88904-.364197 1.3068.189847 2.5495.688917 3.6246 1.455707s1.9517 1.77916 2.5568 2.95293.9213 2.47503.9222 3.79559v.00808l-.0001.00808c-.0078.50513-.0639 1.00791-.1671 1.50151l21.2364 21.2722c.526.5291.8212 1.2449.8212 1.991s-.2952 1.4619-.8212 1.991l-.0021.0021-2.5902 2.5902-.0021.0021c-.5291.526-1.2449.8212-1.991.8212s-1.4618-.2952-1.991-.8212l-.0015-.0015-21.2707-21.2349c-.4936.1032-.99636.1593-1.50149.1671l-.00808.0001h-.00808c-1.32056-.001-2.62182-.3171-3.79559-.9222s-2.18614-1.4817-2.95293-2.5568c-.76679-1.0752-1.26586-2.3178-1.455705-3.6247-.189846-1.30681-.064987-2.64009.364195-3.88896l.52046-1.51447 5.05842 5.05842 3.10951-3.10951-5.05842-5.05843zm21.93714 4.81061v3.44435l-3.5441 3.54404 2.234 2.234 3.544-3.5441h3.4444l3.0494-6.09887-2.6288-2.62886zm-16.7284 15.84869c.3912-.3815 1.0176-.3785 1.4051.009l5.8699 5.8699-10.68617 10.6666-.00146.0015c-.52912.526-1.24489.8212-1.99097.8212-.74609 0-1.46186-.2952-1.99098-.8212l-.00211-.0021-2.5902-2.5902-.0021-.0021c-.52599-.5292-.82122-1.2449-.82122-1.991s.29524-1.4619.82122-1.991l.0021-.0021 9.97769-9.9777zm.6888 2.1212-9.25937 9.2594c-.00031.0003-.00062.0006-.00093.001-.15291.1543-.23871.3627-.23871.58 0 .2174.0859.426.23895.5803.00023.0002-.00023-.0002 0 0l2.58668 2.5867c.00036.0003.00071.0007.00107.001.1543.1529.3627.2386.57991.2386.21738 0 .42596-.0859.5803-.239.00023-.0002-.00022.0003 0 0l9.2685-9.2516z" fill="#ab7500" fill-rule="evenodd"/></g></svg>