<svg fill="none" height="40" viewBox="0 0 40 40" width="40" xmlns="http://www.w3.org/2000/svg"><g clip-rule="evenodd" fill="#ab7500" fill-rule="evenodd"><path d="m4.89081 19.9442c.55228 0 1 .4477 1 1v12.2762c0 .4861.19311.9523.53686 1.2961.34375.3437.80998.5369 1.29611.5369h24.55242c.4862 0 .9524-.1932 1.2961-.5369.3438-.3438.5369-.81.5369-1.2961v-12.2762c0-.5523.4477-1 1-1s1 .4477 1 1v12.2762c0 1.0166-.4038 1.9915-1.1226 2.7103-.7189.7188-1.6938 1.1227-2.7104 1.1227h-24.55242c-1.01657 0-1.9915-.4039-2.71032-1.1227s-1.12265-1.6938-1.12265-2.7103v-12.2762c0-.5523.44771-1 1-1z"/><path d="m3.94645 10.6119c-.23568 0-.46172.0937-.62837.2603-.16665.1667-.26028.3927-.26028.6284v7.5546c0 .2357.09363.4617.26028.6284.16665.1666.39269.2602.62837.2602h32.10705c.2357 0 .4617-.0936.6284-.2602.1666-.1667.2603-.3927.2603-.6284v-7.5546c0-.2357-.0937-.4617-.2603-.6284-.1667-.1666-.3927-.2603-.6284-.2603zm-2.04258-1.15389c.54172-.54173 1.27646-.84607 2.04258-.84607h32.10705c.7661 0 1.5009.30434 2.0426.84607.5417.54172.8461 1.27649.8461 2.04259v7.5546c0 .7661-.3044 1.5008-.8461 2.0426-.5417.5417-1.2765.846-2.0426.846h-32.10705c-.76612 0-1.50086-.3043-2.04258-.846-.54173-.5418-.84607-1.2765-.84607-2.0426v-7.5546c0-.7661.30434-1.50087.84607-2.04259z"/><path d="m13.2358 3.79205c.5417-.54173 1.2764-.84607 2.0425-.84607h9.4433c.7661 0 1.5008.30434 2.0426.84607.5417.54173.846 1.27647.846 2.04258v3.77731c0 .55226-.4477.99996-1 .99996-.5522 0-1-.4477-1-.99996v-3.77731c0-.23568-.0936-.46171-.2602-.62837-.1667-.16665-.3927-.26028-.6284-.26028h-9.4433c-.2356 0-.4617.09363-.6283.26028-.1667.16666-.2603.39269-.2603.62837v3.77731c0 .55226-.4477.99996-1 .99996s-1-.4477-1-.99996v-3.77731c0-.76611.3043-1.50085.8461-2.04258zm-1.7348 14.26315c.5523 0 1 .4477 1 1v5.6659c0 .5523-.4477 1-1 1-.5522 0-1-.4477-1-1v-5.6659c0-.5523.4478-1 1-1zm16.9979 0c.5523 0 1 .4477 1 1v5.6659c0 .5523-.4477 1-1 1s-1-.4477-1-1v-5.6659c0-.5523.4477-1 1-1z"/></g></svg>