<svg width="10" height="15" viewBox="0 0 10 15" fill="none" xmlns="http://www.w3.org/2000/svg">
<path d="M6.98501 7.28743L0.364978 12.7949C0.1308 12.9905 -0.00048624 13.2555 1.06039e-07 13.5316C0.000486452 13.8078 0.132706 14.0724 0.367571 14.2674C0.602436 14.4624 0.920709 14.5717 1.25237 14.5713C1.58403 14.5709 1.90192 14.4608 2.1361 14.2652L9.63614 8.02752C9.86275 7.83811 9.99296 7.58328 9.99972 7.31599C10.0065 7.04871 9.88927 6.78954 9.67244 6.59236L2.14128 0.3059C1.90711 0.110352 1.58922 0.000266399 1.25756 -0.000138938C0.925895 -0.000543321 0.607623 0.108766 0.372757 0.303741C0.137892 0.498717 0.00567291 0.763389 0.00518651 1.03953C0.00470011 1.31567 0.135987 1.58066 0.370164 1.77621L6.98501 7.28743Z" fill="white"/>
</svg>
