<svg width="60" height="60" viewBox="0 0 60 60" fill="none" xmlns="http://www.w3.org/2000/svg">
<circle cx="30" cy="30" r="30" fill="#4606BB"/>
<path d="M24.3333 45H17.875C16.8477 44.9988 15.8625 44.5903 15.1363 43.8637C14.4097 43.1374 14.0012 42.1522 14 41.125V34.6666C14 34.2051 14.2462 33.7786 14.6458 33.548C15.0454 33.3173 15.5379 33.3173 15.9375 33.548C16.3371 33.7786 16.5833 34.2051 16.5833 34.6666V41.125C16.5836 41.4675 16.7197 41.7959 16.9619 42.0381C17.2041 42.2803 17.5325 42.4164 17.875 42.4166H24.3333C24.7949 42.4166 25.2213 42.6629 25.452 43.0625C25.6826 43.4621 25.6826 43.9545 25.452 44.3541C25.2213 44.7537 24.7949 45 24.3333 45L24.3333 45Z" fill="white"/>
<path d="M43.7084 25.625C43.3658 25.625 43.0372 25.4889 42.795 25.2467C42.5528 25.0045 42.4167 24.6758 42.4167 24.3333V17.875C42.4164 17.5325 42.2803 17.2041 42.0381 16.9619C41.796 16.7197 41.4676 16.5836 41.125 16.5833H34.6667C34.2051 16.5833 33.7787 16.3371 33.5481 15.9375C33.3174 15.5379 33.3174 15.0454 33.5481 14.6458C33.7787 14.2462 34.2051 14 34.6667 14H41.125C42.1523 14.0012 43.1375 14.4097 43.8637 15.1363C44.5903 15.8626 44.9989 16.8478 45 17.875V24.3333C45 24.6758 44.864 25.0045 44.6218 25.2467C44.3796 25.4889 44.0509 25.625 43.7084 25.625L43.7084 25.625Z" fill="white"/>
<path d="M41.125 45.0001H34.6666C34.2051 45.0001 33.7786 44.7539 33.548 44.3543C33.3173 43.9546 33.3173 43.4622 33.548 43.0626C33.7786 42.663 34.2051 42.4168 34.6666 42.4168H41.125C41.4675 42.4165 41.7959 42.2804 42.0381 42.0382C42.2803 41.796 42.4163 41.4676 42.4166 41.1251V34.6668C42.4166 34.2052 42.6629 33.7788 43.0625 33.5481C43.4621 33.3175 43.9545 33.3175 44.3541 33.5481C44.7537 33.7788 45 34.2052 45 34.6668V41.1251C44.9988 42.1524 44.5903 43.1376 43.8637 43.8638C43.1374 44.5904 42.1522 44.9989 41.125 45.0001L41.125 45.0001Z" fill="white"/>
<path d="M15.2917 25.625C14.9491 25.625 14.6205 25.4889 14.3783 25.2467C14.1361 25.0045 14 24.6758 14 24.3333V17.875C14.0012 16.8477 14.4097 15.8625 15.1363 15.1363C15.8626 14.4097 16.8478 14.0012 17.875 14H24.3333C24.7949 14 25.2213 14.2462 25.452 14.6458C25.6826 15.0454 25.6826 15.5379 25.452 15.9375C25.2213 16.3371 24.7949 16.5833 24.3333 16.5833H17.875C17.5325 16.5836 17.2041 16.7197 16.9619 16.9619C16.7197 17.2041 16.5836 17.5325 16.5833 17.875V24.3333C16.5833 24.6758 16.4473 25.0045 16.2051 25.2467C15.9629 25.4889 15.6342 25.625 15.2917 25.625L15.2917 25.625Z" fill="white"/>
<path d="M33.375 29.5C33.375 31.6402 31.6402 33.375 29.5 33.375C27.3598 33.375 25.625 31.6402 25.625 29.5C25.625 27.3598 27.3598 25.625 29.5 25.625C31.6402 25.625 33.375 27.3598 33.375 29.5Z" fill="white"/>
</svg>
