<svg width="20" height="21" viewBox="0 0 20 21" fill="none" xmlns="http://www.w3.org/2000/svg">
<path d="M7.79117 0.5C8.40474 0.5 8.9022 0.997504 8.9022 1.61104C8.9022 2.18094 8.47334 2.65052 7.92078 2.7147L7.79117 2.72223H5.38423C4.19731 2.72223 3.77474 2.80384 3.34042 3.03613C2.99082 3.22307 2.72311 3.49077 2.53615 3.84042C2.33707 4.21264 2.24862 4.57632 2.22742 5.42008L2.22225 5.88422V15.1157C2.22225 16.3027 2.30387 16.7252 2.53615 17.1596C2.72309 17.5092 2.99079 17.7769 3.34043 17.9639C3.71264 18.1629 4.07631 18.2514 4.92006 18.2726L5.3842 18.2778H14.6156L15.0797 18.2726C15.9234 18.2514 16.2871 18.1629 16.6593 17.9639C17.0089 17.7769 17.2766 17.5092 17.4636 17.1596C17.6627 16.7873 17.7511 16.4237 17.7723 15.5799L17.7775 15.1158V12.7222C17.7775 12.1084 18.275 11.611 18.8887 11.611C19.4584 11.611 19.928 12.04 19.9922 12.5926L19.9997 12.7222V15.1158C19.9997 16.6381 19.8511 17.4073 19.4231 18.2076C19.0291 18.9445 18.4442 19.5294 17.7073 19.9234C16.9604 20.323 16.2406 20.4789 14.9102 20.498L14.6155 20.5H5.38416C3.86185 20.5 3.09261 20.3514 2.2924 19.9234C1.55551 19.5294 0.970552 18.9445 0.576591 18.2076C0.177023 17.4606 0.0210601 16.7409 0.00195311 15.4104L0 5.88424C0 4.36191 0.148577 3.59265 0.576602 2.79243C0.970563 2.05553 1.55552 1.47057 2.29241 1.0766C3.03933 0.677024 3.75904 0.521058 5.08953 0.501951L7.79117 0.5ZM20 0.5V7.16684C20 7.78041 19.5025 8.27788 18.889 8.27788C18.3191 8.27788 17.8495 7.84902 17.7853 7.2963L17.7778 7.16684L17.7777 4.29349L8.56346 13.5082C8.1296 13.9421 7.42604 13.9421 6.99204 13.5082C6.59151 13.1077 6.56069 12.4774 6.89969 12.0414L6.99204 11.9368L16.2063 2.72242H13.3332C12.7635 2.72242 12.2939 2.29342 12.2296 1.74084L12.2222 1.61124C12.2222 1.04148 12.6511 0.571872 13.2038 0.507729L13.3332 0.500195L20 0.5Z" fill="#383838"/>
</svg>
