<svg width="17" height="25" viewBox="0 0 17 25" fill="none" xmlns="http://www.w3.org/2000/svg">
<path d="M13.0569 9.48636C13.0729 9.31912 13.0848 9.16309 13.077 9.01555L13.0769 9.01454C13.0495 8.57441 13.4425 8.30138 13.7771 8.28208L13.7803 8.28189L13.7803 8.28191C14.2091 8.2628 14.4794 8.63464 14.5052 8.96891C14.5088 8.99563 14.5089 9.0183 14.5088 9.02802C14.5184 9.33273 14.478 9.6346 14.4363 9.91061M13.0569 9.48636L14.1891 9.87322M13.0569 9.48636L13.0496 9.5485C13.0466 9.5655 13.0444 9.58152 13.0429 9.59263L13.0427 9.59418C13.0409 9.60786 13.0398 9.61517 13.0386 9.62161L13.0386 9.6216L13.0379 9.62616C13.0222 9.72222 13.0043 9.81832 12.9842 9.91448C12.9355 10.1425 12.8711 10.3668 12.7932 10.5874L12.7926 10.5889C12.7752 10.6392 12.7558 10.6901 12.735 10.7445C12.7239 10.7604 12.7176 10.7733 12.7164 10.7758L12.7163 10.7761C12.7131 10.7826 12.7108 10.7879 12.7098 10.7904C12.7076 10.7956 12.706 10.7998 12.7055 10.8013L12.703 10.8084L12.6988 10.8216C12.6963 10.8298 12.6927 10.8412 12.689 10.8523C12.6862 10.8607 12.6844 10.8656 12.6837 10.8676L13.0569 9.48636ZM14.4363 9.91061L14.1891 9.87322M14.4363 9.91061C14.4363 9.91056 14.4363 9.91052 14.4363 9.91047L14.1891 9.87322M14.4363 9.91061C14.3557 10.4453 14.1951 10.9519 13.9864 11.4388L13.9864 11.4388C13.3855 12.8401 12.2643 13.9065 10.9854 14.6509L10.9853 14.651C9.80121 15.3395 8.49723 15.7648 7.21115 16.1219L7.21044 16.1221C7.09225 16.1546 6.97501 16.186 6.85861 16.2172C6.49991 16.3133 6.14914 16.4073 5.80274 16.5228L5.80096 16.5234L5.80096 16.5234C5.7127 16.552 5.62687 16.5829 5.54345 16.6158L5.54227 16.6163C5.52961 16.6212 5.51769 16.6254 5.5071 16.629M14.1891 9.87322C14.1123 10.3824 13.9589 10.8683 13.7566 11.3403C13.1823 12.6795 12.1058 13.7095 10.8596 14.4349C9.70409 15.1068 8.42534 15.5253 7.14426 15.8811C7.02943 15.9126 6.91434 15.9434 6.7992 15.9743C6.43874 16.0708 6.07786 16.1675 5.72368 16.2856C5.69787 16.294 5.67223 16.3026 5.64677 16.3113C5.65562 16.3358 5.6608 16.3621 5.66155 16.3893C5.66303 16.4424 5.64746 16.4838 5.63502 16.5085C5.61253 16.5533 5.58228 16.5792 5.5745 16.5859C5.56237 16.5963 5.55181 16.6033 5.54637 16.6068C5.54458 16.6079 5.54284 16.609 5.54117 16.61C5.54081 16.6102 5.54045 16.6104 5.54009 16.6107C5.53183 16.6156 5.52533 16.6188 5.52262 16.6201C5.52251 16.6202 5.5224 16.6203 5.52229 16.6203M5.5071 16.629C5.51474 16.6252 5.51854 16.6237 5.51978 16.6232L5.52285 16.6222L5.52229 16.6203M5.5071 16.629C5.50601 16.6295 5.50484 16.6301 5.50359 16.6307L5.47899 16.6433C5.46992 16.648 5.45804 16.6541 5.44523 16.6601C5.44569 16.6599 5.44616 16.6597 5.44662 16.6594L5.43955 16.6448C5.45453 16.6432 5.46626 16.6405 5.46921 16.6398L5.46947 16.6397C5.47477 16.6385 5.47934 16.6373 5.48258 16.6364C5.48923 16.6346 5.49573 16.6326 5.50156 16.6308C5.50336 16.6302 5.50521 16.6296 5.5071 16.629ZM5.52229 16.6203C5.52228 16.6203 5.52228 16.6203 5.52227 16.6203C5.5213 16.6208 5.52036 16.6212 5.51945 16.6217L5.44957 16.3841C5.44957 16.3841 5.44958 16.3841 5.44958 16.3841C5.45006 16.3839 5.45055 16.3837 5.45103 16.3835L5.52229 16.6203ZM12.9614 10.8521L12.7281 10.7623C12.7281 10.7623 12.7281 10.7623 12.7281 10.7623M12.9614 10.8521L12.6846 10.8657L12.6863 10.8665M12.9614 10.8521C12.9573 10.8628 12.9523 10.8735 12.9473 10.8843C12.9408 10.8983 12.9342 10.9124 12.9293 10.927C12.9374 10.8979 12.9404 10.887 12.9403 10.887C12.9402 10.887 12.9309 10.9182 12.9218 10.9444L12.7589 10.8991M12.9614 10.8521L12.6908 10.8954M12.9614 10.8521L12.7281 10.7623M12.9614 10.8521L12.7281 10.7623M12.7281 10.7623C12.7281 10.7624 12.7278 10.763 12.7273 10.7642L12.7245 10.7704L12.7134 10.7946C12.7085 10.8052 12.7016 10.8209 12.6948 10.8402M12.6948 10.8402L12.6948 10.84C12.6961 10.8332 12.6974 10.8279 12.6975 10.8276C12.6984 10.8242 12.6991 10.8216 12.6984 10.8243L12.6898 10.8551M12.6948 10.8402C12.6931 10.8449 12.6914 10.8499 12.6898 10.8551M12.6948 10.8402L12.6931 10.8502C12.6927 10.8527 12.6917 10.8595 12.691 10.8686L12.7589 10.8991M12.6898 10.8551C12.6886 10.8588 12.6875 10.8626 12.6863 10.8665M12.6898 10.8551L12.6866 10.8666L12.6863 10.8665M12.6863 10.8665C12.6861 10.8673 12.6859 10.8682 12.6856 10.869M12.7589 10.8991L12.7468 10.8958M12.7589 10.8991L12.8034 10.9192L12.8225 10.9278L12.8166 10.9263L12.7973 10.9179L12.7468 10.8958M12.7468 10.8958L12.6908 10.8713C12.6907 10.873 12.6906 10.8748 12.6906 10.8766C12.6905 10.8776 12.6905 10.8788 12.6905 10.8801M12.7468 10.8958L12.6905 10.8801M12.6905 10.8801L12.6834 10.8782L12.6859 10.8691L12.6856 10.869M12.6905 10.8801C12.6905 10.8841 12.6906 10.8894 12.6908 10.895C12.6908 10.8952 12.6908 10.8953 12.6908 10.8954M12.6856 10.869C12.6835 10.8766 12.6815 10.8845 12.6798 10.8927L12.6908 10.8954M12.6856 10.869L12.6836 10.8681C12.6834 10.8685 12.6833 10.8687 12.6834 10.8685L12.6908 10.8954M5.4361 16.6452L5.33773 16.4344C5.28696 16.459 5.23734 16.4835 5.18888 16.5097M5.4361 16.6452L5.06024 16.8772L5.02542 16.825C5.02749 16.8168 5.0294 16.8075 5.03079 16.7973C5.03413 16.7727 5.03699 16.7245 5.0147 16.6696C5.00824 16.6537 5.00029 16.6388 4.99108 16.625C5.03644 16.5968 5.08246 16.5698 5.12848 16.5437C5.14841 16.532 5.16854 16.5207 5.18888 16.5097M5.4361 16.6452C5.43027 16.6458 5.39934 16.6489 5.36234 16.6414L5.36183 16.6413C5.34775 16.6385 5.27558 16.624 5.21906 16.5557C5.20743 16.5416 5.19728 16.5262 5.18888 16.5097M5.4361 16.6452L5.18888 16.5097M5.00096 16.7883C4.99986 16.7508 4.99006 16.6982 4.95379 16.6484C4.943 16.6553 4.93225 16.6622 4.92156 16.6692M5.00096 16.7883L4.91208 16.9825C4.91854 16.9768 4.92437 16.9716 4.92849 16.968C4.93156 16.9653 4.93388 16.9633 4.93554 16.9619C4.93793 16.9598 4.93897 16.9589 4.93896 16.9589C4.93895 16.9589 4.93761 16.96 4.9354 16.9617C4.93315 16.9635 4.93 16.9658 4.92642 16.9684C4.92403 16.97 4.91727 16.9748 4.9081 16.9801C4.90365 16.9826 4.89471 16.9877 4.88286 16.9928L4.88252 16.993C4.8789 16.9946 4.86962 16.9986 4.85613 17.0027C4.85542 17.0029 4.8547 17.0031 4.85396 17.0033C4.8403 17.0074 4.82266 17.0113 4.80241 17.0129C4.78829 17.014 4.7653 17.0146 4.73754 17.0095C4.73753 17.0095 4.73753 17.0094 4.73753 17.0094C4.7214 17.0065 4.70367 17.0015 4.68513 16.9937C4.65127 16.9792 4.62051 16.9573 4.5956 16.929C4.60652 16.9191 4.61755 16.909 4.62868 16.8989L4.63326 16.8947L4.63337 16.8946C4.65891 16.8714 4.68444 16.8482 4.70998 16.8273C4.71434 16.8237 4.72666 16.8128 4.73996 16.801C4.74924 16.7928 4.75901 16.7841 4.76689 16.7772L4.76811 16.7785M5.00096 16.7883L4.92156 16.6692M5.00096 16.7883L4.95788 16.9354M4.92156 16.6692C4.90412 16.6808 4.88727 16.6931 4.87042 16.7053C4.85356 16.7175 4.8367 16.7297 4.81926 16.7413M4.92156 16.6692L5.00101 16.7905C5.00119 16.7991 5.00092 16.8068 5.00042 16.8135C4.99743 16.8535 4.98546 16.8829 4.98033 16.8946C4.97231 16.9131 4.96334 16.9273 4.95788 16.9354M4.81926 16.7413C4.81365 16.7453 4.79948 16.7568 4.7855 16.7681C4.78016 16.7724 4.77485 16.7767 4.77006 16.7805C4.77004 16.7806 4.77002 16.7806 4.77001 16.7806C4.75098 16.7959 4.74013 16.804 4.76811 16.7785M4.81926 16.7413L4.95788 16.9354M4.81926 16.7413L4.95311 16.9421C4.94819 16.9488 4.94398 16.9539 4.94176 16.9565C4.94115 16.9572 4.94055 16.9579 4.93997 16.9585C4.93861 16.9601 4.93736 16.9615 4.93626 16.9627C4.93433 16.9648 4.93291 16.9663 4.93228 16.9669L4.92929 16.9699M4.76811 16.7785C4.7921 16.7556 4.78387 16.7624 4.76692 16.7772L4.76811 16.7785ZM4.46496 17.2976C4.45854 17.2524 4.44563 17.2019 4.42167 17.157C4.4098 17.1509 4.39771 17.1455 4.38552 17.1409C4.41814 17.1049 4.45145 17.0696 4.48678 17.0342C4.51147 17.0083 4.53681 16.9837 4.56281 16.9594L4.47565 17.4191L4.48032 17.4121L4.48248 17.4089L4.48322 17.4077L4.46977 17.3987M4.46496 17.2976L4.33566 17.197L4.46679 17.3117M4.46496 17.2976C4.46564 17.3023 4.46625 17.3071 4.46679 17.3117M4.46496 17.2976L4.533 17.3505L4.46679 17.3117M4.46679 17.3117C4.47083 17.3467 4.47107 17.3775 4.46977 17.3987M4.46977 17.3987L4.4219 17.3666L4.375 17.3352L4.27692 17.2694C4.27678 17.2696 4.27665 17.2698 4.27652 17.2699C4.27652 17.2699 4.27651 17.2699 4.27651 17.27L4.38247 17.3414L4.43515 17.3769L4.46968 17.4002C4.46971 17.3997 4.46974 17.3993 4.46977 17.3988C4.46977 17.3988 4.46977 17.3987 4.46977 17.3987ZM4.95788 16.9354L4.92923 16.97C4.92903 16.9702 4.92903 16.9702 4.92929 16.9699M4.92929 16.9699C4.92992 16.9693 4.9321 16.9673 4.93667 16.9631L4.93672 16.9632L4.94074 16.9593C4.94565 16.9546 4.95074 16.9497 4.95524 16.9453L4.92929 16.9699ZM3.73981 18.2843C3.70601 18.3887 3.67806 18.495 3.66141 18.6013C3.61957 18.8594 3.31266 18.978 3.08946 18.9268L3.03362 19.1705L3.73981 18.2843ZM3.73981 18.2843C3.74979 18.2914 3.76022 18.2981 3.77108 18.3041C3.88441 18.3 4.00196 18.2291 4.01786 18.2102C4.0235 18.2025 4.03153 18.1903 4.03414 18.186C4.03823 18.1791 4.04108 18.1735 4.04167 18.1724L4.04405 18.1676L4.04593 18.1636L4.04882 18.1572L4.05842 18.135L3.73981 18.2843ZM3.83113 18.034L4.05247 18.1324C4.04969 18.1361 4.04658 18.1401 4.04317 18.1441C4.03851 18.1496 4.02995 18.1593 4.01788 18.17C4.00832 18.1785 3.98253 18.2004 3.94278 18.2158C3.90595 18.2302 3.83723 18.2453 3.76265 18.2164C3.7842 18.1546 3.80741 18.0937 3.83113 18.034ZM3.83113 18.034L4.05828 18.1243C4.05935 18.1227 4.06034 18.1212 4.06125 18.1198C4.06141 18.1192 4.06156 18.1185 4.06173 18.1178C4.06179 18.1175 4.06184 18.1172 4.0619 18.117C4.06273 18.1132 4.06365 18.1089 4.0645 18.1046L3.84372 18.0042C3.84151 18.0096 3.83912 18.0153 3.83692 18.0205C3.83469 18.0258 3.83264 18.0306 3.83113 18.034ZM3.84372 18.0042L4.06491 18.1025C4.06559 18.099 4.06621 18.0955 4.0667 18.0925C4.06852 18.0664 4.02614 17.9523 3.94102 17.8692L3.91251 17.855L3.93965 17.8679L3.84372 18.0042ZM3.84372 18.0042C3.84755 17.9949 3.85087 17.9866 3.85186 17.9839L3.84372 18.0042ZM9.25066 14.207L9.22215 14.1856L9.22206 14.1855L9.169 14.1457L9.16442 14.1423L9.05072 14.057C9.05185 14.0555 9.05299 14.054 9.05414 14.0526L9.25066 14.207ZM9.25066 14.207C9.24525 14.2093 9.23985 14.2117 9.23444 14.214C9.22635 14.2175 9.2205 14.2205 9.21648 14.2231C9.21582 14.2233 9.21516 14.2235 9.21451 14.2237C9.2095 14.2253 9.20502 14.2267 9.20189 14.2279L9.25066 14.207ZM11.4105 12.9353C11.3989 12.9451 11.3872 12.9549 11.3754 12.9646C11.3277 12.9054 11.2667 12.8574 11.2145 12.8456C11.1788 12.8479 11.1297 12.8596 11.1159 12.865C11.1086 12.8681 11.0971 12.8737 11.0928 12.876L11.083 12.8816C11.0821 12.8822 11.0812 12.8827 11.0804 12.8832C11.08 12.8835 11.0796 12.8837 11.0793 12.8839M11.4105 12.9353L11.0915 12.8734C11.0918 12.8732 11.0916 12.8733 11.0912 12.8736M11.4105 12.9353C11.3632 12.877 11.3033 12.8297 11.2514 12.8178C11.2156 12.82 11.1662 12.8318 11.1523 12.8371C11.145 12.8403 11.1335 12.8459 11.1292 12.8482L11.1193 12.8539C11.1152 12.8564 11.1119 12.8585 11.1104 12.8595L11.104 12.8639L11.0997 12.867L11.0979 12.8684L11.0935 12.8717L11.0889 12.8752L11.078 12.8836L11.0731 12.8874M11.4105 12.9353L11.0731 12.8874M11.0793 12.8839L11.0803 12.883L11.0832 12.8804L11.0877 12.8766L11.0896 12.8749L11.0912 12.8736M11.0793 12.8839L11.078 12.8851L11.0747 12.8883L11.0742 12.8888M11.0793 12.8839C11.077 12.8854 11.0752 12.8866 11.0742 12.8872L11.0739 12.8874L11.0734 12.8878L11.0742 12.8888M11.0912 12.8736L11.0799 12.8825L11.0798 12.8824L11.0758 12.8858C11.0753 12.8861 11.0745 12.8867 11.0732 12.8876L11.0731 12.8874M11.0912 12.8736L11.227 13.084M11.0742 12.8888L11.227 13.084M11.0742 12.8888L11.0733 12.8896L11.073 12.8899M11.227 13.084L11.073 12.8899M11.227 13.084L11.1898 13.1119L11.0477 12.9191M11.073 12.8899L11.072 12.8887L11.0678 12.8916L11.0641 12.8943L11.0639 12.8944L11.0676 12.8916L11.069 12.8905M11.073 12.8899L11.0652 12.8979C11.0618 12.9017 11.0533 12.9118 11.0482 12.9183C11.0481 12.9186 11.0479 12.9188 11.0477 12.9191M11.069 12.8905L11.0696 12.8901C11.0704 12.8895 11.0712 12.889 11.0719 12.8885L11.0718 12.8884M11.069 12.8905L11.0718 12.8884M11.069 12.8905L11.0683 12.891L11.0718 12.8884M11.0718 12.8884L11.0731 12.8874M11.0477 12.9191L11.0425 12.9121L11.0417 12.9129L11.037 12.9174L11.032 12.9226L11.04 12.9322C11.043 12.9266 11.0457 12.9221 11.0477 12.9191ZM13.2846 9.66633C13.2867 9.65465 13.2884 9.64297 13.29 9.63129C13.29 9.63128 13.29 9.63127 13.29 9.63126C13.2901 9.63016 13.2903 9.62906 13.2904 9.62796C13.2922 9.61518 13.2939 9.60239 13.2962 9.5896M13.2846 9.66633L13.2971 9.5846C13.2968 9.58616 13.2965 9.58783 13.2962 9.5896M13.2846 9.66633C13.2769 9.71385 13.2686 9.76139 13.2598 9.80891L13.2846 9.66633ZM13.2962 9.5896L13.0601 9.54928L13.0928 9.49316C13.0889 9.4984 13.082 9.50824 13.0791 9.51281C13.0767 9.51671 13.0724 9.52405 13.0705 9.52746C13.0663 9.53528 13.0632 9.54203 13.0611 9.54685L13.2962 9.5896ZM4.96088 16.9396L4.96553 16.9347C4.96645 16.9337 4.97419 16.9255 4.98257 16.9144C4.98509 16.911 4.98931 16.9053 4.99405 16.8978C4.99769 16.8921 5.00741 16.8764 5.01593 16.8546C5.01842 16.8482 5.02181 16.8388 5.02491 16.827L4.96088 16.9396ZM3.84335 18.0025C3.84316 18.0029 3.84297 18.0033 3.84278 18.0038C3.84081 18.0083 3.83849 18.0137 3.83578 18.02C3.8336 18.0251 3.83167 18.0295 3.82997 18.0335C3.82996 18.0335 3.82996 18.0335 3.82995 18.0335C3.8115 18.0761 3.81978 18.0567 3.82981 18.0335C3.82982 18.0335 3.82983 18.0334 3.82984 18.0334C3.83177 18.0289 3.83377 18.0243 3.83565 18.02C3.83848 18.0135 3.84105 18.0076 3.84276 18.0038C3.84295 18.0033 3.84315 18.0029 3.84335 18.0025ZM4.06237 18.1259L4.06525 18.1193L4.06557 18.1185C4.06813 18.1126 4.07021 18.1077 4.07188 18.1039L4.06237 18.1259ZM9.00906 14.0795C9.00821 14.0806 9.00736 14.0818 9.00651 14.083L9.09029 14.2744L9.00906 14.0795ZM11.0572 13.2096L10.9771 13.0985C10.9775 13.0999 10.978 13.1013 10.9785 13.1027L11.0572 13.2096ZM12.0901 11.8908C12.0941 11.8855 12.0969 11.8822 12.0976 11.8814C12.1013 11.877 12.104 11.8741 12.1048 11.8733C12.1052 11.8729 12.1054 11.8727 12.1054 11.8727C12.1053 11.8728 12.1007 11.8773 12.0881 11.8885L12.0901 11.8908Z" fill="#FF8154" stroke="#FF8154" stroke-width="0.5"/>
<path d="M3.92056 18.7527V20.2756C3.92056 20.6863 3.58665 20.9734 3.21708 20.9904C3.21705 20.9904 3.21703 20.9904 3.217 20.9904L3.20554 20.7406C2.95442 20.7522 2.74052 20.5197 2.74052 20.2756L3.92056 18.7527ZM3.92056 18.7527V15.0955V10.6711V6.84408C3.92056 6.64052 3.92184 6.43528 3.92312 6.22915C3.92571 5.81415 3.92832 5.39549 3.92056 4.97941V4.95616C3.92056 4.58741 3.60491 4.22241 3.194 4.24141C2.82762 4.25834 2.49052 4.54467 2.49052 4.95616V6.47903V10.1362V14.5607V18.3877C2.49052 18.5913 2.48924 18.7965 2.48796 19.0026C2.48537 19.4176 2.48277 19.8363 2.49052 20.2524L3.92056 18.7527Z" fill="#FF8154" stroke="#FF8154" stroke-width="0.5"/>
<mask id="path-3-outside-1_655_706" maskUnits="userSpaceOnUse" x="10.5883" y="4.04541" width="6" height="6" fill="black">
<rect fill="white" x="10.5883" y="4.04541" width="6" height="6"/>
<path d="M15.07 7.25499C15.07 7.29917 15.0676 7.34102 15.0653 7.3852C15.063 7.4038 15.056 7.43402 15.0583 7.45029C15.056 7.43867 15.0769 7.33869 15.0607 7.42239C15.0444 7.5061 15.0281 7.58747 15.0025 7.66652C14.9956 7.68512 14.977 7.77579 14.9607 7.78277C14.9607 7.78277 15.0118 7.67582 14.97 7.7572L14.9421 7.813C14.9049 7.88507 14.863 7.95482 14.8165 8.02225C14.8142 8.02457 14.7886 8.06875 14.7817 8.07107C14.784 8.07107 14.8561 7.98272 14.7979 8.04782C14.77 8.07805 14.7445 8.10827 14.7166 8.1385C14.691 8.16407 14.6654 8.18964 14.6398 8.2129C14.6259 8.22685 14.6096 8.2408 14.5933 8.25242C14.5306 8.30822 14.598 8.27102 14.605 8.24545C14.591 8.29195 14.4399 8.35705 14.4004 8.37797C14.3701 8.39425 14.3376 8.41052 14.305 8.42679C14.2888 8.43377 14.226 8.46399 14.2911 8.43377C14.3585 8.40354 14.2748 8.43842 14.2609 8.44539C14.1818 8.47329 14.1028 8.49654 14.0191 8.51282C13.9958 8.51747 13.8865 8.51979 13.9563 8.52444C14.0237 8.52909 13.9586 8.52212 13.9377 8.52444C13.9098 8.52677 13.8842 8.52909 13.8563 8.52909C13.7749 8.53142 13.675 8.50584 13.5959 8.51979C13.5959 8.51979 13.6912 8.53607 13.6401 8.52677C13.6192 8.52212 13.5982 8.51979 13.5773 8.51514C13.5308 8.50584 13.4843 8.49422 13.4401 8.48259C13.4006 8.47097 13.3611 8.45934 13.3216 8.44539C13.3123 8.44307 13.2658 8.42912 13.2634 8.42447C13.2634 8.42447 13.3704 8.47562 13.289 8.43377C13.2146 8.39657 13.1425 8.35937 13.0751 8.31519C13.0565 8.30357 12.9821 8.26637 12.9751 8.24544C12.9751 8.24777 13.0635 8.31984 12.9984 8.26172C12.9844 8.24777 12.9682 8.23614 12.9519 8.22219C12.8914 8.16639 12.838 8.10827 12.7822 8.04781C12.7403 8.00131 12.7729 8.06176 12.7984 8.07107C12.7915 8.06874 12.7659 8.02456 12.7636 8.02224C12.7403 7.98969 12.7171 7.95482 12.6961 7.91994C12.6775 7.88972 12.6613 7.85717 12.6427 7.82694L12.6148 7.77114C12.5729 7.68977 12.6008 7.77579 12.6171 7.78277C12.5845 7.76882 12.5543 7.59677 12.545 7.56189C12.5357 7.52004 12.5264 7.48052 12.5194 7.43867C12.5148 7.41542 12.5194 7.35497 12.5148 7.42239C12.5101 7.49679 12.5148 7.40612 12.5125 7.38752C12.5055 7.30614 12.5055 7.22477 12.5125 7.14339C12.5148 7.12247 12.5171 7.10154 12.5171 7.0783C12.5218 7.0132 12.5008 7.1713 12.5125 7.1062C12.5218 7.05969 12.5287 7.0132 12.5404 6.9667C12.559 6.88997 12.5892 6.8179 12.6101 6.7435C12.6264 6.68305 12.5706 6.82255 12.5985 6.76907C12.6078 6.75047 12.6148 6.73187 12.6241 6.71327C12.645 6.67142 12.6659 6.63189 12.6915 6.59237C12.7124 6.55749 12.7357 6.52262 12.7589 6.49007C12.7659 6.48077 12.7868 6.44357 12.7938 6.44125C12.7984 6.43892 12.731 6.51332 12.7682 6.47612C12.8287 6.41335 12.8821 6.34825 12.9472 6.29012C12.9612 6.27617 12.9775 6.26455 12.9937 6.2506C13.0402 6.20875 12.9798 6.2413 12.9705 6.26687C12.9798 6.24362 13.0356 6.21805 13.0588 6.2041C13.1309 6.15527 13.2076 6.11575 13.2867 6.07622C13.3471 6.046 13.2658 6.0739 13.2611 6.08552C13.2634 6.08087 13.3192 6.0646 13.3192 6.0646C13.3541 6.05297 13.389 6.04135 13.4239 6.03205C13.4634 6.02042 13.5052 6.01112 13.5448 6.00182C13.5657 5.99717 13.5866 5.99252 13.6075 5.9902C13.6168 5.98787 13.6285 5.98555 13.6378 5.98555C13.6726 5.9809 13.6587 5.9809 13.5936 5.99252C13.6122 5.96462 13.8005 5.9809 13.8377 5.98322C13.8819 5.98555 13.9237 5.9902 13.9679 5.99252C14.033 5.99717 13.8749 5.97625 13.94 5.98787C13.9656 5.99252 13.9912 5.99717 14.0191 6.00182C14.1121 6.02042 14.2004 6.04832 14.2888 6.08087C14.3539 6.10412 14.2725 6.0646 14.2632 6.06925C14.2702 6.06692 14.312 6.0925 14.319 6.09482C14.3655 6.11807 14.4097 6.14132 14.4538 6.1669C14.4887 6.18782 14.5236 6.21107 14.5561 6.23432C14.5585 6.23664 14.6026 6.26222 14.605 6.26919C14.5561 6.22967 14.5445 6.22269 14.5701 6.24362C14.5817 6.25292 14.5933 6.26222 14.605 6.27384C14.6747 6.3343 14.7352 6.40172 14.7956 6.46915C14.8096 6.4831 14.8398 6.50402 14.7979 6.46915C14.7468 6.4273 14.8026 6.47612 14.8165 6.49472C14.8421 6.53192 14.8677 6.57145 14.8909 6.61097C14.9142 6.6505 14.9351 6.69002 14.956 6.73188C14.956 6.72955 14.9839 6.78302 14.9816 6.78768C14.9886 6.77373 14.9444 6.6877 14.9746 6.77605C15.0072 6.8644 15.0328 6.95507 15.0514 7.04807C15.056 7.069 15.0583 7.08992 15.063 7.11085C15.0746 7.16898 15.056 7.01087 15.0607 7.09923C15.0653 7.14805 15.0676 7.20152 15.07 7.255C15.0723 7.49913 15.2815 7.73163 15.535 7.72003C15.7861 7.7084 16.0023 7.51542 16 7.255C15.9907 6.31339 15.4002 5.49729 14.5213 5.1718C13.6843 4.86025 12.6706 5.14157 12.1079 5.82979C11.5174 6.55054 11.4081 7.5782 11.894 8.38729C12.3823 9.19872 13.3286 9.59397 14.2493 9.41495C15.263 9.21732 15.9883 8.27335 15.9977 7.255C16 7.01088 15.7814 6.77837 15.5326 6.78998C15.2792 6.80161 15.0723 6.99458 15.07 7.255L15.07 7.25499Z"/>
</mask>
<path d="M15.07 7.25499C15.07 7.29917 15.0676 7.34102 15.0653 7.3852C15.063 7.4038 15.056 7.43402 15.0583 7.45029C15.056 7.43867 15.0769 7.33869 15.0607 7.42239C15.0444 7.5061 15.0281 7.58747 15.0025 7.66652C14.9956 7.68512 14.977 7.77579 14.9607 7.78277C14.9607 7.78277 15.0118 7.67582 14.97 7.7572L14.9421 7.813C14.9049 7.88507 14.863 7.95482 14.8165 8.02225C14.8142 8.02457 14.7886 8.06875 14.7817 8.07107C14.784 8.07107 14.8561 7.98272 14.7979 8.04782C14.77 8.07805 14.7445 8.10827 14.7166 8.1385C14.691 8.16407 14.6654 8.18964 14.6398 8.2129C14.6259 8.22685 14.6096 8.2408 14.5933 8.25242C14.5306 8.30822 14.598 8.27102 14.605 8.24545C14.591 8.29195 14.4399 8.35705 14.4004 8.37797C14.3701 8.39425 14.3376 8.41052 14.305 8.42679C14.2888 8.43377 14.226 8.46399 14.2911 8.43377C14.3585 8.40354 14.2748 8.43842 14.2609 8.44539C14.1818 8.47329 14.1028 8.49654 14.0191 8.51282C13.9958 8.51747 13.8865 8.51979 13.9563 8.52444C14.0237 8.52909 13.9586 8.52212 13.9377 8.52444C13.9098 8.52677 13.8842 8.52909 13.8563 8.52909C13.7749 8.53142 13.675 8.50584 13.5959 8.51979C13.5959 8.51979 13.6912 8.53607 13.6401 8.52677C13.6192 8.52212 13.5982 8.51979 13.5773 8.51514C13.5308 8.50584 13.4843 8.49422 13.4401 8.48259C13.4006 8.47097 13.3611 8.45934 13.3216 8.44539C13.3123 8.44307 13.2658 8.42912 13.2634 8.42447C13.2634 8.42447 13.3704 8.47562 13.289 8.43377C13.2146 8.39657 13.1425 8.35937 13.0751 8.31519C13.0565 8.30357 12.9821 8.26637 12.9751 8.24544C12.9751 8.24777 13.0635 8.31984 12.9984 8.26172C12.9844 8.24777 12.9682 8.23614 12.9519 8.22219C12.8914 8.16639 12.838 8.10827 12.7822 8.04781C12.7403 8.00131 12.7729 8.06176 12.7984 8.07107C12.7915 8.06874 12.7659 8.02456 12.7636 8.02224C12.7403 7.98969 12.7171 7.95482 12.6961 7.91994C12.6775 7.88972 12.6613 7.85717 12.6427 7.82694L12.6148 7.77114C12.5729 7.68977 12.6008 7.77579 12.6171 7.78277C12.5845 7.76882 12.5543 7.59677 12.545 7.56189C12.5357 7.52004 12.5264 7.48052 12.5194 7.43867C12.5148 7.41542 12.5194 7.35497 12.5148 7.42239C12.5101 7.49679 12.5148 7.40612 12.5125 7.38752C12.5055 7.30614 12.5055 7.22477 12.5125 7.14339C12.5148 7.12247 12.5171 7.10154 12.5171 7.0783C12.5218 7.0132 12.5008 7.1713 12.5125 7.1062C12.5218 7.05969 12.5287 7.0132 12.5404 6.9667C12.559 6.88997 12.5892 6.8179 12.6101 6.7435C12.6264 6.68305 12.5706 6.82255 12.5985 6.76907C12.6078 6.75047 12.6148 6.73187 12.6241 6.71327C12.645 6.67142 12.6659 6.63189 12.6915 6.59237C12.7124 6.55749 12.7357 6.52262 12.7589 6.49007C12.7659 6.48077 12.7868 6.44357 12.7938 6.44125C12.7984 6.43892 12.731 6.51332 12.7682 6.47612C12.8287 6.41335 12.8821 6.34825 12.9472 6.29012C12.9612 6.27617 12.9775 6.26455 12.9937 6.2506C13.0402 6.20875 12.9798 6.2413 12.9705 6.26687C12.9798 6.24362 13.0356 6.21805 13.0588 6.2041C13.1309 6.15527 13.2076 6.11575 13.2867 6.07622C13.3471 6.046 13.2658 6.0739 13.2611 6.08552C13.2634 6.08087 13.3192 6.0646 13.3192 6.0646C13.3541 6.05297 13.389 6.04135 13.4239 6.03205C13.4634 6.02042 13.5052 6.01112 13.5448 6.00182C13.5657 5.99717 13.5866 5.99252 13.6075 5.9902C13.6168 5.98787 13.6285 5.98555 13.6378 5.98555C13.6726 5.9809 13.6587 5.9809 13.5936 5.99252C13.6122 5.96462 13.8005 5.9809 13.8377 5.98322C13.8819 5.98555 13.9237 5.9902 13.9679 5.99252C14.033 5.99717 13.8749 5.97625 13.94 5.98787C13.9656 5.99252 13.9912 5.99717 14.0191 6.00182C14.1121 6.02042 14.2004 6.04832 14.2888 6.08087C14.3539 6.10412 14.2725 6.0646 14.2632 6.06925C14.2702 6.06692 14.312 6.0925 14.319 6.09482C14.3655 6.11807 14.4097 6.14132 14.4538 6.1669C14.4887 6.18782 14.5236 6.21107 14.5561 6.23432C14.5585 6.23664 14.6026 6.26222 14.605 6.26919C14.5561 6.22967 14.5445 6.22269 14.5701 6.24362C14.5817 6.25292 14.5933 6.26222 14.605 6.27384C14.6747 6.3343 14.7352 6.40172 14.7956 6.46915C14.8096 6.4831 14.8398 6.50402 14.7979 6.46915C14.7468 6.4273 14.8026 6.47612 14.8165 6.49472C14.8421 6.53192 14.8677 6.57145 14.8909 6.61097C14.9142 6.6505 14.9351 6.69002 14.956 6.73188C14.956 6.72955 14.9839 6.78302 14.9816 6.78768C14.9886 6.77373 14.9444 6.6877 14.9746 6.77605C15.0072 6.8644 15.0328 6.95507 15.0514 7.04807C15.056 7.069 15.0583 7.08992 15.063 7.11085C15.0746 7.16898 15.056 7.01087 15.0607 7.09923C15.0653 7.14805 15.0676 7.20152 15.07 7.255C15.0723 7.49913 15.2815 7.73163 15.535 7.72003C15.7861 7.7084 16.0023 7.51542 16 7.255C15.9907 6.31339 15.4002 5.49729 14.5213 5.1718C13.6843 4.86025 12.6706 5.14157 12.1079 5.82979C11.5174 6.55054 11.4081 7.5782 11.894 8.38729C12.3823 9.19872 13.3286 9.59397 14.2493 9.41495C15.263 9.21732 15.9883 8.27335 15.9977 7.255C16 7.01088 15.7814 6.77837 15.5326 6.78998C15.2792 6.80161 15.0723 6.99458 15.07 7.255L15.07 7.25499Z" fill="#FF8154"/>
<path d="M15.07 7.25499C15.07 7.29917 15.0676 7.34102 15.0653 7.3852C15.063 7.4038 15.056 7.43402 15.0583 7.45029C15.056 7.43867 15.0769 7.33869 15.0607 7.42239C15.0444 7.5061 15.0281 7.58747 15.0025 7.66652C14.9956 7.68512 14.977 7.77579 14.9607 7.78277C14.9607 7.78277 15.0118 7.67582 14.97 7.7572L14.9421 7.813C14.9049 7.88507 14.863 7.95482 14.8165 8.02225C14.8142 8.02457 14.7886 8.06875 14.7817 8.07107C14.784 8.07107 14.8561 7.98272 14.7979 8.04782C14.77 8.07805 14.7445 8.10827 14.7166 8.1385C14.691 8.16407 14.6654 8.18964 14.6398 8.2129C14.6259 8.22685 14.6096 8.2408 14.5933 8.25242C14.5306 8.30822 14.598 8.27102 14.605 8.24545C14.591 8.29195 14.4399 8.35705 14.4004 8.37797C14.3701 8.39425 14.3376 8.41052 14.305 8.42679C14.2888 8.43377 14.226 8.46399 14.2911 8.43377C14.3585 8.40354 14.2748 8.43842 14.2609 8.44539C14.1818 8.47329 14.1028 8.49654 14.0191 8.51282C13.9958 8.51747 13.8865 8.51979 13.9563 8.52444C14.0237 8.52909 13.9586 8.52212 13.9377 8.52444C13.9098 8.52677 13.8842 8.52909 13.8563 8.52909C13.7749 8.53142 13.675 8.50584 13.5959 8.51979C13.5959 8.51979 13.6912 8.53607 13.6401 8.52677C13.6192 8.52212 13.5982 8.51979 13.5773 8.51514C13.5308 8.50584 13.4843 8.49422 13.4401 8.48259C13.4006 8.47097 13.3611 8.45934 13.3216 8.44539C13.3123 8.44307 13.2658 8.42912 13.2634 8.42447C13.2634 8.42447 13.3704 8.47562 13.289 8.43377C13.2146 8.39657 13.1425 8.35937 13.0751 8.31519C13.0565 8.30357 12.9821 8.26637 12.9751 8.24544C12.9751 8.24777 13.0635 8.31984 12.9984 8.26172C12.9844 8.24777 12.9682 8.23614 12.9519 8.22219C12.8914 8.16639 12.838 8.10827 12.7822 8.04781C12.7403 8.00131 12.7729 8.06176 12.7984 8.07107C12.7915 8.06874 12.7659 8.02456 12.7636 8.02224C12.7403 7.98969 12.7171 7.95482 12.6961 7.91994C12.6775 7.88972 12.6613 7.85717 12.6427 7.82694L12.6148 7.77114C12.5729 7.68977 12.6008 7.77579 12.6171 7.78277C12.5845 7.76882 12.5543 7.59677 12.545 7.56189C12.5357 7.52004 12.5264 7.48052 12.5194 7.43867C12.5148 7.41542 12.5194 7.35497 12.5148 7.42239C12.5101 7.49679 12.5148 7.40612 12.5125 7.38752C12.5055 7.30614 12.5055 7.22477 12.5125 7.14339C12.5148 7.12247 12.5171 7.10154 12.5171 7.0783C12.5218 7.0132 12.5008 7.1713 12.5125 7.1062C12.5218 7.05969 12.5287 7.0132 12.5404 6.9667C12.559 6.88997 12.5892 6.8179 12.6101 6.7435C12.6264 6.68305 12.5706 6.82255 12.5985 6.76907C12.6078 6.75047 12.6148 6.73187 12.6241 6.71327C12.645 6.67142 12.6659 6.63189 12.6915 6.59237C12.7124 6.55749 12.7357 6.52262 12.7589 6.49007C12.7659 6.48077 12.7868 6.44357 12.7938 6.44125C12.7984 6.43892 12.731 6.51332 12.7682 6.47612C12.8287 6.41335 12.8821 6.34825 12.9472 6.29012C12.9612 6.27617 12.9775 6.26455 12.9937 6.2506C13.0402 6.20875 12.9798 6.2413 12.9705 6.26687C12.9798 6.24362 13.0356 6.21805 13.0588 6.2041C13.1309 6.15527 13.2076 6.11575 13.2867 6.07622C13.3471 6.046 13.2658 6.0739 13.2611 6.08552C13.2634 6.08087 13.3192 6.0646 13.3192 6.0646C13.3541 6.05297 13.389 6.04135 13.4239 6.03205C13.4634 6.02042 13.5052 6.01112 13.5448 6.00182C13.5657 5.99717 13.5866 5.99252 13.6075 5.9902C13.6168 5.98787 13.6285 5.98555 13.6378 5.98555C13.6726 5.9809 13.6587 5.9809 13.5936 5.99252C13.6122 5.96462 13.8005 5.9809 13.8377 5.98322C13.8819 5.98555 13.9237 5.9902 13.9679 5.99252C14.033 5.99717 13.8749 5.97625 13.94 5.98787C13.9656 5.99252 13.9912 5.99717 14.0191 6.00182C14.1121 6.02042 14.2004 6.04832 14.2888 6.08087C14.3539 6.10412 14.2725 6.0646 14.2632 6.06925C14.2702 6.06692 14.312 6.0925 14.319 6.09482C14.3655 6.11807 14.4097 6.14132 14.4538 6.1669C14.4887 6.18782 14.5236 6.21107 14.5561 6.23432C14.5585 6.23664 14.6026 6.26222 14.605 6.26919C14.5561 6.22967 14.5445 6.22269 14.5701 6.24362C14.5817 6.25292 14.5933 6.26222 14.605 6.27384C14.6747 6.3343 14.7352 6.40172 14.7956 6.46915C14.8096 6.4831 14.8398 6.50402 14.7979 6.46915C14.7468 6.4273 14.8026 6.47612 14.8165 6.49472C14.8421 6.53192 14.8677 6.57145 14.8909 6.61097C14.9142 6.6505 14.9351 6.69002 14.956 6.73188C14.956 6.72955 14.9839 6.78302 14.9816 6.78768C14.9886 6.77373 14.9444 6.6877 14.9746 6.77605C15.0072 6.8644 15.0328 6.95507 15.0514 7.04807C15.056 7.069 15.0583 7.08992 15.063 7.11085C15.0746 7.16898 15.056 7.01087 15.0607 7.09923C15.0653 7.14805 15.0676 7.20152 15.07 7.255C15.0723 7.49913 15.2815 7.73163 15.535 7.72003C15.7861 7.7084 16.0023 7.51542 16 7.255C15.9907 6.31339 15.4002 5.49729 14.5213 5.1718C13.6843 4.86025 12.6706 5.14157 12.1079 5.82979C11.5174 6.55054 11.4081 7.5782 11.894 8.38729C12.3823 9.19872 13.3286 9.59397 14.2493 9.41495C15.263 9.21732 15.9883 8.27335 15.9977 7.255C16 7.01088 15.7814 6.77837 15.5326 6.78998C15.2792 6.80161 15.0723 6.99458 15.07 7.255L15.07 7.25499Z" stroke="#FF8154" mask="url(#path-3-outside-1_655_706)"/>
<mask id="path-4-outside-2_655_706" maskUnits="userSpaceOnUse" x="0" y="0" width="6" height="6" fill="black">
<rect fill="white" width="6" height="6"/>
<path d="M4.48172 3.20958C4.48172 3.25376 4.47939 3.29561 4.47707 3.33979C4.47474 3.35839 4.46777 3.38861 4.47009 3.40488C4.46777 3.39326 4.48869 3.29328 4.47242 3.37698C4.45614 3.46069 4.43987 3.54206 4.41429 3.62111C4.40732 3.63971 4.38872 3.73038 4.37244 3.73736C4.37244 3.73736 4.42359 3.63041 4.38174 3.71179L4.35384 3.76759C4.31664 3.83966 4.27479 3.90941 4.22829 3.97684C4.22597 3.97916 4.20039 4.02334 4.19341 4.02566C4.19574 4.02566 4.26782 3.93731 4.20969 4.00241C4.18179 4.03264 4.15622 4.06286 4.12831 4.09309C4.10274 4.11866 4.07716 4.14423 4.05159 4.16749C4.03764 4.18144 4.02136 4.19539 4.00509 4.20701C3.94231 4.26281 4.00974 4.22561 4.01671 4.20004C4.00276 4.24654 3.85164 4.31164 3.81211 4.33256C3.78189 4.34884 3.74933 4.36511 3.71678 4.38138C3.70051 4.38836 3.63773 4.41859 3.70283 4.38836C3.77026 4.35813 3.68656 4.39301 3.67261 4.39999C3.59356 4.42789 3.51451 4.45113 3.43081 4.46741C3.40756 4.47206 3.29828 4.47438 3.36803 4.47903C3.43546 4.48368 3.37036 4.47671 3.34943 4.47903C3.32153 4.48136 3.29596 4.48368 3.26806 4.48368C3.18668 4.48601 3.08671 4.46043 3.00765 4.47438C3.00765 4.47438 3.10298 4.49066 3.05183 4.48136C3.03091 4.47671 3.00998 4.47438 2.98905 4.46973C2.94255 4.46043 2.89605 4.44881 2.85188 4.43718C2.81235 4.42556 2.77283 4.41393 2.7333 4.39998C2.724 4.39766 2.6775 4.38371 2.67517 4.37906C2.67517 4.37906 2.78212 4.43021 2.70075 4.38836C2.62635 4.35116 2.55428 4.31396 2.48685 4.26978C2.46825 4.25816 2.39385 4.22096 2.38687 4.20003C2.38687 4.20236 2.47522 4.27443 2.41013 4.21631C2.39618 4.20236 2.3799 4.19073 2.36362 4.17678C2.30317 4.12098 2.2497 4.06286 2.1939 4.0024C2.15205 3.9559 2.1846 4.01635 2.21017 4.02566C2.2032 4.02333 2.17762 3.97915 2.1753 3.97683C2.15205 3.94428 2.1288 3.90941 2.10787 3.87453C2.08927 3.84431 2.073 3.81176 2.0544 3.78153L2.0265 3.72573C1.98465 3.64436 2.01255 3.73038 2.02882 3.73736C1.99627 3.72341 1.96605 3.55136 1.95675 3.51648C1.94745 3.47463 1.93815 3.43511 1.93117 3.39326C1.92652 3.37001 1.93117 3.30956 1.92652 3.37698C1.92187 3.45138 1.92652 3.36071 1.9242 3.34211C1.91722 3.26073 1.91722 3.17936 1.9242 3.09798C1.92652 3.07706 1.92885 3.05613 1.92885 3.03289C1.9335 2.96779 1.91257 3.12589 1.9242 3.06079C1.9335 3.01428 1.94047 2.96779 1.9521 2.92129C1.9707 2.84456 2.00092 2.77249 2.02185 2.69809C2.03812 2.63764 1.98232 2.77714 2.01022 2.72366C2.01952 2.70506 2.0265 2.68646 2.0358 2.66786C2.05672 2.62601 2.07765 2.58648 2.10322 2.54696C2.12415 2.51208 2.1474 2.47721 2.17064 2.44466C2.17762 2.43536 2.19855 2.39816 2.20552 2.39584C2.21017 2.39351 2.14274 2.46791 2.17994 2.43071C2.2404 2.36794 2.29387 2.30284 2.35897 2.24471C2.37292 2.23076 2.38919 2.21914 2.40547 2.20519C2.45197 2.16334 2.39152 2.19589 2.38222 2.22146C2.39152 2.19821 2.44732 2.17264 2.47057 2.15868C2.54264 2.10986 2.61937 2.07034 2.69842 2.03081C2.75887 2.00058 2.6775 2.02849 2.67285 2.04011C2.67517 2.03546 2.73097 2.01919 2.73097 2.01919C2.76585 2.00756 2.80072 1.99594 2.8356 1.98664C2.87512 1.97501 2.91697 1.96571 2.9565 1.95641C2.97742 1.95176 2.99835 1.94711 3.01928 1.94478C3.02858 1.94246 3.0402 1.94014 3.0495 1.94014C3.08438 1.93548 3.07043 1.93548 3.00532 1.94711C3.02392 1.91921 3.21225 1.93548 3.24945 1.93781C3.29363 1.94014 3.33547 1.94478 3.37965 1.94711C3.44475 1.95176 3.28665 1.93084 3.35175 1.94246C3.37733 1.94711 3.4029 1.95176 3.4308 1.95641C3.5238 1.97501 3.61215 2.00291 3.7005 2.03546C3.7656 2.05871 3.68423 2.01919 3.67493 2.02384C3.6819 2.02151 3.72375 2.04709 3.73073 2.04941C3.77723 2.07266 3.8214 2.09591 3.86558 2.12149C3.90045 2.14241 3.93533 2.16566 3.96788 2.18891C3.9702 2.19123 4.01438 2.21681 4.0167 2.22378C3.96788 2.18426 3.95625 2.17728 3.98183 2.19821C3.99345 2.20751 4.00508 2.21681 4.0167 2.22843C4.08645 2.28889 4.1469 2.35631 4.20735 2.42374C4.2213 2.43769 4.25153 2.45861 4.20968 2.42374C4.15853 2.38189 4.21433 2.43071 4.22828 2.44931C4.25385 2.48651 4.27943 2.52604 4.30268 2.56556C4.32593 2.60509 4.34686 2.64461 4.36778 2.68647C4.36778 2.68414 4.39568 2.73761 4.39335 2.74227C4.40033 2.72832 4.35615 2.64229 4.38638 2.73064C4.41893 2.81899 4.4445 2.90966 4.4631 3.00266C4.46775 3.02359 4.47008 3.04451 4.47473 3.06544C4.48635 3.12357 4.46775 2.96546 4.4724 3.05382C4.47705 3.10264 4.4817 3.15611 4.4817 3.20959C4.48403 3.45372 4.69328 3.68622 4.94673 3.67461C5.19782 3.66299 5.41404 3.47001 5.41175 3.20959C5.40477 2.26798 4.81191 1.45188 3.93305 1.12639C3.09603 0.814839 2.08236 1.09616 1.51968 1.78438C0.929116 2.50513 0.819854 3.53279 1.30579 4.34188C1.79402 5.15331 2.74031 5.54856 3.661 5.36954C4.67471 5.17191 5.40009 4.22794 5.4094 3.20959C5.41173 2.96547 5.19318 2.73296 4.94438 2.74457C4.69328 2.7562 4.48403 2.94917 4.48169 3.20959L4.48172 3.20958Z"/>
</mask>
<path d="M4.48172 3.20958C4.48172 3.25376 4.47939 3.29561 4.47707 3.33979C4.47474 3.35839 4.46777 3.38861 4.47009 3.40488C4.46777 3.39326 4.48869 3.29328 4.47242 3.37698C4.45614 3.46069 4.43987 3.54206 4.41429 3.62111C4.40732 3.63971 4.38872 3.73038 4.37244 3.73736C4.37244 3.73736 4.42359 3.63041 4.38174 3.71179L4.35384 3.76759C4.31664 3.83966 4.27479 3.90941 4.22829 3.97684C4.22597 3.97916 4.20039 4.02334 4.19341 4.02566C4.19574 4.02566 4.26782 3.93731 4.20969 4.00241C4.18179 4.03264 4.15622 4.06286 4.12831 4.09309C4.10274 4.11866 4.07716 4.14423 4.05159 4.16749C4.03764 4.18144 4.02136 4.19539 4.00509 4.20701C3.94231 4.26281 4.00974 4.22561 4.01671 4.20004C4.00276 4.24654 3.85164 4.31164 3.81211 4.33256C3.78189 4.34884 3.74933 4.36511 3.71678 4.38138C3.70051 4.38836 3.63773 4.41859 3.70283 4.38836C3.77026 4.35813 3.68656 4.39301 3.67261 4.39999C3.59356 4.42789 3.51451 4.45113 3.43081 4.46741C3.40756 4.47206 3.29828 4.47438 3.36803 4.47903C3.43546 4.48368 3.37036 4.47671 3.34943 4.47903C3.32153 4.48136 3.29596 4.48368 3.26806 4.48368C3.18668 4.48601 3.08671 4.46043 3.00765 4.47438C3.00765 4.47438 3.10298 4.49066 3.05183 4.48136C3.03091 4.47671 3.00998 4.47438 2.98905 4.46973C2.94255 4.46043 2.89605 4.44881 2.85188 4.43718C2.81235 4.42556 2.77283 4.41393 2.7333 4.39998C2.724 4.39766 2.6775 4.38371 2.67517 4.37906C2.67517 4.37906 2.78212 4.43021 2.70075 4.38836C2.62635 4.35116 2.55428 4.31396 2.48685 4.26978C2.46825 4.25816 2.39385 4.22096 2.38687 4.20003C2.38687 4.20236 2.47522 4.27443 2.41013 4.21631C2.39618 4.20236 2.3799 4.19073 2.36362 4.17678C2.30317 4.12098 2.2497 4.06286 2.1939 4.0024C2.15205 3.9559 2.1846 4.01635 2.21017 4.02566C2.2032 4.02333 2.17762 3.97915 2.1753 3.97683C2.15205 3.94428 2.1288 3.90941 2.10787 3.87453C2.08927 3.84431 2.073 3.81176 2.0544 3.78153L2.0265 3.72573C1.98465 3.64436 2.01255 3.73038 2.02882 3.73736C1.99627 3.72341 1.96605 3.55136 1.95675 3.51648C1.94745 3.47463 1.93815 3.43511 1.93117 3.39326C1.92652 3.37001 1.93117 3.30956 1.92652 3.37698C1.92187 3.45138 1.92652 3.36071 1.9242 3.34211C1.91722 3.26073 1.91722 3.17936 1.9242 3.09798C1.92652 3.07706 1.92885 3.05613 1.92885 3.03289C1.9335 2.96779 1.91257 3.12589 1.9242 3.06079C1.9335 3.01428 1.94047 2.96779 1.9521 2.92129C1.9707 2.84456 2.00092 2.77249 2.02185 2.69809C2.03812 2.63764 1.98232 2.77714 2.01022 2.72366C2.01952 2.70506 2.0265 2.68646 2.0358 2.66786C2.05672 2.62601 2.07765 2.58648 2.10322 2.54696C2.12415 2.51208 2.1474 2.47721 2.17064 2.44466C2.17762 2.43536 2.19855 2.39816 2.20552 2.39584C2.21017 2.39351 2.14274 2.46791 2.17994 2.43071C2.2404 2.36794 2.29387 2.30284 2.35897 2.24471C2.37292 2.23076 2.38919 2.21914 2.40547 2.20519C2.45197 2.16334 2.39152 2.19589 2.38222 2.22146C2.39152 2.19821 2.44732 2.17264 2.47057 2.15868C2.54264 2.10986 2.61937 2.07034 2.69842 2.03081C2.75887 2.00058 2.6775 2.02849 2.67285 2.04011C2.67517 2.03546 2.73097 2.01919 2.73097 2.01919C2.76585 2.00756 2.80072 1.99594 2.8356 1.98664C2.87512 1.97501 2.91697 1.96571 2.9565 1.95641C2.97742 1.95176 2.99835 1.94711 3.01928 1.94478C3.02858 1.94246 3.0402 1.94014 3.0495 1.94014C3.08438 1.93548 3.07043 1.93548 3.00532 1.94711C3.02392 1.91921 3.21225 1.93548 3.24945 1.93781C3.29363 1.94014 3.33547 1.94478 3.37965 1.94711C3.44475 1.95176 3.28665 1.93084 3.35175 1.94246C3.37733 1.94711 3.4029 1.95176 3.4308 1.95641C3.5238 1.97501 3.61215 2.00291 3.7005 2.03546C3.7656 2.05871 3.68423 2.01919 3.67493 2.02384C3.6819 2.02151 3.72375 2.04709 3.73073 2.04941C3.77723 2.07266 3.8214 2.09591 3.86558 2.12149C3.90045 2.14241 3.93533 2.16566 3.96788 2.18891C3.9702 2.19123 4.01438 2.21681 4.0167 2.22378C3.96788 2.18426 3.95625 2.17728 3.98183 2.19821C3.99345 2.20751 4.00508 2.21681 4.0167 2.22843C4.08645 2.28889 4.1469 2.35631 4.20735 2.42374C4.2213 2.43769 4.25153 2.45861 4.20968 2.42374C4.15853 2.38189 4.21433 2.43071 4.22828 2.44931C4.25385 2.48651 4.27943 2.52604 4.30268 2.56556C4.32593 2.60509 4.34686 2.64461 4.36778 2.68647C4.36778 2.68414 4.39568 2.73761 4.39335 2.74227C4.40033 2.72832 4.35615 2.64229 4.38638 2.73064C4.41893 2.81899 4.4445 2.90966 4.4631 3.00266C4.46775 3.02359 4.47008 3.04451 4.47473 3.06544C4.48635 3.12357 4.46775 2.96546 4.4724 3.05382C4.47705 3.10264 4.4817 3.15611 4.4817 3.20959C4.48403 3.45372 4.69328 3.68622 4.94673 3.67461C5.19782 3.66299 5.41404 3.47001 5.41175 3.20959C5.40477 2.26798 4.81191 1.45188 3.93305 1.12639C3.09603 0.814839 2.08236 1.09616 1.51968 1.78438C0.929116 2.50513 0.819854 3.53279 1.30579 4.34188C1.79402 5.15331 2.74031 5.54856 3.661 5.36954C4.67471 5.17191 5.40009 4.22794 5.4094 3.20959C5.41173 2.96547 5.19318 2.73296 4.94438 2.74457C4.69328 2.7562 4.48403 2.94917 4.48169 3.20959L4.48172 3.20958Z" fill="#FF8154"/>
<path d="M4.48172 3.20958C4.48172 3.25376 4.47939 3.29561 4.47707 3.33979C4.47474 3.35839 4.46777 3.38861 4.47009 3.40488C4.46777 3.39326 4.48869 3.29328 4.47242 3.37698C4.45614 3.46069 4.43987 3.54206 4.41429 3.62111C4.40732 3.63971 4.38872 3.73038 4.37244 3.73736C4.37244 3.73736 4.42359 3.63041 4.38174 3.71179L4.35384 3.76759C4.31664 3.83966 4.27479 3.90941 4.22829 3.97684C4.22597 3.97916 4.20039 4.02334 4.19341 4.02566C4.19574 4.02566 4.26782 3.93731 4.20969 4.00241C4.18179 4.03264 4.15622 4.06286 4.12831 4.09309C4.10274 4.11866 4.07716 4.14423 4.05159 4.16749C4.03764 4.18144 4.02136 4.19539 4.00509 4.20701C3.94231 4.26281 4.00974 4.22561 4.01671 4.20004C4.00276 4.24654 3.85164 4.31164 3.81211 4.33256C3.78189 4.34884 3.74933 4.36511 3.71678 4.38138C3.70051 4.38836 3.63773 4.41859 3.70283 4.38836C3.77026 4.35813 3.68656 4.39301 3.67261 4.39999C3.59356 4.42789 3.51451 4.45113 3.43081 4.46741C3.40756 4.47206 3.29828 4.47438 3.36803 4.47903C3.43546 4.48368 3.37036 4.47671 3.34943 4.47903C3.32153 4.48136 3.29596 4.48368 3.26806 4.48368C3.18668 4.48601 3.08671 4.46043 3.00765 4.47438C3.00765 4.47438 3.10298 4.49066 3.05183 4.48136C3.03091 4.47671 3.00998 4.47438 2.98905 4.46973C2.94255 4.46043 2.89605 4.44881 2.85188 4.43718C2.81235 4.42556 2.77283 4.41393 2.7333 4.39998C2.724 4.39766 2.6775 4.38371 2.67517 4.37906C2.67517 4.37906 2.78212 4.43021 2.70075 4.38836C2.62635 4.35116 2.55428 4.31396 2.48685 4.26978C2.46825 4.25816 2.39385 4.22096 2.38687 4.20003C2.38687 4.20236 2.47522 4.27443 2.41013 4.21631C2.39618 4.20236 2.3799 4.19073 2.36362 4.17678C2.30317 4.12098 2.2497 4.06286 2.1939 4.0024C2.15205 3.9559 2.1846 4.01635 2.21017 4.02566C2.2032 4.02333 2.17762 3.97915 2.1753 3.97683C2.15205 3.94428 2.1288 3.90941 2.10787 3.87453C2.08927 3.84431 2.073 3.81176 2.0544 3.78153L2.0265 3.72573C1.98465 3.64436 2.01255 3.73038 2.02882 3.73736C1.99627 3.72341 1.96605 3.55136 1.95675 3.51648C1.94745 3.47463 1.93815 3.43511 1.93117 3.39326C1.92652 3.37001 1.93117 3.30956 1.92652 3.37698C1.92187 3.45138 1.92652 3.36071 1.9242 3.34211C1.91722 3.26073 1.91722 3.17936 1.9242 3.09798C1.92652 3.07706 1.92885 3.05613 1.92885 3.03289C1.9335 2.96779 1.91257 3.12589 1.9242 3.06079C1.9335 3.01428 1.94047 2.96779 1.9521 2.92129C1.9707 2.84456 2.00092 2.77249 2.02185 2.69809C2.03812 2.63764 1.98232 2.77714 2.01022 2.72366C2.01952 2.70506 2.0265 2.68646 2.0358 2.66786C2.05672 2.62601 2.07765 2.58648 2.10322 2.54696C2.12415 2.51208 2.1474 2.47721 2.17064 2.44466C2.17762 2.43536 2.19855 2.39816 2.20552 2.39584C2.21017 2.39351 2.14274 2.46791 2.17994 2.43071C2.2404 2.36794 2.29387 2.30284 2.35897 2.24471C2.37292 2.23076 2.38919 2.21914 2.40547 2.20519C2.45197 2.16334 2.39152 2.19589 2.38222 2.22146C2.39152 2.19821 2.44732 2.17264 2.47057 2.15868C2.54264 2.10986 2.61937 2.07034 2.69842 2.03081C2.75887 2.00058 2.6775 2.02849 2.67285 2.04011C2.67517 2.03546 2.73097 2.01919 2.73097 2.01919C2.76585 2.00756 2.80072 1.99594 2.8356 1.98664C2.87512 1.97501 2.91697 1.96571 2.9565 1.95641C2.97742 1.95176 2.99835 1.94711 3.01928 1.94478C3.02858 1.94246 3.0402 1.94014 3.0495 1.94014C3.08438 1.93548 3.07043 1.93548 3.00532 1.94711C3.02392 1.91921 3.21225 1.93548 3.24945 1.93781C3.29363 1.94014 3.33547 1.94478 3.37965 1.94711C3.44475 1.95176 3.28665 1.93084 3.35175 1.94246C3.37733 1.94711 3.4029 1.95176 3.4308 1.95641C3.5238 1.97501 3.61215 2.00291 3.7005 2.03546C3.7656 2.05871 3.68423 2.01919 3.67493 2.02384C3.6819 2.02151 3.72375 2.04709 3.73073 2.04941C3.77723 2.07266 3.8214 2.09591 3.86558 2.12149C3.90045 2.14241 3.93533 2.16566 3.96788 2.18891C3.9702 2.19123 4.01438 2.21681 4.0167 2.22378C3.96788 2.18426 3.95625 2.17728 3.98183 2.19821C3.99345 2.20751 4.00508 2.21681 4.0167 2.22843C4.08645 2.28889 4.1469 2.35631 4.20735 2.42374C4.2213 2.43769 4.25153 2.45861 4.20968 2.42374C4.15853 2.38189 4.21433 2.43071 4.22828 2.44931C4.25385 2.48651 4.27943 2.52604 4.30268 2.56556C4.32593 2.60509 4.34686 2.64461 4.36778 2.68647C4.36778 2.68414 4.39568 2.73761 4.39335 2.74227C4.40033 2.72832 4.35615 2.64229 4.38638 2.73064C4.41893 2.81899 4.4445 2.90966 4.4631 3.00266C4.46775 3.02359 4.47008 3.04451 4.47473 3.06544C4.48635 3.12357 4.46775 2.96546 4.4724 3.05382C4.47705 3.10264 4.4817 3.15611 4.4817 3.20959C4.48403 3.45372 4.69328 3.68622 4.94673 3.67461C5.19782 3.66299 5.41404 3.47001 5.41175 3.20959C5.40477 2.26798 4.81191 1.45188 3.93305 1.12639C3.09603 0.814839 2.08236 1.09616 1.51968 1.78438C0.929116 2.50513 0.819854 3.53279 1.30579 4.34188C1.79402 5.15331 2.74031 5.54856 3.661 5.36954C4.67471 5.17191 5.40009 4.22794 5.4094 3.20959C5.41173 2.96547 5.19318 2.73296 4.94438 2.74457C4.69328 2.7562 4.48403 2.94917 4.48169 3.20959L4.48172 3.20958Z" stroke="#FF8154" mask="url(#path-4-outside-2_655_706)"/>
<mask id="path-5-outside-3_655_706" maskUnits="userSpaceOnUse" x="0.00939941" y="18.8091" width="6" height="6" fill="black">
<rect fill="white" x="0.00939941" y="18.8091" width="6" height="6"/>
<path d="M4.49112 22.0187C4.49112 22.0628 4.48879 22.1047 4.48646 22.1489C4.48414 22.1675 4.47716 22.1977 4.47949 22.214C4.47716 22.2023 4.49809 22.1024 4.48182 22.1861C4.46554 22.2698 4.44926 22.3511 4.42369 22.4302C4.41671 22.4488 4.39811 22.5395 4.38184 22.5464C4.38184 22.5464 4.43299 22.4395 4.39114 22.5209L4.36324 22.5767C4.32604 22.6487 4.28419 22.7185 4.23769 22.7859C4.23536 22.7882 4.20979 22.8324 4.20281 22.8347C4.20514 22.8347 4.27721 22.7464 4.21909 22.8115C4.19119 22.8417 4.16562 22.8719 4.13771 22.9022C4.11214 22.9277 4.08656 22.9533 4.06099 22.9766C4.04704 22.9905 4.03076 23.0045 4.01449 23.0161C3.95171 23.0719 4.01914 23.0347 4.02611 23.0091C4.01216 23.0556 3.86104 23.1207 3.82151 23.1416C3.79128 23.1579 3.75873 23.1742 3.72618 23.1905C3.70991 23.1974 3.64713 23.2277 3.71223 23.1974C3.77966 23.1672 3.69596 23.2021 3.68201 23.2091C3.60296 23.237 3.52391 23.2602 3.44021 23.2765C3.41696 23.2811 3.30768 23.2835 3.37743 23.2881C3.44486 23.2928 3.37976 23.2858 3.35883 23.2881C3.33093 23.2904 3.30536 23.2928 3.27745 23.2928C3.19608 23.2951 3.09611 23.2695 3.01705 23.2835C3.01705 23.2835 3.11238 23.2997 3.06123 23.2904C3.04031 23.2858 3.01938 23.2835 2.99845 23.2788C2.95195 23.2695 2.90545 23.2579 2.86128 23.2463C2.82175 23.2346 2.78223 23.223 2.7427 23.2091C2.7334 23.2067 2.6869 23.1928 2.68457 23.1881C2.68457 23.1881 2.79152 23.2393 2.71015 23.1974C2.63575 23.1602 2.56367 23.123 2.49625 23.0789C2.47765 23.0672 2.40325 23.03 2.39627 23.0091C2.39627 23.0114 2.48462 23.0835 2.41952 23.0254C2.40557 23.0114 2.3893 22.9998 2.37302 22.9859C2.31257 22.9301 2.2591 22.8719 2.2033 22.8115C2.16145 22.765 2.194 22.8254 2.21957 22.8347C2.2126 22.8324 2.18702 22.7882 2.1847 22.7859C2.16145 22.7534 2.13819 22.7185 2.11727 22.6836C2.09867 22.6534 2.0824 22.6208 2.0638 22.5906L2.0359 22.5348C1.99405 22.4534 2.02195 22.5395 2.03822 22.5464C2.00567 22.5325 1.97545 22.3604 1.96615 22.3256C1.95685 22.2837 1.94755 22.2442 1.94057 22.2023C1.93592 22.1791 1.94057 22.1186 1.93592 22.1861C1.93127 22.2605 1.93592 22.1698 1.9336 22.1512C1.92662 22.0698 1.92662 21.9884 1.9336 21.9071C1.93592 21.8861 1.93825 21.8652 1.93825 21.842C1.9429 21.7769 1.92197 21.935 1.9336 21.8699C1.9429 21.8234 1.94987 21.7769 1.9615 21.7304C1.9801 21.6536 2.01032 21.5816 2.03125 21.5072C2.04752 21.4467 1.99172 21.5862 2.01962 21.5327C2.02892 21.5141 2.0359 21.4955 2.0452 21.4769C2.06612 21.4351 2.08705 21.3956 2.11262 21.356C2.13355 21.3212 2.1568 21.2863 2.18004 21.2537C2.18702 21.2444 2.20794 21.2072 2.21492 21.2049C2.21957 21.2026 2.15214 21.277 2.18934 21.2398C2.2498 21.177 2.30327 21.1119 2.36837 21.0538C2.38232 21.0398 2.39859 21.0282 2.41487 21.0143C2.46137 20.9724 2.40092 21.005 2.39162 21.0305C2.40092 21.0073 2.45672 20.9817 2.47997 20.9678C2.55204 20.9189 2.62877 20.8794 2.70782 20.8399C2.76827 20.8097 2.6869 20.8376 2.68225 20.8492C2.68457 20.8445 2.74037 20.8283 2.74037 20.8283C2.77525 20.8166 2.81012 20.805 2.845 20.7957C2.88452 20.7841 2.92637 20.7748 2.9659 20.7655C2.98682 20.7608 3.00775 20.7562 3.02867 20.7539C3.03797 20.7515 3.0496 20.7492 3.0589 20.7492C3.09377 20.7446 3.07982 20.7446 3.01472 20.7562C3.03332 20.7283 3.22165 20.7446 3.25885 20.7469C3.30303 20.7492 3.34487 20.7539 3.38905 20.7562C3.45415 20.7608 3.29605 20.7399 3.36115 20.7515C3.38672 20.7562 3.4123 20.7608 3.4402 20.7655C3.5332 20.7841 3.62155 20.812 3.7099 20.8445C3.775 20.8678 3.69363 20.8283 3.68433 20.8329C3.6913 20.8306 3.73315 20.8562 3.74013 20.8585C3.78663 20.8817 3.8308 20.905 3.87498 20.9306C3.90985 20.9515 3.94473 20.9747 3.97728 20.998C3.9796 21.0003 4.02378 21.0259 4.0261 21.0329C3.97728 20.9933 3.96565 20.9864 3.99123 21.0073C4.00285 21.0166 4.01448 21.0259 4.0261 21.0375C4.09585 21.098 4.1563 21.1654 4.21675 21.2328C4.2307 21.2468 4.26093 21.2677 4.21908 21.2328C4.16793 21.191 4.22373 21.2398 4.23768 21.2584C4.26325 21.2956 4.28883 21.3351 4.31208 21.3746C4.33533 21.4142 4.35625 21.4537 4.37718 21.4955C4.37718 21.4932 4.40508 21.5467 4.40275 21.5513C4.40973 21.5374 4.36555 21.4514 4.39578 21.5397C4.42833 21.6281 4.4539 21.7187 4.4725 21.8117C4.47715 21.8327 4.47948 21.8536 4.48413 21.8745C4.49575 21.9326 4.47715 21.7745 4.4818 21.8629C4.48645 21.9117 4.48878 21.9652 4.4911 22.0187C4.49343 22.2628 4.70268 22.4953 4.95612 22.4837C5.20722 22.4721 5.42344 22.2791 5.42115 22.0187C5.41185 21.0771 4.82131 20.261 3.94245 19.9355C3.10543 19.6239 2.09176 19.9052 1.52908 20.5935C0.938515 21.3142 0.829254 22.3419 1.31518 23.151C1.80342 23.9624 2.7497 24.3576 3.6704 24.1786C4.68411 23.981 5.40949 23.037 5.4188 22.0187C5.42112 21.7745 5.20258 21.542 4.95378 21.5537C4.70035 21.5653 4.49343 21.7583 4.49109 22.0187L4.49112 22.0187Z"/>
</mask>
<path d="M4.49112 22.0187C4.49112 22.0628 4.48879 22.1047 4.48646 22.1489C4.48414 22.1675 4.47716 22.1977 4.47949 22.214C4.47716 22.2023 4.49809 22.1024 4.48182 22.1861C4.46554 22.2698 4.44926 22.3511 4.42369 22.4302C4.41671 22.4488 4.39811 22.5395 4.38184 22.5464C4.38184 22.5464 4.43299 22.4395 4.39114 22.5209L4.36324 22.5767C4.32604 22.6487 4.28419 22.7185 4.23769 22.7859C4.23536 22.7882 4.20979 22.8324 4.20281 22.8347C4.20514 22.8347 4.27721 22.7464 4.21909 22.8115C4.19119 22.8417 4.16562 22.8719 4.13771 22.9022C4.11214 22.9277 4.08656 22.9533 4.06099 22.9766C4.04704 22.9905 4.03076 23.0045 4.01449 23.0161C3.95171 23.0719 4.01914 23.0347 4.02611 23.0091C4.01216 23.0556 3.86104 23.1207 3.82151 23.1416C3.79128 23.1579 3.75873 23.1742 3.72618 23.1905C3.70991 23.1974 3.64713 23.2277 3.71223 23.1974C3.77966 23.1672 3.69596 23.2021 3.68201 23.2091C3.60296 23.237 3.52391 23.2602 3.44021 23.2765C3.41696 23.2811 3.30768 23.2835 3.37743 23.2881C3.44486 23.2928 3.37976 23.2858 3.35883 23.2881C3.33093 23.2904 3.30536 23.2928 3.27745 23.2928C3.19608 23.2951 3.09611 23.2695 3.01705 23.2835C3.01705 23.2835 3.11238 23.2997 3.06123 23.2904C3.04031 23.2858 3.01938 23.2835 2.99845 23.2788C2.95195 23.2695 2.90545 23.2579 2.86128 23.2463C2.82175 23.2346 2.78223 23.223 2.7427 23.2091C2.7334 23.2067 2.6869 23.1928 2.68457 23.1881C2.68457 23.1881 2.79152 23.2393 2.71015 23.1974C2.63575 23.1602 2.56367 23.123 2.49625 23.0789C2.47765 23.0672 2.40325 23.03 2.39627 23.0091C2.39627 23.0114 2.48462 23.0835 2.41952 23.0254C2.40557 23.0114 2.3893 22.9998 2.37302 22.9859C2.31257 22.9301 2.2591 22.8719 2.2033 22.8115C2.16145 22.765 2.194 22.8254 2.21957 22.8347C2.2126 22.8324 2.18702 22.7882 2.1847 22.7859C2.16145 22.7534 2.13819 22.7185 2.11727 22.6836C2.09867 22.6534 2.0824 22.6208 2.0638 22.5906L2.0359 22.5348C1.99405 22.4534 2.02195 22.5395 2.03822 22.5464C2.00567 22.5325 1.97545 22.3604 1.96615 22.3256C1.95685 22.2837 1.94755 22.2442 1.94057 22.2023C1.93592 22.1791 1.94057 22.1186 1.93592 22.1861C1.93127 22.2605 1.93592 22.1698 1.9336 22.1512C1.92662 22.0698 1.92662 21.9884 1.9336 21.9071C1.93592 21.8861 1.93825 21.8652 1.93825 21.842C1.9429 21.7769 1.92197 21.935 1.9336 21.8699C1.9429 21.8234 1.94987 21.7769 1.9615 21.7304C1.9801 21.6536 2.01032 21.5816 2.03125 21.5072C2.04752 21.4467 1.99172 21.5862 2.01962 21.5327C2.02892 21.5141 2.0359 21.4955 2.0452 21.4769C2.06612 21.4351 2.08705 21.3956 2.11262 21.356C2.13355 21.3212 2.1568 21.2863 2.18004 21.2537C2.18702 21.2444 2.20794 21.2072 2.21492 21.2049C2.21957 21.2026 2.15214 21.277 2.18934 21.2398C2.2498 21.177 2.30327 21.1119 2.36837 21.0538C2.38232 21.0398 2.39859 21.0282 2.41487 21.0143C2.46137 20.9724 2.40092 21.005 2.39162 21.0305C2.40092 21.0073 2.45672 20.9817 2.47997 20.9678C2.55204 20.9189 2.62877 20.8794 2.70782 20.8399C2.76827 20.8097 2.6869 20.8376 2.68225 20.8492C2.68457 20.8445 2.74037 20.8283 2.74037 20.8283C2.77525 20.8166 2.81012 20.805 2.845 20.7957C2.88452 20.7841 2.92637 20.7748 2.9659 20.7655C2.98682 20.7608 3.00775 20.7562 3.02867 20.7539C3.03797 20.7515 3.0496 20.7492 3.0589 20.7492C3.09377 20.7446 3.07982 20.7446 3.01472 20.7562C3.03332 20.7283 3.22165 20.7446 3.25885 20.7469C3.30303 20.7492 3.34487 20.7539 3.38905 20.7562C3.45415 20.7608 3.29605 20.7399 3.36115 20.7515C3.38672 20.7562 3.4123 20.7608 3.4402 20.7655C3.5332 20.7841 3.62155 20.812 3.7099 20.8445C3.775 20.8678 3.69363 20.8283 3.68433 20.8329C3.6913 20.8306 3.73315 20.8562 3.74013 20.8585C3.78663 20.8817 3.8308 20.905 3.87498 20.9306C3.90985 20.9515 3.94473 20.9747 3.97728 20.998C3.9796 21.0003 4.02378 21.0259 4.0261 21.0329C3.97728 20.9933 3.96565 20.9864 3.99123 21.0073C4.00285 21.0166 4.01448 21.0259 4.0261 21.0375C4.09585 21.098 4.1563 21.1654 4.21675 21.2328C4.2307 21.2468 4.26093 21.2677 4.21908 21.2328C4.16793 21.191 4.22373 21.2398 4.23768 21.2584C4.26325 21.2956 4.28883 21.3351 4.31208 21.3746C4.33533 21.4142 4.35625 21.4537 4.37718 21.4955C4.37718 21.4932 4.40508 21.5467 4.40275 21.5513C4.40973 21.5374 4.36555 21.4514 4.39578 21.5397C4.42833 21.6281 4.4539 21.7187 4.4725 21.8117C4.47715 21.8327 4.47948 21.8536 4.48413 21.8745C4.49575 21.9326 4.47715 21.7745 4.4818 21.8629C4.48645 21.9117 4.48878 21.9652 4.4911 22.0187C4.49343 22.2628 4.70268 22.4953 4.95612 22.4837C5.20722 22.4721 5.42344 22.2791 5.42115 22.0187C5.41185 21.0771 4.82131 20.261 3.94245 19.9355C3.10543 19.6239 2.09176 19.9052 1.52908 20.5935C0.938515 21.3142 0.829254 22.3419 1.31518 23.151C1.80342 23.9624 2.7497 24.3576 3.6704 24.1786C4.68411 23.981 5.40949 23.037 5.4188 22.0187C5.42112 21.7745 5.20258 21.542 4.95378 21.5537C4.70035 21.5653 4.49343 21.7583 4.49109 22.0187L4.49112 22.0187Z" fill="#FF8154"/>
<path d="M4.49112 22.0187C4.49112 22.0628 4.48879 22.1047 4.48646 22.1489C4.48414 22.1675 4.47716 22.1977 4.47949 22.214C4.47716 22.2023 4.49809 22.1024 4.48182 22.1861C4.46554 22.2698 4.44926 22.3511 4.42369 22.4302C4.41671 22.4488 4.39811 22.5395 4.38184 22.5464C4.38184 22.5464 4.43299 22.4395 4.39114 22.5209L4.36324 22.5767C4.32604 22.6487 4.28419 22.7185 4.23769 22.7859C4.23536 22.7882 4.20979 22.8324 4.20281 22.8347C4.20514 22.8347 4.27721 22.7464 4.21909 22.8115C4.19119 22.8417 4.16562 22.8719 4.13771 22.9022C4.11214 22.9277 4.08656 22.9533 4.06099 22.9766C4.04704 22.9905 4.03076 23.0045 4.01449 23.0161C3.95171 23.0719 4.01914 23.0347 4.02611 23.0091C4.01216 23.0556 3.86104 23.1207 3.82151 23.1416C3.79128 23.1579 3.75873 23.1742 3.72618 23.1905C3.70991 23.1974 3.64713 23.2277 3.71223 23.1974C3.77966 23.1672 3.69596 23.2021 3.68201 23.2091C3.60296 23.237 3.52391 23.2602 3.44021 23.2765C3.41696 23.2811 3.30768 23.2835 3.37743 23.2881C3.44486 23.2928 3.37976 23.2858 3.35883 23.2881C3.33093 23.2904 3.30536 23.2928 3.27745 23.2928C3.19608 23.2951 3.09611 23.2695 3.01705 23.2835C3.01705 23.2835 3.11238 23.2997 3.06123 23.2904C3.04031 23.2858 3.01938 23.2835 2.99845 23.2788C2.95195 23.2695 2.90545 23.2579 2.86128 23.2463C2.82175 23.2346 2.78223 23.223 2.7427 23.2091C2.7334 23.2067 2.6869 23.1928 2.68457 23.1881C2.68457 23.1881 2.79152 23.2393 2.71015 23.1974C2.63575 23.1602 2.56367 23.123 2.49625 23.0789C2.47765 23.0672 2.40325 23.03 2.39627 23.0091C2.39627 23.0114 2.48462 23.0835 2.41952 23.0254C2.40557 23.0114 2.3893 22.9998 2.37302 22.9859C2.31257 22.9301 2.2591 22.8719 2.2033 22.8115C2.16145 22.765 2.194 22.8254 2.21957 22.8347C2.2126 22.8324 2.18702 22.7882 2.1847 22.7859C2.16145 22.7534 2.13819 22.7185 2.11727 22.6836C2.09867 22.6534 2.0824 22.6208 2.0638 22.5906L2.0359 22.5348C1.99405 22.4534 2.02195 22.5395 2.03822 22.5464C2.00567 22.5325 1.97545 22.3604 1.96615 22.3256C1.95685 22.2837 1.94755 22.2442 1.94057 22.2023C1.93592 22.1791 1.94057 22.1186 1.93592 22.1861C1.93127 22.2605 1.93592 22.1698 1.9336 22.1512C1.92662 22.0698 1.92662 21.9884 1.9336 21.9071C1.93592 21.8861 1.93825 21.8652 1.93825 21.842C1.9429 21.7769 1.92197 21.935 1.9336 21.8699C1.9429 21.8234 1.94987 21.7769 1.9615 21.7304C1.9801 21.6536 2.01032 21.5816 2.03125 21.5072C2.04752 21.4467 1.99172 21.5862 2.01962 21.5327C2.02892 21.5141 2.0359 21.4955 2.0452 21.4769C2.06612 21.4351 2.08705 21.3956 2.11262 21.356C2.13355 21.3212 2.1568 21.2863 2.18004 21.2537C2.18702 21.2444 2.20794 21.2072 2.21492 21.2049C2.21957 21.2026 2.15214 21.277 2.18934 21.2398C2.2498 21.177 2.30327 21.1119 2.36837 21.0538C2.38232 21.0398 2.39859 21.0282 2.41487 21.0143C2.46137 20.9724 2.40092 21.005 2.39162 21.0305C2.40092 21.0073 2.45672 20.9817 2.47997 20.9678C2.55204 20.9189 2.62877 20.8794 2.70782 20.8399C2.76827 20.8097 2.6869 20.8376 2.68225 20.8492C2.68457 20.8445 2.74037 20.8283 2.74037 20.8283C2.77525 20.8166 2.81012 20.805 2.845 20.7957C2.88452 20.7841 2.92637 20.7748 2.9659 20.7655C2.98682 20.7608 3.00775 20.7562 3.02867 20.7539C3.03797 20.7515 3.0496 20.7492 3.0589 20.7492C3.09377 20.7446 3.07982 20.7446 3.01472 20.7562C3.03332 20.7283 3.22165 20.7446 3.25885 20.7469C3.30303 20.7492 3.34487 20.7539 3.38905 20.7562C3.45415 20.7608 3.29605 20.7399 3.36115 20.7515C3.38672 20.7562 3.4123 20.7608 3.4402 20.7655C3.5332 20.7841 3.62155 20.812 3.7099 20.8445C3.775 20.8678 3.69363 20.8283 3.68433 20.8329C3.6913 20.8306 3.73315 20.8562 3.74013 20.8585C3.78663 20.8817 3.8308 20.905 3.87498 20.9306C3.90985 20.9515 3.94473 20.9747 3.97728 20.998C3.9796 21.0003 4.02378 21.0259 4.0261 21.0329C3.97728 20.9933 3.96565 20.9864 3.99123 21.0073C4.00285 21.0166 4.01448 21.0259 4.0261 21.0375C4.09585 21.098 4.1563 21.1654 4.21675 21.2328C4.2307 21.2468 4.26093 21.2677 4.21908 21.2328C4.16793 21.191 4.22373 21.2398 4.23768 21.2584C4.26325 21.2956 4.28883 21.3351 4.31208 21.3746C4.33533 21.4142 4.35625 21.4537 4.37718 21.4955C4.37718 21.4932 4.40508 21.5467 4.40275 21.5513C4.40973 21.5374 4.36555 21.4514 4.39578 21.5397C4.42833 21.6281 4.4539 21.7187 4.4725 21.8117C4.47715 21.8327 4.47948 21.8536 4.48413 21.8745C4.49575 21.9326 4.47715 21.7745 4.4818 21.8629C4.48645 21.9117 4.48878 21.9652 4.4911 22.0187C4.49343 22.2628 4.70268 22.4953 4.95612 22.4837C5.20722 22.4721 5.42344 22.2791 5.42115 22.0187C5.41185 21.0771 4.82131 20.261 3.94245 19.9355C3.10543 19.6239 2.09176 19.9052 1.52908 20.5935C0.938515 21.3142 0.829254 22.3419 1.31518 23.151C1.80342 23.9624 2.7497 24.3576 3.6704 24.1786C4.68411 23.981 5.40949 23.037 5.4188 22.0187C5.42112 21.7745 5.20258 21.542 4.95378 21.5537C4.70035 21.5653 4.49343 21.7583 4.49109 22.0187L4.49112 22.0187Z" stroke="#FF8154" mask="url(#path-5-outside-3_655_706)"/>
</svg>
