<svg width="54" height="54" viewBox="0 0 54 54" fill="none" xmlns="http://www.w3.org/2000/svg">
<path d="M42.2609 0H11.7391C5.25579 0 0 5.25579 0 11.7391V42.2609C0 48.7442 5.25579 54 11.7391 54H42.2609C48.7442 54 54 48.7442 54 42.2609V11.7391C54 5.25579 48.7442 0 42.2609 0Z" fill="url(#paint0_linear_136_492)"/>
<path d="M42.2608 0.586914H11.7391C5.57991 0.586914 0.586914 5.57991 0.586914 11.7391V42.2608C0.586914 48.42 5.57991 53.413 11.7391 53.413H42.2608C48.42 53.413 53.413 48.42 53.413 42.2608V11.7391C53.413 5.57991 48.42 0.586914 42.2608 0.586914Z" fill="#5720BE" fill-opacity="0.2"/>
<path d="M27 12.9131C19.217 12.9131 12.9131 19.1113 12.9131 26.7559C12.9131 32.8731 16.949 38.0607 22.545 39.8896C23.2494 40.0199 23.5077 39.5914 23.5077 39.224C23.5077 38.8953 23.4959 38.0243 23.49 36.8703C19.5715 37.705 18.7451 35.0132 18.7451 35.0132C18.1041 33.4155 17.1779 32.9882 17.1779 32.9882C15.9019 32.13 17.2765 32.1477 17.2765 32.1477C18.6911 32.2439 19.4342 33.574 19.4342 33.574C20.6903 35.6905 22.7317 35.0789 23.537 34.7256C23.6638 33.8299 24.0265 33.2206 24.4292 32.8743C21.3007 32.528 18.0126 31.3377 18.0126 26.0339C18.0126 24.5231 18.5584 23.2881 19.4623 22.3197C19.3039 21.9698 18.8284 20.5623 19.5856 18.6559C19.5856 18.6559 20.7654 18.2849 23.4595 20.0751C24.5865 19.7676 25.7839 19.615 26.9813 19.6079C28.1787 19.615 29.376 19.7676 30.503 20.0751C33.1795 18.2849 34.3593 18.6559 34.3593 18.6559C35.1165 20.5623 34.641 21.9698 34.5002 22.3197C35.3982 23.2881 35.9441 24.5231 35.9441 26.0339C35.9441 31.3517 32.6513 32.5221 29.5169 32.8626C30.01 33.2781 30.4678 34.1269 30.4678 35.424C30.4678 37.2765 30.4502 38.765 30.4502 39.2146C30.4502 39.5773 30.6967 40.0105 31.4187 39.872C37.0546 38.0548 41.087 32.8637 41.087 26.7559C41.087 19.1113 34.7796 12.9131 27 12.9131Z" fill="#300D73"/>
<defs>
<linearGradient id="paint0_linear_136_492" x1="1.242" y1="1.998" x2="52.002" y2="50.814" gradientUnits="userSpaceOnUse">
<stop stop-color="white"/>
<stop offset="1" stop-color="#D3D3D3"/>
</linearGradient>
</defs>
</svg>
