<svg width="60" height="60" viewBox="0 0 60 60" fill="none" xmlns="http://www.w3.org/2000/svg">
<circle cx="30" cy="30" r="30" fill="#4606BB"/>
<path d="M36.25 41.25V38.75C36.25 37.4239 35.7232 36.1521 34.7855 35.2145C33.8479 34.2768 32.5761 33.75 31.25 33.75H21.25C19.9239 33.75 18.6521 34.2768 17.7145 35.2145C16.7768 36.1521 16.25 37.4239 16.25 38.75V41.25" stroke="white" stroke-width="2" stroke-linecap="round" stroke-linejoin="round"/>
<path d="M26.25 28.75C29.0114 28.75 31.25 26.5114 31.25 23.75C31.25 20.9886 29.0114 18.75 26.25 18.75C23.4886 18.75 21.25 20.9886 21.25 23.75C21.25 26.5114 23.4886 28.75 26.25 28.75Z" stroke="white" stroke-width="2" stroke-linecap="round" stroke-linejoin="round"/>
<path d="M43.75 41.25V38.75C43.7492 37.6421 43.3804 36.5659 42.7017 35.6904C42.023 34.8148 41.0727 34.1894 40 33.9125" stroke="white" stroke-width="2" stroke-linecap="round" stroke-linejoin="round"/>
<path d="M35 18.9125C36.0755 19.1879 37.0288 19.8134 37.7095 20.6904C38.3903 21.5674 38.7598 22.646 38.7598 23.7562C38.7598 24.8664 38.3903 25.9451 37.7095 26.8221C37.0288 27.6991 36.0755 28.3246 35 28.6" stroke="white" stroke-width="2" stroke-linecap="round" stroke-linejoin="round"/>
</svg>
