<svg width="60" height="60" viewBox="0 0 60 60" fill="none" xmlns="http://www.w3.org/2000/svg">
<circle cx="30" cy="30" r="30" fill="#4606BB"/>
<path d="M33.3749 22.875C33.1459 23.1086 33.0176 23.4228 33.0176 23.75C33.0176 24.0772 33.1459 24.3913 33.3749 24.625L35.3749 26.625C35.6086 26.854 35.9227 26.9823 36.2499 26.9823C36.5771 26.9823 36.8913 26.854 37.1249 26.625L41.8374 21.9125C42.466 23.3015 42.6563 24.849 42.383 26.3489C42.1097 27.8488 41.3858 29.2298 40.3078 30.3078C39.2297 31.3859 37.8488 32.1098 36.3489 32.383C34.849 32.6563 33.3014 32.466 31.9124 31.8375L23.2749 40.475C22.7777 40.9723 22.1032 41.2516 21.3999 41.2516C20.6967 41.2516 20.0222 40.9723 19.5249 40.475C19.0277 39.9777 18.7483 39.3032 18.7483 38.6C18.7483 37.8967 19.0277 37.2223 19.5249 36.725L28.1624 28.0875C27.5339 26.6985 27.3436 25.1509 27.6169 23.651C27.8902 22.1512 28.614 20.7702 29.6921 19.6921C30.7701 18.6141 32.1511 17.8902 33.651 17.6169C35.1509 17.3436 36.6985 17.5339 38.0874 18.1625L33.3874 22.8625L33.3749 22.875Z" stroke="white" stroke-width="2" stroke-linecap="round" stroke-linejoin="round"/>
</svg>
