<svg width="60" height="60" viewBox="0 0 60 60" fill="none" xmlns="http://www.w3.org/2000/svg">
<circle cx="30" cy="30" r="30" fill="#4606BB"/>
<path d="M47.3184 14.9H47.3183L13.6817 14.9L13.6816 14.9C13.2092 14.9006 12.7565 15.0885 12.4224 15.4223L12.4223 15.4224C12.0885 15.7565 11.9006 16.2093 11.9 16.6816V16.6817L11.9 43.111L11.9 43.1111C11.9006 43.5834 12.0885 44.0361 12.4223 44.3702L12.4224 44.3703C12.7565 44.7041 13.2093 44.8921 13.6816 44.8926H13.6817H47.3183H47.3184C47.7908 44.8921 48.2435 44.7041 48.5776 44.3703L48.5777 44.3702C48.9115 44.0361 49.0994 43.5834 49.1 43.1111V43.111V16.6817V16.6816C49.0994 16.2092 48.9115 15.7565 48.5776 15.4224L48.5776 15.4223C48.2435 15.0885 47.7907 14.9006 47.3184 14.9ZM13.6817 16.0609H47.3183C47.6611 16.0611 47.9388 16.3391 47.9391 16.6817V20.6665H13.0607V16.6817C13.0609 16.3391 13.3387 16.0611 13.6815 16.0609H13.6817ZM47.3183 43.7312H13.6817C13.3389 43.731 13.0612 43.453 13.0609 43.1104V21.8284H47.9393V43.1104C47.9391 43.453 47.6613 43.731 47.3185 43.7312H47.3183Z" fill="white" stroke="white" stroke-width="0.2"/>
<path d="M14.2736 17.2747C13.9846 17.5638 13.8222 17.9557 13.8222 18.3644L13.8222 18.3646C13.823 18.773 13.9854 19.1643 14.2741 19.4534L14.2742 19.4534C14.5632 19.7421 14.9545 19.9048 15.3633 19.9054L15.6048 19.9058L15.588 19.8889C15.9135 19.8409 16.2176 19.6895 16.4529 19.4539L16.3821 19.3832M14.2736 17.2747L14.3443 17.3454M14.2736 17.2747L14.3443 17.3454M14.2736 17.2747C14.5626 16.9856 14.9546 16.8232 15.3634 16.8232C15.7718 16.8232 16.1641 16.9856 16.4529 17.2747C16.7419 17.5637 16.9043 17.9557 16.9043 18.3644C16.9043 18.7729 16.7419 19.1651 16.4528 19.4539L16.3821 19.3832M14.3443 17.3454C14.6146 17.0751 14.9811 16.9232 15.3634 16.9232C15.7453 16.9232 16.1121 17.0751 16.3821 17.3454C16.6524 17.6157 16.8043 17.9822 16.8043 18.3644C16.8043 18.7464 16.6524 19.1131 16.3821 19.3832M14.3443 17.3454L15.4983 19.799C15.8309 19.7677 16.1441 19.6215 16.3821 19.3832M14.982 18.3639C14.9822 18.1544 15.1518 17.9842 15.3615 17.9832L15.3632 17.9832C15.517 17.9835 15.6556 18.0764 15.7143 18.2186C15.773 18.3608 15.7403 18.5245 15.6316 18.6331C15.5224 18.7419 15.3588 18.7743 15.2167 18.7154C15.0745 18.6565 14.982 18.5178 14.982 18.3639Z" fill="white" stroke="white" stroke-width="0.2"/>
<path d="M20.2975 19.4539C20.0088 19.743 19.6165 19.9054 19.208 19.9054C18.7993 19.9054 18.4074 19.743 18.1183 19.4539C17.8292 19.1652 17.6668 18.7729 17.6668 18.3644C17.6668 17.9557 17.8292 17.5638 18.1183 17.2747L20.2975 19.4539ZM20.2975 19.4539L20.2268 19.3832L20.2975 19.4539ZM18.8269 18.3639C18.8271 18.1543 18.9966 17.9842 19.2062 17.9832L19.2079 17.9832C19.3618 17.9835 19.5006 18.0762 19.5593 18.2184C19.618 18.3606 19.5855 18.5244 19.4767 18.6332C19.3679 18.7418 19.2041 18.7743 19.0619 18.7154C18.9196 18.6564 18.8269 18.5177 18.8269 18.3639ZM20.2975 17.2747C20.0087 16.9856 19.6165 16.8232 19.208 16.8232C18.7993 16.8232 18.4073 16.9856 18.1183 17.2747L20.2975 17.2747Z" fill="white" stroke="white" stroke-width="0.2"/>
<path d="M21.9623 17.2747C22.2513 16.9856 22.6433 16.8232 23.052 16.8232C23.4608 16.8232 23.8527 16.9856 24.1418 17.2747L24.1418 17.2747C24.4306 17.5637 24.593 17.9557 24.593 18.3644C24.593 18.7729 24.4306 19.1651 24.1418 19.4539L21.9623 17.2747ZM21.9623 17.2747C21.6732 17.5638 21.5111 17.9557 21.5111 18.3644L21.5111 18.3646C21.5116 18.773 21.6741 19.1644 21.9631 19.4534L21.9631 19.4534C22.2518 19.7422 22.6434 19.9048 23.0519 19.9054L23.2738 19.9057L23.2609 19.8911C23.5925 19.8458 23.9024 19.6933 24.1418 19.4539L21.9623 17.2747ZM22.8681 18.808L22.9064 18.7156C22.7642 18.6567 22.6715 18.518 22.6714 18.3639C22.6716 18.1545 22.8409 17.9846 23.0505 17.9832H23.052C23.2058 17.9832 23.3446 18.076 23.4035 18.2182C23.4625 18.3604 23.43 18.5242 23.3212 18.633L23.3212 18.633C23.2123 18.7418 23.0486 18.7744 22.9063 18.7156L22.8681 18.808ZM22.8681 18.808C22.6885 18.7336 22.5714 18.5584 22.5714 18.3638L22.8681 18.808ZM21.6111 18.3644C21.6116 18.7464 21.7635 19.1124 22.0338 19.3827L24.071 17.3454C23.8007 17.0751 23.4342 16.9232 23.052 16.9232C22.6698 16.9232 22.3032 17.0751 22.033 17.3454C21.7627 17.6157 21.6111 17.9822 21.6111 18.3644Z" fill="white" stroke="white" stroke-width="0.2"/>
<path d="M34.4911 30.8063C34.3719 30.7528 34.2792 30.6528 34.2352 30.5297C34.1912 30.4064 34.1993 30.2705 34.2578 30.1535C34.3159 30.0364 34.4197 29.9481 34.5446 29.909C34.6696 29.8701 34.8049 29.8837 34.9196 29.9467M34.4911 30.8063L34.4464 30.8957L34.4482 30.8966M34.4911 30.8063L38.3235 32.7225L38.2117 32.7784M34.4911 30.8063L34.4502 30.8975C34.4495 30.8972 34.4489 30.8969 34.4482 30.8966M34.4482 30.8966C34.3051 30.8318 34.194 30.7115 34.141 30.5634L34.141 30.5633C34.0879 30.4144 34.0977 30.2503 34.1683 30.1088L34.2578 30.1535L34.1682 30.109C34.2385 29.9673 34.3639 29.8607 34.5148 29.8135L34.515 29.8135C34.6652 29.7668 34.8278 29.7828 34.9659 29.8581M34.4482 30.8966L38.2117 32.7784M34.9659 29.8581L34.9643 29.8573L34.9196 29.9467M34.9659 29.8581L39.6223 32.1868L39.6222 32.1853L39.7697 32.2591C39.9663 32.3576 40.0904 32.5588 40.0904 32.7784C40.0904 32.9768 39.9893 33.16 39.8249 33.2661V33.2702L39.7697 33.2979L34.9646 35.6999L34.9195 35.6106M34.9659 29.8581C34.9665 29.8584 34.9671 29.8588 34.9677 29.8591L34.9196 29.9467M34.9196 29.9467L39.6241 32.2995L34.2376 35.2916M34.2376 35.2916C34.196 35.1147 34.2577 34.9334 34.39 34.8183V34.7515V34.7513H34.4899L34.4544 34.6802L34.4453 34.6621L34.59 34.5897M34.2376 35.2916C34.289 35.5084 34.4827 35.6614 34.7055 35.6616M34.2376 35.2916L34.7055 35.6616M34.59 34.5897V34.7015L38.3235 32.8343L38.2117 32.7784M34.59 34.5897L38.2117 32.7784M34.59 34.5897V34.5892L34.4451 34.6619C34.2046 34.7827 34.0786 35.0527 34.1403 35.3146L34.1403 35.3147C34.2024 35.5767 34.4364 35.7613 34.7053 35.7616H34.7055C34.7953 35.7616 34.8843 35.7403 34.9643 35.7L34.9642 35.7L34.9195 35.6106M34.9195 35.6106C34.8532 35.644 34.7796 35.6616 34.7055 35.6616M34.9195 35.6106L39.7249 33.2084L34.7055 35.6616" fill="white" stroke="white" stroke-width="0.2"/>
<path d="M26.0809 35.6118L21.276 33.2096C21.113 33.1284 21.0101 32.9618 21.0101 32.7798C21.0101 32.5975 21.113 32.4313 21.276 32.35L21.2313 32.2606L21.2314 32.2605C21.2314 32.2605 21.2314 32.2605 21.2314 32.2605L26.0361 29.8574L21.276 33.2096L21.2314 33.2991L26.0356 35.7009L26.0809 35.6118ZM26.0809 35.6118L26.0362 35.7012L26.0359 35.701C26.1163 35.7419 26.2054 35.7628 26.295 35.7628C26.5641 35.7628 26.7981 35.5777 26.8601 35.3159L26.8601 35.3157C26.9218 35.0539 26.7959 34.7838 26.5552 34.6633L26.5552 34.6633L22.7886 32.7785M26.0809 35.6118C26.1472 35.6454 26.2208 35.6628 26.295 35.6628C26.5177 35.6628 26.7114 35.5096 26.7628 35.2928C26.8139 35.076 26.7095 34.8524 26.5104 34.7527L22.6769 32.8344L22.7886 32.7785M22.7886 32.7785L22.6769 32.7225M22.7886 32.7785L26.5551 30.8953L26.6104 30.8676V30.8635M22.6769 32.7225L26.8185 30.1243M22.6769 32.7225L26.5104 30.8058L22.6769 32.7225ZM26.6104 30.8635C26.854 30.7069 26.9467 30.3902 26.8185 30.1243M26.6104 30.8635C26.5928 30.8749 26.5743 30.8854 26.5551 30.895L26.5105 30.8058L26.5104 30.8056H26.6104V30.8058V30.8635ZM26.8185 30.1243L26.8184 30.124L26.8159 30.1189C26.8168 30.1207 26.8176 30.1225 26.8185 30.1243Z" fill="white" stroke="white" stroke-width="0.2"/>
<path d="M31.9171 25.9319L31.9216 25.9523L32.4341 26.2247C32.3524 26.0941 32.2221 26.0012 32.0716 25.967L31.9171 25.9319Z" fill="white" stroke="white" stroke-width="0.2"/>
</svg>
