<svg width="54" height="54" viewBox="0 0 54 54" fill="none" xmlns="http://www.w3.org/2000/svg">
<path d="M40.5 0H13.5C6.04416 0 0 6.04416 0 13.5V40.5C0 47.9558 6.04416 54 13.5 54H40.5C47.9558 54 54 47.9558 54 40.5V13.5C54 6.04416 47.9558 0 40.5 0Z" fill="url(#paint0_linear_136_498)"/>
<path d="M40.4998 0.675049H13.4998C6.41675 0.675049 0.674805 6.417 0.674805 13.5V40.5C0.674805 47.5831 6.41675 53.325 13.4998 53.325H40.4998C47.5829 53.325 53.3248 47.5831 53.3248 40.5V13.5C53.3248 6.417 47.5829 0.675049 40.4998 0.675049Z" fill="#5720BE" fill-opacity="0.2"/>
<path d="M38.9829 38.9988V30.3426C38.9829 26.0887 38.0676 22.8379 33.1036 22.8379C32.1726 22.8002 31.2489 23.0168 30.4317 23.4645C29.6145 23.9121 28.9346 24.5738 28.465 25.3786H28.407V23.2186H23.709V38.9988H28.6135V31.1688C28.6135 29.1006 28.9969 27.1188 31.539 27.1188C34.05 27.1188 34.0797 29.4529 34.0797 31.2849V38.9664H38.9842L38.9829 38.9988Z" fill="#300D73"/>
<path d="M15.7314 23.2213H20.636V38.9974H15.7314V23.2213Z" fill="#300D73"/>
<path d="M18.1833 15.363C17.618 15.3598 17.0645 15.5247 16.5932 15.8367C16.1218 16.1488 15.7539 16.5939 15.5361 17.1155C15.3182 17.6372 15.2604 18.2118 15.3699 18.7664C15.4794 19.321 15.7513 19.8305 16.151 20.2302C16.5507 20.6299 17.0603 20.9018 17.6148 21.0113C18.1694 21.1208 18.744 21.063 19.2657 20.8452C19.7873 20.6274 20.2325 20.2594 20.5445 19.7881C20.8566 19.3167 21.0215 18.7632 21.0183 18.198C21.0183 17.4461 20.7196 16.725 20.1879 16.1933C19.6563 15.6616 18.9352 15.363 18.1833 15.363Z" fill="#300D73"/>
<defs>
<linearGradient id="paint0_linear_136_498" x1="1.242" y1="1.998" x2="52.002" y2="50.814" gradientUnits="userSpaceOnUse">
<stop stop-color="white"/>
<stop offset="1" stop-color="#D3D3D3"/>
</linearGradient>
</defs>
</svg>
