<svg width="60" height="60" viewBox="0 0 60 60" fill="none" xmlns="http://www.w3.org/2000/svg">
<circle cx="30" cy="30" r="30" fill="#4606BB"/>
<path d="M34.985 34.985C33.6631 36.3071 31.8699 37.05 30 37.05C28.1303 37.05 26.3371 36.3071 25.015 34.985C23.6929 33.6631 22.95 31.8697 22.95 30C22.95 28.1303 23.6929 26.3371 25.015 25.015L34.985 34.985ZM34.985 34.985C36.3071 33.6629 37.05 31.8697 37.05 30M34.985 34.985L37.05 30M37.05 30C37.05 28.1303 36.3071 26.3369 34.985 25.015M37.05 30L34.985 25.015M34.985 25.015C33.6629 23.6929 31.8697 22.95 30 22.95M34.985 25.015L30 22.95M30 22.95C28.1303 22.95 26.3369 23.6929 25.015 25.015L30 22.95ZM34.4349 26.5932C35.1838 27.5632 35.5919 28.7535 35.5952 29.9796L35.5952 29.9796L35.5952 29.9999C35.5943 31.4056 35.0641 32.7592 34.1106 33.7918L34.1473 33.8257L34.1106 33.7918C33.157 34.8245 31.8497 35.4604 30.4485 35.5731C29.0661 35.6843 27.6926 35.2781 26.5935 34.4346L34.4349 26.5932ZM33.4066 25.5651L25.5653 33.4064C24.7218 32.3073 24.3156 30.9338 24.4268 29.5514C24.5395 28.1503 25.1754 26.8429 26.2081 25.8894L26.2081 25.8894C27.2406 24.9358 28.5943 24.4057 30 24.4047L30.0207 24.4047L30.0207 24.4047C31.2466 24.4082 32.4368 24.8163 33.4066 25.5651Z" fill="white" stroke="white" stroke-width="0.1"/>
<path d="M41 38L48.5 30.5L41 23" stroke="white" stroke-width="2" stroke-linecap="round" stroke-linejoin="round"/>
<path d="M18.5 23L11 30.5L18.5 38" stroke="white" stroke-width="2" stroke-linecap="round" stroke-linejoin="round"/>
</svg>
