<svg width="207" height="51" viewBox="0 0 207 51" fill="none" xmlns="http://www.w3.org/2000/svg">
<g filter="url(#filter0_d_780_87)">
<rect x="6.91309" y="27" width="20" height="10.2569" transform="rotate(16.5 6.91309 27)" fill="#FD91AC"/>
</g>
<g filter="url(#filter1_d_780_87)">
<path d="M4 0H184.5C194.717 0 203 8.28273 203 18.5V18.5C203 28.7173 194.717 37 184.5 37H4V0Z" fill="#FD91AC"/>
</g>
<path d="M51.5781 15.348C51.5099 14.7429 51.2287 14.2741 50.7344 13.9418C50.2401 13.6051 49.6179 13.4368 48.8679 13.4368C48.331 13.4368 47.8665 13.522 47.4744 13.6925C47.0824 13.8587 46.7777 14.0888 46.5604 14.3828C46.3473 14.6726 46.2408 15.0028 46.2408 15.3736C46.2408 15.6847 46.3132 15.9531 46.4581 16.179C46.6072 16.4048 46.8011 16.5945 47.0398 16.7479C47.2827 16.897 47.5426 17.0227 47.8196 17.125C48.0966 17.223 48.3629 17.304 48.6186 17.3679L49.897 17.7003C50.3146 17.8026 50.7429 17.9411 51.1818 18.1158C51.6207 18.2905 52.0277 18.5206 52.4027 18.8061C52.7777 19.0916 53.0803 19.4453 53.3104 19.8672C53.5447 20.2891 53.6619 20.794 53.6619 21.3821C53.6619 22.1236 53.4702 22.782 53.0866 23.3572C52.7074 23.9325 52.1555 24.3864 51.4311 24.7188C50.7109 25.0511 49.8395 25.2173 48.8168 25.2173C47.8366 25.2173 46.9886 25.0618 46.2727 24.7507C45.5568 24.4396 44.9964 23.9986 44.5916 23.4276C44.1868 22.8523 43.9631 22.1705 43.9205 21.3821H45.902C45.9403 21.8551 46.0938 22.2493 46.3622 22.5646C46.6349 22.8757 46.9822 23.108 47.4041 23.2614C47.8303 23.4105 48.2969 23.4851 48.804 23.4851C49.3622 23.4851 49.8587 23.3977 50.2933 23.223C50.7322 23.044 51.0774 22.7969 51.3288 22.4815C51.5803 22.1619 51.706 21.7891 51.706 21.3629C51.706 20.9751 51.5952 20.6577 51.3736 20.4105C51.1563 20.1634 50.8601 19.9588 50.4851 19.7969C50.1143 19.6349 49.6946 19.4922 49.2259 19.3686L47.679 18.9467C46.6307 18.6612 45.7997 18.2415 45.1861 17.6875C44.5767 17.1335 44.272 16.4006 44.272 15.4886C44.272 14.7344 44.4766 14.076 44.8857 13.5135C45.2947 12.951 45.8487 12.5142 46.5476 12.2031C47.2464 11.8878 48.0348 11.7301 48.9126 11.7301C49.799 11.7301 50.581 11.8857 51.2585 12.1967C51.9403 12.5078 52.4773 12.9361 52.8693 13.4815C53.2614 14.0227 53.4659 14.6449 53.483 15.348H51.5781ZM56.5888 25V15.1818H58.4233V16.7798H58.5448C58.7493 16.2386 59.0838 15.8168 59.5483 15.5142C60.0128 15.2074 60.5689 15.054 61.2166 15.054C61.8729 15.054 62.4226 15.2074 62.8658 15.5142C63.3132 15.821 63.6435 16.2429 63.8565 16.7798H63.9588C64.1932 16.2557 64.5661 15.8381 65.0774 15.527C65.5888 15.2116 66.1982 15.054 66.9055 15.054C67.7962 15.054 68.5227 15.3331 69.0852 15.8913C69.652 16.4496 69.9354 17.2912 69.9354 18.4162V25H68.0242V18.5952C68.0242 17.9304 67.843 17.4489 67.4808 17.1506C67.1186 16.8523 66.6861 16.7031 66.1832 16.7031C65.5611 16.7031 65.0774 16.8949 64.7323 17.2784C64.3871 17.6577 64.2145 18.1456 64.2145 18.7422V25H62.3097V18.4737C62.3097 17.9411 62.1435 17.5128 61.8111 17.1889C61.4787 16.8651 61.0462 16.7031 60.5135 16.7031C60.1513 16.7031 59.8168 16.799 59.51 16.9908C59.2074 17.1783 58.9624 17.4403 58.7749 17.777C58.5916 18.1136 58.5 18.5036 58.5 18.9467V25H56.5888ZM76.0742 25.2173C75.4521 25.2173 74.8896 25.1023 74.3867 24.8722C73.8839 24.6378 73.4855 24.299 73.1914 23.8558C72.9016 23.4126 72.7568 22.8693 72.7568 22.2259C72.7568 21.6719 72.8633 21.2159 73.0764 20.858C73.2894 20.5 73.5771 20.2166 73.9393 20.0078C74.3015 19.799 74.7063 19.6413 75.1538 19.5348C75.6012 19.4283 76.0572 19.3473 76.5217 19.2919C77.1097 19.2237 77.587 19.1683 77.9535 19.1257C78.32 19.0788 78.5863 19.0043 78.7525 18.902C78.9187 18.7997 79.0018 18.6335 79.0018 18.4034V18.3587C79.0018 17.8004 78.8441 17.3679 78.5288 17.0611C78.2177 16.7543 77.7532 16.6009 77.1353 16.6009C76.4918 16.6009 75.9847 16.7436 75.614 17.0291C75.2475 17.3104 74.994 17.6236 74.8534 17.9688L73.0572 17.5597C73.2703 16.9631 73.5813 16.4815 73.9904 16.1151C74.4038 15.7443 74.8789 15.4759 75.4159 15.3097C75.9528 15.1392 76.5174 15.054 77.1097 15.054C77.5018 15.054 77.9173 15.1009 78.3562 15.1946C78.7994 15.2841 79.2127 15.4503 79.5963 15.6932C79.984 15.9361 80.3015 16.2834 80.5487 16.7351C80.7958 17.1825 80.9194 17.7642 80.9194 18.4801V25H79.0529V23.6577H78.9762C78.8526 23.9048 78.6673 24.1477 78.4201 24.3864C78.173 24.625 77.8555 24.8232 77.4677 24.9808C77.0799 25.1385 76.6154 25.2173 76.0742 25.2173ZM76.4897 23.6832C77.0181 23.6832 77.4698 23.5788 77.8448 23.37C78.2241 23.1612 78.5117 22.8885 78.7078 22.5518C78.908 22.2109 79.0082 21.8466 79.0082 21.4588V20.1932C78.94 20.2614 78.8079 20.3253 78.6119 20.3849C78.4201 20.4403 78.2007 20.4893 77.9535 20.532C77.7063 20.5703 77.4656 20.6065 77.2312 20.6406C76.9968 20.6705 76.8008 20.696 76.6431 20.7173C76.2724 20.7642 75.9336 20.843 75.6268 20.9538C75.3242 21.0646 75.0813 21.2244 74.8981 21.4332C74.7191 21.6378 74.6296 21.9105 74.6296 22.2514C74.6296 22.7244 74.8043 23.0824 75.1538 23.3253C75.5032 23.5639 75.9485 23.6832 76.4897 23.6832ZM84.185 25V15.1818H86.0323V16.7415H86.1346C86.3136 16.2131 86.6289 15.7976 87.0806 15.495C87.5366 15.1882 88.0522 15.0348 88.6275 15.0348C88.7468 15.0348 88.8875 15.0391 89.0494 15.0476C89.2156 15.0561 89.3455 15.0668 89.4393 15.0795V16.9077C89.3626 16.8864 89.2262 16.8629 89.0302 16.8374C88.8342 16.8075 88.6382 16.7926 88.4421 16.7926C87.9904 16.7926 87.5877 16.8885 87.234 17.0803C86.8846 17.2678 86.6076 17.5298 86.4031 17.8665C86.1985 18.1989 86.0963 18.5781 86.0963 19.0043V25H84.185ZM96.9764 15.1818V16.7159H91.6135V15.1818H96.9764ZM93.0517 12.8295H94.9629V22.1172C94.9629 22.4879 95.0183 22.767 95.1291 22.9545C95.2399 23.1378 95.3827 23.2635 95.5574 23.3317C95.7364 23.3956 95.9302 23.4276 96.1391 23.4276C96.2925 23.4276 96.4267 23.4169 96.5418 23.3956C96.6568 23.3743 96.7463 23.3572 96.8102 23.3445L97.1554 24.9233C97.0446 24.9659 96.8869 25.0085 96.6824 25.0511C96.4778 25.098 96.2222 25.1236 95.9153 25.1278C95.4125 25.1364 94.9437 25.0469 94.5091 24.8594C94.0744 24.6719 93.7229 24.3821 93.4544 23.9901C93.1859 23.598 93.0517 23.1058 93.0517 22.5135V12.8295ZM105.448 11.9091H107.845L112.012 22.0852H112.166L116.333 11.9091H118.73V25H116.851V15.527H116.73L112.869 24.9808H111.309L107.448 15.5206H107.327V25H105.448V11.9091ZM126.304 25.1982C125.384 25.1982 124.58 24.9872 123.894 24.5653C123.208 24.1435 122.676 23.5533 122.296 22.7947C121.917 22.0362 121.728 21.1499 121.728 20.1357C121.728 19.1172 121.917 18.2266 122.296 17.4638C122.676 16.701 123.208 16.1087 123.894 15.6868C124.58 15.2649 125.384 15.054 126.304 15.054C127.225 15.054 128.028 15.2649 128.714 15.6868C129.4 16.1087 129.933 16.701 130.312 17.4638C130.691 18.2266 130.881 19.1172 130.881 20.1357C130.881 21.1499 130.691 22.0362 130.312 22.7947C129.933 23.5533 129.4 24.1435 128.714 24.5653C128.028 24.9872 127.225 25.1982 126.304 25.1982ZM126.311 23.5938C126.907 23.5938 127.402 23.4361 127.794 23.1207C128.186 22.8054 128.475 22.3857 128.663 21.8615C128.855 21.3374 128.951 20.7599 128.951 20.1293C128.951 19.5028 128.855 18.9276 128.663 18.4034C128.475 17.875 128.186 17.451 127.794 17.1314C127.402 16.8118 126.907 16.652 126.311 16.652C125.71 16.652 125.211 16.8118 124.815 17.1314C124.423 17.451 124.131 17.875 123.939 18.4034C123.752 18.9276 123.658 19.5028 123.658 20.1293C123.658 20.7599 123.752 21.3374 123.939 21.8615C124.131 22.3857 124.423 22.8054 124.815 23.1207C125.211 23.4361 125.71 23.5938 126.311 23.5938ZM137.87 25.1982C136.92 25.1982 136.101 24.983 135.415 24.5526C134.734 24.1179 134.209 23.5192 133.843 22.7564C133.476 21.9936 133.293 21.12 133.293 20.1357C133.293 19.1385 133.481 18.2585 133.856 17.4957C134.231 16.7287 134.759 16.13 135.441 15.6996C136.123 15.2692 136.926 15.054 137.851 15.054C138.596 15.054 139.261 15.1925 139.845 15.4695C140.429 15.7422 140.9 16.1257 141.258 16.62C141.62 17.1143 141.835 17.6918 141.903 18.3523H140.043C139.941 17.892 139.707 17.4957 139.34 17.1634C138.978 16.831 138.492 16.6648 137.883 16.6648C137.35 16.6648 136.883 16.8054 136.483 17.0866C136.087 17.3636 135.778 17.7599 135.556 18.2756C135.334 18.7869 135.224 19.392 135.224 20.0909C135.224 20.8068 135.332 21.4247 135.55 21.9446C135.767 22.4645 136.074 22.8672 136.47 23.1527C136.871 23.4382 137.342 23.581 137.883 23.581C138.245 23.581 138.573 23.5149 138.867 23.3828C139.165 23.2464 139.415 23.0526 139.615 22.8011C139.819 22.5497 139.962 22.2472 140.043 21.8935H141.903C141.835 22.5284 141.628 23.0952 141.283 23.5938C140.938 24.0923 140.476 24.4844 139.896 24.7699C139.321 25.0554 138.645 25.1982 137.87 25.1982ZM146.425 21.6697L146.412 19.3366H146.745L150.656 15.1818H152.945L148.483 19.9119H148.183L146.425 21.6697ZM144.667 25V11.9091H146.578V25H144.667ZM150.867 25L147.352 20.3338L148.669 18.9979L153.213 25H150.867ZM162.764 17.5788L161.032 17.8857C160.959 17.6641 160.844 17.4531 160.687 17.2528C160.533 17.0526 160.324 16.8885 160.06 16.7607C159.796 16.6328 159.466 16.5689 159.069 16.5689C158.528 16.5689 158.076 16.6903 157.714 16.9332C157.352 17.1719 157.171 17.4808 157.171 17.8601C157.171 18.1882 157.292 18.4524 157.535 18.6527C157.778 18.853 158.17 19.017 158.711 19.1449L160.271 19.5028C161.174 19.7116 161.848 20.0334 162.291 20.468C162.734 20.9027 162.956 21.4673 162.956 22.1619C162.956 22.75 162.785 23.2741 162.444 23.7344C162.108 24.1903 161.637 24.5483 161.032 24.8082C160.431 25.0682 159.734 25.1982 158.941 25.1982C157.842 25.1982 156.945 24.9638 156.25 24.495C155.556 24.022 155.13 23.3509 154.972 22.4815L156.819 22.2003C156.934 22.6818 157.171 23.0462 157.529 23.2933C157.887 23.5362 158.353 23.6577 158.929 23.6577C159.555 23.6577 160.056 23.5277 160.431 23.2678C160.806 23.0036 160.993 22.6818 160.993 22.3026C160.993 21.9957 160.878 21.7379 160.648 21.5291C160.422 21.3203 160.075 21.1626 159.606 21.0561L157.944 20.6918C157.028 20.483 156.351 20.1506 155.912 19.6946C155.477 19.2386 155.26 18.6612 155.26 17.9624C155.26 17.3828 155.422 16.8757 155.745 16.4411C156.069 16.0064 156.517 15.6676 157.088 15.4247C157.659 15.1776 158.313 15.054 159.05 15.054C160.111 15.054 160.946 15.2841 161.556 15.7443C162.165 16.2003 162.568 16.8118 162.764 17.5788Z" fill="#383838"/>
<defs>
<filter id="filter0_d_780_87" x="0" y="27" width="30.0896" height="23.5149" filterUnits="userSpaceOnUse" color-interpolation-filters="sRGB">
<feFlood flood-opacity="0" result="BackgroundImageFix"/>
<feColorMatrix in="SourceAlpha" type="matrix" values="0 0 0 0 0 0 0 0 0 0 0 0 0 0 0 0 0 0 127 0" result="hardAlpha"/>
<feOffset dy="4"/>
<feGaussianBlur stdDeviation="2"/>
<feComposite in2="hardAlpha" operator="out"/>
<feColorMatrix type="matrix" values="0 0 0 0 0 0 0 0 0 0 0 0 0 0 0 0 0 0 0.25 0"/>
<feBlend mode="normal" in2="BackgroundImageFix" result="effect1_dropShadow_780_87"/>
<feBlend mode="normal" in="SourceGraphic" in2="effect1_dropShadow_780_87" result="shape"/>
</filter>
<filter id="filter1_d_780_87" x="0" y="0" width="207" height="45" filterUnits="userSpaceOnUse" color-interpolation-filters="sRGB">
<feFlood flood-opacity="0" result="BackgroundImageFix"/>
<feColorMatrix in="SourceAlpha" type="matrix" values="0 0 0 0 0 0 0 0 0 0 0 0 0 0 0 0 0 0 127 0" result="hardAlpha"/>
<feOffset dy="4"/>
<feGaussianBlur stdDeviation="2"/>
<feComposite in2="hardAlpha" operator="out"/>
<feColorMatrix type="matrix" values="0 0 0 0 0 0 0 0 0 0 0 0 0 0 0 0 0 0 0.25 0"/>
<feBlend mode="normal" in2="BackgroundImageFix" result="effect1_dropShadow_780_87"/>
<feBlend mode="normal" in="SourceGraphic" in2="effect1_dropShadow_780_87" result="shape"/>
</filter>
</defs>
</svg>
