<svg width="207" height="45" viewBox="0 0 207 45" fill="none" xmlns="http://www.w3.org/2000/svg">
<g filter="url(#filter0_d_642_94)">
<path d="M4 0H184.5C194.717 0 203 8.28273 203 18.5V18.5C203 28.7173 194.717 37 184.5 37H4V0Z" fill="#FD91AC"/>
</g>
<path d="M51.5781 14.348C51.5099 13.7429 51.2287 13.2741 50.7344 12.9418C50.2401 12.6051 49.6179 12.4368 48.8679 12.4368C48.331 12.4368 47.8665 12.522 47.4744 12.6925C47.0824 12.8587 46.7777 13.0888 46.5604 13.3828C46.3473 13.6726 46.2408 14.0028 46.2408 14.3736C46.2408 14.6847 46.3132 14.9531 46.4581 15.179C46.6072 15.4048 46.8011 15.5945 47.0398 15.7479C47.2827 15.897 47.5426 16.0227 47.8196 16.125C48.0966 16.223 48.3629 16.304 48.6186 16.3679L49.897 16.7003C50.3146 16.8026 50.7429 16.9411 51.1818 17.1158C51.6207 17.2905 52.0277 17.5206 52.4027 17.8061C52.7777 18.0916 53.0803 18.4453 53.3104 18.8672C53.5447 19.2891 53.6619 19.794 53.6619 20.3821C53.6619 21.1236 53.4702 21.782 53.0866 22.3572C52.7074 22.9325 52.1555 23.3864 51.4311 23.7188C50.7109 24.0511 49.8395 24.2173 48.8168 24.2173C47.8366 24.2173 46.9886 24.0618 46.2727 23.7507C45.5568 23.4396 44.9964 22.9986 44.5916 22.4276C44.1868 21.8523 43.9631 21.1705 43.9205 20.3821H45.902C45.9403 20.8551 46.0938 21.2493 46.3622 21.5646C46.6349 21.8757 46.9822 22.108 47.4041 22.2614C47.8303 22.4105 48.2969 22.4851 48.804 22.4851C49.3622 22.4851 49.8587 22.3977 50.2933 22.223C50.7322 22.044 51.0774 21.7969 51.3288 21.4815C51.5803 21.1619 51.706 20.7891 51.706 20.3629C51.706 19.9751 51.5952 19.6577 51.3736 19.4105C51.1563 19.1634 50.8601 18.9588 50.4851 18.7969C50.1143 18.6349 49.6946 18.4922 49.2259 18.3686L47.679 17.9467C46.6307 17.6612 45.7997 17.2415 45.1861 16.6875C44.5767 16.1335 44.272 15.4006 44.272 14.4886C44.272 13.7344 44.4766 13.076 44.8857 12.5135C45.2947 11.951 45.8487 11.5142 46.5476 11.2031C47.2464 10.8878 48.0348 10.7301 48.9126 10.7301C49.799 10.7301 50.581 10.8857 51.2585 11.1967C51.9403 11.5078 52.4773 11.9361 52.8693 12.4815C53.2614 13.0227 53.4659 13.6449 53.483 14.348H51.5781ZM56.5888 24V14.1818H58.4233V15.7798H58.5448C58.7493 15.2386 59.0838 14.8168 59.5483 14.5142C60.0128 14.2074 60.5689 14.054 61.2166 14.054C61.8729 14.054 62.4226 14.2074 62.8658 14.5142C63.3132 14.821 63.6435 15.2429 63.8565 15.7798H63.9588C64.1932 15.2557 64.5661 14.8381 65.0774 14.527C65.5888 14.2116 66.1982 14.054 66.9055 14.054C67.7962 14.054 68.5227 14.3331 69.0852 14.8913C69.652 15.4496 69.9354 16.2912 69.9354 17.4162V24H68.0242V17.5952C68.0242 16.9304 67.843 16.4489 67.4808 16.1506C67.1186 15.8523 66.6861 15.7031 66.1832 15.7031C65.5611 15.7031 65.0774 15.8949 64.7323 16.2784C64.3871 16.6577 64.2145 17.1456 64.2145 17.7422V24H62.3097V17.4737C62.3097 16.9411 62.1435 16.5128 61.8111 16.1889C61.4787 15.8651 61.0462 15.7031 60.5135 15.7031C60.1513 15.7031 59.8168 15.799 59.51 15.9908C59.2074 16.1783 58.9624 16.4403 58.7749 16.777C58.5916 17.1136 58.5 17.5036 58.5 17.9467V24H56.5888ZM76.0742 24.2173C75.4521 24.2173 74.8896 24.1023 74.3867 23.8722C73.8839 23.6378 73.4855 23.299 73.1914 22.8558C72.9016 22.4126 72.7568 21.8693 72.7568 21.2259C72.7568 20.6719 72.8633 20.2159 73.0764 19.858C73.2894 19.5 73.5771 19.2166 73.9393 19.0078C74.3015 18.799 74.7063 18.6413 75.1538 18.5348C75.6012 18.4283 76.0572 18.3473 76.5217 18.2919C77.1097 18.2237 77.587 18.1683 77.9535 18.1257C78.32 18.0788 78.5863 18.0043 78.7525 17.902C78.9187 17.7997 79.0018 17.6335 79.0018 17.4034V17.3587C79.0018 16.8004 78.8441 16.3679 78.5288 16.0611C78.2177 15.7543 77.7532 15.6009 77.1353 15.6009C76.4918 15.6009 75.9847 15.7436 75.614 16.0291C75.2475 16.3104 74.994 16.6236 74.8534 16.9688L73.0572 16.5597C73.2703 15.9631 73.5813 15.4815 73.9904 15.1151C74.4038 14.7443 74.8789 14.4759 75.4159 14.3097C75.9528 14.1392 76.5174 14.054 77.1097 14.054C77.5018 14.054 77.9173 14.1009 78.3562 14.1946C78.7994 14.2841 79.2127 14.4503 79.5963 14.6932C79.984 14.9361 80.3015 15.2834 80.5487 15.7351C80.7958 16.1825 80.9194 16.7642 80.9194 17.4801V24H79.0529V22.6577H78.9762C78.8526 22.9048 78.6673 23.1477 78.4201 23.3864C78.173 23.625 77.8555 23.8232 77.4677 23.9808C77.0799 24.1385 76.6154 24.2173 76.0742 24.2173ZM76.4897 22.6832C77.0181 22.6832 77.4698 22.5788 77.8448 22.37C78.2241 22.1612 78.5117 21.8885 78.7078 21.5518C78.908 21.2109 79.0082 20.8466 79.0082 20.4588V19.1932C78.94 19.2614 78.8079 19.3253 78.6119 19.3849C78.4201 19.4403 78.2007 19.4893 77.9535 19.532C77.7063 19.5703 77.4656 19.6065 77.2312 19.6406C76.9968 19.6705 76.8008 19.696 76.6431 19.7173C76.2724 19.7642 75.9336 19.843 75.6268 19.9538C75.3242 20.0646 75.0813 20.2244 74.8981 20.4332C74.7191 20.6378 74.6296 20.9105 74.6296 21.2514C74.6296 21.7244 74.8043 22.0824 75.1538 22.3253C75.5032 22.5639 75.9485 22.6832 76.4897 22.6832ZM84.185 24V14.1818H86.0323V15.7415H86.1346C86.3136 15.2131 86.6289 14.7976 87.0806 14.495C87.5366 14.1882 88.0522 14.0348 88.6275 14.0348C88.7468 14.0348 88.8875 14.0391 89.0494 14.0476C89.2156 14.0561 89.3455 14.0668 89.4393 14.0795V15.9077C89.3626 15.8864 89.2262 15.8629 89.0302 15.8374C88.8342 15.8075 88.6382 15.7926 88.4421 15.7926C87.9904 15.7926 87.5877 15.8885 87.234 16.0803C86.8846 16.2678 86.6076 16.5298 86.4031 16.8665C86.1985 17.1989 86.0963 17.5781 86.0963 18.0043V24H84.185ZM96.9764 14.1818V15.7159H91.6135V14.1818H96.9764ZM93.0517 11.8295H94.9629V21.1172C94.9629 21.4879 95.0183 21.767 95.1291 21.9545C95.2399 22.1378 95.3827 22.2635 95.5574 22.3317C95.7364 22.3956 95.9302 22.4276 96.1391 22.4276C96.2925 22.4276 96.4267 22.4169 96.5418 22.3956C96.6568 22.3743 96.7463 22.3572 96.8102 22.3445L97.1554 23.9233C97.0446 23.9659 96.8869 24.0085 96.6824 24.0511C96.4778 24.098 96.2222 24.1236 95.9153 24.1278C95.4125 24.1364 94.9437 24.0469 94.5091 23.8594C94.0744 23.6719 93.7229 23.3821 93.4544 22.9901C93.1859 22.598 93.0517 22.1058 93.0517 21.5135V11.8295ZM105.448 10.9091H107.845L112.012 21.0852H112.166L116.333 10.9091H118.73V24H116.851V14.527H116.73L112.869 23.9808H111.309L107.448 14.5206H107.327V24H105.448V10.9091ZM126.304 24.1982C125.384 24.1982 124.58 23.9872 123.894 23.5653C123.208 23.1435 122.676 22.5533 122.296 21.7947C121.917 21.0362 121.728 20.1499 121.728 19.1357C121.728 18.1172 121.917 17.2266 122.296 16.4638C122.676 15.701 123.208 15.1087 123.894 14.6868C124.58 14.2649 125.384 14.054 126.304 14.054C127.225 14.054 128.028 14.2649 128.714 14.6868C129.4 15.1087 129.933 15.701 130.312 16.4638C130.691 17.2266 130.881 18.1172 130.881 19.1357C130.881 20.1499 130.691 21.0362 130.312 21.7947C129.933 22.5533 129.4 23.1435 128.714 23.5653C128.028 23.9872 127.225 24.1982 126.304 24.1982ZM126.311 22.5938C126.907 22.5938 127.402 22.4361 127.794 22.1207C128.186 21.8054 128.475 21.3857 128.663 20.8615C128.855 20.3374 128.951 19.7599 128.951 19.1293C128.951 18.5028 128.855 17.9276 128.663 17.4034C128.475 16.875 128.186 16.451 127.794 16.1314C127.402 15.8118 126.907 15.652 126.311 15.652C125.71 15.652 125.211 15.8118 124.815 16.1314C124.423 16.451 124.131 16.875 123.939 17.4034C123.752 17.9276 123.658 18.5028 123.658 19.1293C123.658 19.7599 123.752 20.3374 123.939 20.8615C124.131 21.3857 124.423 21.8054 124.815 22.1207C125.211 22.4361 125.71 22.5938 126.311 22.5938ZM137.87 24.1982C136.92 24.1982 136.101 23.983 135.415 23.5526C134.734 23.1179 134.209 22.5192 133.843 21.7564C133.476 20.9936 133.293 20.12 133.293 19.1357C133.293 18.1385 133.481 17.2585 133.856 16.4957C134.231 15.7287 134.759 15.13 135.441 14.6996C136.123 14.2692 136.926 14.054 137.851 14.054C138.596 14.054 139.261 14.1925 139.845 14.4695C140.429 14.7422 140.9 15.1257 141.258 15.62C141.62 16.1143 141.835 16.6918 141.903 17.3523H140.043C139.941 16.892 139.707 16.4957 139.34 16.1634C138.978 15.831 138.492 15.6648 137.883 15.6648C137.35 15.6648 136.883 15.8054 136.483 16.0866C136.087 16.3636 135.778 16.7599 135.556 17.2756C135.334 17.7869 135.224 18.392 135.224 19.0909C135.224 19.8068 135.332 20.4247 135.55 20.9446C135.767 21.4645 136.074 21.8672 136.47 22.1527C136.871 22.4382 137.342 22.581 137.883 22.581C138.245 22.581 138.573 22.5149 138.867 22.3828C139.165 22.2464 139.415 22.0526 139.615 21.8011C139.819 21.5497 139.962 21.2472 140.043 20.8935H141.903C141.835 21.5284 141.628 22.0952 141.283 22.5938C140.938 23.0923 140.476 23.4844 139.896 23.7699C139.321 24.0554 138.645 24.1982 137.87 24.1982ZM146.425 20.6697L146.412 18.3366H146.745L150.656 14.1818H152.945L148.483 18.9119H148.183L146.425 20.6697ZM144.667 24V10.9091H146.578V24H144.667ZM150.867 24L147.352 19.3338L148.669 17.9979L153.213 24H150.867ZM162.764 16.5788L161.032 16.8857C160.959 16.6641 160.844 16.4531 160.687 16.2528C160.533 16.0526 160.324 15.8885 160.06 15.7607C159.796 15.6328 159.466 15.5689 159.069 15.5689C158.528 15.5689 158.076 15.6903 157.714 15.9332C157.352 16.1719 157.171 16.4808 157.171 16.8601C157.171 17.1882 157.292 17.4524 157.535 17.6527C157.778 17.853 158.17 18.017 158.711 18.1449L160.271 18.5028C161.174 18.7116 161.848 19.0334 162.291 19.468C162.734 19.9027 162.956 20.4673 162.956 21.1619C162.956 21.75 162.785 22.2741 162.444 22.7344C162.108 23.1903 161.637 23.5483 161.032 23.8082C160.431 24.0682 159.734 24.1982 158.941 24.1982C157.842 24.1982 156.945 23.9638 156.25 23.495C155.556 23.022 155.13 22.3509 154.972 21.4815L156.819 21.2003C156.934 21.6818 157.171 22.0462 157.529 22.2933C157.887 22.5362 158.353 22.6577 158.929 22.6577C159.555 22.6577 160.056 22.5277 160.431 22.2678C160.806 22.0036 160.993 21.6818 160.993 21.3026C160.993 20.9957 160.878 20.7379 160.648 20.5291C160.422 20.3203 160.075 20.1626 159.606 20.0561L157.944 19.6918C157.028 19.483 156.351 19.1506 155.912 18.6946C155.477 18.2386 155.26 17.6612 155.26 16.9624C155.26 16.3828 155.422 15.8757 155.745 15.4411C156.069 15.0064 156.517 14.6676 157.088 14.4247C157.659 14.1776 158.313 14.054 159.05 14.054C160.111 14.054 160.946 14.2841 161.556 14.7443C162.165 15.2003 162.568 15.8118 162.764 16.5788Z" fill="#383838"/>
<defs>
<filter id="filter0_d_642_94" x="0" y="0" width="207" height="45" filterUnits="userSpaceOnUse" color-interpolation-filters="sRGB">
<feFlood flood-opacity="0" result="BackgroundImageFix"/>
<feColorMatrix in="SourceAlpha" type="matrix" values="0 0 0 0 0 0 0 0 0 0 0 0 0 0 0 0 0 0 127 0" result="hardAlpha"/>
<feOffset dy="4"/>
<feGaussianBlur stdDeviation="2"/>
<feComposite in2="hardAlpha" operator="out"/>
<feColorMatrix type="matrix" values="0 0 0 0 0 0 0 0 0 0 0 0 0 0 0 0 0 0 0.25 0"/>
<feBlend mode="normal" in2="BackgroundImageFix" result="effect1_dropShadow_642_94"/>
<feBlend mode="normal" in="SourceGraphic" in2="effect1_dropShadow_642_94" result="shape"/>
</filter>
</defs>
</svg>
