<svg width="207" height="51" viewBox="0 0 207 51" fill="none" xmlns="http://www.w3.org/2000/svg">
<g filter="url(#filter0_d_775_92)">
<rect x="6.91309" y="27" width="20" height="10.2569" transform="rotate(16.5 6.91309 27)" fill="#FF8154"/>
</g>
<g filter="url(#filter1_d_775_92)">
<path d="M4 0H184.5C194.717 0 203 8.28273 203 18.5V18.5C203 28.7173 194.717 37 184.5 37H4V0Z" fill="#FF8154"/>
</g>
<path d="M76.0043 11.9091V25H74.1889L67.5348 15.3991H67.4134V25H65.4382V11.9091H67.2663L73.9268 21.5227H74.0483V11.9091H76.0043ZM83.5877 25.1982C82.6673 25.1982 81.864 24.9872 81.1779 24.5653C80.4918 24.1435 79.9592 23.5533 79.5799 22.7947C79.2006 22.0362 79.011 21.1499 79.011 20.1357C79.011 19.1172 79.2006 18.2266 79.5799 17.4638C79.9592 16.701 80.4918 16.1087 81.1779 15.6868C81.864 15.2649 82.6673 15.054 83.5877 15.054C84.5082 15.054 85.3114 15.2649 85.9975 15.6868C86.6836 16.1087 87.2163 16.701 87.5955 17.4638C87.9748 18.2266 88.1644 19.1172 88.1644 20.1357C88.1644 21.1499 87.9748 22.0362 87.5955 22.7947C87.2163 23.5533 86.6836 24.1435 85.9975 24.5653C85.3114 24.9872 84.5082 25.1982 83.5877 25.1982ZM83.5941 23.5938C84.1907 23.5938 84.685 23.4361 85.0771 23.1207C85.4691 22.8054 85.7589 22.3857 85.9464 21.8615C86.1381 21.3374 86.234 20.7599 86.234 20.1293C86.234 19.5028 86.1381 18.9276 85.9464 18.4034C85.7589 17.875 85.4691 17.451 85.0771 17.1314C84.685 16.8118 84.1907 16.652 83.5941 16.652C82.9933 16.652 82.4947 16.8118 82.0984 17.1314C81.7063 17.451 81.4144 17.875 81.2227 18.4034C81.0352 18.9276 80.9414 19.5028 80.9414 20.1293C80.9414 20.7599 81.0352 21.3374 81.2227 21.8615C81.4144 22.3857 81.7063 22.8054 82.0984 23.1207C82.4947 23.4361 82.9933 23.5938 83.5941 23.5938ZM107.528 16.1662H105.533C105.457 15.7401 105.314 15.3651 105.105 15.0412C104.896 14.7173 104.641 14.4425 104.338 14.2166C104.036 13.9908 103.697 13.8203 103.322 13.7053C102.951 13.5902 102.557 13.5327 102.139 13.5327C101.385 13.5327 100.71 13.7223 100.113 14.1016C99.5206 14.4808 99.0519 15.0369 98.7067 15.7699C98.3658 16.5028 98.1953 17.3977 98.1953 18.4545C98.1953 19.5199 98.3658 20.419 98.7067 21.152C99.0519 21.8849 99.5227 22.4389 100.119 22.8139C100.716 23.1889 101.387 23.3764 102.133 23.3764C102.546 23.3764 102.938 23.321 103.309 23.2102C103.684 23.0952 104.023 22.9268 104.325 22.7053C104.628 22.4837 104.884 22.2131 105.092 21.8935C105.305 21.5696 105.452 21.1989 105.533 20.7812L107.528 20.7876C107.421 21.4311 107.215 22.0234 106.908 22.5646C106.605 23.1016 106.215 23.5661 105.738 23.9581C105.265 24.3459 104.724 24.6463 104.114 24.8594C103.505 25.0724 102.84 25.179 102.12 25.179C100.987 25.179 99.9766 24.9105 99.0902 24.3736C98.2039 23.8324 97.505 23.0589 96.9936 22.0533C96.4865 21.0476 96.233 19.848 96.233 18.4545C96.233 17.0568 96.4887 15.8572 97 14.8558C97.5114 13.8501 98.2102 13.0788 99.0966 12.5419C99.983 12.0007 100.991 11.7301 102.12 11.7301C102.815 11.7301 103.462 11.8303 104.063 12.0305C104.668 12.2266 105.212 12.5163 105.693 12.8999C106.175 13.2791 106.573 13.7436 106.889 14.2933C107.204 14.8388 107.417 15.4631 107.528 16.1662ZM114.593 25.1982C113.673 25.1982 112.87 24.9872 112.184 24.5653C111.498 24.1435 110.965 23.5533 110.586 22.7947C110.206 22.0362 110.017 21.1499 110.017 20.1357C110.017 19.1172 110.206 18.2266 110.586 17.4638C110.965 16.701 111.498 16.1087 112.184 15.6868C112.87 15.2649 113.673 15.054 114.593 15.054C115.514 15.054 116.317 15.2649 117.003 15.6868C117.689 16.1087 118.222 16.701 118.601 17.4638C118.98 18.2266 119.17 19.1172 119.17 20.1357C119.17 21.1499 118.98 22.0362 118.601 22.7947C118.222 23.5533 117.689 24.1435 117.003 24.5653C116.317 24.9872 115.514 25.1982 114.593 25.1982ZM114.6 23.5938C115.196 23.5938 115.691 23.4361 116.083 23.1207C116.475 22.8054 116.765 22.3857 116.952 21.8615C117.144 21.3374 117.24 20.7599 117.24 20.1293C117.24 19.5028 117.144 18.9276 116.952 18.4034C116.765 17.875 116.475 17.451 116.083 17.1314C115.691 16.8118 115.196 16.652 114.6 16.652C113.999 16.652 113.5 16.8118 113.104 17.1314C112.712 17.451 112.42 17.875 112.228 18.4034C112.041 18.9276 111.947 19.5028 111.947 20.1293C111.947 20.7599 112.041 21.3374 112.228 21.8615C112.42 22.3857 112.712 22.8054 113.104 23.1207C113.5 23.4361 113.999 23.5938 114.6 23.5938ZM125.699 25.1918C124.906 25.1918 124.199 24.9893 123.577 24.5845C122.959 24.1754 122.473 23.5937 122.119 22.8395C121.77 22.081 121.595 21.1712 121.595 20.1101C121.595 19.049 121.772 18.1413 122.126 17.3871C122.484 16.6328 122.974 16.0554 123.596 15.6548C124.218 15.2543 124.923 15.054 125.712 15.054C126.321 15.054 126.811 15.1562 127.182 15.3608C127.557 15.5611 127.847 15.7955 128.051 16.0639C128.26 16.3324 128.422 16.5689 128.537 16.7734H128.652V11.9091H130.563V25H128.697V23.4723H128.537C128.422 23.6811 128.256 23.9197 128.038 24.1882C127.825 24.4567 127.531 24.6911 127.156 24.8913C126.781 25.0916 126.295 25.1918 125.699 25.1918ZM126.121 23.5618C126.67 23.5618 127.135 23.4169 127.514 23.1271C127.898 22.8331 128.188 22.4261 128.384 21.9062C128.584 21.3864 128.684 20.7812 128.684 20.0909C128.684 19.4091 128.586 18.8125 128.39 18.3011C128.194 17.7898 127.906 17.3913 127.527 17.1058C127.148 16.8203 126.679 16.6776 126.121 16.6776C125.545 16.6776 125.066 16.8267 124.683 17.125C124.299 17.4233 124.009 17.8303 123.813 18.3459C123.621 18.8615 123.526 19.4432 123.526 20.0909C123.526 20.7472 123.624 21.3374 123.82 21.8615C124.016 22.3857 124.305 22.8011 124.689 23.108C125.077 23.4105 125.554 23.5618 126.121 23.5618ZM138.243 25.1982C137.275 25.1982 136.442 24.9915 135.743 24.5781C135.049 24.1605 134.512 23.5746 134.132 22.8203C133.757 22.0618 133.57 21.1733 133.57 20.1548C133.57 19.1491 133.757 18.2628 134.132 17.4957C134.512 16.7287 135.04 16.13 135.718 15.6996C136.4 15.2692 137.196 15.054 138.108 15.054C138.662 15.054 139.199 15.1456 139.719 15.3288C140.239 15.5121 140.706 15.7997 141.119 16.1918C141.532 16.5838 141.858 17.093 142.097 17.7195C142.336 18.3416 142.455 19.098 142.455 19.9886V20.6662H134.65V19.2344H140.582C140.582 18.7315 140.48 18.2862 140.275 17.8984C140.071 17.5064 139.783 17.1974 139.412 16.9716C139.046 16.7457 138.615 16.6328 138.121 16.6328C137.584 16.6328 137.115 16.7649 136.715 17.0291C136.319 17.2891 136.012 17.63 135.794 18.0518C135.581 18.4695 135.475 18.9233 135.475 19.4134V20.532C135.475 21.1882 135.59 21.7464 135.82 22.2067C136.054 22.6669 136.38 23.0185 136.798 23.2614C137.216 23.5 137.704 23.6193 138.262 23.6193C138.624 23.6193 138.954 23.5682 139.253 23.4659C139.551 23.3594 139.809 23.2017 140.026 22.9929C140.243 22.7841 140.409 22.5263 140.525 22.2195L142.333 22.5455C142.189 23.0781 141.929 23.5447 141.554 23.9453C141.183 24.3416 140.716 24.6506 140.154 24.8722C139.596 25.0895 138.958 25.1982 138.243 25.1982Z" fill="#383838"/>
<defs>
<filter id="filter0_d_775_92" x="0" y="27" width="30.0896" height="23.5149" filterUnits="userSpaceOnUse" color-interpolation-filters="sRGB">
<feFlood flood-opacity="0" result="BackgroundImageFix"/>
<feColorMatrix in="SourceAlpha" type="matrix" values="0 0 0 0 0 0 0 0 0 0 0 0 0 0 0 0 0 0 127 0" result="hardAlpha"/>
<feOffset dy="4"/>
<feGaussianBlur stdDeviation="2"/>
<feComposite in2="hardAlpha" operator="out"/>
<feColorMatrix type="matrix" values="0 0 0 0 0 0 0 0 0 0 0 0 0 0 0 0 0 0 0.25 0"/>
<feBlend mode="normal" in2="BackgroundImageFix" result="effect1_dropShadow_775_92"/>
<feBlend mode="normal" in="SourceGraphic" in2="effect1_dropShadow_775_92" result="shape"/>
</filter>
<filter id="filter1_d_775_92" x="0" y="0" width="207" height="45" filterUnits="userSpaceOnUse" color-interpolation-filters="sRGB">
<feFlood flood-opacity="0" result="BackgroundImageFix"/>
<feColorMatrix in="SourceAlpha" type="matrix" values="0 0 0 0 0 0 0 0 0 0 0 0 0 0 0 0 0 0 127 0" result="hardAlpha"/>
<feOffset dy="4"/>
<feGaussianBlur stdDeviation="2"/>
<feComposite in2="hardAlpha" operator="out"/>
<feColorMatrix type="matrix" values="0 0 0 0 0 0 0 0 0 0 0 0 0 0 0 0 0 0 0.25 0"/>
<feBlend mode="normal" in2="BackgroundImageFix" result="effect1_dropShadow_775_92"/>
<feBlend mode="normal" in="SourceGraphic" in2="effect1_dropShadow_775_92" result="shape"/>
</filter>
</defs>
</svg>
