<svg width="60" height="60" viewBox="0 0 60 60" fill="none" xmlns="http://www.w3.org/2000/svg">
<circle cx="30" cy="30" r="30" fill="#4606BB"/>
<path d="M21.623 22.054C21.5303 22.0529 21.4361 22.0368 21.3439 22.0038C20.8665 21.8333 20.3762 21.7012 19.8779 21.6091C18.2354 21.3052 16.5387 21.4396 14.9325 22.0225C10.0284 23.8025 7.50035 29.2097 9.28525 34.1001C11.07 38.99 16.4927 41.5115 21.3962 39.7318C22.9294 39.1753 24.4557 38.1823 25.7014 36.9578C23.8243 35.5837 22.5993 33.325 22.5993 30.7717C22.5993 26.5843 25.8937 23.1893 29.9572 23.1893C31.0389 23.1893 32.0662 23.43 32.9913 23.8621C34.4342 21.9904 36.4834 20.5597 38.9466 19.9016C44.9007 18.3105 51.0213 21.8345 52.6168 27.7723C54.2124 33.7104 50.6791 39.8133 44.7247 41.405C42.7764 41.9256 40.7632 41.9095 38.8609 41.3832C38.2841 41.2235 37.7209 41.0177 37.1772 40.7684C37.1346 40.7489 37.0946 40.7264 37.0568 40.7011L37.2699 42.1488C37.3297 42.5548 37.0481 42.9324 36.6407 42.992C36.2336 43.0517 35.855 42.7709 35.7952 42.3646L35.175 38.1508C35.1409 37.9184 35.2189 37.6836 35.3855 37.5175L35.3999 37.5032C35.5665 37.337 35.8021 37.2592 36.0352 37.2933L40.2604 37.912C40.6675 37.9716 40.9493 38.3492 40.8895 38.7554C40.8297 39.1614 40.4511 39.4424 40.0437 39.3828L38.0392 39.0892L37.916 39.2274C38.3696 39.434 38.8386 39.6044 39.3189 39.7375C40.9286 40.1829 42.6307 40.1965 44.2815 39.7552C49.3224 38.4083 52.3136 33.2418 50.9632 28.2142C49.6125 23.188 44.4312 20.2046 39.3905 21.5512C37.5356 22.0468 35.6374 23.1457 34.1696 24.5538C36.0717 25.9245 37.3157 28.1983 37.3157 30.7716C37.3157 34.9591 34.0215 38.354 29.9578 38.354C28.8979 38.354 27.8904 38.1231 26.9802 37.7074C25.7342 39.3098 24.0344 40.592 21.9826 41.3369C16.1902 43.4392 9.78497 40.4607 7.67624 34.6844C5.56777 28.9076 8.55436 22.5209 14.3474 20.418C16.2429 19.73 18.2497 19.571 20.191 19.9302C20.7796 20.0389 21.3585 20.1951 21.9219 20.3963C22.0469 20.4408 22.155 20.5115 22.2423 20.5995L21.6208 19.0141C21.4709 18.6316 21.6603 18.2006 22.0436 18.0511C22.4271 17.9019 22.8593 18.0905 23.009 18.4729L24.5637 22.4395C24.6495 22.6583 24.6266 22.9046 24.5016 23.104L24.4908 23.1212C24.3661 23.3203 24.1541 23.4491 23.9192 23.468L19.6628 23.8131C19.2526 23.8463 18.8929 23.5415 18.8596 23.1324C18.8262 22.7233 19.1319 22.3647 19.5421 22.3314L21.5615 22.1676L21.623 22.054ZM29.9613 37.6643C33.6556 37.6643 36.6502 34.5783 36.6502 30.7713C36.6502 26.9643 33.6557 23.8783 29.9613 23.8783C26.2672 23.8783 23.2724 26.9643 23.2724 30.7713C23.2724 34.5783 26.2672 37.6643 29.9613 37.6643ZM27.9288 28.006L25.8267 30.6248L27.9288 33.3883H26.5414L24.4393 30.6392L26.5414 28.006H27.9288ZM31.467 28.006L29.8556 33.3883H28.6784L30.2901 28.006H31.467ZM32.0977 33.3883L34.1998 30.7694L32.0977 28.006H33.4851L35.5869 30.7551L33.4851 33.3883H32.0977Z" fill="white"/>
</svg>
