<svg width="60" height="60" viewBox="0 0 60 60" fill="none" xmlns="http://www.w3.org/2000/svg">
<circle cx="30" cy="30" r="30" fill="#4606BB"/>
<path d="M40.9677 22.903H38.3871V21.8011L37.2091 21.3851C37.1692 21.2838 37.127 21.1825 37.0827 21.0812L37.622 19.9534L34.24 16.5704L33.1116 17.1097C33.0118 17.0651 32.9096 17.0232 32.8078 16.9833L32.3923 15.8062H27.6077L27.1923 16.9842C27.0904 17.0241 26.9891 17.0662 26.8884 17.1106L25.7601 16.5712L22.378 19.9543L22.9174 21.0821C22.8727 21.1834 22.8303 21.2847 22.791 21.3859L21.613 21.8011V22.903H19.0323C17.2536 22.903 15.8066 24.35 15.8066 26.1287V40.3224C15.8066 42.1011 17.2536 43.5481 19.0323 43.5481H23.5486V46.1288H20.9679C20.2564 46.1288 19.6775 46.7075 19.6775 47.4192V48.7097C19.6775 49.4212 20.2562 50.0001 20.9679 50.0001H39.0323C39.7438 50.0001 40.3227 49.4214 40.3227 48.7097V47.4192C40.3227 46.7077 39.7441 46.1288 39.0323 46.1288H36.4516V43.5481H40.9679C42.7466 43.5481 44.1936 42.1011 44.1936 40.3224V26.1287C44.1936 24.3503 42.7463 22.903 40.9676 22.903L40.9677 22.903ZM22.9033 22.7146L23.8021 22.3979L23.9028 22.1025C23.9868 21.8572 24.09 21.6089 24.2106 21.363L24.3487 21.0823L23.9363 20.2215L26.0278 18.13L26.8892 18.5416L27.1704 18.4035C27.4123 18.284 27.6615 18.1808 27.9098 18.0957L28.2053 17.9944L28.5215 17.0966H31.4788L31.7954 17.9947L32.0909 18.096C32.3393 18.1811 32.5884 18.2843 32.8304 18.4038L33.1116 18.5419L33.973 18.1303L36.0645 20.2218L35.6521 21.0826L35.7902 21.3633C35.9107 21.6091 36.014 21.8575 36.098 22.1028L36.1987 22.3982L37.0971 22.7146V22.903H34.9953C34.4146 20.6616 32.3616 19.0319 30.0002 19.0319C27.6389 19.0319 25.5861 20.6616 25.0052 22.903H22.9033L22.9033 22.7146ZM33.6456 22.903H26.3555C26.8935 21.3912 28.3452 20.3223 30.0006 20.3223C31.656 20.3223 33.1078 21.3915 33.6457 22.903H33.6456ZM19.0326 24.1934H40.9685C42.0355 24.1934 42.904 25.0617 42.904 26.129V37.0969H17.0974V26.129C17.0974 25.062 17.9657 24.1937 19.033 24.1937L19.0326 24.1934ZM39.0335 48.7093H20.9683V47.4188H39.0327L39.0335 48.7093ZM35.1618 46.1286H24.8389V43.548H35.1618V46.1286ZM40.9682 42.2578H19.033C17.966 42.2578 17.0974 41.3895 17.0974 40.3222V38.3866H42.904V40.3222C42.904 41.3894 42.0358 42.2578 40.9685 42.2578H40.9682Z" fill="white"/>
<path d="M28.0641 40.3232C28.0641 40.6795 27.7753 40.9683 27.419 40.9683C27.0627 40.9683 26.7739 40.6795 26.7739 40.3232C26.7739 39.9669 27.0627 39.6781 27.419 39.6781C27.7753 39.6781 28.0641 39.9669 28.0641 40.3232Z" fill="white"/>
<path d="M30.6448 40.3232C30.6448 40.6795 30.356 40.9683 29.9997 40.9683C29.6434 40.9683 29.3546 40.6795 29.3546 40.3232C29.3546 39.9669 29.6434 39.6781 29.9997 39.6781C30.356 39.6781 30.6448 39.9669 30.6448 40.3232Z" fill="white"/>
<path d="M33.2255 40.3232C33.2255 40.6795 32.9368 40.9683 32.5805 40.9683C32.2241 40.9683 31.9354 40.6795 31.9354 40.3232C31.9354 39.9669 32.2242 39.6781 32.5805 39.6781C32.9368 39.6781 33.2255 39.9669 33.2255 40.3232Z" fill="white"/>
<path d="M29.9998 11.2905C33.5839 11.2905 37.0255 12.3697 39.9535 14.4124C40.0651 14.4897 40.1934 14.5285 40.3226 14.5285C40.4646 14.5285 40.6058 14.4813 40.7233 14.3893C40.9471 14.2124 41.0277 13.9094 40.922 13.6448L39.6315 10.4068L38.4334 10.8842L38.9979 12.3017C36.2515 10.7911 33.1773 10 30 10C26.1509 10 22.4542 11.1599 19.3085 13.3541L20.0473 14.4127C22.9745 12.3697 26.4162 11.2904 30.0003 11.2904L29.9998 11.2905Z" fill="white"/>
<path d="M13.644 19.0779L10.406 20.3684L10.8834 21.5665L12.3002 21.002C10.791 23.7481 10 26.8223 10 29.9999C10 33.8485 11.1599 37.5457 13.3535 40.6914L14.4121 39.9526C12.3697 37.0248 11.2904 33.5828 11.2904 29.9996C11.2904 26.4165 12.3697 22.9745 14.4124 20.046C14.5756 19.8125 14.5653 19.4988 14.3884 19.2756C14.2115 19.0533 13.909 18.9721 13.644 19.0778L13.644 19.0779Z" fill="white"/>
<path d="M47.6992 38.9974C49.209 36.2516 50 33.1774 50 30.0002C50 26.1517 48.8401 22.4545 46.6465 19.3087L45.5879 20.0476C47.6303 22.9753 48.7096 26.4173 48.7096 30.0005C48.7096 33.5837 47.6303 37.0257 45.5876 39.9541C45.4244 40.1877 45.4347 40.5013 45.6116 40.7245C45.7369 40.8819 45.9244 40.9681 46.1169 40.9681C46.197 40.9681 46.2782 40.9533 46.3558 40.9223L49.5938 39.6319L49.1164 38.4338L47.6992 38.9974Z" fill="white"/>
<path d="M28.0834 35.6502L30.6668 25.328L31.918 25.6411L29.3345 35.9633L28.0834 35.6502Z" fill="white"/>
<path d="M33.6005 34.3967L38.852 30.6455L33.6005 26.8947L32.8508 27.9449L36.6316 30.6455L32.8508 33.3462L33.6005 34.3967Z" fill="white"/>
<path d="M27.1491 33.3458L23.3683 30.6452L27.1491 27.9445L26.3994 26.8943L21.1479 30.6452L26.3994 34.3963L27.1491 33.3458Z" fill="white"/>
</svg>
