<svg width="60" height="66" viewBox="0 0 60 66" fill="none" xmlns="http://www.w3.org/2000/svg">
<circle cx="30" cy="30" r="30" fill="#4606BB"/>
<path d="M44.4304 22.7552H41.368V19.6927C41.368 19.2286 40.9967 18.8577 40.5329 18.8577H37.4241V15.7952C37.4241 15.3311 37.0529 14.9602 36.5891 14.9602H15.5699C15.1058 14.9602 14.7349 15.3314 14.7349 15.7952V38.856C14.7349 39.3201 15.1061 39.691 15.5699 39.691H18.6324V42.7535C18.6324 43.2177 19.0036 43.5886 19.4674 43.5886L22.5762 43.5889V46.6514C22.5762 47.1155 22.9475 47.4864 23.4112 47.4864H37.2849C37.5169 47.4864 37.7024 47.3935 37.8415 47.2543L44.9407 40.8511C45.1262 40.7119 45.2191 40.4798 45.2191 40.2015L45.2194 23.5903C45.2657 23.1261 44.8948 22.7549 44.4307 22.7549L44.4304 22.7552ZM16.4512 16.5843H35.7536V34.2163L31.4386 37.9283L19.5138 37.928H16.4513L16.4512 16.5843ZM20.3488 39.6451H31.6704C31.8558 39.6451 32.0879 39.5522 32.2271 39.4596L37.0991 35.2838C37.2846 35.1446 37.3775 34.8662 37.3775 34.6342V20.5278H39.6046V37.0461L34.1758 41.8719H20.3486L20.3488 39.6451ZM43.5488 39.8768L37.0063 45.816H24.2927V43.5889H34.5007C34.6861 43.5889 34.9182 43.496 35.0574 43.3568L41.0428 38.0672C41.2283 37.928 41.3212 37.6497 41.3212 37.4176V24.4256H43.5483L43.5488 39.8768Z" fill="white"/>
<path d="M20.024 21.5024H32.1808C32.6449 21.5024 33.0158 21.1312 33.0158 20.6674C33.0158 20.2033 32.6446 19.8324 32.1808 19.8324L20.024 19.832C19.5599 19.832 19.189 20.2033 19.189 20.6671C19.1886 21.1312 19.5136 21.5024 20.024 21.5024V21.5024Z" fill="white"/>
<path d="M20.024 25.5392H32.1808C32.645 25.5392 33.0159 25.168 33.0159 24.7042C33.0159 24.24 32.6446 23.8691 32.1808 23.8691L20.024 23.8688C19.5599 23.8688 19.189 24.24 19.189 24.7038C19.1424 25.168 19.5136 25.5392 20.024 25.5392V25.5392Z" fill="white"/>
<path d="M32.1345 27.9056H28.8865C28.4224 27.9056 28.0515 28.2768 28.0515 28.7406C28.0515 29.2048 28.4228 29.5757 28.8865 29.5757H32.1345C32.5986 29.5757 32.9695 29.2044 32.9695 28.7406C33.0158 28.2768 32.5983 27.9056 32.1345 27.9056Z" fill="white"/>
<path d="M32.1345 31.9424H28.8865C28.4224 31.9424 28.0515 32.3137 28.0515 32.7774C28.0515 33.2416 28.4228 33.6125 28.8865 33.6125H32.1345C32.5986 33.6125 32.9695 33.2412 32.9695 32.7774C33.0158 32.3136 32.5983 31.9424 32.1345 31.9424Z" fill="white"/>
<path d="M25.9632 35.7472C26.4274 35.7472 26.7983 35.376 26.7983 34.9122V28.7872C26.7983 28.3231 26.427 27.9522 25.9632 27.9522H19.8849C19.4208 27.9522 19.0499 28.3234 19.0499 28.7872L19.0496 34.9122C19.0496 35.3763 19.4208 35.7472 19.8846 35.7472H25.9632ZM20.72 29.6226H25.0816V34.0305H20.72V29.6226Z" fill="white"/>
</svg>
