<svg width="60" height="60" viewBox="0 0 60 60" fill="none" xmlns="http://www.w3.org/2000/svg">
<circle cx="30" cy="30" r="30" fill="#4606BB"/>
<path d="M22.2125 17.6248V19.5009L23.7858 20.1691C23.8726 20.5565 23.9916 20.9361 24.1415 21.3035L23.3043 22.7433C23.6105 23.2878 23.9759 23.7969 24.3943 24.2614L26.002 23.8942C26.2959 24.1521 26.6113 24.3846 26.9446 24.5892L27.0983 26.2641C27.6572 26.5251 28.2441 26.722 28.8477 26.8504L29.9434 25.583H31.1108L32.2062 26.8504C32.8098 26.722 33.3967 26.5251 33.9557 26.2641L34.1093 24.5892C34.4426 24.3846 34.7579 24.1521 35.052 23.8942L36.6596 24.2614C37.078 23.7972 37.4434 23.2881 37.7499 22.7433L36.9127 21.3035C37.0626 20.9361 37.1816 20.5567 37.2681 20.1694L38.7876 19.5009V17.6248L37.2681 16.9563V16.9566C37.1816 16.569 37.0626 16.1896 36.9127 15.8222L37.7499 14.3824C37.4437 13.8377 37.078 13.3288 36.6599 12.8644L35.0523 13.2315C34.758 12.9736 34.4426 12.7411 34.1096 12.5365L33.9559 10.8617H33.9557C33.3967 10.6004 32.8098 10.4037 32.2065 10.2754L31.1108 11.5427H29.9434L28.8477 10.2754C28.2444 10.4037 27.6575 10.6004 27.0986 10.8617L26.9449 12.5365H26.9446C26.6116 12.7411 26.2963 12.9736 26.002 13.2312L24.3943 12.8641V12.8644C23.9759 13.3285 23.6105 13.8377 23.3043 14.3824L24.1416 15.8222V15.8219C23.9916 16.1896 23.8726 16.569 23.7861 16.9563L22.2125 17.6248ZM27.2186 16.5502C27.5687 16.2058 28.0402 16.0129 28.5312 16.0129C29.0224 16.0129 29.4937 16.2058 29.8438 16.5502L30.5001 17.1988L31.1564 16.5502C31.5064 16.2058 31.9777 16.0129 32.469 16.0129C32.9599 16.0129 33.4315 16.2058 33.7816 16.5502C34.1293 16.8923 34.3251 17.3596 34.3251 17.8474C34.3251 18.3352 34.1293 18.8028 33.7816 19.1446L30.5001 22.3879L27.2187 19.1446C26.871 18.8028 26.6751 18.3353 26.6751 17.8474C26.6751 17.3596 26.871 16.8923 27.2187 16.5502H27.2186Z" fill="white"/>
<path d="M42.9469 37.7538L46.0245 32.0214V32.0211C46.3868 31.3466 46.3643 30.5304 45.965 29.8766C45.566 29.2232 44.8506 28.8302 44.0847 28.8441C43.3191 28.8581 42.6181 29.277 42.2434 29.9446L40.2887 33.425H40.2885C39.8971 33.8895 39.3786 34.2296 38.7966 34.4035L30.112 37.0013H30.1123C29.7514 37.1069 29.3629 37.0588 29.0388 36.8681C28.7149 36.6774 28.4838 36.3612 28.401 35.9947C28.3168 35.6463 28.3703 35.2789 28.5504 34.969C28.7306 34.6593 29.0234 34.4311 29.3678 34.3321L33.2882 33.1285C33.6448 33.0288 33.9502 32.7977 34.1431 32.4821C34.3361 32.1662 34.4024 31.7891 34.3287 31.4266C34.2379 31.0498 33.996 30.7267 33.6598 30.5338C33.3237 30.3405 32.923 30.2941 32.5516 30.4054L24.1213 32.9338C21.361 33.6877 19.1428 35.7419 18.1795 38.4362L14.5781 48.508L22.8503 48.5245L23.2849 46.4364C23.3748 45.888 23.6122 45.3743 23.9716 44.9502C24.3308 44.5265 24.7987 44.2083 25.3252 44.0298L41.9614 38.5661V38.5658C42.3803 38.4284 42.7321 38.1384 42.9472 37.7536L42.9469 37.7538Z" fill="white"/>
</svg>
