<svg width="54" height="54" viewBox="0 0 54 54" fill="none" xmlns="http://www.w3.org/2000/svg">
<path d="M42.2609 0H11.7391C5.25579 0 0 5.25579 0 11.7391V42.2609C0 48.7442 5.25579 54 11.7391 54H42.2609C48.7442 54 54 48.7442 54 42.2609V11.7391C54 5.25579 48.7442 0 42.2609 0Z" fill="#5720BE" fill-opacity="0.2"/>
<path d="M42.2608 0.586914H11.7391C5.57991 0.586914 0.586914 5.57991 0.586914 11.7391V42.2608C0.586914 48.42 5.57991 53.413 11.7391 53.413H42.2608C48.42 53.413 53.413 48.42 53.413 42.2608V11.7391C53.413 5.57991 48.42 0.586914 42.2608 0.586914Z" stroke="white" stroke-opacity="0.2"/>
<path d="M32.7465 17.6099C29.1684 17.6744 26.297 19.7628 26.297 22.3289C26.2959 22.6945 26.353 23.0578 26.4661 23.4054C21.4895 23.3484 16.6782 21.6109 12.8135 18.475C12.2459 19.1375 11.9282 19.9776 11.9154 20.8498C11.983 21.717 12.2963 22.5471 12.8185 23.2427C13.3408 23.9383 14.0504 24.4708 14.8643 24.7777C13.837 24.7603 12.8208 24.5616 11.8626 24.1908C11.8626 24.2107 11.8626 24.2319 11.8626 24.2518C11.8626 26.5386 14.147 28.4451 17.1769 28.8794C16.1908 29.0681 15.1806 29.0955 14.1858 28.9604C15.0286 30.8386 17.4727 32.2016 20.3699 32.2391C17.8457 33.5965 15.0184 34.2916 12.1526 34.2595C11.6184 34.2595 11.089 34.2383 10.5713 34.1949C13.7653 35.6178 17.2267 36.3411 20.7233 36.3162C32.9073 36.3162 39.5693 29.1224 39.5693 22.883C39.5693 22.6788 39.5693 22.4722 39.5517 22.2703C40.7846 21.6506 41.9023 20.8244 42.8563 19.8274C41.6199 20.2156 40.3443 20.4652 39.0528 20.5716C40.3151 20.0936 41.3539 19.1624 41.9664 17.9597C40.6196 18.5228 39.2053 18.9083 37.7591 19.1066C36.3491 18.1036 34.6538 17.5809 32.9238 17.6157L32.7465 17.6099Z" fill="#300D73"/>
</svg>
