<svg width="207" height="51" viewBox="0 0 207 51" fill="none" xmlns="http://www.w3.org/2000/svg">
<g filter="url(#filter0_d_780_108)">
<rect x="6.91211" y="27" width="20" height="10.2569" transform="rotate(16.5 6.91211 27)" fill="#FBE077"/>
</g>
<g filter="url(#filter1_d_780_108)">
<path d="M3.99951 0H184.5C194.717 0 203 8.28273 203 18.5V18.5C203 28.7173 194.717 37 184.5 37H3.99951V0Z" fill="#FBE077"/>
</g>
<path d="M25.5435 25H23.447L28.1579 11.9091H30.4399L35.1508 25H33.0542L29.3532 14.2869H29.2509L25.5435 25ZM25.8951 19.8736H32.6962V21.5355H25.8951V19.8736ZM37.7612 25V11.9091H42.4274C43.4459 11.9091 44.2896 12.0945 44.9587 12.4652C45.6277 12.8359 46.1284 13.343 46.4608 13.9865C46.7932 14.6257 46.9594 15.3459 46.9594 16.147C46.9594 16.9524 46.7911 17.6768 46.4544 18.3203C46.122 18.9595 45.6192 19.4666 44.9459 19.8416C44.2769 20.2124 43.4352 20.3977 42.421 20.3977H39.2122V18.723H42.2421C42.8855 18.723 43.4075 18.6122 43.8081 18.3906C44.2087 18.1648 44.5027 17.858 44.6902 17.4702C44.8777 17.0824 44.9715 16.6413 44.9715 16.147C44.9715 15.6527 44.8777 15.2138 44.6902 14.8303C44.5027 14.4467 44.2066 14.1463 43.8017 13.929C43.4012 13.7116 42.8727 13.603 42.2165 13.603H39.7364V25H37.7612ZM51.9701 11.9091V25H49.9949V11.9091H51.9701ZM68.1901 15.348C68.1219 14.7429 67.8406 14.2741 67.3463 13.9418C66.852 13.6051 66.2298 13.4368 65.4798 13.4368C64.9429 13.4368 64.4784 13.522 64.0864 13.6925C63.6943 13.8587 63.3896 14.0888 63.1723 14.3828C62.9592 14.6726 62.8527 15.0028 62.8527 15.3736C62.8527 15.6847 62.9251 15.9531 63.07 16.179C63.2192 16.4048 63.4131 16.5945 63.6517 16.7479C63.8946 16.897 64.1545 17.0227 64.4315 17.125C64.7085 17.223 64.9749 17.304 65.2305 17.3679L66.509 17.7003C66.9266 17.8026 67.3548 17.9411 67.7938 18.1158C68.2327 18.2905 68.6396 18.5206 69.0146 18.8061C69.3896 19.0916 69.6922 19.4453 69.9223 19.8672C70.1567 20.2891 70.2739 20.794 70.2739 21.3821C70.2739 22.1236 70.0821 22.782 69.6986 23.3572C69.3193 23.9325 68.7675 24.3864 68.043 24.7188C67.3229 25.0511 66.4514 25.2173 65.4287 25.2173C64.4486 25.2173 63.6006 25.0618 62.8847 24.7507C62.1688 24.4396 61.6084 23.9986 61.2036 23.4276C60.7987 22.8523 60.575 22.1705 60.5324 21.3821H62.5139C62.5523 21.8551 62.7057 22.2493 62.9742 22.5646C63.2469 22.8757 63.5942 23.108 64.0161 23.2614C64.4422 23.4105 64.9088 23.4851 65.4159 23.4851C65.9742 23.4851 66.4706 23.3977 66.9053 23.223C67.3442 23.044 67.6893 22.7969 67.9408 22.4815C68.1922 22.1619 68.3179 21.7891 68.3179 21.3629C68.3179 20.9751 68.2071 20.6577 67.9855 20.4105C67.7682 20.1634 67.472 19.9588 67.097 19.7969C66.7263 19.6349 66.3065 19.4922 65.8378 19.3686L64.2909 18.9467C63.2426 18.6612 62.4117 18.2415 61.798 17.6875C61.1886 17.1335 60.884 16.4006 60.884 15.4886C60.884 14.7344 61.0885 14.076 61.4976 13.5135C61.9067 12.951 62.4607 12.5142 63.1595 12.2031C63.8584 11.8878 64.6467 11.7301 65.5246 11.7301C66.4109 11.7301 67.1929 11.8857 67.8705 12.1967C68.5523 12.5078 69.0892 12.9361 69.4813 13.4815C69.8733 14.0227 70.0778 14.6449 70.0949 15.348H68.1901ZM73.2007 28.6818V15.1818H75.0672V16.7734H75.227C75.3378 16.5689 75.4976 16.3324 75.7064 16.0639C75.9152 15.7955 76.205 15.5611 76.5757 15.3608C76.9465 15.1562 77.4365 15.054 78.0459 15.054C78.8385 15.054 79.5459 15.2543 80.168 15.6548C80.7902 16.0554 81.2781 16.6328 81.6318 17.3871C81.9898 18.1413 82.1688 19.049 82.1688 20.1101C82.1688 21.1712 81.9919 22.081 81.6382 22.8395C81.2845 23.5937 80.7987 24.1754 80.1808 24.5845C79.5629 24.9893 78.8577 25.1918 78.0651 25.1918C77.4685 25.1918 76.9805 25.0916 76.6013 24.8913C76.2263 24.6911 75.9323 24.4567 75.7192 24.1882C75.5061 23.9197 75.3421 23.6811 75.227 23.4723H75.1119V28.6818H73.2007ZM75.0736 20.0909C75.0736 20.7812 75.1737 21.3864 75.374 21.9062C75.5743 22.4261 75.8641 22.8331 76.2433 23.1271C76.6226 23.4169 77.0871 23.5618 77.6368 23.5618C78.2078 23.5618 78.6851 23.4105 79.0686 23.108C79.4521 22.8011 79.7419 22.3857 79.9379 21.8615C80.1382 21.3374 80.2384 20.7472 80.2384 20.0909C80.2384 19.4432 80.1403 18.8615 79.9443 18.3459C79.7526 17.8303 79.4628 17.4233 79.075 17.125C78.6915 16.8267 78.2121 16.6776 77.6368 16.6776C77.0828 16.6776 76.6141 16.8203 76.2305 17.1058C75.8513 17.3913 75.5636 17.7898 75.3676 18.3011C75.1716 18.8125 75.0736 19.4091 75.0736 20.0909ZM89.2616 25.1982C88.2943 25.1982 87.4612 24.9915 86.7623 24.5781C86.0677 24.1605 85.5308 23.5746 85.1515 22.8203C84.7765 22.0618 84.589 21.1733 84.589 20.1548C84.589 19.1491 84.7765 18.2628 85.1515 17.4957C85.5308 16.7287 86.0592 16.13 86.7368 15.6996C87.4186 15.2692 88.2155 15.054 89.1274 15.054C89.6814 15.054 90.2183 15.1456 90.7382 15.3288C91.2581 15.5121 91.7247 15.7997 92.138 16.1918C92.5514 16.5838 92.8774 17.093 93.116 17.7195C93.3547 18.3416 93.474 19.098 93.474 19.9886V20.6662H85.6693V19.2344H91.6011C91.6011 18.7315 91.4988 18.2862 91.2943 17.8984C91.0898 17.5064 90.8021 17.1974 90.4314 16.9716C90.0649 16.7457 89.6345 16.6328 89.1402 16.6328C88.6032 16.6328 88.1345 16.7649 87.7339 17.0291C87.3376 17.2891 87.0308 17.63 86.8135 18.0518C86.6004 18.4695 86.4939 18.9233 86.4939 19.4134V20.532C86.4939 21.1882 86.6089 21.7464 86.839 22.2067C87.0734 22.6669 87.3994 23.0185 87.817 23.2614C88.2346 23.5 88.7226 23.6193 89.2808 23.6193C89.643 23.6193 89.9733 23.5682 90.2716 23.4659C90.5699 23.3594 90.8277 23.2017 91.045 22.9929C91.2623 22.7841 91.4285 22.5263 91.5436 22.2195L93.3525 22.5455C93.2077 23.0781 92.9477 23.5447 92.5727 23.9453C92.202 24.3416 91.7353 24.6506 91.1728 24.8722C90.6146 25.0895 89.9775 25.1982 89.2616 25.1982ZM100.45 25.1982C99.4999 25.1982 98.6817 24.983 97.9957 24.5526C97.3138 24.1179 96.7897 23.5192 96.4232 22.7564C96.0567 21.9936 95.8735 21.12 95.8735 20.1357C95.8735 19.1385 96.061 18.2585 96.436 17.4957C96.811 16.7287 97.3394 16.13 98.0212 15.6996C98.703 15.2692 99.5063 15.054 100.431 15.054C101.177 15.054 101.842 15.1925 102.425 15.4695C103.009 15.7422 103.48 16.1257 103.838 16.62C104.2 17.1143 104.415 17.6918 104.484 18.3523H102.623C102.521 17.892 102.287 17.4957 101.92 17.1634C101.558 16.831 101.072 16.6648 100.463 16.6648C99.9303 16.6648 99.4637 16.8054 99.0631 17.0866C98.6668 17.3636 98.3579 17.7599 98.1363 18.2756C97.9147 18.7869 97.8039 19.392 97.8039 20.0909C97.8039 20.8068 97.9126 21.4247 98.1299 21.9446C98.3472 22.4645 98.654 22.8672 99.0503 23.1527C99.4509 23.4382 99.9218 23.581 100.463 23.581C100.825 23.581 101.153 23.5149 101.447 23.3828C101.746 23.2464 101.995 23.0526 102.195 22.8011C102.4 22.5497 102.543 22.2472 102.623 21.8935H104.484C104.415 22.5284 104.209 23.0952 103.864 23.5938C103.518 24.0923 103.056 24.4844 102.476 24.7699C101.901 25.0554 101.226 25.1982 100.45 25.1982ZM121.13 15.1818L117.57 25H115.524L111.958 15.1818H114.01L116.496 22.7372H116.598L119.078 15.1818H121.13ZM131.004 17.5788L129.271 17.8857C129.199 17.6641 129.084 17.4531 128.926 17.2528C128.773 17.0526 128.564 16.8885 128.3 16.7607C128.036 16.6328 127.705 16.5689 127.309 16.5689C126.768 16.5689 126.316 16.6903 125.954 16.9332C125.592 17.1719 125.411 17.4808 125.411 17.8601C125.411 18.1882 125.532 18.4524 125.775 18.6527C126.018 18.853 126.41 19.017 126.951 19.1449L128.511 19.5028C129.414 19.7116 130.087 20.0334 130.531 20.468C130.974 20.9027 131.195 21.4673 131.195 22.1619C131.195 22.75 131.025 23.2741 130.684 23.7344C130.347 24.1903 129.877 24.5483 129.271 24.8082C128.671 25.0682 127.974 25.1982 127.181 25.1982C126.082 25.1982 125.185 24.9638 124.49 24.495C123.796 24.022 123.369 23.3509 123.212 22.4815L125.059 22.2003C125.174 22.6818 125.411 23.0462 125.769 23.2933C126.127 23.5362 126.593 23.6577 127.168 23.6577C127.795 23.6577 128.296 23.5277 128.671 23.2678C129.046 23.0036 129.233 22.6818 129.233 22.3026C129.233 21.9957 129.118 21.7379 128.888 21.5291C128.662 21.3203 128.315 21.1626 127.846 21.0561L126.184 20.6918C125.268 20.483 124.59 20.1506 124.151 19.6946C123.717 19.2386 123.499 18.6612 123.499 17.9624C123.499 17.3828 123.661 16.8757 123.985 16.4411C124.309 16.0064 124.757 15.6676 125.328 15.4247C125.899 15.1776 126.553 15.054 127.29 15.054C128.351 15.054 129.186 15.2841 129.796 15.7443C130.405 16.2003 130.808 16.8118 131.004 17.5788ZM146.794 15.348C146.726 14.7429 146.444 14.2741 145.95 13.9418C145.456 13.6051 144.834 13.4368 144.084 13.4368C143.547 13.4368 143.082 13.522 142.69 13.6925C142.298 13.8587 141.993 14.0888 141.776 14.3828C141.563 14.6726 141.456 15.0028 141.456 15.3736C141.456 15.6847 141.529 15.9531 141.674 16.179C141.823 16.4048 142.017 16.5945 142.255 16.7479C142.498 16.897 142.758 17.0227 143.035 17.125C143.312 17.223 143.579 17.304 143.834 17.3679L145.113 17.7003C145.53 17.8026 145.959 17.9411 146.398 18.1158C146.836 18.2905 147.243 18.5206 147.618 18.8061C147.993 19.0916 148.296 19.4453 148.526 19.8672C148.76 20.2891 148.878 20.794 148.878 21.3821C148.878 22.1236 148.686 22.782 148.302 23.3572C147.923 23.9325 147.371 24.3864 146.647 24.7188C145.927 25.0511 145.055 25.2173 144.032 25.2173C143.052 25.2173 142.204 25.0618 141.488 24.7507C140.773 24.4396 140.212 23.9986 139.807 23.4276C139.402 22.8523 139.179 22.1705 139.136 21.3821H141.118C141.156 21.8551 141.309 22.2493 141.578 22.5646C141.851 22.8757 142.198 23.108 142.62 23.2614C143.046 23.4105 143.513 23.4851 144.02 23.4851C144.578 23.4851 145.074 23.3977 145.509 23.223C145.948 23.044 146.293 22.7969 146.545 22.4815C146.796 22.1619 146.922 21.7891 146.922 21.3629C146.922 20.9751 146.811 20.6577 146.589 20.4105C146.372 20.1634 146.076 19.9588 145.701 19.7969C145.33 19.6349 144.91 19.4922 144.442 19.3686L142.895 18.9467C141.846 18.6612 141.015 18.2415 140.402 17.6875C139.792 17.1335 139.488 16.4006 139.488 15.4886C139.488 14.7344 139.692 14.076 140.101 13.5135C140.51 12.951 141.064 12.5142 141.763 12.2031C142.462 11.8878 143.25 11.7301 144.128 11.7301C145.015 11.7301 145.797 11.8857 146.474 12.1967C147.156 12.5078 147.693 12.9361 148.085 13.4815C148.477 14.0227 148.682 14.6449 148.699 15.348H146.794ZM151.804 28.6818V15.1818H153.671V16.7734H153.831C153.942 16.5689 154.101 16.3324 154.31 16.0639C154.519 15.7955 154.809 15.5611 155.179 15.3608C155.55 15.1562 156.04 15.054 156.65 15.054C157.442 15.054 158.15 15.2543 158.772 15.6548C159.394 16.0554 159.882 16.6328 160.236 17.3871C160.594 18.1413 160.773 19.049 160.773 20.1101C160.773 21.1712 160.596 22.081 160.242 22.8395C159.888 23.5937 159.402 24.1754 158.785 24.5845C158.167 24.9893 157.461 25.1918 156.669 25.1918C156.072 25.1918 155.584 25.0916 155.205 24.8913C154.83 24.6911 154.536 24.4567 154.323 24.1882C154.11 23.9197 153.946 23.6811 153.831 23.4723H153.716V28.6818H151.804ZM153.677 20.0909C153.677 20.7812 153.777 21.3864 153.978 21.9062C154.178 22.4261 154.468 22.8331 154.847 23.1271C155.226 23.4169 155.691 23.5618 156.241 23.5618C156.812 23.5618 157.289 23.4105 157.672 23.108C158.056 22.8011 158.346 22.3857 158.542 21.8615C158.742 21.3374 158.842 20.7472 158.842 20.0909C158.842 19.4432 158.744 18.8615 158.548 18.3459C158.356 17.8303 158.067 17.4233 157.679 17.125C157.295 16.8267 156.816 16.6776 156.241 16.6776C155.687 16.6776 155.218 16.8203 154.834 17.1058C154.455 17.3913 154.167 17.7898 153.971 18.3011C153.775 18.8125 153.677 19.4091 153.677 20.0909ZM167.865 25.1982C166.898 25.1982 166.065 24.9915 165.366 24.5781C164.671 24.1605 164.135 23.5746 163.755 22.8203C163.38 22.0618 163.193 21.1733 163.193 20.1548C163.193 19.1491 163.38 18.2628 163.755 17.4957C164.135 16.7287 164.663 16.13 165.341 15.6996C166.022 15.2692 166.819 15.054 167.731 15.054C168.285 15.054 168.822 15.1456 169.342 15.3288C169.862 15.5121 170.328 15.7997 170.742 16.1918C171.155 16.5838 171.481 17.093 171.72 17.7195C171.958 18.3416 172.078 19.098 172.078 19.9886V20.6662H164.273V19.2344H170.205C170.205 18.7315 170.103 18.2862 169.898 17.8984C169.694 17.5064 169.406 17.1974 169.035 16.9716C168.669 16.7457 168.238 16.6328 167.744 16.6328C167.207 16.6328 166.738 16.7649 166.338 17.0291C165.941 17.2891 165.635 17.63 165.417 18.0518C165.204 18.4695 165.098 18.9233 165.098 19.4134V20.532C165.098 21.1882 165.213 21.7464 165.443 22.2067C165.677 22.6669 166.003 23.0185 166.421 23.2614C166.838 23.5 167.326 23.6193 167.885 23.6193C168.247 23.6193 168.577 23.5682 168.875 23.4659C169.174 23.3594 169.431 23.2017 169.649 22.9929C169.866 22.7841 170.032 22.5263 170.147 22.2195L171.956 22.5455C171.811 23.0781 171.551 23.5447 171.176 23.9453C170.806 24.3416 170.339 24.6506 169.777 24.8722C169.218 25.0895 168.581 25.1982 167.865 25.1982ZM179.054 25.1982C178.104 25.1982 177.285 24.983 176.599 24.5526C175.918 24.1179 175.393 23.5192 175.027 22.7564C174.66 21.9936 174.477 21.12 174.477 20.1357C174.477 19.1385 174.665 18.2585 175.04 17.4957C175.415 16.7287 175.943 16.13 176.625 15.6996C177.307 15.2692 178.11 15.054 179.035 15.054C179.781 15.054 180.445 15.1925 181.029 15.4695C181.613 15.7422 182.084 16.1257 182.442 16.62C182.804 17.1143 183.019 17.6918 183.087 18.3523H181.227C181.125 17.892 180.891 17.4957 180.524 17.1634C180.162 16.831 179.676 16.6648 179.067 16.6648C178.534 16.6648 178.067 16.8054 177.667 17.0866C177.271 17.3636 176.962 17.7599 176.74 18.2756C176.518 18.7869 176.408 19.392 176.408 20.0909C176.408 20.8068 176.516 21.4247 176.734 21.9446C176.951 22.4645 177.258 22.8672 177.654 23.1527C178.055 23.4382 178.526 23.581 179.067 23.581C179.429 23.581 179.757 23.5149 180.051 23.3828C180.349 23.2464 180.599 23.0526 180.799 22.8011C181.004 22.5497 181.146 22.2472 181.227 21.8935H183.087C183.019 22.5284 182.812 23.0952 182.467 23.5938C182.122 24.0923 181.66 24.4844 181.08 24.7699C180.505 25.0554 179.83 25.1982 179.054 25.1982Z" fill="#383838"/>
<defs>
<filter id="filter0_d_780_108" x="-0.000976562" y="27" width="30.0896" height="23.5149" filterUnits="userSpaceOnUse" color-interpolation-filters="sRGB">
<feFlood flood-opacity="0" result="BackgroundImageFix"/>
<feColorMatrix in="SourceAlpha" type="matrix" values="0 0 0 0 0 0 0 0 0 0 0 0 0 0 0 0 0 0 127 0" result="hardAlpha"/>
<feOffset dy="4"/>
<feGaussianBlur stdDeviation="2"/>
<feComposite in2="hardAlpha" operator="out"/>
<feColorMatrix type="matrix" values="0 0 0 0 0 0 0 0 0 0 0 0 0 0 0 0 0 0 0.25 0"/>
<feBlend mode="normal" in2="BackgroundImageFix" result="effect1_dropShadow_780_108"/>
<feBlend mode="normal" in="SourceGraphic" in2="effect1_dropShadow_780_108" result="shape"/>
</filter>
<filter id="filter1_d_780_108" x="-0.000488281" y="0" width="207" height="45" filterUnits="userSpaceOnUse" color-interpolation-filters="sRGB">
<feFlood flood-opacity="0" result="BackgroundImageFix"/>
<feColorMatrix in="SourceAlpha" type="matrix" values="0 0 0 0 0 0 0 0 0 0 0 0 0 0 0 0 0 0 127 0" result="hardAlpha"/>
<feOffset dy="4"/>
<feGaussianBlur stdDeviation="2"/>
<feComposite in2="hardAlpha" operator="out"/>
<feColorMatrix type="matrix" values="0 0 0 0 0 0 0 0 0 0 0 0 0 0 0 0 0 0 0.25 0"/>
<feBlend mode="normal" in2="BackgroundImageFix" result="effect1_dropShadow_780_108"/>
<feBlend mode="normal" in="SourceGraphic" in2="effect1_dropShadow_780_108" result="shape"/>
</filter>
</defs>
</svg>
