<svg width="207" height="45" viewBox="0 0 207 45" fill="none" xmlns="http://www.w3.org/2000/svg">
<g filter="url(#filter0_d_642_98)">
<path d="M4 0H184.5C194.717 0 203 8.28273 203 18.5V18.5C203 28.7173 194.717 37 184.5 37H4V0Z" fill="#FBE077"/>
</g>
<path d="M23.544 24H21.4474L26.1584 10.9091H28.4403L33.1513 24H31.0547L27.3537 13.2869H27.2514L23.544 24ZM23.8956 18.8736H30.6967V20.5355H23.8956V18.8736ZM35.7617 24V10.9091H40.4279C41.4464 10.9091 42.2901 11.0945 42.9592 11.4652C43.6282 11.8359 44.1289 12.343 44.4613 12.9865C44.7937 13.6257 44.9599 14.3459 44.9599 15.147C44.9599 15.9524 44.7916 16.6768 44.4549 17.3203C44.1225 17.9595 43.6197 18.4666 42.9464 18.8416C42.2774 19.2124 41.4357 19.3977 40.4215 19.3977H37.2127V17.723H40.2426C40.886 17.723 41.408 17.6122 41.8086 17.3906C42.2092 17.1648 42.5032 16.858 42.6907 16.4702C42.8782 16.0824 42.972 15.6413 42.972 15.147C42.972 14.6527 42.8782 14.2138 42.6907 13.8303C42.5032 13.4467 42.207 13.1463 41.8022 12.929C41.4016 12.7116 40.8732 12.603 40.217 12.603H37.7369V24H35.7617ZM49.9705 10.9091V24H47.9954V10.9091H49.9705ZM66.1905 14.348C66.1224 13.7429 65.8411 13.2741 65.3468 12.9418C64.8525 12.6051 64.2303 12.4368 63.4803 12.4368C62.9434 12.4368 62.4789 12.522 62.0869 12.6925C61.6948 12.8587 61.3901 13.0888 61.1728 13.3828C60.9597 13.6726 60.8532 14.0028 60.8532 14.3736C60.8532 14.6847 60.9256 14.9531 61.0705 15.179C61.2197 15.4048 61.4136 15.5945 61.6522 15.7479C61.8951 15.897 62.155 16.0227 62.432 16.125C62.709 16.223 62.9753 16.304 63.231 16.3679L64.5094 16.7003C64.9271 16.8026 65.3553 16.9411 65.7942 17.1158C66.2332 17.2905 66.6401 17.5206 67.0151 17.8061C67.3901 18.0916 67.6927 18.4453 67.9228 18.8672C68.1572 19.2891 68.2744 19.794 68.2744 20.3821C68.2744 21.1236 68.0826 21.782 67.6991 22.3572C67.3198 22.9325 66.768 23.3864 66.0435 23.7188C65.3234 24.0511 64.4519 24.2173 63.4292 24.2173C62.4491 24.2173 61.6011 24.0618 60.8852 23.7507C60.1692 23.4396 59.6089 22.9986 59.204 22.4276C58.7992 21.8523 58.5755 21.1705 58.5329 20.3821H60.5144C60.5528 20.8551 60.7062 21.2493 60.9746 21.5646C61.2474 21.8757 61.5947 22.108 62.0165 22.2614C62.4427 22.4105 62.9093 22.4851 63.4164 22.4851C63.9746 22.4851 64.4711 22.3977 64.9057 22.223C65.3447 22.044 65.6898 21.7969 65.9413 21.4815C66.1927 21.1619 66.3184 20.7891 66.3184 20.3629C66.3184 19.9751 66.2076 19.6577 65.986 19.4105C65.7687 19.1634 65.4725 18.9588 65.0975 18.7969C64.7268 18.6349 64.307 18.4922 63.8383 18.3686L62.2914 17.9467C61.2431 17.6612 60.4121 17.2415 59.7985 16.6875C59.1891 16.1335 58.8844 15.4006 58.8844 14.4886C58.8844 13.7344 59.089 13.076 59.4981 12.5135C59.9072 11.951 60.4611 11.5142 61.16 11.2031C61.8589 10.8878 62.6472 10.7301 63.5251 10.7301C64.4114 10.7301 65.1934 10.8857 65.8709 11.1967C66.5528 11.5078 67.0897 11.9361 67.4817 12.4815C67.8738 13.0227 68.0783 13.6449 68.0954 14.348H66.1905ZM71.2012 27.6818V14.1818H73.0677V15.7734H73.2275C73.3383 15.5689 73.4981 15.3324 73.7069 15.0639C73.9157 14.7955 74.2055 14.5611 74.5762 14.3608C74.9469 14.1562 75.437 14.054 76.0464 14.054C76.839 14.054 77.5464 14.2543 78.1685 14.6548C78.7907 15.0554 79.2786 15.6328 79.6323 16.3871C79.9903 17.1413 80.1692 18.049 80.1692 19.1101C80.1692 20.1712 79.9924 21.081 79.6387 21.8395C79.285 22.5937 78.7992 23.1754 78.1813 23.5845C77.5634 23.9893 76.8582 24.1918 76.0656 24.1918C75.469 24.1918 74.981 24.0916 74.6018 23.8913C74.2268 23.6911 73.9327 23.4567 73.7197 23.1882C73.5066 22.9197 73.3425 22.6811 73.2275 22.4723H73.1124V27.6818H71.2012ZM73.0741 19.0909C73.0741 19.7812 73.1742 20.3864 73.3745 20.9062C73.5748 21.4261 73.8646 21.8331 74.2438 22.1271C74.6231 22.4169 75.0876 22.5618 75.6373 22.5618C76.2083 22.5618 76.6856 22.4105 77.0691 22.108C77.4526 21.8011 77.7424 21.3857 77.9384 20.8615C78.1387 20.3374 78.2388 19.7472 78.2388 19.0909C78.2388 18.4432 78.1408 17.8615 77.9448 17.3459C77.7531 16.8303 77.4633 16.4233 77.0755 16.125C76.692 15.8267 76.2126 15.6776 75.6373 15.6776C75.0833 15.6776 74.6146 15.8203 74.231 16.1058C73.8518 16.3913 73.5641 16.7898 73.3681 17.3011C73.1721 17.8125 73.0741 18.4091 73.0741 19.0909ZM87.2621 24.1982C86.2948 24.1982 85.4617 23.9915 84.7628 23.5781C84.0682 23.1605 83.5313 22.5746 83.152 21.8203C82.777 21.0618 82.5895 20.1733 82.5895 19.1548C82.5895 18.1491 82.777 17.2628 83.152 16.4957C83.5313 15.7287 84.0597 15.13 84.7373 14.6996C85.4191 14.2692 86.216 14.054 87.1279 14.054C87.6819 14.054 88.2188 14.1456 88.7387 14.3288C89.2586 14.5121 89.7252 14.7997 90.1385 15.1918C90.5519 15.5838 90.8779 16.093 91.1165 16.7195C91.3552 17.3416 91.4745 18.098 91.4745 18.9886V19.6662H83.6698V18.2344H89.6016C89.6016 17.7315 89.4993 17.2862 89.2948 16.8984C89.0902 16.5064 88.8026 16.1974 88.4319 15.9716C88.0654 15.7457 87.635 15.6328 87.1407 15.6328C86.6037 15.6328 86.135 15.7649 85.7344 16.0291C85.3381 16.2891 85.0313 16.63 84.814 17.0518C84.6009 17.4695 84.4944 17.9233 84.4944 18.4134V19.532C84.4944 20.1882 84.6094 20.7464 84.8395 21.2067C85.0739 21.6669 85.3999 22.0185 85.8175 22.2614C86.2351 22.5 86.7231 22.6193 87.2813 22.6193C87.6435 22.6193 87.9738 22.5682 88.2721 22.4659C88.5704 22.3594 88.8282 22.2017 89.0455 21.9929C89.2628 21.7841 89.429 21.5263 89.5441 21.2195L91.353 21.5455C91.2081 22.0781 90.9482 22.5447 90.5732 22.9453C90.2025 23.3416 89.7358 23.6506 89.1733 23.8722C88.6151 24.0895 87.978 24.1982 87.2621 24.1982ZM98.4507 24.1982C97.5004 24.1982 96.6822 23.983 95.9961 23.5526C95.3143 23.1179 94.7902 22.5192 94.4237 21.7564C94.0572 20.9936 93.874 20.12 93.874 19.1357C93.874 18.1385 94.0615 17.2585 94.4365 16.4957C94.8115 15.7287 95.3399 15.13 96.0217 14.6996C96.7035 14.2692 97.5068 14.054 98.4315 14.054C99.1773 14.054 99.842 14.1925 100.426 14.4695C101.01 14.7422 101.481 15.1257 101.838 15.62C102.201 16.1143 102.416 16.6918 102.484 17.3523H100.624C100.522 16.892 100.287 16.4957 99.9209 16.1634C99.5586 15.831 99.0728 15.6648 98.4635 15.6648C97.9308 15.6648 97.4642 15.8054 97.0636 16.0866C96.6673 16.3636 96.3584 16.7599 96.1368 17.2756C95.9152 17.7869 95.8044 18.392 95.8044 19.0909C95.8044 19.8068 95.913 20.4247 96.1304 20.9446C96.3477 21.4645 96.6545 21.8672 97.0508 22.1527C97.4514 22.4382 97.9223 22.581 98.4635 22.581C98.8257 22.581 99.1538 22.5149 99.4478 22.3828C99.7461 22.2464 99.9954 22.0526 100.196 21.8011C100.4 21.5497 100.543 21.2472 100.624 20.8935H102.484C102.416 21.5284 102.209 22.0952 101.864 22.5938C101.519 23.0923 101.057 23.4844 100.477 23.7699C99.9017 24.0554 99.2263 24.1982 98.4507 24.1982ZM119.131 14.1818L115.57 24H113.525L109.958 14.1818H112.01L114.497 21.7372H114.599L117.079 14.1818H119.131ZM129.004 16.5788L127.272 16.8857C127.199 16.6641 127.084 16.4531 126.927 16.2528C126.773 16.0526 126.565 15.8885 126.3 15.7607C126.036 15.6328 125.706 15.5689 125.31 15.5689C124.768 15.5689 124.317 15.6903 123.954 15.9332C123.592 16.1719 123.411 16.4808 123.411 16.8601C123.411 17.1882 123.533 17.4524 123.775 17.6527C124.018 17.853 124.41 18.017 124.952 18.1449L126.511 18.5028C127.415 18.7116 128.088 19.0334 128.531 19.468C128.974 19.9027 129.196 20.4673 129.196 21.1619C129.196 21.75 129.025 22.2741 128.685 22.7344C128.348 23.1903 127.877 23.5483 127.272 23.8082C126.671 24.0682 125.974 24.1982 125.182 24.1982C124.082 24.1982 123.185 23.9638 122.491 23.495C121.796 23.022 121.37 22.3509 121.212 21.4815L123.06 21.2003C123.175 21.6818 123.411 22.0462 123.769 22.2933C124.127 22.5362 124.594 22.6577 125.169 22.6577C125.795 22.6577 126.296 22.5277 126.671 22.2678C127.046 22.0036 127.234 21.6818 127.234 21.3026C127.234 20.9957 127.118 20.7379 126.888 20.5291C126.663 20.3203 126.315 20.1626 125.846 20.0561L124.185 19.6918C123.268 19.483 122.591 19.1506 122.152 18.6946C121.717 18.2386 121.5 17.6612 121.5 16.9624C121.5 16.3828 121.662 15.8757 121.986 15.4411C122.31 15.0064 122.757 14.6676 123.328 14.4247C123.899 14.1776 124.553 14.054 125.29 14.054C126.351 14.054 127.187 14.2841 127.796 14.7443C128.405 15.2003 128.808 15.8118 129.004 16.5788ZM144.794 14.348C144.726 13.7429 144.445 13.2741 143.951 12.9418C143.456 12.6051 142.834 12.4368 142.084 12.4368C141.547 12.4368 141.083 12.522 140.691 12.6925C140.299 12.8587 139.994 13.0888 139.777 13.3828C139.563 13.6726 139.457 14.0028 139.457 14.3736C139.457 14.6847 139.529 14.9531 139.674 15.179C139.823 15.4048 140.017 15.5945 140.256 15.7479C140.499 15.897 140.759 16.0227 141.036 16.125C141.313 16.223 141.579 16.304 141.835 16.3679L143.113 16.7003C143.531 16.8026 143.959 16.9411 144.398 17.1158C144.837 17.2905 145.244 17.5206 145.619 17.8061C145.994 18.0916 146.296 18.4453 146.527 18.8672C146.761 19.2891 146.878 19.794 146.878 20.3821C146.878 21.1236 146.686 21.782 146.303 22.3572C145.924 22.9325 145.372 23.3864 144.647 23.7188C143.927 24.0511 143.056 24.2173 142.033 24.2173C141.053 24.2173 140.205 24.0618 139.489 23.7507C138.773 23.4396 138.213 22.9986 137.808 22.4276C137.403 21.8523 137.179 21.1705 137.137 20.3821H139.118C139.157 20.8551 139.31 21.2493 139.578 21.5646C139.851 21.8757 140.198 22.108 140.62 22.2614C141.046 22.4105 141.513 22.4851 142.02 22.4851C142.578 22.4851 143.075 22.3977 143.509 22.223C143.948 22.044 144.294 21.7969 144.545 21.4815C144.796 21.1619 144.922 20.7891 144.922 20.3629C144.922 19.9751 144.811 19.6577 144.59 19.4105C144.372 19.1634 144.076 18.9588 143.701 18.7969C143.331 18.6349 142.911 18.4922 142.442 18.3686L140.895 17.9467C139.847 17.6612 139.016 17.2415 138.402 16.6875C137.793 16.1335 137.488 15.4006 137.488 14.4886C137.488 13.7344 137.693 13.076 138.102 12.5135C138.511 11.951 139.065 11.5142 139.764 11.2031C140.463 10.8878 141.251 10.7301 142.129 10.7301C143.015 10.7301 143.797 10.8857 144.475 11.1967C145.157 11.5078 145.693 11.9361 146.085 12.4815C146.478 13.0227 146.682 13.6449 146.699 14.348H144.794ZM149.805 27.6818V14.1818H151.671V15.7734H151.831C151.942 15.5689 152.102 15.3324 152.311 15.0639C152.519 14.7955 152.809 14.5611 153.18 14.3608C153.551 14.1562 154.041 14.054 154.65 14.054C155.443 14.054 156.15 14.2543 156.772 14.6548C157.394 15.0554 157.882 15.6328 158.236 16.3871C158.594 17.1413 158.773 18.049 158.773 19.1101C158.773 20.1712 158.596 21.081 158.242 21.8395C157.889 22.5937 157.403 23.1754 156.785 23.5845C156.167 23.9893 155.462 24.1918 154.669 24.1918C154.073 24.1918 153.585 24.0916 153.206 23.8913C152.831 23.6911 152.536 23.4567 152.323 23.1882C152.11 22.9197 151.946 22.6811 151.831 22.4723H151.716V27.6818H149.805ZM151.678 19.0909C151.678 19.7812 151.778 20.3864 151.978 20.9062C152.179 21.4261 152.468 21.8331 152.848 22.1271C153.227 22.4169 153.691 22.5618 154.241 22.5618C154.812 22.5618 155.289 22.4105 155.673 22.108C156.056 21.8011 156.346 21.3857 156.542 20.8615C156.742 20.3374 156.843 19.7472 156.843 19.0909C156.843 18.4432 156.745 17.8615 156.549 17.3459C156.357 16.8303 156.067 16.4233 155.679 16.125C155.296 15.8267 154.816 15.6776 154.241 15.6776C153.687 15.6776 153.218 15.8203 152.835 16.1058C152.456 16.3913 152.168 16.7898 151.972 17.3011C151.776 17.8125 151.678 18.4091 151.678 19.0909ZM165.866 24.1982C164.899 24.1982 164.065 23.9915 163.367 23.5781C162.672 23.1605 162.135 22.5746 161.756 21.8203C161.381 21.0618 161.193 20.1733 161.193 19.1548C161.193 18.1491 161.381 17.2628 161.756 16.4957C162.135 15.7287 162.663 15.13 163.341 14.6996C164.023 14.2692 164.82 14.054 165.732 14.054C166.286 14.054 166.823 14.1456 167.342 14.3288C167.862 14.5121 168.329 14.7997 168.742 15.1918C169.156 15.5838 169.482 16.093 169.72 16.7195C169.959 17.3416 170.078 18.098 170.078 18.9886V19.6662H162.274V18.2344H168.205C168.205 17.7315 168.103 17.2862 167.899 16.8984C167.694 16.5064 167.406 16.1974 167.036 15.9716C166.669 15.7457 166.239 15.6328 165.744 15.6328C165.207 15.6328 164.739 15.7649 164.338 16.0291C163.942 16.2891 163.635 16.63 163.418 17.0518C163.205 17.4695 163.098 17.9233 163.098 18.4134V19.532C163.098 20.1882 163.213 20.7464 163.443 21.2067C163.678 21.6669 164.004 22.0185 164.421 22.2614C164.839 22.5 165.327 22.6193 165.885 22.6193C166.247 22.6193 166.578 22.5682 166.876 22.4659C167.174 22.3594 167.432 22.2017 167.649 21.9929C167.867 21.7841 168.033 21.5263 168.148 21.2195L169.957 21.5455C169.812 22.0781 169.552 22.5447 169.177 22.9453C168.806 23.3416 168.34 23.6506 167.777 23.8722C167.219 24.0895 166.582 24.1982 165.866 24.1982ZM177.054 24.1982C176.104 24.1982 175.286 23.983 174.6 23.5526C173.918 23.1179 173.394 22.5192 173.027 21.7564C172.661 20.9936 172.478 20.12 172.478 19.1357C172.478 18.1385 172.665 17.2585 173.04 16.4957C173.415 15.7287 173.944 15.13 174.625 14.6996C175.307 14.2692 176.111 14.054 177.035 14.054C177.781 14.054 178.446 14.1925 179.03 14.4695C179.613 14.7422 180.084 15.1257 180.442 15.62C180.804 16.1143 181.02 16.6918 181.088 17.3523H179.228C179.125 16.892 178.891 16.4957 178.525 16.1634C178.162 15.831 177.677 15.6648 177.067 15.6648C176.535 15.6648 176.068 15.8054 175.667 16.0866C175.271 16.3636 174.962 16.7599 174.741 17.2756C174.519 17.7869 174.408 18.392 174.408 19.0909C174.408 19.8068 174.517 20.4247 174.734 20.9446C174.951 21.4645 175.258 21.8672 175.655 22.1527C176.055 22.4382 176.526 22.581 177.067 22.581C177.429 22.581 177.758 22.5149 178.052 22.3828C178.35 22.2464 178.599 22.0526 178.799 21.8011C179.004 21.5497 179.147 21.2472 179.228 20.8935H181.088C181.02 21.5284 180.813 22.0952 180.468 22.5938C180.123 23.0923 179.66 23.4844 179.081 23.7699C178.505 24.0554 177.83 24.1982 177.054 24.1982Z" fill="#383838"/>
<defs>
<filter id="filter0_d_642_98" x="0" y="0" width="207" height="45" filterUnits="userSpaceOnUse" color-interpolation-filters="sRGB">
<feFlood flood-opacity="0" result="BackgroundImageFix"/>
<feColorMatrix in="SourceAlpha" type="matrix" values="0 0 0 0 0 0 0 0 0 0 0 0 0 0 0 0 0 0 127 0" result="hardAlpha"/>
<feOffset dy="4"/>
<feGaussianBlur stdDeviation="2"/>
<feComposite in2="hardAlpha" operator="out"/>
<feColorMatrix type="matrix" values="0 0 0 0 0 0 0 0 0 0 0 0 0 0 0 0 0 0 0.25 0"/>
<feBlend mode="normal" in2="BackgroundImageFix" result="effect1_dropShadow_642_98"/>
<feBlend mode="normal" in="SourceGraphic" in2="effect1_dropShadow_642_98" result="shape"/>
</filter>
</defs>
</svg>
