<svg fill="none" height="64" viewBox="0 0 64 64" width="64" xmlns="http://www.w3.org/2000/svg" xmlns:xlink="http://www.w3.org/1999/xlink"><linearGradient id="a" gradientUnits="userSpaceOnUse" x1="-.717383" x2="24.1455" y1="7.61946" y2="61.2456"><stop offset=".1" stop-color="#fc801d"/><stop offset=".59" stop-color="#fe2857"/></linearGradient><linearGradient id="b" gradientUnits="userSpaceOnUse" x1="4.22243" x2="62.9273" y1="60.0186" y2="1.31316"><stop offset=".21" stop-color="#fe2857"/><stop offset=".7" stop-color="#007eff"/></linearGradient><path d="m15.9476 5.81641-11.87545.00174c-2.24931 0-4.07215 1.82342-4.07215 4.07273v11.50662c0 1.1887.519564 2.3185 1.42196 3.0924l38.16084 32.7098c.7384.6324 1.6786.9803 2.6508.9803h11.8755c2.2493 0 4.0727-1.8234 4.0727-4.0727v-11.5083c0-1.1887-.5195-2.3186-1.4219-3.0924l-38.1609-32.70925c-.7383-.63302-1.6786-.98036-2.6514-.98036z" fill="#ff8100"/><path d="m14.5193 5.81641h-10.44657c-2.24931 0-4.07273 1.82341-4.07273 4.07272v13.09267c0 .1926.013964.3852.040727.576l5.277093 36.9437c.28683 2.0067 2.00494 3.4967 4.032 3.4967h15.67298c2.2499 0 4.0733-1.824 4.0728-4.0739l-.0047-18.5384c0-.4376-.0704-.8722-.2089-1.287l-10.4995-31.49791c-.5544-1.66284-2.1108-2.78458-3.8638-2.78458z" fill="url(#a)"/><path d="m59.9275 0h-33.9683c-1.6291 0-3.1017.971054-3.7435 2.46807l-16.06803 37.49063c-.21702.5068-.32931 1.0531-.32931 1.6046v18.364c0 2.2493 1.82342 4.0727 4.07273 4.0727h17.96601c.8046 0 1.5912-.2385 2.2609-.6854l32.0687-21.4033c1.1322-.7552 1.8117-2.0265 1.8117-3.3874l.0018-34.45117c0-2.24931-1.8234-4.07273-4.0727-4.07273z" fill="url(#b)"/><path d="m52 12h-40v40h40z" fill="#000"/><g fill="#fff"><path d="m17 29.3856h2.9788v-9.7712h-2.9788v-2.6144h8.839v2.6144h-2.9788v9.7712h2.9788v2.6144h-8.839z"/><path d="m27.3389 29.3002h2.1538c.4354 0 .8233-.0928 1.1625-.2784.3392-.1857.6016-.4481.7872-.7873.1857-.3392.2785-.7265.2785-1.1625v-10.072h2.9249v10.2748c0 .9001-.2074 1.7092-.6216 2.4271-.4143.7179-.9855 1.2805-1.7143 1.6873-.7288.4074-1.5464.6108-2.4534.6108h-2.5176z"/><path d="m17 44h16v3h-16z"/></g></svg>