<svg viewBox="0 0 64 64" xmlns="http://www.w3.org/2000/svg" xmlns:xlink="http://www.w3.org/1999/xlink"><linearGradient id="a" gradientTransform="matrix(1 0 0 -1 0 66)" gradientUnits="userSpaceOnUse" x1=".8" x2="62.6" y1="3.3" y2="64.2"><stop offset="0" stop-color="#ff9419"/><stop offset=".4" stop-color="#ff021d"/><stop offset="1" stop-color="#e600ff"/></linearGradient><path d="m20.3 3.7-16.6 16.6c-2.3 2.3-3.7 5.5-3.7 8.8v29.8c0 2.8 2.2 5 5 5h29.8c3.3 0 6.5-1.3 8.8-3.7l16.7-16.7c2.3-2.3 3.7-5.5 3.7-8.8v-29.7c0-2.8-2.2-5-5-5h-29.8c-3.3 0-6.5 1.3-8.8 3.7z" fill="url(#a)"/><path d="m48 16h-40v40h40z"/><path d="m30 47h-17v4h17z" fill="#fff"/></svg>