<svg fill="none" height="100" viewBox="0 0 100 100" width="100" xmlns="http://www.w3.org/2000/svg" xmlns:xlink="http://www.w3.org/1999/xlink"><filter id="a" color-interpolation-filters="sRGB" filterUnits="userSpaceOnUse" height="92.2456" width="116.727" x="-8.39411" y="15.8291"><feGaussianBlur stdDeviation="4.16667"/></filter><filter id="b" color-interpolation-filters="sRGB" filterUnits="userSpaceOnUse" height="116.151" width="47.9167" x="60.4167" y="-8.07558"><feGaussianBlur stdDeviation="4.16667"/></filter><linearGradient id="c" gradientUnits="userSpaceOnUse" x1="49.9392" x2="49.9392" y1=".257812" y2="99.7423"><stop offset="0" stop-color="#fff"/><stop offset="1" stop-color="#fff" stop-opacity="0"/></linearGradient><mask id="d" height="100" maskUnits="userSpaceOnUse" width="100" x="0" y="0"><path clip-rule="evenodd" d="m70.9119 99.3171c1.575.6136 3.3709.5743 4.9606-.1907l20.5883-9.9067c2.1634-1.041 3.5392-3.2305 3.5392-5.6325v-67.1739c0-2.402-1.3757-4.5915-3.5391-5.6325l-20.5884-9.907044c-2.0863-1.003885-4.5279-.757996-6.359.573194-.2615.19016-.5107.40248-.7445.63646l-39.4139 35.95809-17.1679-13.0319c-1.5982-1.2131-3.83357-1.1137-5.31787.2365l-5.5063 5.0088c-1.815582 1.6515-1.817663 4.5078-.0045 6.1621l14.88857 13.5831-14.88857 13.5831c-1.813163 1.6542-1.811082 4.5106.0045 6.1621l5.5063 5.0088c1.4843 1.3502 3.71967 1.4496 5.31787.2364l17.1679-13.0318 39.4139 35.958c.6235.6239 1.3556 1.0937 2.1429 1.4004zm4.1033-72.0182-29.9061 22.7012 29.9061 22.7011z" fill="#fff" fill-rule="evenodd"/></mask><g mask="url(#d)"><path d="m96.4614 10.7962-20.6045-9.920658c-2.385-1.148315-5.2352-.663931-7.1069 1.207788l-67.45142 61.49987c-1.814273 1.6541-1.812187 4.5105.0045 6.162l5.50964 5.0088c1.48521 1.3502 3.72198 1.4496 5.32108.2365l81.2271-61.6206c2.7251-2.0673 6.6391-.1237 6.6391 3.2968v-.2392c0-2.401-1.3754-4.5897-3.5386-5.6313z" fill="#0065a9"/><g filter="url(#a)"><path d="m96.4614 89.2038-20.6045 9.9207c-2.385 1.1485-5.2352.6639-7.1069-1.2078l-67.45142-61.4998c-1.814273-1.6542-1.812187-4.5106.0045-6.1621l5.50964-5.0088c1.48521-1.3502 3.72198-1.4496 5.32108-.2365l81.2271 61.6206c2.7251 2.0673 6.6391.1237 6.6391-3.2967v.2392c0 2.4009-1.3754 4.5896-3.5386 5.6312z" fill="#007acc"/></g><g filter="url(#b)"><path d="m75.8578 99.1263c-2.3857 1.1477-5.2359.6622-7.1078-1.2097 2.3064 2.3064 6.25.6729 6.25-2.5888v-90.65567c0-3.26174-3.9436-4.895236-6.25-2.58884 1.8719-1.871888 4.7221-2.356956 7.1078-1.209657l20.6009 9.907067c2.1647 1.041 3.5413 3.2305 3.5413 5.6325v67.1739c0 2.402-1.3766 4.5915-3.5414 5.6325z" fill="#1f9cf0"/></g><path clip-rule="evenodd" d="m70.8511 99.3171c1.575.6135 3.371.5742 4.9606-.1907l20.5883-9.9067c2.1634-1.041 3.5392-3.2305 3.5392-5.6326v-67.1738c0-2.4021-1.3757-4.5916-3.5391-5.6326l-20.5884-9.907005c-2.0862-1.003885-4.5279-.757996-6.359.573185-.2615.19017-.5107.40249-.7445.63647l-39.4139 35.95805-17.1679-13.0318c-1.5981-1.2132-3.83355-1.1137-5.31785.2364l-5.5063 5.0088c-1.815584 1.6516-1.817665 4.5079-.0045 6.1621l14.88855 13.5831-14.88855 13.5832c-1.813165 1.6542-1.811084 4.5105.0045 6.162l5.5063 5.0088c1.4843 1.3502 3.71975 1.4496 5.31785.2365l17.1679-13.0319 39.4139 35.9581c.6235.6238 1.3556 1.0937 2.1429 1.4004zm4.1033-72.0182-29.9061 22.7011 29.9061 22.7012z" fill="url(#c)" fill-rule="evenodd" opacity=".25"/></g></svg>