<?xml version="1.0" standalone="no"?>
<!DOCTYPE svg PUBLIC "-//W3C//DTD SVG 1.1//EN" "http://www.w3.org/Graphics/SVG/1.1/DTD/svg11.dtd" >
<svg xmlns="http://www.w3.org/2000/svg">
<metadata>Generated by IcoMoon</metadata>
<defs>
<font id="icomoon" horiz-adv-x="1024">
<font-face units-per-em="1024" ascent="960" descent="-64" />
<missing-glyph horiz-adv-x="1024" />
<glyph unicode="&#x20;" horiz-adv-x="512" d="" />
<glyph unicode="&#xe900;" glyph-name="And-more" d="M512 832c-212.078 0-384-171.922-384-384s171.922-384 384-384c212.078 0 384 171.922 384 384s-171.922 384-384 384zM76.8 448c0 240.353 194.847 435.2 435.2 435.2s435.2-194.847 435.2-435.2c0-240.353-194.847-435.2-435.2-435.2s-435.2 194.847-435.2 435.2zM512.003 647.442c14.139 0 25.6-11.461 25.6-25.6v-347.556c0-14.139-11.461-25.6-25.6-25.6s-25.6 11.461-25.6 25.6v347.556c0 14.139 11.461 25.6 25.6 25.6zM312.625 448.064c0 14.139 11.461 25.6 25.6 25.6h347.556c14.139 0 25.6-11.461 25.6-25.6s-11.461-25.6-25.6-25.6h-347.556c-14.139 0-25.6 11.461-25.6 25.6z" />
<glyph unicode="&#xe901;" glyph-name="API-Coverage-Reports" d="M185.092 851.708c20.164 20.164 47.512 31.492 76.028 31.492h327.68c6.789 0 13.302-2.697 18.102-7.498l245.76-245.76c4.8-4.8 7.498-11.313 7.498-18.102v-491.52c0-28.516-11.328-55.864-31.493-76.027-20.163-20.165-47.511-31.493-76.027-31.493h-491.52c-28.516 0-55.864 11.328-76.028 31.493-20.164 20.163-31.492 47.511-31.492 76.027v655.36c0 28.516 11.328 55.864 31.492 76.028zM261.12 832c-14.937 0-29.262-5.934-39.824-16.496s-16.496-24.887-16.496-39.824v-655.36c0-14.938 5.934-29.263 16.496-39.823 10.562-10.563 24.887-16.497 39.824-16.497h491.52c14.938 0 29.263 5.934 39.823 16.497 10.563 10.56 16.497 24.886 16.497 39.823v480.916l-230.764 230.764h-317.076zM588.795 883.2c14.139 0 25.6-11.462 25.6-25.6v-220.16h220.16c14.139 0 25.6-11.461 25.6-25.6s-11.461-25.6-25.6-25.6h-245.76c-14.136 0-25.6 11.461-25.6 25.6v245.76c0 14.138 11.464 25.6 25.6 25.6zM317.435 407.168c0 14.139 11.464 25.6 25.6 25.6h327.68c14.139 0 25.6-11.461 25.6-25.6s-11.461-25.6-25.6-25.6h-327.68c-14.136 0-25.6 11.461-25.6 25.6zM317.435 243.2c0 14.139 11.464 25.6 25.6 25.6h327.68c14.139 0 25.6-11.461 25.6-25.6s-11.461-25.6-25.6-25.6h-327.68c-14.136 0-25.6 11.461-25.6 25.6zM317.437 570.944c0 14.139 11.461 25.6 25.6 25.6h81.92c14.139 0 25.6-11.461 25.6-25.6s-11.461-25.6-25.6-25.6h-81.92c-14.139 0-25.6 11.461-25.6 25.6z" />
<glyph unicode="&#xe902;" glyph-name="Capture-API-Specifications" d="M375.47 62.195h-170.667c-27.147 0.028-53.182 10.173-72.372 28.216-19.2 18.035-29.996 42.501-30.028 68.009v160.379c0 11.464 6.506 22.052 17.067 27.779 10.56 5.729 23.573 5.729 34.133 0 10.56-5.727 17.067-16.317 17.067-27.779v-160.379c0.007-8.504 3.604-16.66 10.004-22.674s15.078-9.393 24.129-9.4h170.667c12.198 0 23.465-6.116 29.56-16.038s6.095-22.152 0-32.074c-6.095-9.925-17.362-16.038-29.56-16.038v0zM887.468 543.319c-9.052 0-17.738 3.382-24.138 9.395s-9.997 14.175-9.997 22.682v160.378c-0.008 8.506-3.604 16.661-10.004 22.675-6.397 6.014-15.076 9.394-24.128 9.401h-170.668c-12.198 0-23.465 6.114-29.56 16.038s-6.095 22.152 0 32.076c6.095 9.923 17.364 16.038 29.56 16.038h170.668c27.146-0.029 53.181-10.174 72.371-28.217 19.2-18.035 29.998-42.501 30.029-68.009v-160.378c0-8.507-3.597-16.668-9.997-22.682-6.4-6.016-15.086-9.395-24.136-9.395v0zM819.2 62.195h-170.668c-12.198 0-23.465 6.113-29.56 16.038-6.095 9.923-6.095 22.152 0 32.074s17.364 16.038 29.56 16.038h170.668c9.052 0.008 17.731 3.387 24.128 9.4 6.4 6.013 9.997 14.17 10.004 22.674v160.379c0 11.464 6.508 22.052 17.068 27.779 10.56 5.729 23.572 5.729 34.132 0 10.56-5.727 17.068-16.317 17.068-27.779v-160.379c-0.031-25.51-10.826-49.974-30.029-68.009-19.192-18.043-45.228-28.188-72.371-28.216v0zM136.533 543.319c-9.051 0-17.737 3.379-24.137 9.395-6.4 6.013-9.996 14.175-9.996 22.682v160.378c0.030 25.51 10.827 49.976 30.028 68.009 19.192 18.043 45.228 28.188 72.372 28.217h170.668c12.198 0 23.465-6.114 29.56-16.038s6.095-22.152 0-32.076c-6.095-9.923-17.364-16.038-29.56-16.038h-170.668c-9.051-0.007-17.73-3.387-24.129-9.401s-9.996-14.169-10.004-22.675v-160.378c0-8.507-3.596-16.668-9.996-22.682s-15.086-9.395-24.137-9.395v0zM614.403 447.096c0-53.146-45.842-96.228-102.4-96.228-56.556 0-102.4 43.082-102.4 96.228s45.844 96.228 102.4 96.228c56.558 0 102.4-43.082 102.4-96.228z" />
<glyph unicode="&#xe903;" glyph-name="Database-stubbing" d="M198.415 762.444c-15.737-12.402-19.215-21.964-19.215-27.724s3.479-15.322 19.215-27.724c15.448-12.174 39.388-24.257 71.252-34.878 63.462-21.156 152.76-34.678 252.572-34.678s189.11 13.522 252.572 34.678c31.864 10.621 55.805 22.705 71.252 34.878 15.736 12.402 19.215 21.964 19.215 27.724s-3.479 15.322-19.215 27.724c-15.447 12.174-39.388 24.258-71.252 34.879-63.462 21.154-152.76 34.677-252.572 34.677s-189.11-13.523-252.572-34.677c-31.865-10.621-55.805-22.705-71.252-34.879zM253.477 845.896c69.959 23.32 164.981 37.304 268.763 37.304s198.804-13.985 268.764-37.304c34.844-11.615 64.891-26.011 86.751-43.239 21.573-17.001 38.725-39.765 38.725-67.937s-17.152-50.936-38.725-67.937c-21.86-17.229-51.907-31.624-86.751-43.238-69.96-23.319-164.982-37.304-268.764-37.304s-198.804 13.985-268.763 37.304c-34.846 11.615-64.892 26.010-86.753 43.238-21.572 17.001-38.724 39.765-38.724 67.937s17.152 50.936 38.724 67.937c21.861 17.228 51.907 31.623 86.753 43.239zM153.6 473.664c14.138 0 25.6-11.461 25.6-25.6 0-5.878 3.502-15.462 19.099-27.82 15.342-12.157 39.151-24.228 70.928-34.836 63.288-21.128 152.579-34.624 253.012-34.624s189.724 13.496 253.012 34.624c31.777 10.609 55.588 22.679 70.927 34.836 15.598 12.357 19.1 21.942 19.1 27.82 0 14.139 11.461 25.6 25.6 25.6s25.6-11.461 25.6-25.6c0-28.119-16.978-50.893-38.5-67.95-21.78-17.257-51.73-31.657-86.513-43.269-69.832-23.314-164.861-37.261-269.228-37.261s-199.396 13.947-269.227 37.261c-34.783 11.612-64.734 26.012-86.512 43.269-21.523 17.057-38.501 39.831-38.501 67.95 0 14.139 11.462 25.6 25.6 25.6zM153.6 760.32c14.138 0 25.6-11.461 25.6-25.6v-573.44c0-5.878 3.502-15.462 19.099-27.82 15.342-12.157 39.151-24.228 70.928-34.836 63.288-21.128 152.579-34.624 253.012-34.624s189.724 13.496 253.012 34.624c31.777 10.609 55.588 22.679 70.927 34.836 15.598 12.357 19.1 21.942 19.1 27.82v573.44c0 14.139 11.461 25.6 25.6 25.6s25.6-11.461 25.6-25.6v-573.44c0-28.119-16.978-50.893-38.5-67.95-21.78-17.257-51.73-31.657-86.513-43.269-69.832-23.314-164.861-37.261-269.228-37.261s-199.396 13.947-269.227 37.261c-34.783 11.612-64.734 26.012-86.512 43.269-21.523 17.057-38.501 39.831-38.501 67.95v573.44c0 14.139 11.462 25.6 25.6 25.6z" />
<glyph unicode="&#xe904;" glyph-name="Import-your-APIs" d="M294.556 832c0 14.138 11.461 25.6 25.6 25.6h524.8c14.139 0 25.6-11.462 25.6-25.6v-742.4c0-14.139-11.461-25.6-25.6-25.6h-524.8c-14.139 0-25.6 11.461-25.6 25.6v204.8c0 14.139 11.461 25.6 25.6 25.6s25.6-11.461 25.6-25.6v-179.2h473.6v691.2h-473.6v-192c0-14.139-11.461-25.6-25.6-25.6s-25.6 11.461-25.6 25.6v217.6zM616.366 471.695c-0.056-14.139-11.564-25.554-25.702-25.498l-411.566 1.649c-14.138 0.056-25.554 11.564-25.497 25.702s11.564 25.554 25.702 25.498l411.566-1.649c14.139-0.056 25.554-11.564 25.498-25.702zM631.66 490.54c9.894-10.099 9.728-26.307-0.371-36.201l-154.575-151.442c-10.099-9.894-26.307-9.728-36.201 0.371s-9.728 26.307 0.371 36.201l136.289 133.527-133.527 136.289c-9.894 10.099-9.728 26.307 0.371 36.201s26.307 9.728 36.201-0.371l151.442-154.575z" />
<glyph unicode="&#xe905;" glyph-name="Language-Agnostic" d="M76.8 780.8c0 14.138 11.462 25.6 25.6 25.6h819.2c14.139 0 25.6-11.462 25.6-25.6v-640c0-14.139-11.461-25.6-25.6-25.6h-819.2c-14.138 0-25.6 11.461-25.6 25.6v640zM128 755.2v-588.8h768v588.8h-768zM921.6 601.6h-819.2v51.2h819.2v-51.2zM615.171 452.375c2.417 6.643 9.761 10.071 16.404 7.654l140.8-51.2c5.059-1.841 8.425-6.646 8.425-12.029s-3.366-10.189-8.425-12.029l-140.8-51.2c-6.643-2.417-13.988 1.011-16.404 7.654s1.011 13.988 7.654 16.404l107.72 39.171-107.72 39.171c-6.643 2.417-10.071 9.761-7.654 16.404zM408.829 452.375c2.417-6.643-1.011-13.988-7.654-16.404l-107.72-39.171 107.72-39.171c6.643-2.417 10.071-9.761 7.654-16.404s-9.761-10.071-16.404-7.654l-140.799 51.2c-5.059 1.841-8.426 6.646-8.426 12.029s3.367 10.189 8.426 12.029l140.799 51.2c6.643 2.417 13.988-1.011 16.404-7.654zM535.764 522.015c6.899-1.536 11.246-8.376 9.708-15.278l-52.634-236.165c-1.539-6.902-8.379-11.249-15.278-9.71s-11.246 8.379-9.708 15.278l52.634 236.168c1.539 6.899 8.376 11.246 15.278 9.708z" />
<glyph unicode="&#xe906;" glyph-name="Multiple-Protocols" d="M875.909 661.276h-77.133v77.13c0 11.69-9.349 21.031-21.030 21.031h-78.298v77.131c0 11.689-9.349 21.031-21.030 21.031h-529.387c-11.689 0-21.031-9.35-21.031-21.031v-580.805c0-11.692 9.35-21.033 21.031-21.033h77.131v-77.13c0-11.689 9.35-21.030 21.031-21.030l78.298-0.008v-77.133c0-11.689 9.349-21.030 21.030-21.030h349.42c5.844 0 10.514 2.34 14.021 5.844l178.798 161.272c4.672 3.505 7.009 9.349 7.009 16.361l0.010 418.365c1.165 11.692-8.177 21.041-19.866 21.041l-0.005-0.008zM171.229 816.696h486.146v-444.075l-108.677-93.494-377.467 0.008-0.002 537.561zM269.391 235.891h285.143c4.672 0 10.516 2.34 14.021 4.669l122.708 105.172c4.669 3.505 7.009 10.516 7.009 16.361v355.282h56.092v-416.031l-136.73-121.539h-348.25l0.005 56.084zM853.701 230.054l-164.777-149.583h-320.202v56.092h257.096c4.672 0 10.516 2.34 14.021 5.844l150.748 133.222c4.672 3.505 7.012 10.516 7.012 16.361v327.214h56.092l0.010-389.151zM261.217 692.81h306.179c11.689 0 21.030 9.349 21.030 21.031 0 11.689-9.349 21.031-21.030 21.031l-306.179 0.008c-11.691 0-21.032-9.35-21.032-21.031-0.008-11.689 8.176-21.039 21.032-21.039v0zM261.215 591.13h306.181c11.689 0 21.030 9.349 21.030 21.030 0 11.692-9.352 21.033-21.030 21.033l-306.181 0.008c-11.689 0-21.030-9.352-21.030-21.033-1.174-11.689 8.176-21.038 21.030-21.038v0zM566.223 531.52h-81.802c-11.689 0-21.030-9.349-21.030-21.030 0-11.689 9.349-21.030 21.030-21.030h81.802c11.689 0 21.030 9.349 21.030 21.030 1.165 11.681-9.349 21.030-21.030 21.030zM566.221 429.921h-81.802c-11.689 0-21.030-9.352-21.030-21.033 0-11.689 9.349-21.030 21.030-21.030h81.802c11.689 0 21.030 9.349 21.030 21.030 1.165 11.681-9.349 21.033-21.030 21.033zM410.798 334.075c11.689 0 21.030 9.352 21.030 21.033v154.26c0 11.689-9.352 21.033-21.030 21.033h-153.088c-11.69 0-21.032-9.352-21.032-21.033l-0.008-154.26c0-11.692 9.35-21.033 21.032-21.033h153.096zM278.74 488.33h109.852v-111.017h-109.852v111.017z" />
<glyph unicode="&#xe907;" glyph-name="Negative-Testing" d="M340.122 645.468c17.953 17.748 42.243 27.666 67.507 27.666 25.262 0 49.551-9.917 67.505-27.666 17.964-17.759 28.109-41.907 28.109-67.149v-298.77c21.391-17.213 37.737-39.959 47.117-65.876 10.998-30.385 11.822-63.473 2.345-94.362-9.477-30.884-28.733-57.882-54.863-77.038-26.127-19.156-57.756-29.473-90.212-29.473-32.458 0-64.087 10.317-90.212 29.473-26.132 19.156-45.389 46.154-54.863 77.038-9.479 30.889-8.656 63.977 2.342 94.362 9.38 25.917 25.728 48.663 47.117 65.876v298.77c0 25.242 10.145 49.39 28.109 67.149zM407.629 621.934c-11.876 0-23.204-4.664-31.511-12.877-8.3-8.205-12.905-19.267-12.905-30.738v-311.741c0-8.599-4.316-16.622-11.492-21.361-17.92-11.837-31.46-29.020-38.682-48.97-7.219-19.948-7.759-41.649-1.539-61.916 6.218-20.27 18.885-38.083 36.188-50.767 17.308-12.69 38.321-19.564 59.94-19.564 21.617 0 42.629 6.874 59.937 19.564 17.303 12.685 29.97 30.497 36.188 50.767 6.221 20.268 5.683 41.969-1.539 61.916-7.222 19.95-20.762 37.133-38.682 48.97-7.176 4.739-11.492 12.762-11.492 21.361v311.741c0 11.471-4.605 22.533-12.902 30.738-8.31 8.212-19.638 12.877-31.511 12.877zM466.675 717.929h197.809v-36.488h-197.809v36.488zM407.624 699.638c0-41.892 16.645-82.068 46.269-111.693 29.617-29.624 69.804-46.269 111.693-46.269 41.892 0 82.068 16.645 111.695 46.269 29.624 29.624 46.267 69.801 46.267 111.693 0 41.9-16.643 82.077-46.267 111.702-29.627 29.625-69.804 46.26-111.695 46.26-41.882-0.042-82.025-16.704-111.639-46.319-29.617-29.607-46.272-69.761-46.323-111.643zM565.586 821.121c32.22 0 63.114-12.801 85.893-35.58 22.779-22.786 35.581-53.684 35.581-85.904 0-32.212-12.803-63.109-35.581-85.896-22.776-22.776-53.673-35.579-85.893-35.579s-63.117 12.8-85.896 35.579c-22.787 22.787-35.579 53.683-35.579 85.896 0.033 32.211 12.844 63.083 35.62 85.86 22.769 22.769 53.65 35.582 85.855 35.623z" />
<glyph unicode="&#xe908;" glyph-name="No-Code" d="M517.46 314.204c40.558 0 79.455 15.142 108.127 42.089 28.677 26.949 44.79 63.498 44.79 101.609 0 38.108-16.113 74.662-44.79 101.609s-67.571 42.089-108.127 42.089c-40.553 0-79.452-15.142-108.127-42.089-28.677-26.949-44.79-63.501-44.79-101.609 0-38.111 16.113-74.665 44.79-101.609 28.677-26.947 67.574-42.089 108.127-42.089v0zM640.783 457.905c-0.020-29.115-11.707-57.152-32.724-78.538-21.015-21.389-49.83-34.56-80.712-36.895-30.884-2.335-61.565 6.341-85.949 24.297l173.046 162.614c17.085-20.365 26.365-45.545 26.34-71.478v0zM517.46 573.791c27.597 0.023 54.395-8.699 76.065-24.753l-173.046-162.614c-19.108 22.915-28.339 51.748-25.856 80.768s16.499 56.097 39.26 75.848c22.758 19.75 52.593 30.73 83.576 30.751v0zM640.783 457.905c-0.020-29.115-11.707-57.152-32.722-78.538-21.018-21.389-49.83-34.56-80.714-36.895-29.996-2.266-59.802 5.852-83.832 22.774-0.712 0.499-1.418 1.009-2.117 1.523l173.046 162.614c0.55-0.655 1.093-1.316 1.628-1.984 16.046-20.004 24.737-44.398 24.712-69.494zM638.223 458.36c-0.079 24.271-8.509 47.869-24.023 67.282l-168.781-158.607c23.46-16.366 52.498-24.22 81.736-22.011 30.285 2.291 58.514 15.204 79.078 36.137 20.564 20.923 31.969 48.323 31.99 76.744v0.456zM433.884 543.040c22.758 19.75 52.595 30.73 83.576 30.751 26.708 0.020 52.667-8.146 73.956-23.222 0.709-0.504 1.411-1.014 2.109-1.531l-173.046-162.614c-0.55 0.658-1.091 1.321-1.623 1.989-18.004 22.582-26.644 50.593-24.233 78.779 2.486 29.020 16.499 56.097 39.26 75.848zM517.952 571.231h-0.489c-30.385-0.020-59.622-10.79-81.9-30.124-22.28-19.331-35.963-45.801-38.39-74.132-2.348-27.448 6.036-54.746 23.557-76.803l168.781 158.607c-20.636 14.479-45.722 22.372-71.56 22.451zM627.341 354.429c29.174 27.412 45.599 64.63 45.599 103.473 0 38.84-16.425 76.063-45.599 103.473-29.166 27.41-68.695 42.785-109.88 42.785-41.183 0-80.714-15.375-109.878-42.785-29.174-27.412-45.599-64.632-45.599-103.473 0-38.843 16.425-76.063 45.599-103.475 29.166-27.407 68.695-42.783 109.878-42.783 41.188 0 80.717 15.375 109.88 42.785zM625.587 356.293c-28.672-26.947-67.569-42.089-108.127-42.089-40.553 0-79.45 15.142-108.127 42.089-28.675 26.944-44.79 63.498-44.79 101.609 0 38.108 16.115 74.66 44.79 101.609 28.675 26.947 67.574 42.089 108.127 42.089 40.556 0 79.452-15.142 108.127-42.089 28.677-26.947 44.792-63.501 44.792-101.609 0-38.111-16.115-74.66-44.792-101.609zM739.105 619.131c9.682 10.304 25.882 10.806 36.186 1.124l163.84-153.961c5.148-4.838 8.069-11.592 8.069-18.657s-2.921-13.816-8.069-18.655l-163.84-153.961c-10.304-9.684-26.504-9.18-36.186 1.124s-9.18 26.504 1.124 36.186l143.987 135.306-143.987 135.309c-10.304 9.682-10.806 25.882-1.124 36.186zM284.895 619.131c9.682-10.304 9.18-26.504-1.124-36.186l-143.988-135.309 143.988-135.306c10.304-9.682 10.806-25.882 1.124-36.186s-25.882-10.808-36.186-1.124l-163.84 153.961c-5.149 4.838-8.069 11.589-8.069 18.655s2.92 13.819 8.069 18.657l163.84 153.961c10.304 9.682 26.504 9.18 36.186-1.124z" />
<glyph unicode="&#xe909;" glyph-name="Platform-Independent" d="M109.898 747.702c9.998 9.997 26.206 9.997 36.204 0l273.067-273.068c9.997-9.997 9.997-26.204 0-36.204l-273.067-273.065c-9.998-9.999-26.206-9.999-36.204 0-9.997 9.997-9.997 26.204 0 36.204l254.966 254.963-254.966 254.966c-9.997 9.998-9.997 26.206 0 36.204zM415.288 183.468c0 14.136 11.461 25.6 25.6 25.6h455.112c14.139 0 25.6-11.464 25.6-25.6 0-14.139-11.461-25.6-25.6-25.6h-455.112c-14.139 0-25.6 11.461-25.6 25.6z" />
<glyph unicode="&#xe90a;" glyph-name="Proxy-Mode" d="M127.923 308.396c32.734 32.735 77.13 51.123 123.423 51.123h297.892c46.292 0 90.688-18.388 123.423-51.123 32.735-32.732 51.123-77.13 51.123-123.423v-74.473c0-14.139-11.461-25.6-25.6-25.6s-25.6 11.461-25.6 25.6v74.473c0 32.714-12.995 64.087-36.127 87.219s-54.505 36.127-87.219 36.127h-297.892c-32.713 0-64.087-12.995-87.219-36.127s-36.127-54.505-36.127-87.219v-74.473c0-14.139-11.462-25.6-25.6-25.6s-25.6 11.461-25.6 25.6v74.473c0 46.292 18.39 90.691 51.123 123.423zM400.292 755.2c-68.122 0-123.346-55.224-123.346-123.346s55.224-123.346 123.346-123.346c68.122 0 123.346 55.224 123.346 123.346s-55.224 123.346-123.346 123.346zM225.746 631.854c0 96.399 78.146 174.546 174.546 174.546s174.546-78.147 174.546-174.546c0-96.399-78.147-174.546-174.546-174.546s-174.546 78.147-174.546 174.546zM896 184.929v-74.468c0-14.139 11.461-25.6 25.6-25.6s25.6 11.461 25.6 25.6v74.491c-0.028 38.674-12.9 76.244-36.595 106.808-23.693 30.566-56.868 52.398-94.313 62.067-13.691 3.533-27.653-4.698-31.188-18.388zM803.492 304.253c-13.691 3.533-21.924 17.498-18.388 31.186zM803.492 304.253c26.46-6.833 49.905-22.262 66.647-43.86zM870.139 260.393c16.74-21.594 25.836-48.141 25.861-75.464zM636.145 782.27c3.507 13.697 17.454 21.957 31.15 18.45 37.545-9.613 70.825-31.449 94.589-62.065s36.662-68.271 36.662-107.027c0-38.756-12.897-76.411-36.662-107.026-23.764-30.618-57.044-52.452-94.589-62.065-13.696-3.507-27.643 4.751-31.15 18.45-3.507 13.696 4.754 27.643 18.45 31.15 26.534 6.792 50.051 22.223 66.844 43.858s25.907 48.243 25.907 75.633c0 27.387-9.114 53.998-25.907 75.632s-40.31 37.066-66.844 43.859c-13.696 3.507-21.957 17.453-18.45 31.15z" />
<glyph unicode="&#xe90b;" glyph-name="Woven-into-your-CI-Pipelines" d="M362.816 607.552c-1.651 0.018-3.328 0.3-4.969 0.878-8.504 2.977-17.234 5.286-26.107 6.897-29.253 5.309-59.469 2.962-88.073-7.224-87.336-31.109-132.357-125.606-100.57-211.072 31.784-85.458 128.355-129.523 215.679-98.419 27.305 9.723 54.487 27.077 76.672 48.479-33.431 24.013-55.245 63.485-55.245 108.109 0 73.18 58.668 132.511 131.034 132.511 19.264 0 37.56-4.206 54.034-11.756 25.695 32.709 62.19 57.713 106.056 69.212 106.035 27.807 215.035-33.779 243.451-137.549 28.413-103.775-34.509-210.432-140.549-238.249-34.696-9.098-70.551-8.817-104.428 0.381-10.273 2.79-20.303 6.387-29.983 10.744-0.76 0.34-1.472 0.732-2.145 1.175l3.794-25.3c1.065-7.096-3.95-13.693-11.205-14.735-7.25-1.042-13.99 3.866-15.055 10.964l-11.046 73.641c-0.607 4.063 0.783 8.164 3.75 11.069l0.256 0.248c2.964 2.903 7.163 4.265 11.313 3.668l75.246-10.811c7.25-1.042 12.268-7.642 11.203-14.74-1.065-7.096-7.808-12.006-15.063-10.964l-35.697 5.13-2.194-2.414c8.077-3.612 16.43-6.589 24.983-8.916 28.667-7.785 58.977-8.020 88.379-0.31 89.772 23.542 143.040 113.833 118.991 201.695-24.054 87.839-116.326 139.978-206.095 116.444-33.032-8.66-66.836-27.866-92.977-52.475 33.874-23.954 56.028-63.693 56.028-108.664 0-73.18-58.665-132.511-131.036-132.511-18.875 0-36.818 4.035-53.025 11.3-22.19-28.004-52.462-50.412-89.001-63.429-103.155-36.741-217.224 15.311-254.778 116.26-37.549 100.959 15.638 212.575 118.805 249.324 33.755 12.024 69.495 14.802 104.068 8.525 10.481-1.9 20.79-4.628 30.825-8.146 2.225-0.778 4.15-2.012 5.704-3.551l-11.067 27.707c-2.67 6.684 0.704 14.218 7.529 16.829 6.83 2.609 14.528-0.689 17.193-7.373l27.689-69.32c1.526-3.825 1.119-8.128-1.108-11.612l-0.192-0.3c-2.22-3.482-5.996-5.732-10.179-6.062l-75.802-6.031c-7.306-0.581-13.711 4.746-14.305 11.896-0.594 7.148 4.851 13.414 12.155 13.998l35.963 2.862 1.096 1.987zM511.311 334.743c65.789 0 119.119 53.932 119.119 120.463s-53.327 120.463-119.119 120.463c-65.787 0-119.122-53.932-119.122-120.463s53.332-120.463 119.122-120.463zM475.113 503.534l-37.432-45.768 37.432-48.297h-24.707l-37.435 48.046 37.435 46.019h24.707zM538.125 503.534l-28.698-94.065h-20.964l28.703 94.065h20.959zM549.358 409.469l37.435 45.768-37.435 48.297h24.707l37.43-48.046-37.43-46.019h-24.707z" />
<glyph unicode="&#xe90c;" glyph-name="visualstudiocode" d="M987.733 849.621l-210.773 101.419c-8.085 3.983-17.599 6.313-27.657 6.313-17.61 0-33.553-7.141-45.089-18.685v0l-403.627-368.213-175.787 133.461c-7.069 5.407-16.034 8.664-25.759 8.664-11.063 0-21.141-4.215-28.717-11.126l-56.372-51.255c-8.595-7.834-13.967-19.075-13.967-31.571 0-12.476 5.355-23.701 13.891-31.503l0.033-0.030 152.448-139.093-152.448-139.093c-8.569-7.831-13.924-19.057-13.924-31.533 0-12.496 5.372-23.738 13.933-31.541l0.034-0.030 56.448-51.243c7.543-6.881 17.621-11.096 28.684-11.096 9.725 0 18.689 3.257 25.861 8.739l-0.103-0.075 175.787 133.461 403.627-368.213c11.524-11.547 27.457-18.69 45.058-18.69 10.055 0 19.565 2.331 28.021 6.483l-0.375-0.166 210.859 101.419c21.585 10.592 36.181 32.41 36.181 57.638 0 0.017 0 0.033 0 0.050v-0.003 687.829c0 0.002 0 0.004 0 0.006 0 25.261-14.635 47.104-35.889 57.512l-0.378 0.167zM768.171 215.552l-306.261 232.448 306.261 232.448z" />
<glyph unicode="&#xe90d;" glyph-name="download" d="M853.333 298.667v-170.667c0-11.776-4.736-22.4-12.501-30.165s-18.389-12.501-30.165-12.501h-597.333c-11.776 0-22.4 4.736-30.165 12.501s-12.501 18.389-12.501 30.165v170.667c0 23.552-19.115 42.667-42.667 42.667s-42.667-19.115-42.667-42.667v-170.667c0-35.328 14.379-67.413 37.504-90.496s55.168-37.504 90.496-37.504h597.333c35.328 0 67.413 14.379 90.496 37.504s37.504 55.168 37.504 90.496v170.667c0 23.552-19.115 42.667-42.667 42.667s-42.667-19.115-42.667-42.667zM554.667 401.664v409.003c0 23.552-19.115 42.667-42.667 42.667s-42.667-19.115-42.667-42.667v-409.003l-140.501 140.501c-16.683 16.683-43.691 16.683-60.331 0s-16.683-43.691 0-60.331l213.333-213.333c3.925-3.925 8.619-7.083 13.824-9.259s10.795-3.243 16.341-3.243c10.923 0 21.845 4.181 30.165 12.501l213.333 213.333c16.683 16.683 16.683 43.691 0 60.331s-43.691 16.683-60.331 0z" />
<glyph unicode="&#xe90e;" glyph-name="smile" d="M981.333 426.667c0 129.579-52.565 246.997-137.472 331.861s-202.283 137.472-331.861 137.472-246.997-52.565-331.861-137.472-137.472-202.283-137.472-331.861 52.565-246.997 137.472-331.861 202.283-137.472 331.861-137.472 246.997 52.565 331.861 137.472 137.472 202.283 137.472 331.861zM896 426.667c0-106.069-42.923-201.984-112.469-271.531s-165.461-112.469-271.531-112.469-201.984 42.923-271.531 112.469-112.469 165.461-112.469 271.531 42.923 201.984 112.469 271.531 165.461 112.469 271.531 112.469 201.984-42.923 271.531-112.469 112.469-165.461 112.469-271.531zM307.2 315.734c0 0 5.589-7.381 14.123-16.341 6.187-6.528 14.421-14.549 24.619-23.040 14.379-11.989 32.939-25.173 55.339-36.395 30.080-15.019 67.371-26.624 110.72-26.624s80.64 11.605 110.72 26.624c22.4 11.221 40.96 24.405 55.339 36.395 10.197 8.491 18.432 16.512 24.619 23.040 8.533 8.96 14.123 16.341 14.123 16.341 14.123 18.859 10.325 45.611-8.533 59.733s-45.611 10.325-59.733-8.533c-1.749-2.133-7.723-8.789-7.723-8.789-4.267-4.48-10.112-10.197-17.408-16.299-10.368-8.661-23.424-17.877-38.827-25.6-20.48-10.197-44.8-17.579-72.576-17.579s-52.096 7.381-72.576 17.621c-15.36 7.68-28.459 16.939-38.827 25.6-7.296 6.101-13.141 11.819-17.408 16.299-5.973 6.613-7.723 8.747-7.723 8.747-14.123 18.859-40.875 22.656-59.733 8.533s-22.656-40.875-8.533-59.733zM384 512c23.552 0 42.667 19.115 42.667 42.667s-19.115 42.667-42.667 42.667-42.667-19.115-42.667-42.667 19.115-42.667 42.667-42.667zM640 512c23.552 0 42.667 19.115 42.667 42.667s-19.115 42.667-42.667 42.667-42.667-19.115-42.667-42.667 19.115-42.667 42.667-42.667z" />
<glyph unicode="&#xe90f;" glyph-name="clock" d="M981.333 426.667c0 129.579-52.565 246.997-137.472 331.861s-202.283 137.472-331.861 137.472-246.997-52.565-331.861-137.472-137.472-202.283-137.472-331.861 52.565-246.997 137.472-331.861 202.283-137.472 331.861-137.472 246.997 52.565 331.861 137.472 137.472 202.283 137.472 331.861zM896 426.667c0-106.069-42.923-201.984-112.469-271.531s-165.461-112.469-271.531-112.469-201.984 42.923-271.531 112.469-112.469 165.461-112.469 271.531 42.923 201.984 112.469 271.531 165.461 112.469 271.531 112.469 201.984-42.923 271.531-112.469 112.469-165.461 112.469-271.531zM469.333 682.667v-256c0-16.597 9.472-31.019 23.595-38.144l170.667-85.333c21.077-10.539 46.72-2.005 57.259 19.072s2.005 46.72-19.072 57.259l-147.115 73.515v229.632c0 23.552-19.115 42.667-42.667 42.667s-42.667-19.115-42.667-42.667z" />
<glyph unicode="&#xe911;" glyph-name="play" d="M236.416 846.55c-6.528 4.267-14.507 6.784-23.083 6.784-23.552 0-42.667-19.115-42.667-42.667v-768c-0.043-7.765 2.133-15.872 6.784-23.083 12.757-19.84 39.125-25.557 58.965-12.8l597.333 384c4.864 3.072 9.344 7.424 12.8 12.8 12.757 19.84 6.997 46.208-12.8 58.965zM256 732.502l475.776-305.835-475.776-305.835z" />
<glyph unicode="&#xe912;" glyph-name="openai" horiz-adv-x="1018" d="M398.606 365.676h-53.112v318.672c0 9.56 5.046 18.324 13.278 23.104l247.768 142.871c86.307 49.925 200.498 6.905 268.747-61.344 79.402-79.402 97.461-182.705 47.27-269.809l-45.942 26.556c56.564 98.257-15.402 182.44-38.772 205.809-53.909 53.909-141.544 89.494-204.747 53.112l-234.49-135.17v-303.801zM779.95 120.83v53.112c113.394 0 150.307 104.365 158.805 136.498 19.651 73.56 6.639 167.303-56.299 203.685l-234.49 135.17-262.639-151.635-26.556 45.942 275.917 159.336c8.232 4.78 18.324 4.78 26.556 0l247.768-142.871c86.307-49.925 106.224-170.224 80.996-263.436-28.946-108.614-109.411-175.801-210.058-175.801zM548.647-59.22c-78.606 0-146.058 36.913-184.83 104.1l45.942 26.556c56.564-98.257 165.444-77.809 197.311-69.311 73.826 19.651 148.448 77.809 148.448 150.838v270.606l-262.639 151.635 26.556 45.942 275.917-159.336c8.232-4.78 13.278-13.544 13.278-23.104v-286.008c0-99.585-94.539-177.129-187.751-202.091-24.697-6.639-48.863-9.826-72.232-9.826zM322.39 14.34c-67.452 0-137.56 35.32-185.095 83.12-79.402 79.402-97.461 182.705-47.27 269.809l45.942-26.556c-56.564-98.257 15.402-182.44 38.772-205.809 53.909-53.909 141.544-89.494 204.747-53.112l234.224 135.17v297.959h53.112v-312.83c0-9.56-5.046-18.324-13.278-23.104l-247.502-142.871c-26.025-15.137-54.44-21.776-83.651-21.776zM364.349 179.784c-4.515 0-9.295 1.062-13.278 3.452l-247.502 143.137c-86.307 49.925-106.224 170.49-81.261 263.701 28.946 108.349 109.411 175.535 210.058 175.535v-53.112c-113.394 0-150.307-104.365-158.805-136.232-19.651-73.56-6.639-167.303 56.564-203.95l234.224-135.17 262.639 151.635 26.556-45.942-275.917-159.336c-3.983-2.39-8.763-3.718-13.278-3.718zM492.88 265.295l-275.917 159.336c-8.232 4.78-13.278 13.544-13.278 23.104v286.008c0 99.585 94.539 177.129 187.751 202.091 108.349 28.946 206.871-7.17 257.062-94.008l-45.942-26.556c-56.564 98.257-165.444 77.809-197.311 69.311-73.826-19.651-148.448-77.809-148.448-150.838v-270.871l262.639-151.635-26.556-45.942z" />
<glyph unicode="&#xe914;" glyph-name="openapiinitiative" d="M897.664 960c-69.713-0.018-126.219-56.536-126.219-126.251 0-20.442 4.858-39.749 13.483-56.83l-0.331 0.723-275.072-275.072c-16.38 8.316-35.715 13.188-56.188 13.188-69.75 0-126.293-56.543-126.293-126.293s56.543-126.293 126.293-126.293c69.75 0 126.293 56.543 126.293 126.293 0 20.44-4.856 39.746-13.476 56.827l0.331-0.723 275.072 275.072c16.352-8.287 35.652-13.141 56.085-13.141 69.726 0 126.251 56.524 126.251 126.251 0 69.719-56.512 126.238-126.228 126.251h-0.001zM453.461 842.88c-3.072 0-6.101-0.128-9.131-0.171-3.072-0.085-6.101-0.085-9.173-0.213-19.072-0.768-38.101-2.731-56.96-5.888l-1.28-0.213-7.893-1.408-4.48-0.853c-6.29-1.19-10.449-2.107-14.578-3.103l2.247 0.458-1.365-0.341c-41.24-9.763-77.511-23.687-111.248-41.729l2.448 1.196-6.613-3.797c-2.688-1.451-5.333-2.987-7.979-4.48-1.963-1.152-3.968-2.176-5.973-3.371h-0.043l-0.427-0.213-1.536-0.853v-0.085l4.736-7.851 134.4-223.147c4.355 2.682 9.669 5.555 15.137 8.158l1.076 0.461c20.283 9.912 43.977 16.268 69.003 17.602l0.458 0.019c3.029 0.171 6.101 0.341 9.131 0.341zM471.723 842.453v-270.208c13.867-1.451 27.605-4.395 40.96-8.917l198.827 198.827c-7.381 5.12-14.848 10.112-22.528 14.805l-1.109 0.64c-2.389 1.493-4.779 2.859-7.168 4.267l-4.181 2.389-4.224 2.347c0.392-0.092-1.996 1.214-4.394 2.502l-2.902 1.424-1.152 0.597c-16.794 9.041-36.864 17.926-57.633 25.339l-3.167 0.986c-29.44 10.283-59.861 17.493-90.795 21.547l-3.797 0.512-3.84 0.427c-1.081 0.172-3.57 0.459-6.070 0.713l-11.978 0.993c-2.776 0.241-6.551 0.47-10.346 0.623l-0.534 0.017c-1.323 0.128-2.645 0.128-3.968 0.171zM204.032 768.085c-21.757-14.229-40.713-29.146-58.273-45.54l0.246 0.228 191.104-191.104c2.091 1.707 4.181 3.328 6.357 4.949l-0.469 0.768zM132.779 710.059c-2.133-2.133-4.181-4.395-6.272-6.571l-6.357-6.613c-14.080-15.232-26.88-31.147-38.485-47.701l-1.664-2.389c-2.144-2.999-5.182-7.533-8.139-12.124l-1.077-1.786c-41.224-63.856-67.001-141.152-70.371-224.222l-0.029-0.887-0.256-9.173-0.128-9.131h269.525c0 3.072 0.299 6.101 0.427 9.131 0.213 3.072 0.256 6.144 0.555 9.173 3.456 35.072 17.024 69.333 40.619 98.133 1.92 2.347 4.096 4.523 6.144 6.827 2.048 2.219 3.968 4.565 6.144 6.741zM826.325 647.595l-198.955-198.955c4.523-13.312 7.467-27.051 8.96-40.917h270.165l-0.171 4.011c-0.402 7.978-0.89 14.712-1.512 21.408l0.146-1.952-0.213 2.219c-0.553 5.894-0.946 9.426-1.372 12.948l0.262-2.665v0.384l-1.408 10.24v0.384c-3.585 24.515-8.454 46.031-14.789 66.91l0.837-3.209-0.128 0.427c-2.258 8.039-3.279 11.28-4.323 14.511l1.336-4.783-0.427 1.28c-2.224 7.143-3.225 10.034-4.247 12.914l1.303-4.21-0.853 2.347c-2.499 7.516-4.71 13.235-7.128 18.845l0.6-1.565c-2.085 5.474-3.422 8.67-4.807 11.839l0.839-2.154c-2.685 6.583-3.587 8.605-4.499 10.623l1.811-4.479-1.579 3.456c-2.643 6.009-3.786 8.406-4.944 10.794l1.531-3.498-1.024 2.219-4.096 8.277-0.597 1.152c-2.814 5.611-4.405 8.573-6.026 11.515l1.247-2.47-0.171 0.341c-8.984 16.455-17.52 30.117-26.737 43.268l0.966-1.454zM637.312 389.461c0-3.029-0.256-6.059-0.427-9.131-0.128-3.072-0.213-6.101-0.512-9.131-3.799-37.688-18.504-71.364-40.869-98.489l0.25 0.313c-1.92-2.347-4.096-4.565-6.144-6.827s-3.968-4.608-6.144-6.784l190.592-190.592c2.176 2.176 4.224 4.437 6.315 6.613 2.133 2.219 4.267 4.395 6.315 6.613 14.123 15.275 27.008 31.275 38.613 47.872l1.365 1.963 4.181 6.144 3.627 5.547 1.707 2.688c41.158 63.816 66.889 141.053 70.244 224.055l0.028 0.884c0.128 3.029 0.171 6.101 0.256 9.131 0.043 3.029 0.171 6.101 0.171 9.131zM0.427 371.2l0.171-3.968 0.427-7.637 0.213-3.243 0.725-8.789 0.213-1.963c0.299-3.243 0.64-6.528 1.024-9.728l0.128-0.939c0.649-5.623 1.145-9.24 1.688-12.842l-0.28 2.261c3.072-21.547 7.765-42.88 13.952-63.872l0.085-0.256c0.939-3.285 2.005-6.571 3.029-9.813l0.171-0.597 0.213-0.597c3.524-10.984 5.741-17.197 8.046-23.368l-1.518 4.637 1.28-3.413 2.517-6.315c2.067-5.455 3.404-8.665 4.791-11.849l-0.823 2.121 2.645-5.973 1.621-3.584 3.328-7.211 1.152-2.304c4.252-8.933 7.453-15.101 10.79-21.184l-1.19 2.368 1.067-1.835 231.595 139.52c-8.554 17.572-14.526 38-16.786 59.534l-0.068 0.797h-1.067zM21.973 249.771l-8.789-2.475 0.085-0.213zM296.107 294.656l-231.040-139.179c3.541-5.931 7.253-11.648 11.051-17.323l0.341-0.597 0.171-0.213 0.341-0.597h0.043c0.299-0.512 0.597-0.939 0.939-1.365l0.043-0.085v-0.043c5.045-7.439 9.226-13.234 13.537-18.924l-0.822 1.132 0.256-0.341c4.711-6.271 8.766-11.381 12.934-16.395l-0.56 0.694 1.408-1.707c1.835-2.219 3.669-4.395 5.547-6.528l2.432-2.773 4.779-5.419 2.731-2.944 1.237-1.323 3.541-3.84 1.493-1.493c2.091-2.176 4.181-4.395 6.357-6.528l190.549 190.549c-4.197 4.228-8.175 8.692-11.905 13.365l-0.255 0.331c-5.175 6.319-10.171 13.353-14.677 20.72l-0.47 0.827zM569.856 247.253c-2.133-1.707-4.267-3.371-6.4-4.949l0.469-0.768 138.965-230.699c6.443 4.224 12.8 8.533 19.029 13.099 13.44 9.899 26.453 20.651 38.997 32.256l-190.293 190.293zM337.024 247.125l-190.933-190.933c2.443-2.277 5.151-4.729 7.894-7.142l0.426-0.367c0.939-0.853 1.835-1.707 2.773-2.475l6.485-5.547c2.235-1.883 5.22-4.314 8.236-6.707l0.937-0.717 0.981-0.725 8.149-6.315 0.341-0.213c11.435-8.533 23.339-16.597 35.584-24.064l1.28-0.768 6.997-4.139 4.309-2.432c2.629-1.608 6.398-3.708 10.231-5.704l1.289-0.611c0.341-0.171 0.683-0.427 1.067-0.555 6.912-3.627 13.952-6.997 21.035-10.24l6.741 16.427 96.085 233.301c-11.368 6.121-21.161 12.727-30.23 20.181l0.321-0.256zM548.267 232.064c-2.603-1.579-5.291-2.987-7.979-4.437-25.221-13.813-55.256-21.937-87.189-21.937-18.672 0-36.695 2.778-53.679 7.942l1.305-0.341c-2.944 0.853-5.76 2.005-8.661 3.029-2.859 1.024-5.803 1.877-8.619 3.072l-102.613-249.216 0.725-0.299c0.223-0.105 0.492-0.207 0.769-0.288l0.041-0.010 0.213-0.128c2.219-0.896 4.523-1.707 6.784-2.56 2.859-1.152 5.675-2.261 8.533-3.285l4.352-1.707c29.952-10.539 61.013-17.92 92.501-22.101l3.712-0.512 11.179-1.237c2.332-0.28 6.041-0.615 9.767-0.882l0.985-0.057c0.981-0.043 2.048-0.043 3.029-0.128l7.851-0.469 4.779-0.213c4.037-0.193 8.768-0.304 13.524-0.304 0.615 0 1.23 0.002 1.845 0.006h2.039c0.132 0 0.287 0 0.443 0 26.868 0 53.192 2.328 78.781 6.794l-2.723-0.393 7.893 1.451 4.48 0.853 4.651 0.981 7.68 1.707 1.365 0.341c41.239 9.759 77.51 23.684 111.246 41.728l-2.446-1.195c2.219 1.195 4.437 2.56 6.656 3.797 2.688 1.451 5.333 2.987 7.979 4.48 1.835 1.024 3.712 2.005 5.547 3.115h0.043l0.085 0.085 0.171 0.085 0.299 0.171 1.792 1.067-4.693 7.808-4.693 7.851zM687.445 1.067l-1.792-1.067zM685.312-0.171h-0.043z" />
<glyph unicode="&#xe915;" glyph-name="visualstudio" d="M750.080 957.013c-0.263 0.004-0.574 0.006-0.885 0.006-16.648 0-31.812-6.357-43.196-16.775l0.048 0.044c-0.006 0-0.014 0-0.021 0s-0.015 0-0.023 0h0.001c-0.776-0.649-1.471-1.276-2.142-1.928l0.009 0.008-339.925-375.893-198.4 162.688-17.365 14.933c-7.334 6.125-16.863 9.844-27.26 9.844-5.914 0-11.547-1.203-16.668-3.378l0.279 0.105c-0.451-0.175-0.62-0.247-0.788-0.32l0.276 0.107-77.483-32c-1.388-0.56-2.469-1.061-3.524-1.605l0.239 0.112c-0.877-0.489-1.532-0.884-2.176-1.297l0.17 0.102c-0.753-0.411-1.283-0.722-1.805-1.044l0.184 0.106c-0.834-0.555-1.501-1.032-2.154-1.528l0.106 0.077c-0.548-0.407-0.978-0.743-1.402-1.086l0.079 0.062c-0.698-0.553-1.295-1.056-1.878-1.574l0.043 0.038c-0.56-0.49-1.060-0.949-1.549-1.421l0.013 0.013c-0.443-0.461-0.889-0.947-1.323-1.444l-0.042-0.049c-0.444-0.484-0.904-1.012-1.351-1.551l-0.057-0.070c-0.454-0.535-0.943-1.146-1.416-1.77l-0.078-0.107c-0.265-0.351-0.602-0.824-0.929-1.304l-0.095-0.147c-0.375-0.546-0.827-1.256-1.257-1.98l-0.108-0.196c-0.187-0.287-0.469-0.761-0.743-1.241l-0.11-0.21c-0.249-0.454-0.591-1.155-0.915-1.866l-0.109-0.267c-0.19-0.369-0.477-1.001-0.748-1.64l-0.105-0.28c-0.144-0.327-0.375-0.949-0.593-1.578l-0.090-0.3c-0.151-0.364-0.383-1.030-0.599-1.703l-0.084-0.302c-0.16-0.474-0.38-1.259-0.578-2.053l-0.062-0.294c-0.087-0.268-0.234-0.841-0.37-1.418l-0.057-0.289c-0.102-0.518-0.222-1.304-0.32-2.096l-0.021-0.208c-0.080-0.491-0.17-1.222-0.242-1.958l-0.014-0.175c-0.1-1.049-0.162-2.281-0.171-3.526v-454.799c0.107-17.535 10.776-32.552 25.961-39.020l0.279-0.106 77.483-32.555c4.844-2.072 10.48-3.277 16.397-3.277 10.609 0 20.313 3.872 27.777 10.279l-0.057-0.048 17.408 14.933 198.4 162.688 339.968-375.893c0.952-0.918 1.952-1.824 2.981-2.698l0.091-0.076c0.732-0.677 1.523-1.374 2.332-2.052l0.1-0.081c0.639-0.495 1.445-1.084 2.265-1.654l0.21-0.138c0.688-0.517 1.564-1.135 2.455-1.731l0.233-0.146c0.624-0.402 1.53-0.94 2.45-1.455l0.323-0.166c0.599-0.369 1.506-0.88 2.427-1.368l0.347-0.168c0.567-0.299 1.522-0.742 2.488-1.163l0.413-0.16c0.578-0.289 1.562-0.72 2.559-1.126l0.428-0.154c0.582-0.241 1.616-0.604 2.662-0.941l0.453-0.126c0.478-0.181 1.417-0.473 2.365-0.743l0.451-0.11c0.681-0.214 1.827-0.508 2.984-0.771l0.429-0.082c0.537-0.143 1.517-0.351 2.505-0.536l0.396-0.062c0.715-0.128 1.809-0.278 2.911-0.401l0.289-0.026c0.785-0.103 1.887-0.209 2.998-0.287l0.202-0.011c0.882-0.062 1.967-0.108 3.058-0.127l0.056-0.001c0.489-0.013 1.065-0.021 1.643-0.021s1.153 0.008 1.727 0.023l-0.085-0.002c1.283 0.049 2.437 0.126 3.581 0.232l-0.253-0.019c1.224 0.099 2.206 0.205 3.182 0.333l-0.324-0.035c1.604 0.208 2.868 0.418 4.118 0.664l-0.406-0.067c1.265 0.221 2.13 0.399 2.989 0.594l-0.429-0.082c1.596 0.385 2.738 0.708 3.867 1.061l-0.453-0.122c1.427 0.375 2.395 0.668 3.354 0.982l-0.452-0.128c1.438 0.526 2.424 0.929 3.398 1.355l-0.411-0.161c1.709 0.641 2.962 1.173 4.193 1.743l-0.396-0.164 210.859 101.376c7.953 3.902 14.684 9.093 20.205 15.374l0.062 0.072c1.271 1.429 2.53 2.986 3.715 4.6l0.125 0.178c-0.107-0.207-0.050-0.109 0.006-0.011l0.165 0.31c1.077 1.489 2.206 3.231 3.249 5.027l0.164 0.306c0.789 1.329 1.672 3.008 2.48 4.729l0.165 0.391c-0.038-0.098 0.090 0.14 0.216 0.378l0.168 0.347c0.486 1.069 1.078 2.579 1.613 4.116l0.136 0.449c0.056 0.088 0.258 0.611 0.453 1.136l0.144 0.443c0.365 1.050 0.805 2.577 1.188 4.126l0.092 0.44c0.039 0.081 0.172 0.612 0.297 1.144l0.087 0.434c0.228 1.015 0.482 2.464 0.687 3.93l0.038 0.337c0.072 0.33 0.192 1.056 0.299 1.786l0.042 0.348c0.111 1.067 0.203 2.412 0.253 3.768l0.003 0.114c0.078 0.939 0.14 2.111 0.169 3.29l0.002 0.080v687.403c0 0.013 0 0.028 0 0.043s0 0.030 0 0.045v-0.002c0.002 0.203 0.004 0.443 0.004 0.683s-0.001 0.48-0.004 0.719v-0.036c-0.039 2.302-0.193 4.521-0.457 6.706l0.030-0.306c-2.784 22.106-16.491 40.483-35.462 49.753l-0.378 0.167-210.773 101.333c-7.77 3.809-16.888 6.105-26.525 6.271l-0.056 0.001zM767.872 664.661v-433.365l-264.32 216.661zM128.213 594.091l132.139-146.133-132.139-146.091z" />
<glyph unicode="&#xea86;" glyph-name="mail4" d="M512 960c-282.77 0-512-229.23-512-512s229.23-512 512-512 512 229.23 512 512-229.23 512-512 512zM256 704h512c9.138 0 18.004-1.962 26.144-5.662l-282.144-329.168-282.144 329.17c8.14 3.696 17.006 5.66 26.144 5.66zM192 256v384c0 1.34 0.056 2.672 0.14 4l187.664-218.942-185.598-185.598c-1.444 5.336-2.206 10.886-2.206 16.54zM768 192h-512c-5.654 0-11.202 0.762-16.54 2.208l182.118 182.118 90.422-105.498 90.424 105.494 182.116-182.12c-5.34-1.44-10.886-2.202-16.54-2.202zM832 256c0-5.654-0.762-11.2-2.206-16.54l-185.6 185.598 187.666 218.942c0.084-1.328 0.14-2.66 0.14-4v-384z" />
<glyph unicode="&#xeab0;" glyph-name="github" d="M512.008 947.358c-282.738 0-512.008-229.218-512.008-511.998 0-226.214 146.704-418.132 350.136-485.836 25.586-4.738 34.992 11.11 34.992 24.632 0 12.204-0.48 52.542-0.696 95.324-142.448-30.976-172.504 60.41-172.504 60.41-23.282 59.176-56.848 74.916-56.848 74.916-46.452 31.778 3.51 31.124 3.51 31.124 51.4-3.61 78.476-52.766 78.476-52.766 45.672-78.27 119.776-55.64 149.004-42.558 4.588 33.086 17.852 55.68 32.506 68.464-113.73 12.942-233.276 56.85-233.276 253.032 0 55.898 20.004 101.574 52.76 137.428-5.316 12.9-22.854 64.972 4.952 135.5 0 0 43.006 13.752 140.84-52.49 40.836 11.348 84.636 17.036 128.154 17.234 43.502-0.198 87.336-5.886 128.256-17.234 97.734 66.244 140.656 52.49 140.656 52.49 27.872-70.528 10.35-122.6 5.036-135.5 32.82-35.856 52.694-81.532 52.694-137.428 0-196.654-119.778-239.95-233.79-252.624 18.364-15.89 34.724-47.046 34.724-94.812 0-68.508-0.596-123.644-0.596-140.508 0-13.628 9.222-29.594 35.172-24.566 203.322 67.776 349.842 259.626 349.842 485.768 0 282.78-229.234 511.998-511.992 511.998z" />
</font>
</defs>
</svg>
